<?xml version="1.0" standalone="no"?>
 <!DOCTYPE svg PUBLIC "-//W3C//DTD SVG 1.1//EN" 
 "http://www.w3.org/Graphics/SVG/1.1/DTD/svg11.dtd"> 
<svg
  xmlns:svg="http://www.w3.org/2000/svg"
  xmlns="http://www.w3.org/2000/svg"
  xmlns:xlink="http://www.w3.org/1999/xlink"
  version="1.1"
  width="268.4526mm" height="36.4744mm" viewBox="0.0000 0.0000 268.4526 36.4744">
<title>SVG Image created as CIS-User_Eco2.svg date 2023/04/24 15:17:59 </title>
  <desc>Image generated by PCBNEW </desc>
<g style="fill:#000000; fill-opacity:1.0000;stroke:#000000; stroke-opacity:1.0000;
stroke-linecap:round; stroke-linejoin:round;"
 transform="translate(0 0) scale(1 1)">
</g>
<g style="fill:#000000; fill-opacity:0.0; 
stroke:#000000; stroke-width:0.0000; stroke-opacity:1; 
stroke-linecap:round; stroke-linejoin:round;">
</g>
<g style="fill:#D8C852; fill-opacity:0.0; 
stroke:#D8C852; stroke-width:0.0000; stroke-opacity:1; 
stroke-linecap:round; stroke-linejoin:round;">
</g>
<g style="fill:#D8C852; fill-opacity:0.0; 
stroke:#D8C852; stroke-width:0.5000; stroke-opacity:1; 
stroke-linecap:round; stroke-linejoin:round;">
<path d="M228.3532 18.8629
L237.6478 18.8629
" />
<path d="M83.6267 23.1745 A1.7533 1.7533 0.0 0 0 85.3781 24.9260" />
<path d="M172.3031 22.1537
L172.3031 17.3020
" />
<path d="M190.5137 22.1537
L190.5137 17.3020
" />
<path d="M199.0103 17.3020 A1.2498 1.2498 0.0 0 0 197.7618 16.0533" />
<path d="M191.7618 16.0533
L197.7618 16.0533
" />
<path d="M237.6478 18.8629 A0.2499 0.2499 0.0 0 0 237.8979 18.6129" />
<path d="M93.1291 18.3229 A2.8899 2.8899 0.0 0 0 92.2790 16.2736" />
<path d="M91.2531 32.9857 A3.0104 3.0104 0.0 1 0 85.2531 32.9857" />
<path d="M82.8969 12.4644
L85.8084 15.3760
" />
<path d="M2.9531 29.8314
L2.9531 10.6401
" />
<path d="M179.2531 32.9857 A3.0104 3.0104 0.0 1 0 173.2531 32.9857" />
<path d="M191.7618 16.0533 A1.2497 1.2497 0.0 0 0 190.5137 17.3020" />
<path d="M179.1209 25.1006 A1.8654 1.8654 0.0 0 0 177.7925 24.5508" />
<path d="M199.0103 21.7630 A1.8629 1.8629 0.0 0 0 199.5605 23.0914" />
<path d="M237.8979 18.6129
L237.8979 9.1183
" />
<path d="M91.2531 7.4857
L173.2531 7.4857
" />
<path d="M190.0107 17.3020
L190.0107 22.1537
" />
<path d="M84.1294 23.1745
L84.1294 18.7136
" />
<path d="M173.5512 16.0533
L179.5512 16.0533
" />
<path d="M190.0107 22.1537 A2.8909 2.8909 0.0 0 0 190.8608 24.2030" />
<path d="M178.7654 25.4561 A1.3684 1.3684 0.0 0 0 177.7925 25.0534" />
<path d="M261.5531 10.6401
L261.5531 29.8314
" />
<path d="M0.2505 33.2383
L0.2505 7.2383
" />
<path d="M192.9101 25.0534
L196.0031 25.0534
" />
<path d="M158.3405 27.6116 A0.5014 0.5014 0.0 0 0 158.8405 27.1116" />
<path d="M83.6267 18.7136 A1.3642 1.3642 0.0 0 0 83.2239 17.7407" />
<path d="M228.1031 9.1183
L228.1031 18.6129
" />
<path d="M204.8370 28.3676 A0.2481 0.2481 0.0 0 0 205.0148 28.4413" />
<path d="M1.1318 5.1196 A2.9935 2.9935 0.0 0 0 0.2505 7.2383" />
<path d="M173.5512 15.5507 A1.7532 1.7532 0.0 0 0 171.8001 17.3020" />
<path d="M158.3405 27.6116
L106.1605 27.6116
" />
<path d="M180.7997 21.7630 A1.8632 1.8632 0.0 0 0 181.3499 23.0914" />
<path d="M85.8084 15.3760 A1.8685 1.8685 0.0 0 0 87.1368 15.9256" />
<path d="M171.8001 22.1537 A2.8912 2.8912 0.0 0 0 172.6502 24.2030" />
<path d="M174.6995 25.0534
L177.7925 25.0534
" />
<path d="M190.5136 22.1537 A2.3994 2.3994 0.0 0 0 192.9101 24.5508" />
<path d="M237.6478 8.8683
L228.3532 8.8683
" />
<path d="M205.0148 28.4413 A0.2512 0.2512 0.0 0 0 205.1925 28.3676" />
<path d="M228.3532 8.8683 A0.2498 0.2498 0.0 0 0 228.1031 9.1183" />
<path d="M158.8405 13.3316
L158.8405 27.1116
" />
<path d="M197.7618 15.5506
L191.7618 15.5506
" />
<path d="M190.8608 24.2030 A2.8900 2.8900 0.0 0 0 192.9101 25.0534" />
<path d="M2.9610 10.6401 A3.0104 3.0104 0.0 0 0 6.7531 7.4858" />
<path d="M257.7531 32.9857
L179.2531 32.9857
" />
<path d="M6.7530 32.9857 A3.0104 3.0104 0.0 0 0 2.9610 29.8314" />
<path d="M78.3029 12.1088 A0.2579 0.2579 0.0 0 0 77.9473 12.1088" />
<path d="M186.8042 28.4413 A0.2515 0.2515 0.0 0 0 186.9819 28.3676" />
<path d="M200.2429 28.0121
L197.3315 25.1006
" />
<path d="M92.6264 18.3229
L92.6264 23.1745
" />
<path d="M205.1925 28.3676 A0.2519 0.2519 0.0 0 0 205.1925 28.0121" />
<path d="M179.5512 15.5506
L173.5512 15.5506
" />
<path d="M1.1317 35.3571 A2.9936 2.9936 0.0 0 0 3.2505 36.2383" />
<path d="M186.9819 28.3676 A0.2519 0.2519 0.0 0 0 186.9819 28.0121" />
<path d="M82.8969 12.1089 A0.2517 0.2517 0.0 0 0 82.8969 12.4644" />
<path d="M199.8874 28.3676 A0.2520 0.2520 0.0 0 0 200.2429 28.3676" />
<path d="M172.6503 24.2030 A2.8899 2.8899 0.0 0 0 174.6995 25.0534" />
<path d="M264.2505 7.2383
L264.2505 33.2383
" />
<path d="M106.1605 12.8316 A0.5015 0.5015 0.0 0 0 105.6605 13.3316" />
<path d="M191.7618 15.5507 A1.7532 1.7532 0.0 0 0 190.0107 17.3020" />
<path d="M83.2524 12.1088 A0.2520 0.2520 0.0 0 0 82.8969 12.1088" />
<path d="M180.7997 17.3020 A1.2497 1.2497 0.0 0 0 179.5512 16.0533" />
<path d="M196.9760 25.4561 A1.3683 1.3683 0.0 0 0 196.0031 25.0534" />
<path d="M84.1294 18.7136 A1.8665 1.8665 0.0 0 0 83.5794 17.3852" />
<path d="M181.3027 21.7630 A1.3655 1.3655 0.0 0 0 181.7054 22.7359" />
<path d="M158.8405 13.3316 A0.5015 0.5015 0.0 0 0 158.3405 12.8316" />
<path d="M186.9819 28.0121
L181.7054 22.7359
" />
<path d="M87.1368 15.9256
L90.2298 15.9256
" />
<path d="M91.3780 24.4229 A1.2496 1.2496 0.0 0 0 92.6264 23.1745" />
<path d="M196.0031 24.5508
L192.9101 24.5508
" />
<path d="M182.0324 28.3676 A0.2520 0.2520 0.0 0 0 182.0324 28.0121" />
<path d="M237.8978 9.1183 A0.2502 0.2502 0.0 0 0 237.6478 8.8683" />
<path d="M186.6264 28.3676 A0.2480 0.2480 0.0 0 0 186.8042 28.4413" />
<path d="M91.3780 24.4230
L85.3781 24.4230
" />
<path d="M257.7532 7.4858 A3.0103 3.0103 0.0 0 0 261.5452 10.6401" />
<path d="M0.2505 33.2383 A2.9875 2.9875 0.0 0 0 1.1318 35.3571" />
<path d="M181.6768 28.3676 A0.2520 0.2520 0.0 0 0 182.0324 28.3676" />
<path d="M173.5512 16.0532 A1.2497 1.2497 0.0 0 0 172.3031 17.3020" />
<path d="M205.1925 28.0121
L199.9160 22.7359
" />
<path d="M181.3499 23.0914
L186.6264 28.3676
" />
<path d="M106.1605 12.8316
L158.3405 12.8316
" />
<path d="M263.3692 35.3571 A2.9934 2.9934 0.0 0 0 264.2505 33.2383" />
<path d="M261.2505 36.2383
L3.2505 36.2383
" />
<path d="M105.6605 27.1116
L105.6605 13.3316
" />
<path d="M85.2531 7.4858 A3.0104 3.0104 0.0 1 0 91.2531 7.4858" />
<path d="M6.7531 7.4857
L85.2531 7.4857
" />
<path d="M83.6268 18.7136
L83.6268 23.1745
" />
<path d="M92.2790 16.2736 A2.8885 2.8885 0.0 0 0 90.2298 15.4232" />
<path d="M173.2531 7.4858 A3.0104 3.0104 0.0 1 0 179.2531 7.4858" />
<path d="M86.1639 15.0204
L83.2524 12.1088
" />
<path d="M228.1031 18.6129 A0.2502 0.2502 0.0 0 0 228.3532 18.8629" />
<path d="M181.3027 21.7630
L181.3027 17.3020
" />
<path d="M90.2298 15.4232
L87.1368 15.4232
" />
<path d="M92.6265 18.3229 A2.3995 2.3995 0.0 0 0 90.2298 15.9256" />
<path d="M77.9474 12.1089 A0.2516 0.2516 0.0 0 0 77.9473 12.4644" />
<path d="M172.3030 22.1537 A2.3992 2.3992 0.0 0 0 174.6995 24.5508" />
<path d="M199.5133 21.7630 A1.3659 1.3659 0.0 0 0 199.9160 22.7359" />
<path d="M171.8001 17.3020
L171.8001 22.1537
" />
<path d="M3.2505 4.2383
L261.2505 4.2383
" />
<path d="M264.2505 7.2383 A2.9871 2.9871 0.0 0 0 263.3692 5.1196" />
<path d="M84.1294 23.1745 A1.2499 1.2499 0.0 0 0 85.3781 24.4230" />
<path d="M199.5133 17.3020 A1.7535 1.7535 0.0 0 0 197.7618 15.5506" />
<path d="M181.3027 17.3020 A1.7537 1.7537 0.0 0 0 179.5512 15.5506" />
<path d="M261.5452 29.8314 A3.0104 3.0104 0.0 0 0 257.7531 32.9857" />
<path d="M263.3692 5.1195 A2.9935 2.9935 0.0 0 0 261.2505 4.2383" />
<path d="M177.7925 24.5508
L174.6995 24.5508
" />
<path d="M85.3781 24.9260
L91.3780 24.9260
" />
<path d="M85.2531 32.9857
L6.7531 32.9857
" />
<path d="M179.2531 7.4857
L257.7531 7.4857
" />
<path d="M200.2429 28.3676 A0.2520 0.2520 0.0 0 0 200.2429 28.0121" />
<path d="M3.2505 4.2383 A2.9873 2.9873 0.0 0 0 1.1318 5.1196" />
<path d="M182.0324 28.0121
L179.1209 25.1006
" />
<path d="M83.5794 17.3852
L78.3029 12.1088
" />
<path d="M77.9473 12.4644
L83.2239 17.7407
" />
<path d="M173.2531 32.9857
L91.2531 32.9857
" />
<path d="M178.7654 25.4562
L181.6768 28.3676
" />
<path d="M199.0103 17.3020
L199.0103 21.7630
" />
<path d="M197.3315 25.1006 A1.8654 1.8654 0.0 0 0 196.0031 24.5508" />
<path d="M93.1290 23.1745
L93.1290 18.3229
" />
<path d="M180.7997 17.3020
L180.7997 21.7630
" />
<path d="M199.5605 23.0914
L204.8370 28.3676
" />
<path d="M86.1639 15.0205 A1.3686 1.3686 0.0 0 0 87.1368 15.4232" />
<path d="M199.5133 21.7630
L199.5133 17.3020
" />
<path d="M105.6604 27.1116 A0.5014 0.5014 0.0 0 0 106.1605 27.6116" />
<path d="M196.9760 25.4562
L199.8874 28.3676
" />
<path d="M91.3780 24.9260 A1.7531 1.7531 0.0 0 0 93.1290 23.1745" />
<path d="M261.2505 36.2383 A2.9877 2.9877 0.0 0 0 263.3692 35.3571" />
</g>
<g style="fill:#D8C852; fill-opacity:0.0; 
stroke:#D8C852; stroke-width:0.1500; stroke-opacity:1; 
stroke-linecap:round; stroke-linejoin:round;">
<g transform="rotate(-90.000000 253.1031 34.3357)">
<text x="253.1031" y="34.8357"
textLength="8.6798" font-size="1.3333" lengthAdjust="spacingAndGlyphs"
text-anchor="middle" opacity="0">3,2000 mm</text>
</g>
<g class="stroked-text"><desc>3,2000 mm</desc>
<path d="M252.4704 38.4453
L252.4704 37.8262
" />
<path d="M252.4704 37.8262
L252.8514 38.1596
" />
<path d="M252.8514 38.1596
L252.8514 38.0167
" />
<path d="M252.8514 38.0167
L252.8990 37.9215
" />
<path d="M252.8990 37.9215
L252.9466 37.8738
" />
<path d="M252.9466 37.8738
L253.0419 37.8262
" />
<path d="M253.0419 37.8262
L253.2800 37.8262
" />
<path d="M253.2800 37.8262
L253.3752 37.8738
" />
<path d="M253.3752 37.8738
L253.4228 37.9215
" />
<path d="M253.4228 37.9215
L253.4704 38.0167
" />
<path d="M253.4704 38.0167
L253.4704 38.3024
" />
<path d="M253.4704 38.3024
L253.4228 38.3977
" />
<path d="M253.4228 38.3977
L253.3752 38.4453
" />
<path d="M253.4228 37.3500
L253.4704 37.3500
" />
<path d="M253.4704 37.3500
L253.5657 37.3977
" />
<path d="M253.5657 37.3977
L253.6133 37.4453
" />
<path d="M252.5657 36.9691
L252.5181 36.9215
" />
<path d="M252.5181 36.9215
L252.4704 36.8262
" />
<path d="M252.4704 36.8262
L252.4704 36.5881
" />
<path d="M252.4704 36.5881
L252.5181 36.4929
" />
<path d="M252.5181 36.4929
L252.5657 36.4453
" />
<path d="M252.5657 36.4453
L252.6609 36.3977
" />
<path d="M252.6609 36.3977
L252.7562 36.3977
" />
<path d="M252.7562 36.3977
L252.8990 36.4453
" />
<path d="M252.8990 36.4453
L253.4704 37.0167
" />
<path d="M253.4704 37.0167
L253.4704 36.3977
" />
<path d="M252.4704 35.7786
L252.4704 35.6834
" />
<path d="M252.4704 35.6834
L252.5181 35.5881
" />
<path d="M252.5181 35.5881
L252.5657 35.5405
" />
<path d="M252.5657 35.5405
L252.6609 35.4929
" />
<path d="M252.6609 35.4929
L252.8514 35.4453
" />
<path d="M252.8514 35.4453
L253.0895 35.4453
" />
<path d="M253.0895 35.4453
L253.2800 35.4929
" />
<path d="M253.2800 35.4929
L253.3752 35.5405
" />
<path d="M253.3752 35.5405
L253.4228 35.5881
" />
<path d="M253.4228 35.5881
L253.4704 35.6834
" />
<path d="M253.4704 35.6834
L253.4704 35.7786
" />
<path d="M253.4704 35.7786
L253.4228 35.8738
" />
<path d="M253.4228 35.8738
L253.3752 35.9215
" />
<path d="M253.3752 35.9215
L253.2800 35.9691
" />
<path d="M253.2800 35.9691
L253.0895 36.0167
" />
<path d="M253.0895 36.0167
L252.8514 36.0167
" />
<path d="M252.8514 36.0167
L252.6609 35.9691
" />
<path d="M252.6609 35.9691
L252.5657 35.9215
" />
<path d="M252.5657 35.9215
L252.5181 35.8738
" />
<path d="M252.5181 35.8738
L252.4704 35.7786
" />
<path d="M252.4704 34.8262
L252.4704 34.7310
" />
<path d="M252.4704 34.7310
L252.5181 34.6357
" />
<path d="M252.5181 34.6357
L252.5657 34.5881
" />
<path d="M252.5657 34.5881
L252.6609 34.5405
" />
<path d="M252.6609 34.5405
L252.8514 34.4929
" />
<path d="M252.8514 34.4929
L253.0895 34.4929
" />
<path d="M253.0895 34.4929
L253.2800 34.5405
" />
<path d="M253.2800 34.5405
L253.3752 34.5881
" />
<path d="M253.3752 34.5881
L253.4228 34.6357
" />
<path d="M253.4228 34.6357
L253.4704 34.7310
" />
<path d="M253.4704 34.7310
L253.4704 34.8262
" />
<path d="M253.4704 34.8262
L253.4228 34.9215
" />
<path d="M253.4228 34.9215
L253.3752 34.9691
" />
<path d="M253.3752 34.9691
L253.2800 35.0167
" />
<path d="M253.2800 35.0167
L253.0895 35.0643
" />
<path d="M253.0895 35.0643
L252.8514 35.0643
" />
<path d="M252.8514 35.0643
L252.6609 35.0167
" />
<path d="M252.6609 35.0167
L252.5657 34.9691
" />
<path d="M252.5657 34.9691
L252.5181 34.9215
" />
<path d="M252.5181 34.9215
L252.4704 34.8262
" />
<path d="M252.4704 33.8738
L252.4704 33.7786
" />
<path d="M252.4704 33.7786
L252.5181 33.6834
" />
<path d="M252.5181 33.6834
L252.5657 33.6357
" />
<path d="M252.5657 33.6357
L252.6609 33.5881
" />
<path d="M252.6609 33.5881
L252.8514 33.5405
" />
<path d="M252.8514 33.5405
L253.0895 33.5405
" />
<path d="M253.0895 33.5405
L253.2800 33.5881
" />
<path d="M253.2800 33.5881
L253.3752 33.6357
" />
<path d="M253.3752 33.6357
L253.4228 33.6834
" />
<path d="M253.4228 33.6834
L253.4704 33.7786
" />
<path d="M253.4704 33.7786
L253.4704 33.8738
" />
<path d="M253.4704 33.8738
L253.4228 33.9691
" />
<path d="M253.4228 33.9691
L253.3752 34.0167
" />
<path d="M253.3752 34.0167
L253.2800 34.0643
" />
<path d="M253.2800 34.0643
L253.0895 34.1119
" />
<path d="M253.0895 34.1119
L252.8514 34.1119
" />
<path d="M252.8514 34.1119
L252.6609 34.0643
" />
<path d="M252.6609 34.0643
L252.5657 34.0167
" />
<path d="M252.5657 34.0167
L252.5181 33.9691
" />
<path d="M252.5181 33.9691
L252.4704 33.8738
" />
<path d="M253.4704 32.5119
L252.8038 32.5119
" />
<path d="M252.8990 32.5119
L252.8514 32.4643
" />
<path d="M252.8514 32.4643
L252.8038 32.3691
" />
<path d="M252.8038 32.3691
L252.8038 32.2262
" />
<path d="M252.8038 32.2262
L252.8514 32.1310
" />
<path d="M252.8514 32.1310
L252.9466 32.0834
" />
<path d="M252.9466 32.0834
L253.4704 32.0834
" />
<path d="M252.9466 32.0834
L252.8514 32.0357
" />
<path d="M252.8514 32.0357
L252.8038 31.9405
" />
<path d="M252.8038 31.9405
L252.8038 31.7977
" />
<path d="M252.8038 31.7977
L252.8514 31.7024
" />
<path d="M252.8514 31.7024
L252.9466 31.6548
" />
<path d="M252.9466 31.6548
L253.4704 31.6548
" />
<path d="M253.4704 31.1786
L252.8038 31.1786
" />
<path d="M252.8990 31.1786
L252.8514 31.1310
" />
<path d="M252.8514 31.1310
L252.8038 31.0357
" />
<path d="M252.8038 31.0357
L252.8038 30.8929
" />
<path d="M252.8038 30.8929
L252.8514 30.7977
" />
<path d="M252.8514 30.7977
L252.9466 30.7500
" />
<path d="M252.9466 30.7500
L253.4704 30.7500
" />
<path d="M252.9466 30.7500
L252.8514 30.7024
" />
<path d="M252.8514 30.7024
L252.8038 30.6072
" />
<path d="M252.8038 30.6072
L252.8038 30.4643
" />
<path d="M252.8038 30.4643
L252.8514 30.3691
" />
<path d="M252.8514 30.3691
L252.9466 30.3215
" />
<path d="M252.9466 30.3215
L253.4704 30.3215
" />
</g></g>
<g style="fill:#D8C852; fill-opacity:0.0; 
stroke:#D8C852; stroke-width:0.1000; stroke-opacity:1; 
stroke-linecap:round; stroke-linejoin:round;">
<path d="M257.3531 32.7357
L253.6666 32.7357
" />
<path d="M257.3531 35.9357
L253.6666 35.9357
" />
<path d="M254.2531 32.7357
L254.2531 35.9357
" />
<path d="M254.2531 32.7357
L254.2531 35.9357
" />
<path d="M254.2531 32.7357
L254.8395 33.8623
" />
<path d="M254.2531 32.7357
L253.6666 33.8623
" />
<path d="M254.2531 35.9357
L253.6666 34.8092
" />
<path d="M254.2531 35.9357
L254.8395 34.8092
" />
<g >
</g>
<g >
</g>
<g >
</g>
<g >
</g>
<g >
</g>
<g >
</g>
<g >
</g>
<g >
</g>
<g >
</g>
<g >
</g>
<g >
</g>
<g >
</g>
<g >
</g>
<g >
</g>
<g >
</g>
<g >
</g>
<g >
</g>
<g >
</g>
<g >
</g>
<g >
</g>
<g >
</g>
<g >
</g>
<g >
</g>
<g >
</g>
<g >
</g>
<g >
</g>
<g >
</g>
<g >
</g>
<g >
</g>
<g >
</g>
<g >
</g>
<g >
</g>
<g >
</g>
<g >
</g>
<g >
</g>
<g >
</g>
<g >
</g>
<g >
</g>
<g >
</g>
<g >
</g>
<g >
</g>
<g >
</g>
<g >
</g>
<g >
</g>
<g >
</g>
<g >
</g>
<g >
</g>
<g >
</g>
<g >
</g>
<g >
</g>
<g >
</g>
<g >
</g>
<g >
</g>
<g >
</g>
<g >
</g>
<g >
</g>
<g >
</g>
<g >
</g>
<g >
</g>
<g >
</g>
<g >
</g>
<g >
</g>
<g >
</g>
<g >
</g>
<g >
</g>
<g >
</g>
<g >
</g>
<g >
</g>
<g >
</g>
<g >
</g>
<g >
</g>
<g >
</g>
<g >
</g>
<g >
</g>
<g >
</g>
<g >
</g>
<g >
</g>
<g >
</g>
<g >
</g>
<g >
</g>
<g >
</g>
<g >
</g>
<g >
</g>
<g >
</g>
<g >
</g>
<g >
</g>
<g >
</g>
<g >
</g>
<g >
</g>
<g >
</g>
<g >
</g>
<g >
</g>
<g >
</g>
<g >
</g>
<g >
</g>
<g >
</g>
<g >
</g>
<g >
</g>
<g >
</g>
<g >
</g>
<g >
</g>
<g >
</g>
<g >
</g>
<g >
</g>
<g >
</g>
<g >
</g>
<g >
</g>
<g >
</g>
<g >
</g>
<g >
</g>
<g >
</g>
<g >
</g>
<g >
</g>
<g >
</g>
<g >
</g>
<g >
</g>
<g >
</g>
<g >
</g>
<g >
</g>
<g >
</g>
<g >
</g>
<g >
</g>
<g >
</g>
<g >
</g>
<g >
</g>
<g >
</g>
<g >
</g>
<g style="fill:#D8C852; fill-opacity:0.0; 
stroke:#D8C852; stroke-width:0.1000; stroke-opacity:1; 
stroke-linecap:round; stroke-linejoin:round;">
</g>
<g style="fill:#D8C852; fill-opacity:1.0000; 
stroke:#D8C852; stroke-width:0.0000; stroke-opacity:1; 
stroke-linecap:round; stroke-linejoin:round;">
<circle cx="3.7531" cy="7.7357" r="1.5000" /> 
</g>
<g style="fill:#D8C852; fill-opacity:1.0000; 
stroke:#D8C852; stroke-width:0.0212; stroke-opacity:1; 
stroke-linecap:round; stroke-linejoin:round;">
</g>
<g style="fill:#D8C852; fill-opacity:1.0000; 
stroke:#D8C852; stroke-width:0.0000; stroke-opacity:1; 
stroke-linecap:round; stroke-linejoin:round;">
<circle cx="3.7531" cy="32.7357" r="1.5000" /> 
</g>
<g style="fill:#D8C852; fill-opacity:1.0000; 
stroke:#D8C852; stroke-width:0.0212; stroke-opacity:1; 
stroke-linecap:round; stroke-linejoin:round;">
</g>
<g style="fill:#D8C852; fill-opacity:1.0000; 
stroke:#D8C852; stroke-width:0.0000; stroke-opacity:1; 
stroke-linecap:round; stroke-linejoin:round;">
<circle cx="88.2531" cy="7.7357" r="1.5000" /> 
</g>
<g style="fill:#D8C852; fill-opacity:1.0000; 
stroke:#D8C852; stroke-width:0.0212; stroke-opacity:1; 
stroke-linecap:round; stroke-linejoin:round;">
</g>
<g style="fill:#D8C852; fill-opacity:1.0000; 
stroke:#D8C852; stroke-width:0.0000; stroke-opacity:1; 
stroke-linecap:round; stroke-linejoin:round;">
<circle cx="88.2531" cy="32.7357" r="1.5000" /> 
</g>
<g style="fill:#D8C852; fill-opacity:1.0000; 
stroke:#D8C852; stroke-width:0.0212; stroke-opacity:1; 
stroke-linecap:round; stroke-linejoin:round;">
</g>
<g style="fill:#D8C852; fill-opacity:1.0000; 
stroke:#D8C852; stroke-width:0.0000; stroke-opacity:1; 
stroke-linecap:round; stroke-linejoin:round;">
<circle cx="176.2531" cy="7.7357" r="1.5000" /> 
</g>
<g style="fill:#D8C852; fill-opacity:1.0000; 
stroke:#D8C852; stroke-width:0.0212; stroke-opacity:1; 
stroke-linecap:round; stroke-linejoin:round;">
</g>
<g style="fill:#D8C852; fill-opacity:1.0000; 
stroke:#D8C852; stroke-width:0.0000; stroke-opacity:1; 
stroke-linecap:round; stroke-linejoin:round;">
<circle cx="176.2531" cy="32.7070" r="1.5000" /> 
</g>
<g style="fill:#D8C852; fill-opacity:1.0000; 
stroke:#D8C852; stroke-width:0.0212; stroke-opacity:1; 
stroke-linecap:round; stroke-linejoin:round;">
</g>
<g style="fill:#D8C852; fill-opacity:1.0000; 
stroke:#D8C852; stroke-width:0.0000; stroke-opacity:1; 
stroke-linecap:round; stroke-linejoin:round;">
<circle cx="260.7531" cy="7.7357" r="1.5000" /> 
</g>
<g style="fill:#D8C852; fill-opacity:1.0000; 
stroke:#D8C852; stroke-width:0.0212; stroke-opacity:1; 
stroke-linecap:round; stroke-linejoin:round;">
</g>
<g style="fill:#D8C852; fill-opacity:1.0000; 
stroke:#D8C852; stroke-width:0.0000; stroke-opacity:1; 
stroke-linecap:round; stroke-linejoin:round;">
<circle cx="260.7531" cy="32.7357" r="1.5000" /> 
</g>
<g style="fill:#D8C852; fill-opacity:1.0000; 
stroke:#D8C852; stroke-width:0.0212; stroke-opacity:1; 
stroke-linecap:round; stroke-linejoin:round;">
</g>
<g >
</g>
<g >
</g>
<g >
</g>
<g >
</g>
<g >
</g>
<g >
</g>
<g >
</g>
<g >
</g>
<g >
</g>
<g >
</g>
<g >
</g>
<g >
</g>
<g >
</g>
<g >
</g>
<g >
</g>
<g >
</g>
<g >
</g>
<g >
</g>
<g >
</g>
<g >
</g>
<g >
</g>
<g >
</g>
<g >
</g>
<g >
</g>
<g >
</g>
<g >
</g>
<g >
</g>
<g >
</g>
<g >
</g>
<g >
</g>
<g >
</g>
<g >
</g>
<g >
</g>
<g >
</g>
<g >
</g>
<g >
</g>
<g >
</g>
<g >
</g>
<g >
</g>
<g >
</g>
<g >
</g>
<g >
</g>
<g >
</g>
<g >
</g>
<g >
</g>
<g >
</g>
<g >
</g>
<g >
</g>
<g >
</g>
<g >
</g>
<g >
</g>
<g >
</g>
<g >
</g>
<g >
</g>
<g >
</g>
<g >
</g>
<g >
</g>
<g >
</g>
</g>
<g style="fill:#000000; fill-opacity:1.0000; 
stroke:#000000; stroke-width:0.0212; stroke-opacity:1; 
stroke-linecap:round; stroke-linejoin:round;">
</g>
<g style="fill:#D0D2CD; fill-opacity:1.0000; 
stroke:#D0D2CD; stroke-width:0.0212; stroke-opacity:1; 
stroke-linecap:round; stroke-linejoin:round;">
</g>
<g style="fill:#D0D2CD; fill-opacity:0.0; 
stroke:#D0D2CD; stroke-width:1.0000; stroke-opacity:1; 
stroke-linecap:round; stroke-linejoin:round;">
<path d="M85.0531 7.7357 A3.2000 3.2000 0.0 0 0 91.4531 7.7357" />
<path d="M85.0531 32.7357
L67.3531 32.6358
" />
<path d="M173.0531 32.7357
L91.4531 32.7357
" />
<path d="M261.3807 29.5979 A3.2000 3.2000 0.0 0 0 257.5531 32.7358" />
<path d="M91.4531 32.7357 A3.2000 3.2000 0.0 0 0 85.0531 32.7357" />
<path d="M179.4531 32.7357 A3.2000 3.2000 0.0 0 0 173.0531 32.7357" />
<path d="M257.5531 7.7358 A3.2000 3.2000 0.0 0 0 261.3611 10.8774" />
<path d="M91.4531 7.7357
L173.0531 7.7357
" />
<path d="M67.3531 32.6358
L67.3531 7.7357
" />
<path d="M67.3531 7.7357
L85.0531 7.7357
" />
<path d="M179.4531 7.7357
L257.5531 7.7357
" />
<path d="M261.3611 10.8774
L261.3806 29.5979
" />
<path d="M257.5531 32.7357
L179.4531 32.7357
" />
<path d="M173.0531 7.7357 A3.2000 3.2000 0.0 0 0 179.4531 7.7357" />
<g >
</g>
<g >
</g>
<g >
</g>
<g >
</g>
<g >
</g>
<g >
</g>
<g >
</g>
<g >
</g>
<g >
</g>
<g >
</g>
<g >
</g>
<g >
</g>
<g >
</g>
<g >
</g>
<g >
</g>
<g >
</g>
<g >
</g>
<g >
</g>
<g >
</g>
<g >
</g>
<g >
</g>
<g >
</g>
<g >
</g>
<g >
</g>
<g >
</g>
<g >
</g>
<g >
</g>
<g >
</g>
<g >
</g>
<g >
</g>
<g >
</g>
<g >
</g>
<g >
</g>
<g >
</g>
<g >
</g>
<g >
</g>
<g >
</g>
<g >
</g>
<g >
</g>
<g >
</g>
<g >
</g>
<g >
</g>
<g >
</g>
<g >
</g>
<g >
</g>
<g >
</g>
<g >
</g>
<g >
</g>
<g >
</g>
<g >
</g>
<g >
</g>
<g >
</g>
<g >
</g>
<g >
</g>
<g >
</g>
<g >
</g>
<g >
</g>
<g >
</g>
<g >
</g>
<g >
</g>
<g >
</g>
<g >
</g>
<g >
</g>
<g >
</g>
<g >
</g>
<g >
</g>
<g >
</g>
<g >
</g>
<g >
</g>
<g >
</g>
<g >
</g>
<g >
</g>
<g >
</g>
<g >
</g>
<g >
</g>
<g >
</g>
<g >
</g>
<g >
</g>
<g >
</g>
<g >
</g>
<g >
</g>
<g >
</g>
<g >
</g>
<g >
</g>
<g >
</g>
<g >
</g>
<g >
</g>
<g >
</g>
<g >
</g>
<g >
</g>
<g >
</g>
<g >
</g>
<g >
</g>
<g >
</g>
<g >
</g>
<g >
</g>
<g >
</g>
<g >
</g>
<g >
</g>
<g >
</g>
<g >
</g>
<g >
</g>
<g >
</g>
<g >
</g>
<g >
</g>
<g >
</g>
<g >
</g>
<g >
</g>
<g >
</g>
<g >
</g>
<g >
</g>
<g >
</g>
<g >
</g>
<g >
</g>
<g >
</g>
<g >
</g>
<g >
</g>
<g >
</g>
<g >
</g>
<g >
</g>
<g >
</g>
<g >
</g>
<g >
</g>
<g >
</g>
<g >
</g>
<g >
</g>
<g >
</g>
<g >
</g>
<g >
</g>
<g >
</g>
<g >
</g>
<g >
</g>
<g >
</g>
<g >
</g>
<g >
</g>
<g >
</g>
<g >
</g>
<g >
</g>
<g >
</g>
<g >
</g>
<g >
</g>
<g >
</g>
<g >
</g>
<g >
</g>
<g >
</g>
<g >
</g>
<g >
</g>
<g >
</g>
<g >
</g>
<g >
</g>
<g >
</g>
<g >
</g>
<g >
</g>
<g >
</g>
<g >
</g>
<g >
</g>
<g >
</g>
<g >
</g>
<g >
</g>
<g >
</g>
<g >
</g>
<g >
</g>
<g >
</g>
<g >
</g>
<g >
</g>
<g >
</g>
<g >
</g>
<g >
</g>
<g >
</g>
<g >
</g>
<g >
</g>
<g >
</g>
<g >
</g>
<g >
</g>
<g >
</g>
<g >
</g>
<g >
</g>
<g >
</g>
<g >
</g>
<g >
</g>
<g >
</g>
<g >
</g>
<g >
</g>
<g >
</g>
<g >
</g>
</g> 
</svg>
