G04 #@! TF.GenerationSoftware,KiCad,Pcbnew,6.0.9-8da3e8f707~117~ubuntu22.04.1*
G04 #@! TF.CreationDate,2023-01-10T20:00:55+01:00*
G04 #@! TF.ProjectId,CIS,4349532e-6b69-4636-9164-5f7063625858,2.1.0*
G04 #@! TF.SameCoordinates,PX5268310PY6353990*
G04 #@! TF.FileFunction,Soldermask,Top*
G04 #@! TF.FilePolarity,Negative*
%FSLAX46Y46*%
G04 Gerber Fmt 4.6, Leading zero omitted, Abs format (unit mm)*
G04 Created by KiCad (PCBNEW 6.0.9-8da3e8f707~117~ubuntu22.04.1) date 2023-01-10 20:00:55*
%MOMM*%
%LPD*%
G01*
G04 APERTURE LIST*
G04 Aperture macros list*
%AMRoundRect*
0 Rectangle with rounded corners*
0 $1 Rounding radius*
0 $2 $3 $4 $5 $6 $7 $8 $9 X,Y pos of 4 corners*
0 Add a 4 corners polygon primitive as box body*
4,1,4,$2,$3,$4,$5,$6,$7,$8,$9,$2,$3,0*
0 Add four circle primitives for the rounded corners*
1,1,$1+$1,$2,$3*
1,1,$1+$1,$4,$5*
1,1,$1+$1,$6,$7*
1,1,$1+$1,$8,$9*
0 Add four rect primitives between the rounded corners*
20,1,$1+$1,$2,$3,$4,$5,0*
20,1,$1+$1,$4,$5,$6,$7,0*
20,1,$1+$1,$6,$7,$8,$9,0*
20,1,$1+$1,$8,$9,$2,$3,0*%
%AMRotRect*
0 Rectangle, with rotation*
0 The origin of the aperture is its center*
0 $1 length*
0 $2 width*
0 $3 Rotation angle, in degrees counterclockwise*
0 Add horizontal line*
21,1,$1,$2,0,0,$3*%
%AMOutline4P*
0 Free polygon, 4 corners , with rotation*
0 The origin of the aperture is its center*
0 number of corners: always 4*
0 $1 to $8 corner X, Y*
0 $9 Rotation angle, in degrees counterclockwise*
0 create outline with 4 corners*
4,1,4,$1,$2,$3,$4,$5,$6,$7,$8,$1,$2,$9*%
%AMFreePoly0*
4,1,48,0.036020,0.199191,0.037970,0.199714,0.040958,0.198321,0.057086,0.195477,0.069630,0.184951,0.084467,0.178033,0.290533,-0.028033,0.293203,-0.031847,0.294953,-0.032857,0.296081,-0.035957,0.305473,-0.049370,0.306900,-0.065680,0.312500,-0.081066,0.312500,-0.125000,0.310782,-0.134742,0.311361,-0.138024,0.309695,-0.140910,0.307977,-0.150652,0.295451,-0.165579,0.285709,-0.182453,
0.279350,-0.184767,0.275000,-0.189952,0.255809,-0.193336,0.237500,-0.200000,-0.237500,-0.200000,-0.247242,-0.198282,-0.250524,-0.198861,-0.253410,-0.197195,-0.263152,-0.195477,-0.278079,-0.182951,-0.294953,-0.173209,-0.297267,-0.166850,-0.302452,-0.162500,-0.305836,-0.143309,-0.312500,-0.125000,-0.312500,0.125000,-0.310782,0.134742,-0.311361,0.138024,-0.309695,0.140910,-0.307977,0.150652,
-0.295451,0.165579,-0.285709,0.182453,-0.279350,0.184767,-0.275000,0.189952,-0.255809,0.193336,-0.237500,0.200000,0.031434,0.200000,0.036020,0.199191,0.036020,0.199191,$1*%
%AMFreePoly1*
4,1,48,0.247242,0.198282,0.250524,0.198861,0.253410,0.197195,0.263152,0.195477,0.278079,0.182951,0.294953,0.173209,0.297267,0.166850,0.302452,0.162500,0.305836,0.143309,0.312500,0.125000,0.312500,0.081066,0.311691,0.076480,0.312214,0.074529,0.310820,0.071540,0.307977,0.055414,0.297452,0.042871,0.290533,0.028033,0.084467,-0.178033,0.080653,-0.180703,0.079643,-0.182453,
0.076543,-0.183581,0.063130,-0.192973,0.046819,-0.194400,0.031434,-0.200000,-0.237500,-0.200000,-0.247242,-0.198282,-0.250524,-0.198861,-0.253410,-0.197195,-0.263152,-0.195477,-0.278079,-0.182951,-0.294953,-0.173209,-0.297267,-0.166850,-0.302452,-0.162500,-0.305836,-0.143309,-0.312500,-0.125000,-0.312500,0.125000,-0.310782,0.134742,-0.311361,0.138024,-0.309695,0.140910,-0.307977,0.150652,
-0.295451,0.165579,-0.285709,0.182453,-0.279350,0.184767,-0.275000,0.189952,-0.255809,0.193336,-0.237500,0.200000,0.237500,0.200000,0.247242,0.198282,0.247242,0.198282,$1*%
%AMFreePoly2*
4,1,48,0.134742,0.310782,0.138024,0.311361,0.140910,0.309695,0.150652,0.307977,0.165579,0.295451,0.182453,0.285709,0.184767,0.279350,0.189952,0.275000,0.193336,0.255809,0.200000,0.237500,0.200000,-0.237500,0.198282,-0.247242,0.198861,-0.250524,0.197195,-0.253410,0.195477,-0.263152,0.182951,-0.278079,0.173209,-0.294953,0.166850,-0.297267,0.162500,-0.302452,0.143309,-0.305836,
0.125000,-0.312500,-0.125000,-0.312500,-0.134742,-0.310782,-0.138024,-0.311361,-0.140910,-0.309695,-0.150652,-0.307977,-0.165579,-0.295451,-0.182453,-0.285709,-0.184767,-0.279350,-0.189952,-0.275000,-0.193336,-0.255809,-0.200000,-0.237500,-0.200000,0.031434,-0.199191,0.036020,-0.199714,0.037970,-0.198321,0.040958,-0.195477,0.057086,-0.184951,0.069630,-0.178033,0.084467,0.028033,0.290533,
0.031847,0.293203,0.032857,0.294953,0.035957,0.296081,0.049370,0.305473,0.065680,0.306900,0.081066,0.312500,0.125000,0.312500,0.134742,0.310782,0.134742,0.310782,$1*%
%AMFreePoly3*
4,1,48,-0.076480,0.311691,-0.074530,0.312214,-0.071542,0.310821,-0.055414,0.307977,-0.042870,0.297451,-0.028033,0.290533,0.178033,0.084467,0.180703,0.080653,0.182453,0.079643,0.183581,0.076543,0.192973,0.063130,0.194400,0.046820,0.200000,0.031434,0.200000,-0.237500,0.198282,-0.247242,0.198861,-0.250524,0.197195,-0.253410,0.195477,-0.263152,0.182951,-0.278079,0.173209,-0.294953,
0.166850,-0.297267,0.162500,-0.302452,0.143309,-0.305836,0.125000,-0.312500,-0.125000,-0.312500,-0.134742,-0.310782,-0.138024,-0.311361,-0.140910,-0.309695,-0.150652,-0.307977,-0.165579,-0.295451,-0.182453,-0.285709,-0.184767,-0.279350,-0.189952,-0.275000,-0.193336,-0.255809,-0.200000,-0.237500,-0.200000,0.237500,-0.198282,0.247242,-0.198861,0.250524,-0.197195,0.253410,-0.195477,0.263152,
-0.182951,0.278079,-0.173209,0.294953,-0.166850,0.297267,-0.162500,0.302452,-0.143309,0.305836,-0.125000,0.312500,-0.081066,0.312500,-0.076480,0.311691,-0.076480,0.311691,$1*%
%AMFreePoly4*
4,1,48,0.247242,0.198282,0.250524,0.198861,0.253410,0.197195,0.263152,0.195477,0.278079,0.182951,0.294953,0.173209,0.297267,0.166850,0.302452,0.162500,0.305836,0.143309,0.312500,0.125000,0.312500,-0.125000,0.310782,-0.134742,0.311361,-0.138024,0.309695,-0.140910,0.307977,-0.150652,0.295451,-0.165579,0.285709,-0.182453,0.279350,-0.184767,0.275000,-0.189952,0.255809,-0.193336,
0.237500,-0.200000,-0.031434,-0.200000,-0.036020,-0.199191,-0.037971,-0.199714,-0.040960,-0.198320,-0.057086,-0.195477,-0.069629,-0.184952,-0.084467,-0.178033,-0.290533,0.028033,-0.293203,0.031847,-0.294953,0.032857,-0.296081,0.035957,-0.305473,0.049370,-0.306900,0.065681,-0.312500,0.081066,-0.312500,0.125000,-0.310782,0.134742,-0.311361,0.138024,-0.309695,0.140910,-0.307977,0.150652,
-0.295451,0.165579,-0.285709,0.182453,-0.279350,0.184767,-0.275000,0.189952,-0.255809,0.193336,-0.237500,0.200000,0.237500,0.200000,0.247242,0.198282,0.247242,0.198282,$1*%
%AMFreePoly5*
4,1,48,0.247242,0.198282,0.250524,0.198861,0.253410,0.197195,0.263152,0.195477,0.278079,0.182951,0.294953,0.173209,0.297267,0.166850,0.302452,0.162500,0.305836,0.143309,0.312500,0.125000,0.312500,-0.125000,0.310782,-0.134742,0.311361,-0.138024,0.309695,-0.140910,0.307977,-0.150652,0.295451,-0.165579,0.285709,-0.182453,0.279350,-0.184767,0.275000,-0.189952,0.255809,-0.193336,
0.237500,-0.200000,-0.237500,-0.200000,-0.247242,-0.198282,-0.250524,-0.198861,-0.253410,-0.197195,-0.263152,-0.195477,-0.278079,-0.182951,-0.294953,-0.173209,-0.297267,-0.166850,-0.302452,-0.162500,-0.305836,-0.143309,-0.312500,-0.125000,-0.312500,-0.081066,-0.311691,-0.076480,-0.312214,-0.074530,-0.310821,-0.071542,-0.307977,-0.055414,-0.297451,-0.042870,-0.290533,-0.028033,-0.084467,0.178033,
-0.080653,0.180703,-0.079643,0.182453,-0.076543,0.183581,-0.063130,0.192973,-0.046820,0.194400,-0.031434,0.200000,0.237500,0.200000,0.247242,0.198282,0.247242,0.198282,$1*%
%AMFreePoly6*
4,1,48,0.134742,0.310782,0.138024,0.311361,0.140910,0.309695,0.150652,0.307977,0.165579,0.295451,0.182453,0.285709,0.184767,0.279350,0.189952,0.275000,0.193336,0.255809,0.200000,0.237500,0.200000,-0.031434,0.199191,-0.036020,0.199714,-0.037971,0.198320,-0.040960,0.195477,-0.057086,0.184952,-0.069629,0.178033,-0.084467,-0.028033,-0.290533,-0.031847,-0.293203,-0.032857,-0.294953,
-0.035957,-0.296081,-0.049370,-0.305473,-0.065681,-0.306900,-0.081066,-0.312500,-0.125000,-0.312500,-0.134742,-0.310782,-0.138024,-0.311361,-0.140910,-0.309695,-0.150652,-0.307977,-0.165579,-0.295451,-0.182453,-0.285709,-0.184767,-0.279350,-0.189952,-0.275000,-0.193336,-0.255809,-0.200000,-0.237500,-0.200000,0.237500,-0.198282,0.247242,-0.198861,0.250524,-0.197195,0.253410,-0.195477,0.263152,
-0.182951,0.278079,-0.173209,0.294953,-0.166850,0.297267,-0.162500,0.302452,-0.143309,0.305836,-0.125000,0.312500,0.125000,0.312500,0.134742,0.310782,0.134742,0.310782,$1*%
%AMFreePoly7*
4,1,48,0.134742,0.310782,0.138024,0.311361,0.140910,0.309695,0.150652,0.307977,0.165579,0.295451,0.182453,0.285709,0.184767,0.279350,0.189952,0.275000,0.193336,0.255809,0.200000,0.237500,0.200000,-0.237500,0.198282,-0.247242,0.198861,-0.250524,0.197195,-0.253410,0.195477,-0.263152,0.182951,-0.278079,0.173209,-0.294953,0.166850,-0.297267,0.162500,-0.302452,0.143309,-0.305836,
0.125000,-0.312500,0.081066,-0.312500,0.076480,-0.311691,0.074529,-0.312214,0.071540,-0.310820,0.055414,-0.307977,0.042871,-0.297452,0.028033,-0.290533,-0.178033,-0.084467,-0.180703,-0.080653,-0.182453,-0.079643,-0.183581,-0.076543,-0.192973,-0.063130,-0.194400,-0.046819,-0.200000,-0.031434,-0.200000,0.237500,-0.198282,0.247242,-0.198861,0.250524,-0.197195,0.253410,-0.195477,0.263152,
-0.182951,0.278079,-0.173209,0.294953,-0.166850,0.297267,-0.162500,0.302452,-0.143309,0.305836,-0.125000,0.312500,0.125000,0.312500,0.134742,0.310782,0.134742,0.310782,$1*%
G04 Aperture macros list end*
%ADD10RotRect,0.400000X0.600000X225.000000*%
%ADD11C,2.540000*%
%ADD12RotRect,0.600000X0.500000X135.000000*%
%ADD13R,0.600000X0.500000*%
%ADD14R,0.400000X0.600000*%
%ADD15R,0.600000X0.400000*%
%ADD16R,0.900000X0.500000*%
%ADD17R,1.200000X0.900000*%
%ADD18R,0.800000X0.900000*%
%ADD19RotRect,0.600000X0.500000X45.000000*%
%ADD20R,0.500000X0.600000*%
%ADD21R,0.300000X0.850000*%
%ADD22R,0.850000X0.300000*%
%ADD23R,1.300000X1.300000*%
%ADD24RotRect,0.600000X0.500000X225.000000*%
%ADD25R,0.750000X0.800000*%
%ADD26R,1.000000X1.250000*%
%ADD27R,2.500000X1.000000*%
%ADD28R,1.250000X1.000000*%
%ADD29RotRect,1.000000X1.250000X225.000000*%
%ADD30R,4.700000X1.200000*%
%ADD31R,0.580000X0.775000*%
%ADD32R,0.310000X3.890000*%
%ADD33Outline4P,-0.280000X-1.945000X0.280000X-1.395000X0.280000X1.395000X-0.280000X1.945000X180.000000*%
%ADD34Outline4P,-0.290000X-0.594500X0.290000X-0.000500X0.290000X0.000500X-0.290000X0.594500X0.000000*%
%ADD35Outline4P,-0.290000X-0.594500X0.290000X-0.000500X0.290000X0.000500X-0.290000X0.594500X180.000000*%
%ADD36Outline4P,-0.280000X-1.945000X0.280000X-1.395000X0.280000X1.395000X-0.280000X1.945000X0.000000*%
%ADD37R,0.700000X0.450000*%
%ADD38R,0.450000X0.700000*%
%ADD39RotRect,0.400000X0.600000X45.000000*%
%ADD40R,1.000000X0.300000*%
%ADD41R,0.825000X0.950000*%
%ADD42R,1.450000X0.450000*%
%ADD43RotRect,1.400000X1.200000X315.000000*%
%ADD44R,1.060000X0.650000*%
%ADD45R,0.800000X0.750000*%
%ADD46R,0.500000X0.900000*%
%ADD47R,1.400000X1.200000*%
%ADD48C,0.250000*%
%ADD49R,0.500000X0.300000*%
%ADD50R,0.990000X0.800000*%
%ADD51RoundRect,0.087500X0.087500X-0.187500X0.087500X0.187500X-0.087500X0.187500X-0.087500X-0.187500X0*%
%ADD52RoundRect,0.087500X0.187500X-0.087500X0.187500X0.087500X-0.187500X0.087500X-0.187500X-0.087500X0*%
%ADD53Outline4P,-0.280000X-1.945000X0.280000X-1.395000X0.280000X1.395000X-0.280000X1.945000X270.000000*%
%ADD54Outline4P,-0.290000X-0.594500X0.290000X-0.000500X0.290000X0.000500X-0.290000X0.594500X90.000000*%
%ADD55R,0.775000X0.580000*%
%ADD56R,3.890000X0.310000*%
%ADD57Outline4P,-0.280000X-1.945000X0.280000X-1.395000X0.280000X1.395000X-0.280000X1.945000X90.000000*%
%ADD58Outline4P,-0.290000X-0.594500X0.290000X-0.000500X0.290000X0.000500X-0.290000X0.594500X270.000000*%
%ADD59R,0.650000X1.060000*%
%ADD60R,0.900000X1.200000*%
%ADD61C,3.200000*%
%ADD62R,1.800000X1.800000*%
%ADD63C,1.800000*%
%ADD64C,2.000000*%
%ADD65C,3.000000*%
%ADD66RoundRect,0.200000X-0.600000X0.200000X-0.600000X-0.200000X0.600000X-0.200000X0.600000X0.200000X0*%
%ADD67RoundRect,0.250001X-1.249999X0.799999X-1.249999X-0.799999X1.249999X-0.799999X1.249999X0.799999X0*%
%ADD68O,2.500000X13.000000*%
%ADD69R,0.800000X0.300000*%
%ADD70R,0.650000X0.300000*%
%ADD71R,0.950000X0.400000*%
%ADD72RoundRect,0.150000X-0.150000X0.650000X-0.150000X-0.650000X0.150000X-0.650000X0.150000X0.650000X0*%
%ADD73RotRect,1.000000X1.250000X45.000000*%
%ADD74R,1.000000X2.500000*%
%ADD75FreePoly0,90.000000*%
%ADD76RoundRect,0.100000X0.100000X-0.212500X0.100000X0.212500X-0.100000X0.212500X-0.100000X-0.212500X0*%
%ADD77FreePoly1,90.000000*%
%ADD78FreePoly2,90.000000*%
%ADD79RoundRect,0.100000X0.212500X-0.100000X0.212500X0.100000X-0.212500X0.100000X-0.212500X-0.100000X0*%
%ADD80FreePoly3,90.000000*%
%ADD81FreePoly4,90.000000*%
%ADD82FreePoly5,90.000000*%
%ADD83FreePoly6,90.000000*%
%ADD84FreePoly7,90.000000*%
%ADD85C,2.374900*%
%ADD86C,0.990600*%
G04 APERTURE END LIST*
D10*
X49018198Y9619638D03*
X48381802Y8983242D03*
D11*
X182000000Y22501440D03*
D12*
X154908909Y19122531D03*
X154131091Y19900349D03*
D13*
X149150000Y8501440D03*
X148050000Y8501440D03*
D14*
X149050000Y7301440D03*
X148150000Y7301440D03*
X162745000Y6461440D03*
X163645000Y6461440D03*
X148150000Y9701440D03*
X149050000Y9701440D03*
X148150000Y12301440D03*
X149050000Y12301440D03*
X148150000Y11001440D03*
X149050000Y11001440D03*
X149050000Y13601440D03*
X148150000Y13601440D03*
X148150000Y4701440D03*
X149050000Y4701440D03*
X149050000Y6001440D03*
X148150000Y6001440D03*
D15*
X150500000Y3651440D03*
X150500000Y4551440D03*
X151800000Y3651440D03*
X151800000Y4551440D03*
X153050000Y4551440D03*
X153050000Y3651440D03*
D13*
X161645000Y6501440D03*
X160545000Y6501440D03*
X161745000Y12801440D03*
X160645000Y12801440D03*
D14*
X162745000Y12801440D03*
X163645000Y12801440D03*
D16*
X155500000Y14150040D03*
X155500000Y12650040D03*
D17*
X162005000Y2801440D03*
D18*
X163725000Y2801440D03*
X163725000Y5001440D03*
X161825000Y5001440D03*
D19*
X150431091Y19322531D03*
X151208909Y20100349D03*
D20*
X156800000Y13101440D03*
X156800000Y14201440D03*
D21*
X154550000Y11051440D03*
X154050000Y11051440D03*
X153550000Y11051440D03*
X153050000Y11051440D03*
X152550000Y11051440D03*
X152050000Y11051440D03*
D22*
X151350000Y10351440D03*
X151350000Y9851440D03*
X151350000Y9351440D03*
X151350000Y8851440D03*
X151350000Y8351440D03*
X151350000Y7851440D03*
D21*
X152050000Y7151440D03*
X152550000Y7151440D03*
X153050000Y7151440D03*
X153550000Y7151440D03*
X154050000Y7151440D03*
X154550000Y7151440D03*
D22*
X155250000Y7851440D03*
X155250000Y8351440D03*
X155250000Y8851440D03*
X155250000Y9351440D03*
X155250000Y9851440D03*
X155250000Y10351440D03*
D23*
X153950000Y8451440D03*
X153950000Y9751440D03*
X152650000Y9751440D03*
X152650000Y8451440D03*
D17*
X162005000Y9121440D03*
D18*
X163725000Y9121440D03*
X163725000Y11321440D03*
X161825000Y11321440D03*
D15*
X156600000Y11650040D03*
X156600000Y10750040D03*
D24*
X54988909Y7490349D03*
X54211091Y6712531D03*
D25*
X28600000Y2075040D03*
X28600000Y3575040D03*
D20*
X32800000Y3775040D03*
X32800000Y4875040D03*
D13*
X58550000Y6301440D03*
X59650000Y6301440D03*
D20*
X62500000Y8501440D03*
X62500000Y9601440D03*
D26*
X32500000Y1675040D03*
X30500000Y1675040D03*
D27*
X76000000Y20101440D03*
X76000000Y23101440D03*
X9400000Y9200040D03*
X9400000Y12200040D03*
D20*
X7200000Y11950040D03*
X7200000Y10850040D03*
X45300000Y19951440D03*
X45300000Y21051440D03*
X44200000Y21051440D03*
X44200000Y19951440D03*
D13*
X44150000Y22001440D03*
X45250000Y22001440D03*
D28*
X56600000Y6101440D03*
X56600000Y8101440D03*
D29*
X50707107Y7408547D03*
X49292893Y5994333D03*
D12*
X54588909Y20712531D03*
X53811091Y21490349D03*
X46188909Y12312531D03*
X45411091Y13090349D03*
D13*
X47150000Y16601440D03*
X46050000Y16601440D03*
D20*
X69800000Y9850040D03*
X69800000Y10950040D03*
D13*
X70800000Y17201440D03*
X69700000Y17201440D03*
D27*
X72900000Y20101440D03*
X72900000Y23101440D03*
D30*
X68100000Y19046440D03*
X68100000Y22356440D03*
D31*
X51960000Y5158440D03*
D32*
X51515000Y3601440D03*
D33*
X51080000Y3601440D03*
D34*
X51960000Y4771440D03*
X51960000Y2431440D03*
D31*
X51960000Y2044440D03*
X54040000Y2044440D03*
D35*
X54040000Y4771440D03*
D36*
X54920000Y3601440D03*
D35*
X54040000Y2431440D03*
D32*
X54485000Y3601440D03*
D31*
X54040000Y5159440D03*
D37*
X14000000Y17950040D03*
X14000000Y19250040D03*
X12000000Y18600040D03*
D38*
X10450000Y20500040D03*
X9150000Y20500040D03*
X9800000Y18500040D03*
D37*
X9400000Y22251440D03*
X9400000Y23551440D03*
X7400000Y22901440D03*
D15*
X34000000Y3426440D03*
X34000000Y4326440D03*
D14*
X8150000Y4400000D03*
X9050000Y4400000D03*
X9050000Y5600040D03*
X8150000Y5600040D03*
X9050000Y6800000D03*
X8150000Y6800000D03*
X11750000Y7200040D03*
X12650000Y7200040D03*
D15*
X15300000Y19350040D03*
X15300000Y18450040D03*
D14*
X7050000Y19501440D03*
X7950000Y19501440D03*
D15*
X11700000Y21350040D03*
X11700000Y20450040D03*
X10700000Y23151440D03*
X10700000Y22251440D03*
D14*
X7050000Y20701440D03*
X7950000Y20701440D03*
D15*
X154100000Y13251440D03*
X154100000Y12351440D03*
D39*
X49281802Y8083242D03*
X49918198Y8719638D03*
D40*
X76600000Y15051440D03*
X76600000Y15551440D03*
X76600000Y16051440D03*
X76600000Y16551440D03*
X76600000Y17051440D03*
X76600000Y17551440D03*
X76600000Y18051440D03*
X76600000Y18551440D03*
X72200000Y18551440D03*
X72200000Y18051440D03*
X72200000Y17551440D03*
X72200000Y17051440D03*
X72200000Y16551440D03*
X72200000Y16051440D03*
X72200000Y15551440D03*
X72200000Y15051440D03*
D41*
X74000000Y17751440D03*
X74800000Y16801440D03*
X74000000Y16801440D03*
X74800000Y17751440D03*
X74000000Y15851440D03*
X74800000Y15851440D03*
D42*
X20020000Y5050040D03*
X20020000Y5700040D03*
X20020000Y6350040D03*
X20020000Y7000040D03*
X20020000Y7650040D03*
X20020000Y8300040D03*
X20020000Y8950040D03*
X14120000Y8950040D03*
X14120000Y8300040D03*
X14120000Y7650040D03*
X14120000Y7000040D03*
X14120000Y6350040D03*
X14120000Y5700040D03*
X14120000Y5050040D03*
D43*
X151421142Y17978217D03*
X152976777Y16422582D03*
X154178858Y17624663D03*
X152623223Y19180298D03*
D13*
X37970000Y11311440D03*
X39070000Y11311440D03*
X69700000Y16111440D03*
X70800000Y16111440D03*
D15*
X34000000Y5126440D03*
X34000000Y6026440D03*
D25*
X78000000Y18551440D03*
X78000000Y17051440D03*
X41550000Y7166440D03*
X41550000Y8666440D03*
D20*
X43100000Y21051440D03*
X43100000Y19951440D03*
D12*
X45388909Y11512531D03*
X44611091Y12290349D03*
D13*
X47150000Y17701440D03*
X46050000Y17701440D03*
D44*
X17000000Y10750040D03*
X17000000Y11700040D03*
X17000000Y12650040D03*
X14800000Y12650040D03*
X14800000Y10750040D03*
D45*
X18850000Y11600040D03*
X20350000Y11600040D03*
D46*
X13150000Y12200040D03*
X11650000Y12200040D03*
D13*
X19450000Y10400040D03*
X18350000Y10400040D03*
D25*
X21800000Y15750040D03*
X21800000Y14250040D03*
D16*
X18900000Y12850040D03*
X18900000Y14350040D03*
D12*
X55388909Y21512531D03*
X54611091Y22290349D03*
D47*
X58600000Y7951440D03*
X60800000Y7951440D03*
X60800000Y9651440D03*
X58600000Y9651440D03*
D48*
X53000000Y7466768D03*
X52540211Y7926557D03*
X52080422Y8386347D03*
X51620633Y8846136D03*
X51160844Y9305925D03*
X50701054Y9765714D03*
X50241265Y10225503D03*
X49781476Y10685292D03*
X49321687Y11145081D03*
X48861898Y11604870D03*
X48402109Y12064659D03*
X47942320Y12524449D03*
X47482531Y12984238D03*
X47022742Y13444027D03*
X46562952Y13903816D03*
X53459789Y7926557D03*
X53000000Y8386347D03*
X52540211Y8846136D03*
X52080422Y9305925D03*
X51620633Y9765714D03*
X51160844Y10225503D03*
X50701054Y10685292D03*
X50241265Y11145081D03*
X49781476Y11604870D03*
X49321687Y12064659D03*
X48861898Y12524449D03*
X48402109Y12984238D03*
X47942320Y13444027D03*
X47482531Y13903816D03*
X47022742Y14363605D03*
X53919578Y8386347D03*
X53459789Y8846136D03*
X53000000Y9305925D03*
X52540211Y9765714D03*
X52080422Y10225503D03*
X51620633Y10685292D03*
X51160844Y11145081D03*
X50701054Y11604870D03*
X50241265Y12064659D03*
X49781476Y12524449D03*
X49321687Y12984238D03*
X48861898Y13444027D03*
X48402109Y13903816D03*
X47942320Y14363605D03*
X47482531Y14823394D03*
X54379367Y8846136D03*
X53919578Y9305925D03*
X53459789Y9765714D03*
X53000000Y10225503D03*
X52540211Y10685292D03*
X52080422Y11145081D03*
X51620633Y11604870D03*
X51160844Y12064659D03*
X50701054Y12524449D03*
X50241265Y12984238D03*
X49781476Y13444027D03*
X49321687Y13903816D03*
X48861898Y14363605D03*
X48402109Y14823394D03*
X47942320Y15283183D03*
X54839156Y9305925D03*
X54379367Y9765714D03*
X53919578Y10225503D03*
X53459789Y10685292D03*
X49781476Y14363605D03*
X49321687Y14823394D03*
X48861898Y15283183D03*
X48402109Y15742972D03*
X55298946Y9765714D03*
X54839156Y10225503D03*
X54379367Y10685292D03*
X53919578Y11145081D03*
X53000000Y12064659D03*
X52540211Y12524449D03*
X52080422Y12984238D03*
X51620633Y13444027D03*
X51160844Y13903816D03*
X50241265Y14823394D03*
X49781476Y15283183D03*
X49321687Y15742972D03*
X48861898Y16202761D03*
X55758735Y10225503D03*
X55298946Y10685292D03*
X54839156Y11145081D03*
X54379367Y11604870D03*
X53459789Y12524449D03*
X53000000Y12984238D03*
X52540211Y13444027D03*
X52080422Y13903816D03*
X51620633Y14363605D03*
X50701054Y15283183D03*
X50241265Y15742972D03*
X49781476Y16202761D03*
X49321687Y16662551D03*
X56218524Y10685292D03*
X55758735Y11145081D03*
X55298946Y11604870D03*
X54839156Y12064659D03*
X53919578Y12984238D03*
X53459789Y13444027D03*
X53000000Y13903816D03*
X52540211Y14363605D03*
X52080422Y14823394D03*
X51160844Y15742972D03*
X50701054Y16202761D03*
X50241265Y16662551D03*
X49781476Y17122340D03*
X56678313Y11145081D03*
X56218524Y11604870D03*
X55758735Y12064659D03*
X55298946Y12524449D03*
X54379367Y13444027D03*
X53919578Y13903816D03*
X53459789Y14363605D03*
X53000000Y14823394D03*
X52540211Y15283183D03*
X51620633Y16202761D03*
X51160844Y16662551D03*
X50701054Y17122340D03*
X50241265Y17582129D03*
X57138102Y11604870D03*
X56678313Y12064659D03*
X56218524Y12524449D03*
X55758735Y12984238D03*
X54839156Y13903816D03*
X54379367Y14363605D03*
X53919578Y14823394D03*
X53459789Y15283183D03*
X53000000Y15742972D03*
X52080422Y16662551D03*
X51620633Y17122340D03*
X51160844Y17582129D03*
X50701054Y18041918D03*
X57597891Y12064659D03*
X57138102Y12524449D03*
X56678313Y12984238D03*
X56218524Y13444027D03*
X52540211Y17122340D03*
X52080422Y17582129D03*
X51620633Y18041918D03*
X51160844Y18501707D03*
X58057680Y12524449D03*
X57597891Y12984238D03*
X57138102Y13444027D03*
X56678313Y13903816D03*
X56218524Y14363605D03*
X55758735Y14823394D03*
X55298946Y15283183D03*
X54839156Y15742972D03*
X54379367Y16202761D03*
X53919578Y16662551D03*
X53459789Y17122340D03*
X53000000Y17582129D03*
X52540211Y18041918D03*
X52080422Y18501707D03*
X51620633Y18961496D03*
X58517469Y12984238D03*
X58057680Y13444027D03*
X57597891Y13903816D03*
X57138102Y14363605D03*
X56678313Y14823394D03*
X56218524Y15283183D03*
X55758735Y15742972D03*
X55298946Y16202761D03*
X54839156Y16662551D03*
X54379367Y17122340D03*
X53919578Y17582129D03*
X53459789Y18041918D03*
X53000000Y18501707D03*
X52540211Y18961496D03*
X52080422Y19421285D03*
X58977258Y13444027D03*
X58517469Y13903816D03*
X58057680Y14363605D03*
X57597891Y14823394D03*
X57138102Y15283183D03*
X56678313Y15742972D03*
X56218524Y16202761D03*
X55758735Y16662551D03*
X55298946Y17122340D03*
X54839156Y17582129D03*
X54379367Y18041918D03*
X53919578Y18501707D03*
X53459789Y18961496D03*
X53000000Y19421285D03*
X52540211Y19881074D03*
X59437048Y13903816D03*
X58977258Y14363605D03*
X58517469Y14823394D03*
X58057680Y15283183D03*
X57597891Y15742972D03*
X57138102Y16202761D03*
X56678313Y16662551D03*
X56218524Y17122340D03*
X55758735Y17582129D03*
X55298946Y18041918D03*
X54839156Y18501707D03*
X54379367Y18961496D03*
X53919578Y19421285D03*
X53459789Y19881074D03*
X53000000Y20340863D03*
D14*
X162745000Y7661440D03*
X163645000Y7661440D03*
X162740000Y1321440D03*
X163640000Y1321440D03*
D13*
X155400000Y5851440D03*
X156500000Y5851440D03*
D25*
X155700000Y4601440D03*
X155700000Y3101440D03*
D20*
X21500000Y4950040D03*
X21500000Y3850040D03*
D49*
X31700000Y3325040D03*
X31700000Y3825040D03*
X31700000Y4325040D03*
X31700000Y4825040D03*
X29900000Y4825040D03*
X29900000Y4325040D03*
X29900000Y3825040D03*
X29900000Y3325040D03*
D50*
X30800000Y4475040D03*
X30800000Y3675040D03*
D20*
X79120000Y14451440D03*
X79120000Y15551440D03*
D15*
X77900000Y15951440D03*
X77900000Y15051440D03*
D51*
X46600000Y20276440D03*
X47100000Y20276440D03*
X47600000Y20276440D03*
X48100000Y20276440D03*
X48600000Y20276440D03*
D52*
X48825000Y21001440D03*
X48825000Y21501440D03*
X48825000Y22001440D03*
D51*
X48600000Y22726440D03*
X48100000Y22726440D03*
X47600000Y22726440D03*
X47100000Y22726440D03*
X46600000Y22726440D03*
D52*
X46375000Y22001440D03*
X46375000Y21501440D03*
X46375000Y21001440D03*
D11*
X182700000Y2251440D03*
D20*
X39000000Y6666440D03*
X39000000Y5566440D03*
D53*
X45440900Y2596440D03*
D54*
X44270900Y3476440D03*
D55*
X43883900Y3476440D03*
D56*
X45440900Y3031440D03*
D55*
X46997900Y3476440D03*
D54*
X46610900Y3476440D03*
D57*
X45440900Y6436440D03*
D56*
X45440900Y6001440D03*
D58*
X44270900Y5556440D03*
X46610900Y5556440D03*
D55*
X43882900Y5556440D03*
X46997900Y5556440D03*
D59*
X42250000Y5516440D03*
X41300000Y5516440D03*
X40350000Y5516440D03*
X40350000Y3316440D03*
X42250000Y3316440D03*
D25*
X40150000Y7166440D03*
X40150000Y8666440D03*
D45*
X35210000Y5850040D03*
X36710000Y5850040D03*
D60*
X43190900Y8116440D03*
X46490900Y8116440D03*
D25*
X48440900Y4361440D03*
X48440900Y2861440D03*
D20*
X11800000Y9350040D03*
X11800000Y8250040D03*
D14*
X7050000Y18301440D03*
X7950000Y18301440D03*
D11*
X5500000Y2251440D03*
D20*
X12620000Y5050040D03*
X12620000Y3950040D03*
D61*
X180590000Y6801440D03*
X180590000Y18231440D03*
D62*
X171700000Y6801440D03*
D63*
X174240000Y8071440D03*
X171700000Y9341440D03*
X174240000Y10611440D03*
X171700000Y11881440D03*
X174240000Y13151440D03*
X171700000Y14421440D03*
X171700000Y16961440D03*
X174240000Y18231440D03*
D64*
X184650000Y5881440D03*
X184650000Y8421440D03*
X184650000Y16601440D03*
X184650000Y19141440D03*
D65*
X177540000Y4761440D03*
X177540000Y20261440D03*
D66*
X5150000Y20626440D03*
X5150000Y19376440D03*
X5150000Y18126440D03*
X5150000Y16876440D03*
X5150000Y15626440D03*
X5150000Y14376440D03*
X5150000Y13126440D03*
X5150000Y11876440D03*
X5150000Y10626440D03*
X5150000Y9376440D03*
X5150000Y8126440D03*
X5150000Y6876440D03*
D67*
X2250000Y4326440D03*
X2250000Y23176440D03*
D68*
X24800000Y12510040D03*
D69*
X33425000Y8010040D03*
D70*
X36300000Y8310040D03*
D69*
X33425000Y8610040D03*
D70*
X36300000Y8910040D03*
D69*
X33425000Y9210040D03*
D70*
X36300000Y9510040D03*
D69*
X33425000Y9810040D03*
D70*
X36300000Y10110040D03*
D69*
X33425000Y10410040D03*
D70*
X36300000Y10710040D03*
D71*
X33700000Y7310040D03*
D69*
X33425000Y11010040D03*
D71*
X33700000Y17710040D03*
D70*
X36300000Y11310040D03*
D69*
X33425000Y11610040D03*
D70*
X36300000Y11910040D03*
D69*
X33425000Y12210040D03*
D70*
X36300000Y12510040D03*
D69*
X33425000Y12810040D03*
D70*
X36300000Y13110040D03*
D69*
X33425000Y13410040D03*
D70*
X36300000Y13710040D03*
D69*
X33425000Y14010040D03*
D70*
X36300000Y14310040D03*
D69*
X33425000Y14610040D03*
D70*
X36300000Y14910040D03*
D69*
X33425000Y15210040D03*
D70*
X36300000Y15510040D03*
D69*
X33425000Y15810040D03*
D70*
X36300000Y16110040D03*
D69*
X33425000Y16410040D03*
D70*
X36300000Y16710040D03*
D69*
X33425000Y17010040D03*
D15*
X154300000Y3650040D03*
X154300000Y4550040D03*
X70800000Y10950040D03*
X70800000Y11850040D03*
X38850000Y4616440D03*
X38850000Y3716440D03*
X37870000Y6466440D03*
X37870000Y5566440D03*
D20*
X69400000Y6750040D03*
X69400000Y7850040D03*
X20600000Y14650040D03*
X20600000Y15750040D03*
X35250000Y4575040D03*
X35250000Y3475040D03*
D72*
X67905000Y13600040D03*
X66635000Y13600040D03*
X65365000Y13600040D03*
X64095000Y13600040D03*
X64095000Y6400040D03*
X65365000Y6400040D03*
X66635000Y6400040D03*
X67905000Y6400040D03*
D20*
X152100000Y12451440D03*
X152100000Y13551440D03*
D13*
X15350000Y14000040D03*
X16450000Y14000040D03*
D27*
X8400000Y13900040D03*
X8400000Y16900040D03*
D13*
X17080000Y18970040D03*
X18180000Y18970040D03*
D73*
X60492893Y12492933D03*
X61907107Y13907147D03*
D45*
X13150000Y10600040D03*
X11650000Y10600040D03*
D20*
X150900000Y13751440D03*
X150900000Y12651440D03*
D25*
X15500000Y15850040D03*
X15500000Y17350040D03*
D44*
X19300000Y15750040D03*
X19300000Y16700040D03*
X19300000Y17650040D03*
X17100000Y17650040D03*
X17100000Y15750040D03*
D74*
X13800000Y15100040D03*
X10800000Y15100040D03*
D15*
X69400000Y13150040D03*
X69400000Y12250040D03*
D75*
X40250000Y17937540D03*
D76*
X40750000Y17937540D03*
X41250000Y17937540D03*
D77*
X41750000Y17937540D03*
D78*
X41912500Y18600040D03*
D79*
X41912500Y19100040D03*
D80*
X41912500Y19600040D03*
D81*
X41750000Y20262540D03*
D76*
X41250000Y20262540D03*
X40750000Y20262540D03*
D82*
X40250000Y20262540D03*
D83*
X40087500Y19600040D03*
D79*
X40087500Y19100040D03*
D84*
X40087500Y18600040D03*
D85*
X157480000Y21101440D03*
X157480000Y17926440D03*
X162560000Y21101440D03*
D86*
X161036000Y16021440D03*
X160020000Y21101440D03*
D85*
X162560000Y17926440D03*
D86*
X159004000Y16021440D03*
M02*
