M48
; DRILL file {KiCad 6.0.9-8da3e8f707~117~ubuntu22.04.1} date mar. 10 janv. 2023 20:00:45
; FORMAT={-:-/ absolute / metric / decimal}
; #@! TF.CreationDate,2023-01-10T20:00:45+01:00
; #@! TF.GenerationSoftware,Kicad,Pcbnew,6.0.9-8da3e8f707~117~ubuntu22.04.1
; #@! TF.FileFunction,Plated,1,6,PTH
FMAT,2
METRIC
; #@! TA.AperFunction,Plated,PTH,ViaDrill
T1C0.150
; #@! TA.AperFunction,Plated,PTH,ViaDrill
T2C0.300
; #@! TA.AperFunction,Plated,PTH,ComponentDrill
T3C0.900
; #@! TA.AperFunction,Plated,PTH,ComponentDrill
T4C1.000
; #@! TA.AperFunction,Plated,PTH,ComponentDrill
T5C1.700
%
G90
G05
T1
X6.4Y15.6
X6.4Y13.1
X9.5Y6.6
X9.5Y5.6
X9.5Y4.6
X9.8Y8.2
X12.5Y8.3
X29.35Y20.25
X29.52Y11.111
X29.92Y11.601
X30.931Y20.516
X31.4Y20.9
X31.52Y12.572
X31.9Y21.3
X32.3Y10.411
X32.3Y8.111
X32.32Y9.211
X32.62Y14.611
X32.62Y12.811
X34.22Y14.011
X34.281Y13.411
X35.62Y13.611
X37.52Y15.311
X37.8Y19.2
X39.376Y19.624
X39.454Y16.546
X39.738Y17.938
X40.311Y14.811
X40.9Y16.5
X41.12Y3.311
X41.6Y17.3
X44.1Y15.701
X44.971Y16.081
X45.0Y10.001
X45.3Y14.101
X46.067Y14.496
X46.4Y11.301
X46.4Y9.501
X46.925Y11.626
X47.12Y19.062
X47.482Y13.444
X47.625Y10.851
X47.889Y15.731
X48.1Y19.7
X48.3Y21.05
X48.5Y18.3
X48.862Y12.065
X49.3Y17.3
X49.338Y12.525
X49.539Y17.779
X49.55Y19.501
X49.782Y16.662
X49.9Y20.6
X50.241Y11.619
X50.241Y10.674
X50.25Y5.063
X50.664Y5.411
X50.687Y10.24
X51.1Y20.1
X51.161Y11.593
X51.233Y19.408
X52.54Y19.421
X52.54Y8.401
X52.57Y5.321
X52.98Y18.062
X53.331Y10.231
X53.92Y9.76
X53.939Y17.103
X54.367Y18.502
X55.29Y18.541
X55.315Y12.065
X55.524Y19.278
X55.759Y12.524
X56.1Y10.001
X56.25Y11.95
X56.339Y18.916
X56.66Y14.361
X56.75Y10.16
X58.3Y17.507
X58.503Y14.364
X58.52Y13.441
X58.962Y14.855
X63.2Y11.4
X64.093Y8.093
X65.36Y12.539
X66.6Y7.55
X66.63Y12.54
X67.9Y14.7
X71.5Y11.0
X152.05Y6.301
X153.0Y6.4
X153.55Y5.758
X153.738Y11.801
X154.05Y6.026
X154.525Y5.351
X154.7Y12.801
X155.2Y11.101
X155.3Y6.801
X156.199Y13.101
X156.4Y4.601
X158.9Y19.4
X159.9Y19.0
X160.19Y18.08
X160.2Y16.8
X161.2Y19.4
X162.195Y12.201
X162.195Y5.901
X162.82Y2.011
T2
X3.9Y14.7
X3.9Y14.1
X6.2Y13.8
X6.4Y14.401
X6.8Y13.9
X7.8Y10.8
X8.3Y10.0
X8.4Y14.7
X8.5Y23.501
X9.1Y21.601
X9.5Y14.7
X10.3Y10.0
X10.5Y13.1
X10.7Y23.801
X10.9Y11.1
X11.0Y12.2
X11.03Y21.314
X11.1Y9.3
X11.2Y13.0
X13.0Y16.2
X13.0Y15.1
X13.0Y13.9
X13.3Y19.2
X13.4Y3.6
X14.7Y19.2
X14.816Y17.486
X15.27Y8.811
X15.3Y4.9
X16.1Y11.7
X17.2Y14.0
X17.9Y11.7
X18.18Y18.4
X18.4Y16.7
X19.3Y15.0
X19.9Y14.3
X19.963Y15.005
X20.0Y3.9
X20.1Y10.4
X20.5Y10.9
X20.6Y14.0
X20.8Y16.7
X21.3Y8.9
X21.5Y3.2
X21.8Y13.5
X27.22Y2.011
X27.75Y3.725
X27.753Y3.028
X28.6Y1.1
X29.3Y3.575
X29.8Y9.211
X29.8Y8.111
X30.2Y10.411
X30.9Y5.275
X31.4Y1.46
X32.15Y5.325
X33.2Y6.076
X33.4Y1.825
X33.9Y2.3
X34.32Y16.911
X34.5Y2.6
X34.612Y17.72
X35.52Y9.511
X35.52Y8.311
X37.12Y11.311
X37.841Y4.116
X40.3Y21.236
X40.75Y4.551
X42.3Y21.236
X42.341Y8.516
X42.341Y7.916
X42.7Y19.137
X43.024Y3.476
X43.3Y19.3
X43.4Y22.001
X44.0Y9.301
X44.1Y12.801
X44.2Y19.301
X44.9Y13.601
X45.3Y19.301
X45.3Y17.701
X45.3Y16.601
X46.0Y13.901
X46.6Y19.5
X46.8Y12.901
X46.941Y4.716
X47.1Y21.901
X47.684Y17.151
X47.9Y8.501
X47.9Y3.5
X48.1Y21.901
X48.447Y7.689
X49.15Y4.951
X49.34Y15.291
X50.24Y15.271
X50.24Y12.531
X50.365Y13.946
X50.72Y16.647
X51.05Y8.251
X51.17Y10.681
X51.5Y7.801
X51.533Y12.71
X51.59Y14.771
X51.598Y15.762
X52.08Y10.685
X52.5Y15.835
X52.55Y14.801
X52.9Y16.901
X53.0Y21.15
X53.05Y11.567
X53.086Y7.087
X53.35Y21.951
X53.449Y14.804
X53.46Y8.371
X53.7Y6.201
X53.979Y20.087
X54.05Y15.963
X54.15Y22.751
X54.38Y9.4
X54.398Y16.651
X54.7Y14.735
X54.8Y11.601
X54.85Y9.771
X55.27Y14.77
X55.3Y13.601
X55.3Y10.207
X56.213Y11.164
X56.5Y7.191
X56.66Y13.449
X57.385Y10.758
X57.49Y13.42
X57.6Y6.136
X58.05Y13.9
X58.3Y15.801
X59.782Y13.218
X60.3Y6.301
X60.8Y7.001
X61.2Y11.861
X61.273Y12.98
X62.4Y14.953
X63.14Y8.26
X64.1Y14.9
X68.65Y6.591
X68.95Y16.251
X70.1Y7.85
X70.2Y12.3
X70.5Y9.9
X72.0Y21.801
X72.9Y21.801
X73.1Y16.051
X73.1Y14.9
X73.2Y19.201
X73.8Y21.801
X73.9Y19.201
X73.9Y14.951
X74.95Y14.951
X75.1Y21.801
X75.15Y19.201
X75.85Y19.201
X76.0Y21.801
X76.55Y19.201
X76.6Y14.401
X76.9Y21.801
X77.7Y19.3
X77.9Y14.251
X78.8Y17.801
X78.8Y17.201
X79.3Y16.8
X79.82Y14.411
X106.75Y15.825
X107.05Y9.6
X108.0Y15.8
X112.6Y12.411
X112.6Y4.311
X112.8Y17.911
X112.85Y11.437
X112.85Y2.775
X113.05Y19.111
X119.25Y19.411
X119.25Y11.437
X119.25Y3.647
X122.7Y15.8
X123.05Y9.6
X124.0Y15.8
X147.27Y7.547
X147.55Y12.301
X147.55Y9.701
X148.1Y4.0
X149.7Y3.601
X150.0Y9.251
X150.1Y14.151
X151.8Y2.826
X151.85Y20.551
X152.0Y14.251
X152.01Y15.825
X152.65Y9.076
X153.275Y8.451
X153.3Y20.0
X153.3Y9.751
X153.95Y9.076
X154.078Y13.874
X154.7Y3.101
X155.5Y14.7
X157.14Y5.841
X157.3Y14.7
X157.3Y11.6
X159.845Y6.501
X160.6Y13.4
X160.995Y9.151
X160.995Y2.801
X168.95Y12.951
X176.4Y12.451
X186.7Y17.501
X186.7Y10.101
T3
X171.7Y16.961
X171.7Y14.421
X171.7Y11.881
X171.7Y9.341
X171.7Y6.801
X174.24Y18.231
X174.24Y13.151
X174.24Y10.611
X174.24Y8.071
T4
X184.65Y19.141
X184.65Y16.601
X184.65Y8.421
X184.65Y5.881
T5
X177.54Y20.261
X177.54Y4.761
T0
M30
