G04 #@! TF.GenerationSoftware,KiCad,Pcbnew,5.1.9-73d0e3b20d~88~ubuntu20.04.1*
G04 #@! TF.CreationDate,2021-01-24T23:08:50+01:00*
G04 #@! TF.ProjectId,CIS,4349532e-6b69-4636-9164-5f7063625858,1.0.0*
G04 #@! TF.SameCoordinates,PX6bc3e40PY635f740*
G04 #@! TF.FileFunction,Soldermask,Top*
G04 #@! TF.FilePolarity,Negative*
%FSLAX46Y46*%
G04 Gerber Fmt 4.6, Leading zero omitted, Abs format (unit mm)*
G04 Created by KiCad (PCBNEW 5.1.9-73d0e3b20d~88~ubuntu20.04.1) date 2021-01-24 23:08:50*
%MOMM*%
%LPD*%
G01*
G04 APERTURE LIST*
%ADD10C,1.000000*%
%ADD11C,3.000000*%
%ADD12C,3.200000*%
%ADD13C,2.000000*%
%ADD14C,1.800000*%
%ADD15R,1.800000X1.800000*%
%ADD16O,2.500000X13.000000*%
%ADD17R,0.650000X0.300000*%
%ADD18R,0.800000X0.300000*%
%ADD19R,0.950000X0.400000*%
%ADD20C,2.540000*%
%ADD21R,1.300000X1.300000*%
%ADD22R,0.850000X0.300000*%
%ADD23R,0.300000X0.850000*%
%ADD24C,1.500000*%
%ADD25R,1.000000X1.250000*%
%ADD26R,0.600000X0.400000*%
%ADD27R,0.400000X0.600000*%
%ADD28R,0.450000X0.700000*%
%ADD29R,0.700000X0.450000*%
%ADD30C,0.250000*%
%ADD31R,0.600000X0.800000*%
%ADD32R,0.750000X0.800000*%
%ADD33R,0.600000X0.500000*%
%ADD34R,0.500000X0.600000*%
%ADD35R,0.800000X0.900000*%
%ADD36R,1.200000X0.900000*%
%ADD37R,0.800000X0.750000*%
%ADD38R,1.000000X2.500000*%
%ADD39R,2.500000X1.000000*%
%ADD40R,1.250000X1.000000*%
%ADD41C,0.990600*%
%ADD42R,0.775000X0.580000*%
%ADD43R,3.890000X0.310000*%
%ADD44R,4.700000X1.200000*%
%ADD45R,0.580000X0.775000*%
%ADD46R,0.310000X3.890000*%
%ADD47R,0.650000X1.060000*%
%ADD48R,1.000000X0.300000*%
%ADD49R,0.825000X0.950000*%
%ADD50R,1.450000X0.450000*%
%ADD51R,1.400000X1.200000*%
%ADD52R,0.900000X1.200000*%
%ADD53R,0.500000X0.300000*%
%ADD54R,0.990000X0.800000*%
%ADD55O,1.800000X2.800000*%
G04 APERTURE END LIST*
D10*
X15560000Y3635000D03*
X18100000Y2365000D03*
X16830000Y3635000D03*
X16830000Y2365000D03*
X18100000Y3635000D03*
X15560000Y2365000D03*
X19370000Y3635000D03*
X19370000Y2365000D03*
X20640000Y3635000D03*
X20640000Y2365000D03*
D11*
X111040000Y20260000D03*
X111040000Y4760000D03*
D12*
X114090000Y18230000D03*
X114090000Y6800000D03*
D13*
X118150000Y19140000D03*
X118150000Y16600000D03*
X118150000Y8420000D03*
D14*
X107740000Y18230000D03*
X105200000Y16960000D03*
X105200000Y14420000D03*
X107740000Y13150000D03*
X105200000Y11880000D03*
X107740000Y10610000D03*
X105200000Y9340000D03*
X107740000Y8070000D03*
D13*
X118150000Y5880000D03*
D15*
X105200000Y6800000D03*
D16*
X24800000Y15500000D03*
D17*
X36300000Y11300000D03*
D18*
X33425000Y11000000D03*
D17*
X36300000Y11900000D03*
X36300000Y12500000D03*
X36300000Y13100000D03*
X36300000Y13700000D03*
X36300000Y14300000D03*
X36300000Y14900000D03*
X36300000Y15500000D03*
X36300000Y16100000D03*
X36300000Y16700000D03*
X36300000Y17300000D03*
X36300000Y17900000D03*
X36300000Y18500000D03*
X36300000Y19100000D03*
X36300000Y19700000D03*
D18*
X33425000Y11600000D03*
X33425000Y12200000D03*
X33425000Y12800000D03*
X33425000Y13400000D03*
X33425000Y14000000D03*
X33425000Y14600000D03*
X33425000Y15200000D03*
X33425000Y15800000D03*
X33425000Y16400000D03*
X33425000Y17000000D03*
X33425000Y17600000D03*
X33425000Y18200000D03*
X33425000Y18800000D03*
X33425000Y19400000D03*
X33425000Y20000000D03*
D19*
X33700000Y20700000D03*
X33700000Y10300000D03*
D20*
X118000000Y30250000D03*
D21*
X87450000Y9750000D03*
X86150000Y9750000D03*
X87450000Y8450000D03*
X86150000Y8450000D03*
D22*
X88750000Y10350000D03*
X88750000Y9850000D03*
X88750000Y9350000D03*
X88750000Y8850000D03*
X88750000Y8350000D03*
X88750000Y7850000D03*
D23*
X88050000Y7150000D03*
X87550000Y7150000D03*
X87050000Y7150000D03*
X86550000Y7150000D03*
X86050000Y7150000D03*
X85550000Y7150000D03*
D22*
X84850000Y7850000D03*
X84850000Y8350000D03*
X84850000Y8850000D03*
X84850000Y9350000D03*
X84850000Y9850000D03*
X84850000Y10350000D03*
D23*
X85550000Y11050000D03*
X86050000Y11050000D03*
X86550000Y11050000D03*
X87050000Y11050000D03*
X87550000Y11050000D03*
X88050000Y11050000D03*
D20*
X116200000Y2250000D03*
D24*
G36*
X48311091Y9335355D02*
G01*
X48735355Y8911091D01*
X48452513Y8628249D01*
X48028249Y9052513D01*
X48311091Y9335355D01*
G37*
G36*
X48947487Y9971751D02*
G01*
X49371751Y9547487D01*
X49088909Y9264645D01*
X48664645Y9688909D01*
X48947487Y9971751D01*
G37*
D25*
X97300000Y21900000D03*
X99300000Y21900000D03*
D26*
X15500000Y22850000D03*
X15500000Y21950000D03*
D27*
X7950000Y19500000D03*
X7050000Y19500000D03*
D26*
X11700000Y20950000D03*
X11700000Y21850000D03*
D27*
X7950000Y18300000D03*
X7050000Y18300000D03*
D28*
X13600000Y20800000D03*
X12950000Y22800000D03*
X14250000Y22800000D03*
X9800000Y18800000D03*
X9150000Y20800000D03*
X10450000Y20800000D03*
D29*
X7400000Y22900000D03*
X9400000Y23550000D03*
X9400000Y22250000D03*
D26*
X10700000Y22250000D03*
X10700000Y23150000D03*
D27*
X7950000Y20700000D03*
X7050000Y20700000D03*
X81650000Y13600000D03*
X82550000Y13600000D03*
D30*
X53000000Y20339423D03*
X53459789Y19879634D03*
X53919578Y19419845D03*
X54379367Y18960056D03*
X54839156Y18500267D03*
X55298946Y18040478D03*
X55758735Y17580689D03*
X56218524Y17120900D03*
X56678313Y16661111D03*
X57138102Y16201321D03*
X57597891Y15741532D03*
X58057680Y15281743D03*
X58517469Y14821954D03*
X58977258Y14362165D03*
X59437048Y13902376D03*
X52540211Y19879634D03*
X53000000Y19419845D03*
X53459789Y18960056D03*
X53919578Y18500267D03*
X54379367Y18040478D03*
X54839156Y17580689D03*
X55298946Y17120900D03*
X55758735Y16661111D03*
X56218524Y16201321D03*
X56678313Y15741532D03*
X57138102Y15281743D03*
X57597891Y14821954D03*
X58057680Y14362165D03*
X58517469Y13902376D03*
X58977258Y13442587D03*
X52080422Y19419845D03*
X52540211Y18960056D03*
X53000000Y18500267D03*
X53459789Y18040478D03*
X53919578Y17580689D03*
X54379367Y17120900D03*
X54839156Y16661111D03*
X55298946Y16201321D03*
X55758735Y15741532D03*
X56218524Y15281743D03*
X56678313Y14821954D03*
X57138102Y14362165D03*
X57597891Y13902376D03*
X58057680Y13442587D03*
X58517469Y12982798D03*
X51620633Y18960056D03*
X52080422Y18500267D03*
X52540211Y18040478D03*
X53000000Y17580689D03*
X53459789Y17120900D03*
X53919578Y16661111D03*
X54379367Y16201321D03*
X54839156Y15741532D03*
X55298946Y15281743D03*
X55758735Y14821954D03*
X56218524Y14362165D03*
X56678313Y13902376D03*
X57138102Y13442587D03*
X57597891Y12982798D03*
X58057680Y12523009D03*
X51160844Y18500267D03*
X51620633Y18040478D03*
X52080422Y17580689D03*
X52540211Y17120900D03*
X56218524Y13442587D03*
X56678313Y12982798D03*
X57138102Y12523009D03*
X57597891Y12063219D03*
X50701054Y18040478D03*
X51160844Y17580689D03*
X51620633Y17120900D03*
X52080422Y16661111D03*
X53000000Y15741532D03*
X53459789Y15281743D03*
X53919578Y14821954D03*
X54379367Y14362165D03*
X54839156Y13902376D03*
X55758735Y12982798D03*
X56218524Y12523009D03*
X56678313Y12063219D03*
X57138102Y11603430D03*
X50241265Y17580689D03*
X50701054Y17120900D03*
X51160844Y16661111D03*
X51620633Y16201321D03*
X52540211Y15281743D03*
X53000000Y14821954D03*
X53459789Y14362165D03*
X53919578Y13902376D03*
X54379367Y13442587D03*
X55298946Y12523009D03*
X55758735Y12063219D03*
X56218524Y11603430D03*
X56678313Y11143641D03*
X49781476Y17120900D03*
X50241265Y16661111D03*
X50701054Y16201321D03*
X51160844Y15741532D03*
X52080422Y14821954D03*
X52540211Y14362165D03*
X53000000Y13902376D03*
X53459789Y13442587D03*
X53919578Y12982798D03*
X54839156Y12063219D03*
X55298946Y11603430D03*
X55758735Y11143641D03*
X56218524Y10683852D03*
X49321687Y16661111D03*
X49781476Y16201321D03*
X50241265Y15741532D03*
X50701054Y15281743D03*
X51620633Y14362165D03*
X52080422Y13902376D03*
X52540211Y13442587D03*
X53000000Y12982798D03*
X53459789Y12523009D03*
X54379367Y11603430D03*
X54839156Y11143641D03*
X55298946Y10683852D03*
X55758735Y10224063D03*
X48861898Y16201321D03*
X49321687Y15741532D03*
X49781476Y15281743D03*
X50241265Y14821954D03*
X51160844Y13902376D03*
X51620633Y13442587D03*
X52080422Y12982798D03*
X52540211Y12523009D03*
X53000000Y12063219D03*
X53919578Y11143641D03*
X54379367Y10683852D03*
X54839156Y10224063D03*
X55298946Y9764274D03*
X48402109Y15741532D03*
X48861898Y15281743D03*
X49321687Y14821954D03*
X49781476Y14362165D03*
X53459789Y10683852D03*
X53919578Y10224063D03*
X54379367Y9764274D03*
X54839156Y9304485D03*
X47942320Y15281743D03*
X48402109Y14821954D03*
X48861898Y14362165D03*
X49321687Y13902376D03*
X49781476Y13442587D03*
X50241265Y12982798D03*
X50701054Y12523009D03*
X51160844Y12063219D03*
X51620633Y11603430D03*
X52080422Y11143641D03*
X52540211Y10683852D03*
X53000000Y10224063D03*
X53459789Y9764274D03*
X53919578Y9304485D03*
X54379367Y8844696D03*
X47482531Y14821954D03*
X47942320Y14362165D03*
X48402109Y13902376D03*
X48861898Y13442587D03*
X49321687Y12982798D03*
X49781476Y12523009D03*
X50241265Y12063219D03*
X50701054Y11603430D03*
X51160844Y11143641D03*
X51620633Y10683852D03*
X52080422Y10224063D03*
X52540211Y9764274D03*
X53000000Y9304485D03*
X53459789Y8844696D03*
X53919578Y8384907D03*
X47022742Y14362165D03*
X47482531Y13902376D03*
X47942320Y13442587D03*
X48402109Y12982798D03*
X48861898Y12523009D03*
X49321687Y12063219D03*
X49781476Y11603430D03*
X50241265Y11143641D03*
X50701054Y10683852D03*
X51160844Y10224063D03*
X51620633Y9764274D03*
X52080422Y9304485D03*
X52540211Y8844696D03*
X53000000Y8384907D03*
X53459789Y7925117D03*
X46562952Y13902376D03*
X47022742Y13442587D03*
X47482531Y12982798D03*
X47942320Y12523009D03*
X48402109Y12063219D03*
X48861898Y11603430D03*
X49321687Y11143641D03*
X49781476Y10683852D03*
X50241265Y10224063D03*
X50701054Y9764274D03*
X51160844Y9304485D03*
X51620633Y8844696D03*
X52080422Y8384907D03*
X52540211Y7925117D03*
X53000000Y7465328D03*
D24*
G36*
X54246446Y7100000D02*
G01*
X54600000Y6746446D01*
X54175736Y6322182D01*
X53822182Y6675736D01*
X54246446Y7100000D01*
G37*
G36*
X55024264Y7877818D02*
G01*
X55377818Y7524264D01*
X54953554Y7100000D01*
X54600000Y7453554D01*
X55024264Y7877818D01*
G37*
D26*
X88900000Y13250000D03*
X88900000Y14150000D03*
D31*
X15550000Y5000000D03*
X17250000Y5000000D03*
D26*
X84000000Y4550000D03*
X84000000Y3650000D03*
D24*
G36*
X84803554Y19650000D02*
G01*
X84450000Y20003554D01*
X84874264Y20427818D01*
X85227818Y20074264D01*
X84803554Y19650000D01*
G37*
G36*
X84025736Y18872182D02*
G01*
X83672182Y19225736D01*
X84096446Y19650000D01*
X84450000Y19296446D01*
X84025736Y18872182D01*
G37*
G36*
X87900000Y19753554D02*
G01*
X87546446Y19400000D01*
X87122182Y19824264D01*
X87475736Y20177818D01*
X87900000Y19753554D01*
G37*
G36*
X88677818Y18975736D02*
G01*
X88324264Y18622182D01*
X87900000Y19046446D01*
X88253554Y19400000D01*
X88677818Y18975736D01*
G37*
D32*
X84400000Y14150000D03*
X84400000Y12650000D03*
D33*
X81550000Y8500000D03*
X82650000Y8500000D03*
D34*
X90100000Y14200000D03*
X90100000Y13100000D03*
D32*
X88950000Y3100000D03*
X88950000Y4600000D03*
D27*
X81650000Y7300000D03*
X82550000Y7300000D03*
D26*
X90100000Y11200000D03*
X90100000Y12100000D03*
D27*
X99150000Y6500000D03*
X98250000Y6500000D03*
X100550000Y2800000D03*
X101450000Y2800000D03*
X99150000Y12800000D03*
X98250000Y12800000D03*
X99150000Y7600000D03*
X98250000Y7600000D03*
X82550000Y9700000D03*
X81650000Y9700000D03*
X82550000Y12300000D03*
X81650000Y12300000D03*
X82550000Y11000000D03*
X81650000Y11000000D03*
X82550000Y4700000D03*
X81650000Y4700000D03*
X81650000Y6000000D03*
X82550000Y6000000D03*
D26*
X85300000Y4550000D03*
X85300000Y3650000D03*
X86550000Y3650000D03*
X86550000Y4550000D03*
D33*
X96050000Y6500000D03*
X97150000Y6500000D03*
X96150000Y12800000D03*
X97250000Y12800000D03*
D35*
X97330000Y5000000D03*
X99230000Y5000000D03*
X99230000Y2800000D03*
D36*
X97510000Y2800000D03*
D35*
X97330000Y11320000D03*
X99230000Y11320000D03*
X99230000Y9120000D03*
D36*
X97510000Y9120000D03*
D32*
X42000000Y3450000D03*
X42000000Y4950000D03*
D37*
X19850000Y18400000D03*
X21350000Y18400000D03*
D32*
X72400000Y5600000D03*
X72400000Y7100000D03*
D34*
X68200000Y4300000D03*
X68200000Y5400000D03*
D33*
X17500000Y18200000D03*
X16400000Y18200000D03*
D34*
X79000000Y15550000D03*
X79000000Y14450000D03*
D33*
X59650000Y6300000D03*
X58550000Y6300000D03*
D34*
X62500000Y9600000D03*
X62500000Y8500000D03*
X32300000Y5550000D03*
X32300000Y6650000D03*
D25*
X70500000Y7500000D03*
X68500000Y7500000D03*
D33*
X9800000Y2900000D03*
X10900000Y2900000D03*
X9800000Y4000000D03*
X10900000Y4000000D03*
X9800000Y5100000D03*
X10900000Y5100000D03*
X19350000Y6700000D03*
X18250000Y6700000D03*
D38*
X12000000Y13600000D03*
X15000000Y13600000D03*
D39*
X76000000Y23100000D03*
X76000000Y20100000D03*
D34*
X8900000Y11350000D03*
X8900000Y12450000D03*
D33*
X8050000Y6700000D03*
X9150000Y6700000D03*
D39*
X9400000Y16800000D03*
X9400000Y13800000D03*
D34*
X7100000Y15750000D03*
X7100000Y16850000D03*
D33*
X98350000Y23400000D03*
X97250000Y23400000D03*
X101850000Y23400000D03*
X102950000Y23400000D03*
D34*
X45300000Y21050000D03*
X45300000Y19950000D03*
X44200000Y19950000D03*
X44200000Y21050000D03*
X104700000Y25350000D03*
X104700000Y26450000D03*
X105800000Y27150000D03*
X105800000Y26050000D03*
X104700000Y30250000D03*
X104700000Y29150000D03*
X95600000Y25850000D03*
X95600000Y24750000D03*
D33*
X45250000Y22000000D03*
X44150000Y22000000D03*
D40*
X56600000Y8100000D03*
X56600000Y6100000D03*
D24*
G36*
X49204505Y6788388D02*
G01*
X50088388Y5904505D01*
X49381281Y5197398D01*
X48497398Y6081281D01*
X49204505Y6788388D01*
G37*
G36*
X50618719Y8202602D02*
G01*
X51502602Y7318719D01*
X50795495Y6611612D01*
X49911612Y7495495D01*
X50618719Y8202602D01*
G37*
G36*
X54200000Y21453554D02*
G01*
X53846446Y21100000D01*
X53422182Y21524264D01*
X53775736Y21877818D01*
X54200000Y21453554D01*
G37*
G36*
X54977818Y20675736D02*
G01*
X54624264Y20322182D01*
X54200000Y20746446D01*
X54553554Y21100000D01*
X54977818Y20675736D01*
G37*
G36*
X45800000Y13053554D02*
G01*
X45446446Y12700000D01*
X45022182Y13124264D01*
X45375736Y13477818D01*
X45800000Y13053554D01*
G37*
G36*
X46577818Y12275736D02*
G01*
X46224264Y11922182D01*
X45800000Y12346446D01*
X46153554Y12700000D01*
X46577818Y12275736D01*
G37*
D33*
X46050000Y16600000D03*
X47150000Y16600000D03*
X19350000Y5000000D03*
X20450000Y5000000D03*
X69700000Y17200000D03*
X70800000Y17200000D03*
D39*
X72900000Y23100000D03*
X72900000Y20100000D03*
D41*
X31640000Y2700000D03*
X26560000Y1684000D03*
X26560000Y3716000D03*
D24*
G36*
X40764500Y3170000D02*
G01*
X39575500Y3170000D01*
X40169500Y3750000D01*
X40170500Y3750000D01*
X40764500Y3170000D01*
G37*
G36*
X38424500Y3170000D02*
G01*
X37235500Y3170000D01*
X37829500Y3750000D01*
X37830500Y3750000D01*
X38424500Y3170000D01*
G37*
G36*
X39575500Y5830000D02*
G01*
X40764500Y5830000D01*
X40170500Y5250000D01*
X40169500Y5250000D01*
X39575500Y5830000D01*
G37*
G36*
X37235500Y5830000D02*
G01*
X38424500Y5830000D01*
X37830500Y5250000D01*
X37829500Y5250000D01*
X37235500Y5830000D01*
G37*
D42*
X37442000Y5540000D03*
X40557000Y5540000D03*
X40557000Y3460000D03*
D24*
G36*
X37055000Y2860000D02*
G01*
X40945000Y2860000D01*
X40395000Y2300000D01*
X37605000Y2300000D01*
X37055000Y2860000D01*
G37*
G36*
X40945000Y6140000D02*
G01*
X37055000Y6140000D01*
X37605000Y6700000D01*
X40395000Y6700000D01*
X40945000Y6140000D01*
G37*
D43*
X39000000Y3015000D03*
X39000000Y5985000D03*
D42*
X37443000Y3460000D03*
D24*
G36*
X11735500Y18910000D02*
G01*
X12924500Y18910000D01*
X12330500Y18330000D01*
X12329500Y18330000D01*
X11735500Y18910000D01*
G37*
G36*
X14075500Y18910000D02*
G01*
X15264500Y18910000D01*
X14670500Y18330000D01*
X14669500Y18330000D01*
X14075500Y18910000D01*
G37*
G36*
X12924500Y16250000D02*
G01*
X11735500Y16250000D01*
X12329500Y16830000D01*
X12330500Y16830000D01*
X12924500Y16250000D01*
G37*
G36*
X15264500Y16250000D02*
G01*
X14075500Y16250000D01*
X14669500Y16830000D01*
X14670500Y16830000D01*
X15264500Y16250000D01*
G37*
D42*
X15058000Y16540000D03*
X11943000Y16540000D03*
X11943000Y18620000D03*
D24*
G36*
X15445000Y19220000D02*
G01*
X11555000Y19220000D01*
X12105000Y19780000D01*
X14895000Y19780000D01*
X15445000Y19220000D01*
G37*
G36*
X11555000Y15940000D02*
G01*
X15445000Y15940000D01*
X14895000Y15380000D01*
X12105000Y15380000D01*
X11555000Y15940000D01*
G37*
D43*
X13500000Y19065000D03*
X13500000Y16095000D03*
D42*
X15057000Y18620000D03*
D44*
X68100000Y22355000D03*
X68100000Y19045000D03*
D24*
G36*
X54330000Y5364500D02*
G01*
X54330000Y4175500D01*
X53750000Y4769500D01*
X53750000Y4770500D01*
X54330000Y5364500D01*
G37*
G36*
X54330000Y3024500D02*
G01*
X54330000Y1835500D01*
X53750000Y2429500D01*
X53750000Y2430500D01*
X54330000Y3024500D01*
G37*
G36*
X51670000Y4175500D02*
G01*
X51670000Y5364500D01*
X52250000Y4770500D01*
X52250000Y4769500D01*
X51670000Y4175500D01*
G37*
G36*
X51670000Y1835500D02*
G01*
X51670000Y3024500D01*
X52250000Y2430500D01*
X52250000Y2429500D01*
X51670000Y1835500D01*
G37*
D45*
X51960000Y2042000D03*
X51960000Y5157000D03*
X54040000Y5157000D03*
D24*
G36*
X54640000Y1655000D02*
G01*
X54640000Y5545000D01*
X55200000Y4995000D01*
X55200000Y2205000D01*
X54640000Y1655000D01*
G37*
G36*
X51360000Y5545000D02*
G01*
X51360000Y1655000D01*
X50800000Y2205000D01*
X50800000Y4995000D01*
X51360000Y5545000D01*
G37*
D46*
X54485000Y3600000D03*
X51515000Y3600000D03*
D45*
X54040000Y2043000D03*
D27*
X16250000Y13400000D03*
X17150000Y13400000D03*
D26*
X77900000Y15050000D03*
X77900000Y15950000D03*
X67000000Y3950000D03*
X67000000Y4850000D03*
X31100000Y5550000D03*
X31100000Y6450000D03*
X32300000Y3700000D03*
X32300000Y4600000D03*
X67000000Y6550000D03*
X67000000Y5650000D03*
X65800000Y5150000D03*
X65800000Y6050000D03*
X65800000Y4350000D03*
X65800000Y3450000D03*
D27*
X7900000Y2900000D03*
X8800000Y2900000D03*
X7900000Y4000000D03*
X8800000Y4000000D03*
X7900000Y5100000D03*
X8800000Y5100000D03*
D26*
X7800000Y10450000D03*
X7800000Y11350000D03*
X87600000Y12350000D03*
X87600000Y13250000D03*
D24*
G36*
X49988909Y8364645D02*
G01*
X49564645Y8788909D01*
X49847487Y9071751D01*
X50271751Y8647487D01*
X49988909Y8364645D01*
G37*
G36*
X49352513Y7728249D02*
G01*
X48928249Y8152513D01*
X49211091Y8435355D01*
X49635355Y8011091D01*
X49352513Y7728249D01*
G37*
D47*
X35650000Y3300000D03*
X33750000Y3300000D03*
X33750000Y5500000D03*
X34700000Y5500000D03*
X35650000Y5500000D03*
D48*
X16600000Y14800000D03*
X16600000Y15300000D03*
X16600000Y15800000D03*
X16600000Y16300000D03*
X16600000Y16800000D03*
X21000000Y16800000D03*
X21000000Y16300000D03*
X21000000Y15800000D03*
X21000000Y15300000D03*
X21000000Y14800000D03*
D49*
X74800000Y15850000D03*
X74800000Y16800000D03*
X74800000Y17750000D03*
X74000000Y17750000D03*
X74000000Y16800000D03*
X74000000Y15850000D03*
D48*
X72200000Y18550000D03*
X72200000Y18050000D03*
X72200000Y17550000D03*
X76600000Y18550000D03*
X76600000Y18050000D03*
X76600000Y17550000D03*
X72200000Y15050000D03*
X72200000Y15550000D03*
X72200000Y16050000D03*
X72200000Y16550000D03*
X72200000Y17050000D03*
X76600000Y17050000D03*
X76600000Y16550000D03*
X76600000Y16050000D03*
X76600000Y15550000D03*
X76600000Y15050000D03*
D50*
X10750000Y6750000D03*
X10750000Y7400000D03*
X10750000Y8050000D03*
X10750000Y8700000D03*
X10750000Y9350000D03*
X10750000Y10000000D03*
X10750000Y10650000D03*
X16650000Y10650000D03*
X16650000Y10000000D03*
X16650000Y9350000D03*
X16650000Y8700000D03*
X16650000Y8050000D03*
X16650000Y7400000D03*
X16650000Y6750000D03*
G36*
G01*
X97975000Y24675000D02*
X97975000Y24475000D01*
G75*
G02*
X97875000Y24375000I-100000J0D01*
G01*
X96600000Y24375000D01*
G75*
G02*
X96500000Y24475000I0J100000D01*
G01*
X96500000Y24675000D01*
G75*
G02*
X96600000Y24775000I100000J0D01*
G01*
X97875000Y24775000D01*
G75*
G02*
X97975000Y24675000I0J-100000D01*
G01*
G37*
G36*
G01*
X97975000Y25325000D02*
X97975000Y25125000D01*
G75*
G02*
X97875000Y25025000I-100000J0D01*
G01*
X96600000Y25025000D01*
G75*
G02*
X96500000Y25125000I0J100000D01*
G01*
X96500000Y25325000D01*
G75*
G02*
X96600000Y25425000I100000J0D01*
G01*
X97875000Y25425000D01*
G75*
G02*
X97975000Y25325000I0J-100000D01*
G01*
G37*
G36*
G01*
X97975000Y25975000D02*
X97975000Y25775000D01*
G75*
G02*
X97875000Y25675000I-100000J0D01*
G01*
X96600000Y25675000D01*
G75*
G02*
X96500000Y25775000I0J100000D01*
G01*
X96500000Y25975000D01*
G75*
G02*
X96600000Y26075000I100000J0D01*
G01*
X97875000Y26075000D01*
G75*
G02*
X97975000Y25975000I0J-100000D01*
G01*
G37*
G36*
G01*
X97975000Y26625000D02*
X97975000Y26425000D01*
G75*
G02*
X97875000Y26325000I-100000J0D01*
G01*
X96600000Y26325000D01*
G75*
G02*
X96500000Y26425000I0J100000D01*
G01*
X96500000Y26625000D01*
G75*
G02*
X96600000Y26725000I100000J0D01*
G01*
X97875000Y26725000D01*
G75*
G02*
X97975000Y26625000I0J-100000D01*
G01*
G37*
G36*
G01*
X97975000Y27275000D02*
X97975000Y27075000D01*
G75*
G02*
X97875000Y26975000I-100000J0D01*
G01*
X96600000Y26975000D01*
G75*
G02*
X96500000Y27075000I0J100000D01*
G01*
X96500000Y27275000D01*
G75*
G02*
X96600000Y27375000I100000J0D01*
G01*
X97875000Y27375000D01*
G75*
G02*
X97975000Y27275000I0J-100000D01*
G01*
G37*
G36*
G01*
X97975000Y27925000D02*
X97975000Y27725000D01*
G75*
G02*
X97875000Y27625000I-100000J0D01*
G01*
X96600000Y27625000D01*
G75*
G02*
X96500000Y27725000I0J100000D01*
G01*
X96500000Y27925000D01*
G75*
G02*
X96600000Y28025000I100000J0D01*
G01*
X97875000Y28025000D01*
G75*
G02*
X97975000Y27925000I0J-100000D01*
G01*
G37*
G36*
G01*
X97975000Y28575000D02*
X97975000Y28375000D01*
G75*
G02*
X97875000Y28275000I-100000J0D01*
G01*
X96600000Y28275000D01*
G75*
G02*
X96500000Y28375000I0J100000D01*
G01*
X96500000Y28575000D01*
G75*
G02*
X96600000Y28675000I100000J0D01*
G01*
X97875000Y28675000D01*
G75*
G02*
X97975000Y28575000I0J-100000D01*
G01*
G37*
G36*
G01*
X97975000Y29225000D02*
X97975000Y29025000D01*
G75*
G02*
X97875000Y28925000I-100000J0D01*
G01*
X96600000Y28925000D01*
G75*
G02*
X96500000Y29025000I0J100000D01*
G01*
X96500000Y29225000D01*
G75*
G02*
X96600000Y29325000I100000J0D01*
G01*
X97875000Y29325000D01*
G75*
G02*
X97975000Y29225000I0J-100000D01*
G01*
G37*
G36*
G01*
X97975000Y29875000D02*
X97975000Y29675000D01*
G75*
G02*
X97875000Y29575000I-100000J0D01*
G01*
X96600000Y29575000D01*
G75*
G02*
X96500000Y29675000I0J100000D01*
G01*
X96500000Y29875000D01*
G75*
G02*
X96600000Y29975000I100000J0D01*
G01*
X97875000Y29975000D01*
G75*
G02*
X97975000Y29875000I0J-100000D01*
G01*
G37*
G36*
G01*
X97975000Y30525000D02*
X97975000Y30325000D01*
G75*
G02*
X97875000Y30225000I-100000J0D01*
G01*
X96600000Y30225000D01*
G75*
G02*
X96500000Y30325000I0J100000D01*
G01*
X96500000Y30525000D01*
G75*
G02*
X96600000Y30625000I100000J0D01*
G01*
X97875000Y30625000D01*
G75*
G02*
X97975000Y30525000I0J-100000D01*
G01*
G37*
G36*
G01*
X103700000Y30525000D02*
X103700000Y30325000D01*
G75*
G02*
X103600000Y30225000I-100000J0D01*
G01*
X102325000Y30225000D01*
G75*
G02*
X102225000Y30325000I0J100000D01*
G01*
X102225000Y30525000D01*
G75*
G02*
X102325000Y30625000I100000J0D01*
G01*
X103600000Y30625000D01*
G75*
G02*
X103700000Y30525000I0J-100000D01*
G01*
G37*
G36*
G01*
X103700000Y29875000D02*
X103700000Y29675000D01*
G75*
G02*
X103600000Y29575000I-100000J0D01*
G01*
X102325000Y29575000D01*
G75*
G02*
X102225000Y29675000I0J100000D01*
G01*
X102225000Y29875000D01*
G75*
G02*
X102325000Y29975000I100000J0D01*
G01*
X103600000Y29975000D01*
G75*
G02*
X103700000Y29875000I0J-100000D01*
G01*
G37*
G36*
G01*
X103700000Y29225000D02*
X103700000Y29025000D01*
G75*
G02*
X103600000Y28925000I-100000J0D01*
G01*
X102325000Y28925000D01*
G75*
G02*
X102225000Y29025000I0J100000D01*
G01*
X102225000Y29225000D01*
G75*
G02*
X102325000Y29325000I100000J0D01*
G01*
X103600000Y29325000D01*
G75*
G02*
X103700000Y29225000I0J-100000D01*
G01*
G37*
G36*
G01*
X103700000Y28575000D02*
X103700000Y28375000D01*
G75*
G02*
X103600000Y28275000I-100000J0D01*
G01*
X102325000Y28275000D01*
G75*
G02*
X102225000Y28375000I0J100000D01*
G01*
X102225000Y28575000D01*
G75*
G02*
X102325000Y28675000I100000J0D01*
G01*
X103600000Y28675000D01*
G75*
G02*
X103700000Y28575000I0J-100000D01*
G01*
G37*
G36*
G01*
X103700000Y27925000D02*
X103700000Y27725000D01*
G75*
G02*
X103600000Y27625000I-100000J0D01*
G01*
X102325000Y27625000D01*
G75*
G02*
X102225000Y27725000I0J100000D01*
G01*
X102225000Y27925000D01*
G75*
G02*
X102325000Y28025000I100000J0D01*
G01*
X103600000Y28025000D01*
G75*
G02*
X103700000Y27925000I0J-100000D01*
G01*
G37*
G36*
G01*
X103700000Y27275000D02*
X103700000Y27075000D01*
G75*
G02*
X103600000Y26975000I-100000J0D01*
G01*
X102325000Y26975000D01*
G75*
G02*
X102225000Y27075000I0J100000D01*
G01*
X102225000Y27275000D01*
G75*
G02*
X102325000Y27375000I100000J0D01*
G01*
X103600000Y27375000D01*
G75*
G02*
X103700000Y27275000I0J-100000D01*
G01*
G37*
G36*
G01*
X103700000Y26625000D02*
X103700000Y26425000D01*
G75*
G02*
X103600000Y26325000I-100000J0D01*
G01*
X102325000Y26325000D01*
G75*
G02*
X102225000Y26425000I0J100000D01*
G01*
X102225000Y26625000D01*
G75*
G02*
X102325000Y26725000I100000J0D01*
G01*
X103600000Y26725000D01*
G75*
G02*
X103700000Y26625000I0J-100000D01*
G01*
G37*
G36*
G01*
X103700000Y25975000D02*
X103700000Y25775000D01*
G75*
G02*
X103600000Y25675000I-100000J0D01*
G01*
X102325000Y25675000D01*
G75*
G02*
X102225000Y25775000I0J100000D01*
G01*
X102225000Y25975000D01*
G75*
G02*
X102325000Y26075000I100000J0D01*
G01*
X103600000Y26075000D01*
G75*
G02*
X103700000Y25975000I0J-100000D01*
G01*
G37*
G36*
G01*
X103700000Y25325000D02*
X103700000Y25125000D01*
G75*
G02*
X103600000Y25025000I-100000J0D01*
G01*
X102325000Y25025000D01*
G75*
G02*
X102225000Y25125000I0J100000D01*
G01*
X102225000Y25325000D01*
G75*
G02*
X102325000Y25425000I100000J0D01*
G01*
X103600000Y25425000D01*
G75*
G02*
X103700000Y25325000I0J-100000D01*
G01*
G37*
G36*
G01*
X103700000Y24675000D02*
X103700000Y24475000D01*
G75*
G02*
X103600000Y24375000I-100000J0D01*
G01*
X102325000Y24375000D01*
G75*
G02*
X102225000Y24475000I0J100000D01*
G01*
X102225000Y24675000D01*
G75*
G02*
X102325000Y24775000I100000J0D01*
G01*
X103600000Y24775000D01*
G75*
G02*
X103700000Y24675000I0J-100000D01*
G01*
G37*
D24*
G36*
X84001903Y18047488D02*
G01*
X84850431Y18896016D01*
X85840381Y17906066D01*
X84991853Y17057538D01*
X84001903Y18047488D01*
G37*
G36*
X85557538Y16491853D02*
G01*
X86406066Y17340381D01*
X87396016Y16350431D01*
X86547488Y15501903D01*
X85557538Y16491853D01*
G37*
G36*
X86759619Y17693934D02*
G01*
X87608147Y18542462D01*
X88598097Y17552512D01*
X87749569Y16703984D01*
X86759619Y17693934D01*
G37*
G36*
X85203984Y19249569D02*
G01*
X86052512Y20098097D01*
X87042462Y19108147D01*
X86193934Y18259619D01*
X85203984Y19249569D01*
G37*
D51*
X58600000Y7950000D03*
X60800000Y7950000D03*
X60800000Y9650000D03*
X58600000Y9650000D03*
D20*
X13250000Y2250000D03*
D34*
X37900000Y13150000D03*
X37900000Y14250000D03*
X85600000Y12450000D03*
X85600000Y13550000D03*
D33*
X69700000Y16300000D03*
X70800000Y16300000D03*
D32*
X78000000Y18550000D03*
X78000000Y17050000D03*
X34900000Y8650000D03*
X34900000Y7150000D03*
X38000000Y11850000D03*
X38000000Y10350000D03*
X33500000Y8650000D03*
X33500000Y7150000D03*
D34*
X43100000Y21050000D03*
X43100000Y19950000D03*
D24*
G36*
X55777818Y21475736D02*
G01*
X55424264Y21122182D01*
X55000000Y21546446D01*
X55353554Y21900000D01*
X55777818Y21475736D01*
G37*
G36*
X55000000Y22253554D02*
G01*
X54646446Y21900000D01*
X54222182Y22324264D01*
X54575736Y22677818D01*
X55000000Y22253554D01*
G37*
G36*
X45000000Y12253554D02*
G01*
X44646446Y11900000D01*
X44222182Y12324264D01*
X44575736Y12677818D01*
X45000000Y12253554D01*
G37*
G36*
X45777818Y11475736D02*
G01*
X45424264Y11122182D01*
X45000000Y11546446D01*
X45353554Y11900000D01*
X45777818Y11475736D01*
G37*
D33*
X46050000Y17700000D03*
X47150000Y17700000D03*
D34*
X64600000Y3450000D03*
X64600000Y4550000D03*
D40*
X63100000Y5800000D03*
X63100000Y3800000D03*
D33*
X88900000Y5850000D03*
X90000000Y5850000D03*
D52*
X36750000Y8100000D03*
X40050000Y8100000D03*
D53*
X69300000Y5850000D03*
X69300000Y5350000D03*
X69300000Y4850000D03*
X69300000Y4350000D03*
X71100000Y4350000D03*
X71100000Y4850000D03*
X71100000Y5350000D03*
X71100000Y5850000D03*
D54*
X70200000Y4700000D03*
X70200000Y5500000D03*
D55*
X120100000Y27500000D03*
X117700000Y25500000D03*
X112200000Y25500000D03*
G36*
G01*
X46687500Y20000000D02*
X46512500Y20000000D01*
G75*
G02*
X46425000Y20087500I0J87500D01*
G01*
X46425000Y20462500D01*
G75*
G02*
X46512500Y20550000I87500J0D01*
G01*
X46687500Y20550000D01*
G75*
G02*
X46775000Y20462500I0J-87500D01*
G01*
X46775000Y20087500D01*
G75*
G02*
X46687500Y20000000I-87500J0D01*
G01*
G37*
G36*
G01*
X47187500Y20000000D02*
X47012500Y20000000D01*
G75*
G02*
X46925000Y20087500I0J87500D01*
G01*
X46925000Y20462500D01*
G75*
G02*
X47012500Y20550000I87500J0D01*
G01*
X47187500Y20550000D01*
G75*
G02*
X47275000Y20462500I0J-87500D01*
G01*
X47275000Y20087500D01*
G75*
G02*
X47187500Y20000000I-87500J0D01*
G01*
G37*
G36*
G01*
X47687500Y20000000D02*
X47512500Y20000000D01*
G75*
G02*
X47425000Y20087500I0J87500D01*
G01*
X47425000Y20462500D01*
G75*
G02*
X47512500Y20550000I87500J0D01*
G01*
X47687500Y20550000D01*
G75*
G02*
X47775000Y20462500I0J-87500D01*
G01*
X47775000Y20087500D01*
G75*
G02*
X47687500Y20000000I-87500J0D01*
G01*
G37*
G36*
G01*
X48187500Y20000000D02*
X48012500Y20000000D01*
G75*
G02*
X47925000Y20087500I0J87500D01*
G01*
X47925000Y20462500D01*
G75*
G02*
X48012500Y20550000I87500J0D01*
G01*
X48187500Y20550000D01*
G75*
G02*
X48275000Y20462500I0J-87500D01*
G01*
X48275000Y20087500D01*
G75*
G02*
X48187500Y20000000I-87500J0D01*
G01*
G37*
G36*
G01*
X48687500Y20000000D02*
X48512500Y20000000D01*
G75*
G02*
X48425000Y20087500I0J87500D01*
G01*
X48425000Y20462500D01*
G75*
G02*
X48512500Y20550000I87500J0D01*
G01*
X48687500Y20550000D01*
G75*
G02*
X48775000Y20462500I0J-87500D01*
G01*
X48775000Y20087500D01*
G75*
G02*
X48687500Y20000000I-87500J0D01*
G01*
G37*
G36*
G01*
X49012500Y20825000D02*
X48637500Y20825000D01*
G75*
G02*
X48550000Y20912500I0J87500D01*
G01*
X48550000Y21087500D01*
G75*
G02*
X48637500Y21175000I87500J0D01*
G01*
X49012500Y21175000D01*
G75*
G02*
X49100000Y21087500I0J-87500D01*
G01*
X49100000Y20912500D01*
G75*
G02*
X49012500Y20825000I-87500J0D01*
G01*
G37*
G36*
G01*
X49012500Y21325000D02*
X48637500Y21325000D01*
G75*
G02*
X48550000Y21412500I0J87500D01*
G01*
X48550000Y21587500D01*
G75*
G02*
X48637500Y21675000I87500J0D01*
G01*
X49012500Y21675000D01*
G75*
G02*
X49100000Y21587500I0J-87500D01*
G01*
X49100000Y21412500D01*
G75*
G02*
X49012500Y21325000I-87500J0D01*
G01*
G37*
G36*
G01*
X49012500Y21825000D02*
X48637500Y21825000D01*
G75*
G02*
X48550000Y21912500I0J87500D01*
G01*
X48550000Y22087500D01*
G75*
G02*
X48637500Y22175000I87500J0D01*
G01*
X49012500Y22175000D01*
G75*
G02*
X49100000Y22087500I0J-87500D01*
G01*
X49100000Y21912500D01*
G75*
G02*
X49012500Y21825000I-87500J0D01*
G01*
G37*
G36*
G01*
X48687500Y22450000D02*
X48512500Y22450000D01*
G75*
G02*
X48425000Y22537500I0J87500D01*
G01*
X48425000Y22912500D01*
G75*
G02*
X48512500Y23000000I87500J0D01*
G01*
X48687500Y23000000D01*
G75*
G02*
X48775000Y22912500I0J-87500D01*
G01*
X48775000Y22537500D01*
G75*
G02*
X48687500Y22450000I-87500J0D01*
G01*
G37*
G36*
G01*
X48187500Y22450000D02*
X48012500Y22450000D01*
G75*
G02*
X47925000Y22537500I0J87500D01*
G01*
X47925000Y22912500D01*
G75*
G02*
X48012500Y23000000I87500J0D01*
G01*
X48187500Y23000000D01*
G75*
G02*
X48275000Y22912500I0J-87500D01*
G01*
X48275000Y22537500D01*
G75*
G02*
X48187500Y22450000I-87500J0D01*
G01*
G37*
G36*
G01*
X47687500Y22450000D02*
X47512500Y22450000D01*
G75*
G02*
X47425000Y22537500I0J87500D01*
G01*
X47425000Y22912500D01*
G75*
G02*
X47512500Y23000000I87500J0D01*
G01*
X47687500Y23000000D01*
G75*
G02*
X47775000Y22912500I0J-87500D01*
G01*
X47775000Y22537500D01*
G75*
G02*
X47687500Y22450000I-87500J0D01*
G01*
G37*
G36*
G01*
X47187500Y22450000D02*
X47012500Y22450000D01*
G75*
G02*
X46925000Y22537500I0J87500D01*
G01*
X46925000Y22912500D01*
G75*
G02*
X47012500Y23000000I87500J0D01*
G01*
X47187500Y23000000D01*
G75*
G02*
X47275000Y22912500I0J-87500D01*
G01*
X47275000Y22537500D01*
G75*
G02*
X47187500Y22450000I-87500J0D01*
G01*
G37*
G36*
G01*
X46687500Y22450000D02*
X46512500Y22450000D01*
G75*
G02*
X46425000Y22537500I0J87500D01*
G01*
X46425000Y22912500D01*
G75*
G02*
X46512500Y23000000I87500J0D01*
G01*
X46687500Y23000000D01*
G75*
G02*
X46775000Y22912500I0J-87500D01*
G01*
X46775000Y22537500D01*
G75*
G02*
X46687500Y22450000I-87500J0D01*
G01*
G37*
G36*
G01*
X46562500Y21825000D02*
X46187500Y21825000D01*
G75*
G02*
X46100000Y21912500I0J87500D01*
G01*
X46100000Y22087500D01*
G75*
G02*
X46187500Y22175000I87500J0D01*
G01*
X46562500Y22175000D01*
G75*
G02*
X46650000Y22087500I0J-87500D01*
G01*
X46650000Y21912500D01*
G75*
G02*
X46562500Y21825000I-87500J0D01*
G01*
G37*
G36*
G01*
X46562500Y21325000D02*
X46187500Y21325000D01*
G75*
G02*
X46100000Y21412500I0J87500D01*
G01*
X46100000Y21587500D01*
G75*
G02*
X46187500Y21675000I87500J0D01*
G01*
X46562500Y21675000D01*
G75*
G02*
X46650000Y21587500I0J-87500D01*
G01*
X46650000Y21412500D01*
G75*
G02*
X46562500Y21325000I-87500J0D01*
G01*
G37*
G36*
G01*
X46562500Y20825000D02*
X46187500Y20825000D01*
G75*
G02*
X46100000Y20912500I0J87500D01*
G01*
X46100000Y21087500D01*
G75*
G02*
X46187500Y21175000I87500J0D01*
G01*
X46562500Y21175000D01*
G75*
G02*
X46650000Y21087500I0J-87500D01*
G01*
X46650000Y20912500D01*
G75*
G02*
X46562500Y20825000I-87500J0D01*
G01*
G37*
G36*
G01*
X4550000Y21025000D02*
X5750000Y21025000D01*
G75*
G02*
X5950000Y20825000I0J-200000D01*
G01*
X5950000Y20425000D01*
G75*
G02*
X5750000Y20225000I-200000J0D01*
G01*
X4550000Y20225000D01*
G75*
G02*
X4350000Y20425000I0J200000D01*
G01*
X4350000Y20825000D01*
G75*
G02*
X4550000Y21025000I200000J0D01*
G01*
G37*
G36*
G01*
X4550000Y19775000D02*
X5750000Y19775000D01*
G75*
G02*
X5950000Y19575000I0J-200000D01*
G01*
X5950000Y19175000D01*
G75*
G02*
X5750000Y18975000I-200000J0D01*
G01*
X4550000Y18975000D01*
G75*
G02*
X4350000Y19175000I0J200000D01*
G01*
X4350000Y19575000D01*
G75*
G02*
X4550000Y19775000I200000J0D01*
G01*
G37*
G36*
G01*
X4550000Y18525000D02*
X5750000Y18525000D01*
G75*
G02*
X5950000Y18325000I0J-200000D01*
G01*
X5950000Y17925000D01*
G75*
G02*
X5750000Y17725000I-200000J0D01*
G01*
X4550000Y17725000D01*
G75*
G02*
X4350000Y17925000I0J200000D01*
G01*
X4350000Y18325000D01*
G75*
G02*
X4550000Y18525000I200000J0D01*
G01*
G37*
G36*
G01*
X4550000Y17275000D02*
X5750000Y17275000D01*
G75*
G02*
X5950000Y17075000I0J-200000D01*
G01*
X5950000Y16675000D01*
G75*
G02*
X5750000Y16475000I-200000J0D01*
G01*
X4550000Y16475000D01*
G75*
G02*
X4350000Y16675000I0J200000D01*
G01*
X4350000Y17075000D01*
G75*
G02*
X4550000Y17275000I200000J0D01*
G01*
G37*
G36*
G01*
X4550000Y16025000D02*
X5750000Y16025000D01*
G75*
G02*
X5950000Y15825000I0J-200000D01*
G01*
X5950000Y15425000D01*
G75*
G02*
X5750000Y15225000I-200000J0D01*
G01*
X4550000Y15225000D01*
G75*
G02*
X4350000Y15425000I0J200000D01*
G01*
X4350000Y15825000D01*
G75*
G02*
X4550000Y16025000I200000J0D01*
G01*
G37*
G36*
G01*
X4550000Y14775000D02*
X5750000Y14775000D01*
G75*
G02*
X5950000Y14575000I0J-200000D01*
G01*
X5950000Y14175000D01*
G75*
G02*
X5750000Y13975000I-200000J0D01*
G01*
X4550000Y13975000D01*
G75*
G02*
X4350000Y14175000I0J200000D01*
G01*
X4350000Y14575000D01*
G75*
G02*
X4550000Y14775000I200000J0D01*
G01*
G37*
G36*
G01*
X4550000Y13525000D02*
X5750000Y13525000D01*
G75*
G02*
X5950000Y13325000I0J-200000D01*
G01*
X5950000Y12925000D01*
G75*
G02*
X5750000Y12725000I-200000J0D01*
G01*
X4550000Y12725000D01*
G75*
G02*
X4350000Y12925000I0J200000D01*
G01*
X4350000Y13325000D01*
G75*
G02*
X4550000Y13525000I200000J0D01*
G01*
G37*
G36*
G01*
X4550000Y12275000D02*
X5750000Y12275000D01*
G75*
G02*
X5950000Y12075000I0J-200000D01*
G01*
X5950000Y11675000D01*
G75*
G02*
X5750000Y11475000I-200000J0D01*
G01*
X4550000Y11475000D01*
G75*
G02*
X4350000Y11675000I0J200000D01*
G01*
X4350000Y12075000D01*
G75*
G02*
X4550000Y12275000I200000J0D01*
G01*
G37*
G36*
G01*
X4550000Y11025000D02*
X5750000Y11025000D01*
G75*
G02*
X5950000Y10825000I0J-200000D01*
G01*
X5950000Y10425000D01*
G75*
G02*
X5750000Y10225000I-200000J0D01*
G01*
X4550000Y10225000D01*
G75*
G02*
X4350000Y10425000I0J200000D01*
G01*
X4350000Y10825000D01*
G75*
G02*
X4550000Y11025000I200000J0D01*
G01*
G37*
G36*
G01*
X4550000Y9775000D02*
X5750000Y9775000D01*
G75*
G02*
X5950000Y9575000I0J-200000D01*
G01*
X5950000Y9175000D01*
G75*
G02*
X5750000Y8975000I-200000J0D01*
G01*
X4550000Y8975000D01*
G75*
G02*
X4350000Y9175000I0J200000D01*
G01*
X4350000Y9575000D01*
G75*
G02*
X4550000Y9775000I200000J0D01*
G01*
G37*
G36*
G01*
X4550000Y8525000D02*
X5750000Y8525000D01*
G75*
G02*
X5950000Y8325000I0J-200000D01*
G01*
X5950000Y7925000D01*
G75*
G02*
X5750000Y7725000I-200000J0D01*
G01*
X4550000Y7725000D01*
G75*
G02*
X4350000Y7925000I0J200000D01*
G01*
X4350000Y8325000D01*
G75*
G02*
X4550000Y8525000I200000J0D01*
G01*
G37*
G36*
G01*
X4550000Y7275000D02*
X5750000Y7275000D01*
G75*
G02*
X5950000Y7075000I0J-200000D01*
G01*
X5950000Y6675000D01*
G75*
G02*
X5750000Y6475000I-200000J0D01*
G01*
X4550000Y6475000D01*
G75*
G02*
X4350000Y6675000I0J200000D01*
G01*
X4350000Y7075000D01*
G75*
G02*
X4550000Y7275000I200000J0D01*
G01*
G37*
G36*
G01*
X999999Y24225000D02*
X3500001Y24225000D01*
G75*
G02*
X3750000Y23975001I0J-249999D01*
G01*
X3750000Y22374999D01*
G75*
G02*
X3500001Y22125000I-249999J0D01*
G01*
X999999Y22125000D01*
G75*
G02*
X750000Y22374999I0J249999D01*
G01*
X750000Y23975001D01*
G75*
G02*
X999999Y24225000I249999J0D01*
G01*
G37*
G36*
G01*
X999999Y5375000D02*
X3500001Y5375000D01*
G75*
G02*
X3750000Y5125001I0J-249999D01*
G01*
X3750000Y3524999D01*
G75*
G02*
X3500001Y3275000I-249999J0D01*
G01*
X999999Y3275000D01*
G75*
G02*
X750000Y3524999I0J249999D01*
G01*
X750000Y5125001D01*
G75*
G02*
X999999Y5375000I249999J0D01*
G01*
G37*
M02*
