G04 #@! TF.GenerationSoftware,KiCad,Pcbnew,6.0.9-8da3e8f707~117~ubuntu22.04.1*
G04 #@! TF.CreationDate,2023-01-10T20:00:55+01:00*
G04 #@! TF.ProjectId,CIS,4349532e-6b69-4636-9164-5f7063625858,2.1.0*
G04 #@! TF.SameCoordinates,PX5268310PY6353990*
G04 #@! TF.FileFunction,Paste,Bot*
G04 #@! TF.FilePolarity,Positive*
%FSLAX46Y46*%
G04 Gerber Fmt 4.6, Leading zero omitted, Abs format (unit mm)*
G04 Created by KiCad (PCBNEW 6.0.9-8da3e8f707~117~ubuntu22.04.1) date 2023-01-10 20:00:55*
%MOMM*%
%LPD*%
G01*
G04 APERTURE LIST*
%ADD10R,0.600000X0.500000*%
%ADD11R,0.500000X0.600000*%
%ADD12R,0.900000X1.700000*%
%ADD13R,0.900000X0.500000*%
%ADD14R,0.400000X0.600000*%
%ADD15R,0.600000X0.400000*%
%ADD16R,0.800000X0.800000*%
%ADD17R,1.050000X0.650000*%
%ADD18R,0.650000X1.050000*%
G04 APERTURE END LIST*
D10*
X59050000Y15600040D03*
X60150000Y15600040D03*
X60950000Y14700040D03*
X59850000Y14700040D03*
X60250000Y13800040D03*
X59150000Y13800040D03*
D11*
X48900000Y13350040D03*
X48900000Y14450040D03*
D10*
X54150000Y12101440D03*
X53050000Y12101440D03*
X54950000Y13101440D03*
X53850000Y13101440D03*
X55050000Y14201440D03*
X53950000Y14201440D03*
X54250000Y15401440D03*
X53150000Y15401440D03*
D11*
X176400000Y10651440D03*
X176400000Y11751440D03*
X169600000Y11851440D03*
X169600000Y12951440D03*
X52100000Y11151440D03*
X52100000Y12251440D03*
D10*
X50950000Y13101440D03*
X52050000Y13101440D03*
X50950000Y14201440D03*
X52050000Y14201440D03*
X51050000Y15301440D03*
X52150000Y15301440D03*
D11*
X50000000Y14451440D03*
X50000000Y13351440D03*
X55200000Y15390040D03*
X55200000Y16490040D03*
D10*
X58050000Y12901440D03*
X59150000Y12901440D03*
D12*
X171650000Y20001440D03*
X168750000Y20001440D03*
D13*
X56500000Y9451440D03*
X56500000Y7951440D03*
X57500000Y15950040D03*
X57500000Y14450040D03*
D14*
X30850000Y10411440D03*
X31750000Y10411440D03*
D15*
X186700000Y8451440D03*
X186700000Y9351440D03*
D14*
X51750000Y10101440D03*
X52650000Y10101440D03*
D10*
X52350000Y16401440D03*
X53450000Y16401440D03*
X31650000Y9211440D03*
X30550000Y9211440D03*
D11*
X56200000Y15550040D03*
X56200000Y14450040D03*
D10*
X60050000Y11901440D03*
X58950000Y11901440D03*
D11*
X53000000Y14251440D03*
X53000000Y13151440D03*
D14*
X111900000Y4311440D03*
X111000000Y4311440D03*
X111000000Y5511440D03*
X111900000Y5511440D03*
D16*
X29700000Y2001440D03*
X28100000Y2001440D03*
D14*
X111100000Y21511440D03*
X112000000Y21511440D03*
D15*
X107950000Y16661440D03*
X107950000Y17561440D03*
D11*
X122750000Y17561440D03*
X122750000Y16461440D03*
D10*
X111100000Y19111440D03*
X112200000Y19111440D03*
D14*
X111000000Y13611440D03*
X111900000Y13611440D03*
D15*
X109150000Y17561440D03*
X109150000Y16661440D03*
X123950000Y16661440D03*
X123950000Y17561440D03*
D14*
X112000000Y17911440D03*
X111100000Y17911440D03*
D15*
X125150000Y17561440D03*
X125150000Y16661440D03*
D14*
X111900000Y12411440D03*
X111000000Y12411440D03*
D17*
X114075000Y3436440D03*
X118225000Y3436440D03*
X114075000Y5586440D03*
X118225000Y5586440D03*
X114075000Y11436440D03*
X118225000Y11436440D03*
X114075000Y13586440D03*
X118225000Y13586440D03*
D18*
X107075000Y14586440D03*
X107075000Y10436440D03*
X109225000Y14586440D03*
X109225000Y10436440D03*
X123075000Y14586440D03*
X123075000Y10436440D03*
X125225000Y14586440D03*
X125225000Y10436440D03*
D17*
X114075000Y19436440D03*
X118225000Y19436440D03*
X114075000Y21586440D03*
X118225000Y21586440D03*
D10*
X111000000Y3111440D03*
X112100000Y3111440D03*
X111000000Y11211440D03*
X112100000Y11211440D03*
D11*
X106750000Y17561440D03*
X106750000Y16461440D03*
D10*
X53050000Y11001440D03*
X54150000Y11001440D03*
D15*
X31200000Y2051440D03*
X31200000Y2951440D03*
D10*
X31650000Y8111440D03*
X30550000Y8111440D03*
D15*
X186700000Y19151440D03*
X186700000Y18251440D03*
M02*
