%FSLAX45Y45*%
G04 Gerber Fmt 4.5, Leading zero omitted, Abs format (unit mm)*
G04 Created by KiCad (PCBNEW 5.1.9-73d0e3b20d~88~ubuntu20.04.1) date 2021-01-24 23:06:20*
%MOMM*%
%LPD*%
G01*
G04 APERTURE LIST*
%TA.AperFunction,Profile*%
%ADD10C,1.000000*%
%TD*%
%ADD11C,0.200000*%
%ADD12C,0.300000*%
G04 APERTURE END LIST*
D10*
X11810000Y390000D02*
X12200000Y390000D01*
X11810000Y0D02*
X11810000Y390000D01*
X0Y0D02*
X0Y2500000D01*
X12200000Y3250000D02*
X9645000Y3250000D01*
X8895000Y2500000D02*
X9645000Y3250000D01*
X0Y2500000D02*
X8895000Y2500000D01*
X12200000Y3250000D02*
X12200000Y390000D01*
X11810000Y0D02*
X0Y0D01*
D11*
X995000Y2235000D02*
X1015000Y2215000D01*
X1015000Y2235000D02*
X995000Y2215000D01*
X1095000Y2105000D02*
X1115000Y2085000D01*
X1115000Y2105000D02*
X1095000Y2085000D01*
X1150000Y520000D02*
X1170000Y500000D01*
X1170000Y520000D02*
X1150000Y500000D01*
X1150000Y410000D02*
X1170000Y390000D01*
X1170000Y410000D02*
X1150000Y390000D01*
X1150000Y300000D02*
X1170000Y280000D01*
X1170000Y300000D02*
X1150000Y280000D01*
X1610000Y2300000D02*
X1630000Y2280000D01*
X1630000Y2300000D02*
X1610000Y2280000D01*
X2180000Y1540000D02*
X2200000Y1520000D01*
X2200000Y1540000D02*
X2180000Y1520000D01*
X2670000Y1170000D02*
X2690000Y1150000D01*
X2690000Y1170000D02*
X2670000Y1150000D01*
X2950000Y1780000D02*
X2970000Y1760000D01*
X2970000Y1780000D02*
X2950000Y1760000D01*
X2965000Y280000D02*
X2985000Y260000D01*
X2985000Y280000D02*
X2965000Y260000D01*
X2965000Y150000D02*
X2985000Y130000D01*
X2985000Y150000D02*
X2965000Y130000D01*
X3210000Y1970000D02*
X3230000Y1950000D01*
X3230000Y1970000D02*
X3210000Y1950000D01*
X3220000Y1350000D02*
X3240000Y1330000D01*
X3240000Y1350000D02*
X3220000Y1330000D01*
X3220000Y1230000D02*
X3240000Y1210000D01*
X3240000Y1230000D02*
X3220000Y1210000D01*
X3220000Y1120000D02*
X3240000Y1100000D01*
X3240000Y1120000D02*
X3220000Y1100000D01*
X3250000Y1830000D02*
X3270000Y1810000D01*
X3270000Y1830000D02*
X3250000Y1810000D01*
X3250000Y1710000D02*
X3270000Y1690000D01*
X3270000Y1710000D02*
X3250000Y1690000D01*
X3410000Y1650000D02*
X3430000Y1630000D01*
X3430000Y1650000D02*
X3410000Y1630000D01*
X3410000Y1590000D02*
X3430000Y1570000D01*
X3430000Y1590000D02*
X3410000Y1570000D01*
X3550000Y1770000D02*
X3570000Y1750000D01*
X3570000Y1770000D02*
X3550000Y1750000D01*
X3690000Y1800000D02*
X3710000Y1780000D01*
X3710000Y1800000D02*
X3690000Y1780000D01*
X3700000Y2070000D02*
X3720000Y2050000D01*
X3720000Y2070000D02*
X3700000Y2050000D01*
X3990000Y1700000D02*
X4010000Y1680000D01*
X4010000Y1700000D02*
X3990000Y1680000D01*
X4180000Y690000D02*
X4200000Y670000D01*
X4200000Y690000D02*
X4180000Y670000D01*
X4230000Y730000D02*
X4250000Y710000D01*
X4250000Y730000D02*
X4230000Y710000D01*
X4380000Y1140000D02*
X4400000Y1120000D01*
X4400000Y1140000D02*
X4380000Y1120000D01*
X4400000Y1580000D02*
X4420000Y1560000D01*
X4420000Y1580000D02*
X4400000Y1560000D01*
X4450000Y510000D02*
X4470000Y490000D01*
X4470000Y510000D02*
X4450000Y490000D01*
X4487123Y1617906D02*
X4507123Y1597906D01*
X4507123Y1617906D02*
X4487123Y1597906D01*
X4520000Y1420000D02*
X4540000Y1400000D01*
X4540000Y1420000D02*
X4520000Y1400000D01*
X4590000Y1400000D02*
X4610000Y1380000D01*
X4610000Y1400000D02*
X4590000Y1380000D01*
X4596720Y1459470D02*
X4616720Y1439470D01*
X4616720Y1459470D02*
X4596720Y1439470D01*
X4630000Y1140000D02*
X4650000Y1120000D01*
X4650000Y1140000D02*
X4630000Y1120000D01*
X4630000Y960000D02*
X4650000Y940000D01*
X4650000Y960000D02*
X4630000Y940000D01*
X4682500Y1172500D02*
X4702500Y1152500D01*
X4702500Y1172500D02*
X4682500Y1152500D01*
X4721594Y1975916D02*
X4741594Y1955916D01*
X4741594Y1975916D02*
X4721594Y1955916D01*
X4738250Y1354250D02*
X4758250Y1334250D01*
X4758250Y1354250D02*
X4738250Y1334250D01*
X4752500Y1095000D02*
X4772500Y1075000D01*
X4772500Y1095000D02*
X4752500Y1075000D01*
X4778910Y1582970D02*
X4798910Y1562970D01*
X4798910Y1582970D02*
X4778910Y1562970D01*
X4850000Y1770000D02*
X4870000Y1750000D01*
X4870000Y1770000D02*
X4850000Y1750000D01*
X4876190Y1216310D02*
X4896190Y1196310D01*
X4896190Y1216310D02*
X4876190Y1196310D01*
X4893826Y1733133D02*
X4913826Y1713133D01*
X4913826Y1733133D02*
X4893826Y1713133D01*
X4923790Y1262310D02*
X4943790Y1242310D01*
X4943790Y1262310D02*
X4923790Y1242310D01*
X4924000Y1539000D02*
X4944000Y1519000D01*
X4944000Y1539000D02*
X4924000Y1519000D01*
X4943859Y1787727D02*
X4963859Y1767727D01*
X4963859Y1787727D02*
X4943859Y1767727D01*
X4945000Y1960000D02*
X4965000Y1940000D01*
X4965000Y1960000D02*
X4945000Y1940000D01*
X5014000Y1537000D02*
X5034000Y1517000D01*
X5034000Y1537000D02*
X5014000Y1517000D01*
X5014000Y1263000D02*
X5034000Y1243000D01*
X5034000Y1263000D02*
X5014000Y1243000D01*
X5014130Y1171780D02*
X5034130Y1151780D01*
X5034130Y1171780D02*
X5014130Y1151780D01*
X5014130Y1077250D02*
X5034130Y1057250D01*
X5034130Y1077250D02*
X5014130Y1057250D01*
X5026516Y1404428D02*
X5046516Y1384428D01*
X5046516Y1404428D02*
X5026516Y1384428D01*
X5034042Y1882917D02*
X5054042Y1862917D01*
X5054042Y1882917D02*
X5034042Y1862917D01*
X5034480Y2115520D02*
X5054480Y2095520D01*
X5054480Y2115520D02*
X5034480Y2095520D01*
X5055000Y1965000D02*
X5075000Y1945000D01*
X5075000Y1965000D02*
X5055000Y1945000D01*
X5058710Y1033840D02*
X5078710Y1013840D01*
X5078710Y1033840D02*
X5058710Y1013840D01*
X5060110Y1218120D02*
X5080110Y1198120D01*
X5080110Y1218120D02*
X5060110Y1198120D01*
X5062000Y1674540D02*
X5082000Y1654540D01*
X5082000Y1674540D02*
X5062000Y1654540D01*
X5106090Y1169190D02*
X5126090Y1149190D01*
X5126090Y1169190D02*
X5106090Y1149190D01*
X5107000Y1078000D02*
X5127000Y1058000D01*
X5127000Y1078000D02*
X5107000Y1058000D01*
X5113291Y1950673D02*
X5133291Y1930673D01*
X5133291Y1950673D02*
X5113291Y1930673D01*
X5143300Y1280870D02*
X5163300Y1260870D01*
X5163300Y1280870D02*
X5143300Y1260870D01*
X5149000Y1487000D02*
X5169000Y1467000D01*
X5169000Y1487000D02*
X5149000Y1467000D01*
X5149800Y1586090D02*
X5169800Y1566090D01*
X5169800Y1586090D02*
X5149800Y1566090D01*
X5197995Y1078390D02*
X5217995Y1058390D01*
X5217995Y1078390D02*
X5197995Y1058390D01*
X5240000Y1593400D02*
X5260000Y1573400D01*
X5260000Y1593400D02*
X5240000Y1573400D01*
X5244015Y1951980D02*
X5264015Y1931980D01*
X5264015Y1951980D02*
X5244015Y1931980D01*
X5244020Y940450D02*
X5264020Y920450D01*
X5264020Y940450D02*
X5244020Y920450D01*
X5244020Y849920D02*
X5264020Y829920D01*
X5264020Y849920D02*
X5244020Y829920D01*
X5245000Y1490000D02*
X5265000Y1470000D01*
X5265000Y1490000D02*
X5245000Y1470000D01*
X5247010Y541980D02*
X5267010Y521980D01*
X5267010Y541980D02*
X5247010Y521980D01*
X5280000Y1700000D02*
X5300000Y1680000D01*
X5300000Y1700000D02*
X5280000Y1680000D01*
X5290000Y2091600D02*
X5310000Y2071600D01*
X5310000Y2091600D02*
X5290000Y2071600D01*
X5295000Y1166600D02*
X5315000Y1146600D01*
X5315000Y1166600D02*
X5295000Y1146600D01*
X5298600Y718560D02*
X5318600Y698560D01*
X5318600Y718560D02*
X5298600Y698560D01*
X5334894Y1490304D02*
X5354894Y1470304D01*
X5354894Y1490304D02*
X5334894Y1470304D01*
X5334999Y1033000D02*
X5354999Y1013000D01*
X5354999Y1033000D02*
X5334999Y1013000D01*
X5335980Y940450D02*
X5355980Y920450D01*
X5355980Y940450D02*
X5335980Y920450D01*
X5336000Y847000D02*
X5356000Y827000D01*
X5356000Y847000D02*
X5336000Y827000D01*
X5358830Y727240D02*
X5378830Y707240D01*
X5378830Y727240D02*
X5358830Y707240D01*
X5395000Y1606151D02*
X5415000Y1586151D01*
X5415000Y1606151D02*
X5395000Y1586151D01*
X5426720Y1860020D02*
X5446720Y1840020D01*
X5446720Y1860020D02*
X5426720Y1840020D01*
X5428000Y1032000D02*
X5448000Y1012000D01*
X5448000Y1032000D02*
X5428000Y1012000D01*
X5429800Y1675000D02*
X5449800Y1655000D01*
X5449800Y1675000D02*
X5429800Y1655000D01*
X5448957Y855701D02*
X5468957Y835701D01*
X5468957Y855701D02*
X5448957Y835701D01*
X5470000Y1483320D02*
X5490000Y1463320D01*
X5490000Y1483320D02*
X5470000Y1463320D01*
X5470012Y1170000D02*
X5490012Y1150000D01*
X5490012Y1170000D02*
X5470012Y1150000D01*
X5475000Y987000D02*
X5495000Y967000D01*
X5495000Y987000D02*
X5475000Y967000D01*
X5519010Y1864000D02*
X5539010Y1844000D01*
X5539010Y1864000D02*
X5519010Y1844000D01*
X5520000Y1370000D02*
X5540000Y1350000D01*
X5540000Y1370000D02*
X5520000Y1350000D01*
X5520000Y1217000D02*
X5540000Y1197000D01*
X5540000Y1217000D02*
X5520000Y1197000D01*
X5520000Y1030530D02*
X5540000Y1010530D01*
X5540000Y1030530D02*
X5520000Y1010530D01*
X5523000Y1494180D02*
X5543000Y1474180D01*
X5543000Y1494180D02*
X5523000Y1474180D01*
X5542360Y1937640D02*
X5562360Y1917640D01*
X5562360Y1937640D02*
X5542360Y1917640D01*
X5588540Y1901460D02*
X5608540Y1881460D01*
X5608540Y1901460D02*
X5588540Y1881460D01*
X5600000Y1010000D02*
X5620000Y990000D01*
X5620000Y1010000D02*
X5600000Y990000D01*
X5611292Y1126245D02*
X5631292Y1106245D01*
X5631292Y1126245D02*
X5611292Y1106245D01*
X5655953Y1445928D02*
X5675953Y1425928D01*
X5675953Y1445928D02*
X5655953Y1425928D01*
X5656000Y1354720D02*
X5676000Y1334720D01*
X5676000Y1354720D02*
X5656000Y1334720D01*
X5703000Y1316610D02*
X5723000Y1296610D01*
X5723000Y1316610D02*
X5703000Y1296610D01*
X5746250Y833440D02*
X5766250Y813440D01*
X5766250Y833440D02*
X5746250Y813440D01*
X5797000Y1400000D02*
X5817000Y1380000D01*
X5817000Y1400000D02*
X5797000Y1380000D01*
X5820000Y1590000D02*
X5840000Y1570000D01*
X5840000Y1590000D02*
X5820000Y1570000D01*
X5840320Y1446220D02*
X5860320Y1426220D01*
X5860320Y1446220D02*
X5840320Y1426220D01*
X5842000Y1354000D02*
X5862000Y1334000D01*
X5862000Y1354000D02*
X5842000Y1334000D01*
X5886180Y1495330D02*
X5906180Y1475330D01*
X5906180Y1495330D02*
X5886180Y1475330D01*
X5911320Y1548770D02*
X5931320Y1528770D01*
X5931320Y1548770D02*
X5911320Y1528770D01*
X5960001Y1300000D02*
X5980001Y1280000D01*
X5980001Y1300000D02*
X5960001Y1280000D01*
X5980000Y1400000D02*
X6000000Y1380000D01*
X6000000Y1400000D02*
X5980000Y1380000D01*
X6114070Y1330001D02*
X6134070Y1310001D01*
X6134070Y1330001D02*
X6114070Y1310001D01*
X6195530Y1219999D02*
X6215530Y1199999D01*
X6215530Y1219999D02*
X6195530Y1199999D01*
X6382000Y1151000D02*
X6402000Y1131000D01*
X6402000Y1151000D02*
X6382000Y1131000D01*
X6625007Y665000D02*
X6645007Y645000D01*
X6645007Y665000D02*
X6625007Y645000D01*
X6631305Y489347D02*
X6651305Y469347D01*
X6651305Y489347D02*
X6631305Y469347D01*
X7873350Y887140D02*
X7893350Y867140D01*
X7893350Y887140D02*
X7873350Y867140D01*
X8105000Y1110000D02*
X8125000Y1090000D01*
X8125000Y1110000D02*
X8105000Y1090000D01*
X8107500Y610000D02*
X8127500Y590000D01*
X8127500Y610000D02*
X8107500Y590000D01*
X8545000Y640000D02*
X8565000Y620000D01*
X8565000Y640000D02*
X8545000Y620000D01*
X8632720Y650430D02*
X8652720Y630430D01*
X8652720Y650430D02*
X8632720Y630430D01*
X8695000Y585690D02*
X8715000Y565690D01*
X8715000Y585690D02*
X8695000Y565690D01*
X8713800Y1189980D02*
X8733800Y1169980D01*
X8733800Y1189980D02*
X8713800Y1169980D01*
X8745000Y612500D02*
X8765000Y592500D01*
X8765000Y612500D02*
X8745000Y592500D01*
X8792500Y545000D02*
X8812500Y525000D01*
X8812500Y545000D02*
X8792500Y525000D01*
X8810000Y1290000D02*
X8830000Y1270000D01*
X8830000Y1290000D02*
X8810000Y1270000D01*
X9270223Y2659097D02*
X9290223Y2639097D01*
X9290223Y2659097D02*
X9270223Y2639097D01*
X9444350Y2714290D02*
X9464350Y2694290D01*
X9464350Y2714290D02*
X9444350Y2694290D01*
X9607250Y3052500D02*
X9627250Y3032500D01*
X9627250Y3052500D02*
X9607250Y3032500D01*
X9607910Y2971120D02*
X9627910Y2951120D01*
X9627910Y2971120D02*
X9607910Y2951120D01*
X9608330Y2764050D02*
X9628330Y2744050D01*
X9628330Y2764050D02*
X9608330Y2744050D01*
X9609980Y2828080D02*
X9629980Y2808080D01*
X9629980Y2828080D02*
X9609980Y2808080D01*
X9820000Y2920000D02*
X9840000Y2900000D01*
X9840000Y2920000D02*
X9820000Y2900000D01*
X10180420Y3052500D02*
X10200420Y3032500D01*
X10200420Y3052500D02*
X10180420Y3032500D01*
X10590000Y2857500D02*
X10610000Y2837500D01*
X10610000Y2857500D02*
X10590000Y2837500D01*
X657500Y1440000D02*
G75*
G03*
X657500Y1440000I-17500J0D01*
G01*
X657500Y1370000D02*
G75*
G03*
X657500Y1370000I-17500J0D01*
G01*
X717500Y1400000D02*
G75*
G03*
X717500Y1400000I-17500J0D01*
G01*
X792500Y1575000D02*
G75*
G03*
X792500Y1575000I-17500J0D01*
G01*
X827500Y600000D02*
G75*
G03*
X827500Y600000I-17500J0D01*
G01*
X867500Y2350000D02*
G75*
G03*
X867500Y2350000I-17500J0D01*
G01*
X872500Y1470000D02*
G75*
G03*
X872500Y1470000I-17500J0D01*
G01*
X927500Y2160000D02*
G75*
G03*
X927500Y2160000I-17500J0D01*
G01*
X937500Y600000D02*
G75*
G03*
X937500Y600000I-17500J0D01*
G01*
X957500Y1470000D02*
G75*
G03*
X957500Y1470000I-17500J0D01*
G01*
X987500Y1250000D02*
G75*
G03*
X987500Y1250000I-17500J0D01*
G01*
X1042500Y1470000D02*
G75*
G03*
X1042500Y1470000I-17500J0D01*
G01*
X1087500Y2380000D02*
G75*
G03*
X1087500Y2380000I-17500J0D01*
G01*
X1127500Y1360000D02*
G75*
G03*
X1127500Y1360000I-17500J0D01*
G01*
X1217500Y1075000D02*
G75*
G03*
X1217500Y1075000I-17500J0D01*
G01*
X1237500Y2280000D02*
G75*
G03*
X1237500Y2280000I-17500J0D01*
G01*
X1267500Y2190000D02*
G75*
G03*
X1267500Y2190000I-17500J0D01*
G01*
X1427500Y1445000D02*
G75*
G03*
X1427500Y1445000I-17500J0D01*
G01*
X1427500Y1360000D02*
G75*
G03*
X1427500Y1360000I-17500J0D01*
G01*
X1427500Y1270000D02*
G75*
G03*
X1427500Y1270000I-17500J0D01*
G01*
X1642500Y1260000D02*
G75*
G03*
X1642500Y1260000I-17500J0D01*
G01*
X1652500Y2195000D02*
G75*
G03*
X1652500Y2195000I-17500J0D01*
G01*
X1747500Y580000D02*
G75*
G03*
X1747500Y580000I-17500J0D01*
G01*
X1807500Y1070000D02*
G75*
G03*
X1807500Y1070000I-17500J0D01*
G01*
X1847500Y600000D02*
G75*
G03*
X1847500Y600000I-17500J0D01*
G01*
X2002500Y1765001D02*
G75*
G03*
X2002500Y1765001I-17500J0D01*
G01*
X2002500Y1699998D02*
G75*
G03*
X2002500Y1699998I-17500J0D01*
G01*
X2002500Y1630001D02*
G75*
G03*
X2002500Y1630001I-17500J0D01*
G01*
X2137500Y500000D02*
G75*
G03*
X2137500Y500000I-17500J0D01*
G01*
X2152500Y1760000D02*
G75*
G03*
X2152500Y1760000I-17500J0D01*
G01*
X2207500Y1630000D02*
G75*
G03*
X2207500Y1630000I-17500J0D01*
G01*
X2827500Y2210000D02*
G75*
G03*
X2827500Y2210000I-17500J0D01*
G01*
X2987500Y1220000D02*
G75*
G03*
X2987500Y1220000I-17500J0D01*
G01*
X2987500Y1110000D02*
G75*
G03*
X2987500Y1110000I-17500J0D01*
G01*
X3027500Y1340000D02*
G75*
G03*
X3027500Y1340000I-17500J0D01*
G01*
X3137500Y180000D02*
G75*
G03*
X3137500Y180000I-17500J0D01*
G01*
X3157500Y410000D02*
G75*
G03*
X3157500Y410000I-17500J0D01*
G01*
X3257500Y1520000D02*
G75*
G03*
X3257500Y1520000I-17500J0D01*
G01*
X3287500Y1030000D02*
G75*
G03*
X3287500Y1030000I-17500J0D01*
G01*
X3367500Y960000D02*
G75*
G03*
X3367500Y960000I-17500J0D01*
G01*
X3387500Y440000D02*
G75*
G03*
X3387500Y440000I-17500J0D01*
G01*
X3447500Y2000000D02*
G75*
G03*
X3447500Y2000000I-17500J0D01*
G01*
X3497500Y2060000D02*
G75*
G03*
X3497500Y2060000I-17500J0D01*
G01*
X3507500Y960000D02*
G75*
G03*
X3507500Y960000I-17500J0D01*
G01*
X3567500Y1280000D02*
G75*
G03*
X3567500Y1280000I-17500J0D01*
G01*
X3567500Y1130000D02*
G75*
G03*
X3567500Y1130000I-17500J0D01*
G01*
X3567500Y160000D02*
G75*
G03*
X3567500Y160000I-17500J0D01*
G01*
X3577500Y1490000D02*
G75*
G03*
X3577500Y1490000I-17500J0D01*
G01*
X3607500Y850000D02*
G75*
G03*
X3607500Y850000I-17500J0D01*
G01*
X3607500Y790000D02*
G75*
G03*
X3607500Y790000I-17500J0D01*
G01*
X3737500Y1320000D02*
G75*
G03*
X3737500Y1320000I-17500J0D01*
G01*
X3817500Y940000D02*
G75*
G03*
X3817500Y940000I-17500J0D01*
G01*
X3997500Y160000D02*
G75*
G03*
X3997500Y160000I-17500J0D01*
G01*
X4067500Y470000D02*
G75*
G03*
X4067500Y470000I-17500J0D01*
G01*
X4257500Y2120000D02*
G75*
G03*
X4257500Y2120000I-17500J0D01*
G01*
X4327500Y1930000D02*
G75*
G03*
X4327500Y1930000I-17500J0D01*
G01*
X4357500Y2200000D02*
G75*
G03*
X4357500Y2200000I-17500J0D01*
G01*
X4427500Y1280001D02*
G75*
G03*
X4427500Y1280001I-17500J0D01*
G01*
X4437500Y1930000D02*
G75*
G03*
X4437500Y1930000I-17500J0D01*
G01*
X4507500Y1360001D02*
G75*
G03*
X4507500Y1360001I-17500J0D01*
G01*
X4547499Y1660000D02*
G75*
G03*
X4547499Y1660000I-17500J0D01*
G01*
X4547500Y1930000D02*
G75*
G03*
X4547500Y1930000I-17500J0D01*
G01*
X4547500Y1770000D02*
G75*
G03*
X4547500Y1770000I-17500J0D01*
G01*
X4647500Y140000D02*
G75*
G03*
X4647500Y140000I-17500J0D01*
G01*
X4677500Y1960001D02*
G75*
G03*
X4677500Y1960001I-17500J0D01*
G01*
X4697500Y1290000D02*
G75*
G03*
X4697500Y1290000I-17500J0D01*
G01*
X4727500Y2190000D02*
G75*
G03*
X4727500Y2190000I-17500J0D01*
G01*
X4777500Y2150000D02*
G75*
G03*
X4777500Y2150000I-17500J0D01*
G01*
X4785859Y1715000D02*
G75*
G03*
X4785859Y1715000I-17500J0D01*
G01*
X4807500Y850000D02*
G75*
G03*
X4807500Y850000I-17500J0D01*
G01*
X4827500Y2190000D02*
G75*
G03*
X4827500Y2190000I-17500J0D01*
G01*
X4887500Y540000D02*
G75*
G03*
X4887500Y540000I-17500J0D01*
G01*
X4897500Y760000D02*
G75*
G03*
X4897500Y760000I-17500J0D01*
G01*
X5047500Y550000D02*
G75*
G03*
X5047500Y550000I-17500J0D01*
G01*
X5117500Y130000D02*
G75*
G03*
X5117500Y130000I-17500J0D01*
G01*
X5122500Y825000D02*
G75*
G03*
X5122500Y825000I-17500J0D01*
G01*
X5167500Y780000D02*
G75*
G03*
X5167500Y780000I-17500J0D01*
G01*
X5352500Y2195000D02*
G75*
G03*
X5352500Y2195000I-17500J0D01*
G01*
X5387500Y620000D02*
G75*
G03*
X5387500Y620000I-17500J0D01*
G01*
X5397500Y2020000D02*
G75*
G03*
X5397500Y2020000I-17500J0D01*
G01*
X5432500Y2275000D02*
G75*
G03*
X5432500Y2275000I-17500J0D01*
G01*
X5667500Y719000D02*
G75*
G03*
X5667500Y719000I-17500J0D01*
G01*
X5755959Y1075646D02*
G75*
G03*
X5755959Y1075646I-17500J0D01*
G01*
X5777500Y140000D02*
G75*
G03*
X5777500Y140000I-17500J0D01*
G01*
X5787500Y610000D02*
G75*
G03*
X5787500Y610000I-17500J0D01*
G01*
X6047500Y630000D02*
G75*
G03*
X6047500Y630000I-17500J0D01*
G01*
X6097500Y1070000D02*
G75*
G03*
X6097500Y1070000I-17500J0D01*
G01*
X6097500Y700000D02*
G75*
G03*
X6097500Y700000I-17500J0D01*
G01*
X6177500Y1540000D02*
G75*
G03*
X6177500Y1540000I-17500J0D01*
G01*
X6197500Y560000D02*
G75*
G03*
X6197500Y560000I-17500J0D01*
G01*
X6247500Y160000D02*
G75*
G03*
X6247500Y160000I-17500J0D01*
G01*
X6267500Y780000D02*
G75*
G03*
X6267500Y780000I-17500J0D01*
G01*
X6327500Y280000D02*
G75*
G03*
X6327500Y280000I-17500J0D01*
G01*
X6452500Y580000D02*
G75*
G03*
X6452500Y580000I-17500J0D01*
G01*
X6477500Y275000D02*
G75*
G03*
X6477500Y275000I-17500J0D01*
G01*
X6522500Y520000D02*
G75*
G03*
X6522500Y520000I-17500J0D01*
G01*
X6597500Y280000D02*
G75*
G03*
X6597500Y280000I-17500J0D01*
G01*
X6697500Y327495D02*
G75*
G03*
X6697500Y327495I-17500J0D01*
G01*
X6777500Y735000D02*
G75*
G03*
X6777500Y735000I-17500J0D01*
G01*
X6897500Y140000D02*
G75*
G03*
X6897500Y140000I-17500J0D01*
G01*
X6902500Y385000D02*
G75*
G03*
X6902500Y385000I-17500J0D01*
G01*
X6912500Y1625000D02*
G75*
G03*
X6912500Y1625000I-17500J0D01*
G01*
X6937498Y630000D02*
G75*
G03*
X6937498Y630000I-17500J0D01*
G01*
X7027498Y390000D02*
G75*
G03*
X7027498Y390000I-17500J0D01*
G01*
X7157500Y750000D02*
G75*
G03*
X7157500Y750000I-17500J0D01*
G01*
X7187500Y560000D02*
G75*
G03*
X7187500Y560000I-17500J0D01*
G01*
X7217500Y2180000D02*
G75*
G03*
X7217500Y2180000I-17500J0D01*
G01*
X7257500Y790000D02*
G75*
G03*
X7257500Y790000I-17500J0D01*
G01*
X7307500Y2180000D02*
G75*
G03*
X7307500Y2180000I-17500J0D01*
G01*
X7326600Y1505000D02*
G75*
G03*
X7326600Y1505000I-17500J0D01*
G01*
X7327500Y1605000D02*
G75*
G03*
X7327500Y1605000I-17500J0D01*
G01*
X7337500Y1920000D02*
G75*
G03*
X7337500Y1920000I-17500J0D01*
G01*
X7347500Y620000D02*
G75*
G03*
X7347500Y620000I-17500J0D01*
G01*
X7347500Y550000D02*
G75*
G03*
X7347500Y550000I-17500J0D01*
G01*
X7397500Y2180000D02*
G75*
G03*
X7397500Y2180000I-17500J0D01*
G01*
X7407500Y1920000D02*
G75*
G03*
X7407500Y1920000I-17500J0D01*
G01*
X7407500Y1495000D02*
G75*
G03*
X7407500Y1495000I-17500J0D01*
G01*
X7427500Y480000D02*
G75*
G03*
X7427500Y480000I-17500J0D01*
G01*
X7437500Y270000D02*
G75*
G03*
X7437500Y270000I-17500J0D01*
G01*
X7512500Y1495000D02*
G75*
G03*
X7512500Y1495000I-17500J0D01*
G01*
X7527500Y2180000D02*
G75*
G03*
X7527500Y2180000I-17500J0D01*
G01*
X7532500Y1920000D02*
G75*
G03*
X7532500Y1920000I-17500J0D01*
G01*
X7602500Y1920000D02*
G75*
G03*
X7602500Y1920000I-17500J0D01*
G01*
X7617500Y2180000D02*
G75*
G03*
X7617500Y2180000I-17500J0D01*
G01*
X7672500Y1920000D02*
G75*
G03*
X7672500Y1920000I-17500J0D01*
G01*
X7677500Y1440000D02*
G75*
G03*
X7677500Y1440000I-17500J0D01*
G01*
X7707500Y2180000D02*
G75*
G03*
X7707500Y2180000I-17500J0D01*
G01*
X7807500Y1425000D02*
G75*
G03*
X7807500Y1425000I-17500J0D01*
G01*
X7822500Y1950000D02*
G75*
G03*
X7822500Y1950000I-17500J0D01*
G01*
X7897500Y1780000D02*
G75*
G03*
X7897500Y1780000I-17500J0D01*
G01*
X7897500Y1720000D02*
G75*
G03*
X7897500Y1720000I-17500J0D01*
G01*
X7897500Y1660000D02*
G75*
G03*
X7897500Y1660000I-17500J0D01*
G01*
X7987500Y1450000D02*
G75*
G03*
X7987500Y1450000I-17500J0D01*
G01*
X8017500Y140000D02*
G75*
G03*
X8017500Y140000I-17500J0D01*
G01*
X8092500Y850000D02*
G75*
G03*
X8092500Y850000I-17500J0D01*
G01*
X8107500Y470000D02*
G75*
G03*
X8107500Y470000I-17500J0D01*
G01*
X8122500Y1230000D02*
G75*
G03*
X8122500Y1230000I-17500J0D01*
G01*
X8122500Y970000D02*
G75*
G03*
X8122500Y970000I-17500J0D01*
G01*
X8122500Y730000D02*
G75*
G03*
X8122500Y730000I-17500J0D01*
G01*
X8337500Y360000D02*
G75*
G03*
X8337500Y360000I-17500J0D01*
G01*
X8367500Y925000D02*
G75*
G03*
X8367500Y925000I-17500J0D01*
G01*
X8377500Y1415000D02*
G75*
G03*
X8377500Y1415000I-17500J0D01*
G01*
X8437500Y600000D02*
G75*
G03*
X8437500Y600000I-17500J0D01*
G01*
X8547500Y282497D02*
G75*
G03*
X8547500Y282497I-17500J0D01*
G01*
X8552500Y2055000D02*
G75*
G03*
X8552500Y2055000I-17500J0D01*
G01*
X8567500Y1425000D02*
G75*
G03*
X8567500Y1425000I-17500J0D01*
G01*
X8597500Y1570000D02*
G75*
G03*
X8597500Y1570000I-17500J0D01*
G01*
X8632500Y907500D02*
G75*
G03*
X8632500Y907500I-17500J0D01*
G01*
X8695000Y845000D02*
G75*
G03*
X8695000Y845000I-17500J0D01*
G01*
X8697500Y1985560D02*
G75*
G03*
X8697500Y1985560I-17500J0D01*
G01*
X8697500Y975000D02*
G75*
G03*
X8697500Y975000I-17500J0D01*
G01*
X8762500Y907500D02*
G75*
G03*
X8762500Y907500I-17500J0D01*
G01*
X8775280Y1387220D02*
G75*
G03*
X8775280Y1387220I-17500J0D01*
G01*
X8837500Y310000D02*
G75*
G03*
X8837500Y310000I-17500J0D01*
G01*
X8887500Y1110000D02*
G75*
G03*
X8887500Y1110000I-17500J0D01*
G01*
X8897500Y680000D02*
G75*
G03*
X8897500Y680000I-17500J0D01*
G01*
X8907500Y1475000D02*
G75*
G03*
X8907500Y1475000I-17500J0D01*
G01*
X8907500Y1260000D02*
G75*
G03*
X8907500Y1260000I-17500J0D01*
G01*
X9007500Y460000D02*
G75*
G03*
X9007500Y460000I-17500J0D01*
G01*
X9027500Y1490000D02*
G75*
G03*
X9027500Y1490000I-17500J0D01*
G01*
X9081500Y584000D02*
G75*
G03*
X9081500Y584000I-17500J0D01*
G01*
X9102500Y1210000D02*
G75*
G03*
X9102500Y1210000I-17500J0D01*
G01*
X9147500Y140000D02*
G75*
G03*
X9147500Y140000I-17500J0D01*
G01*
X9492500Y2475000D02*
G75*
G03*
X9492500Y2475000I-17500J0D01*
G01*
X9552500Y1280000D02*
G75*
G03*
X9552500Y1280000I-17500J0D01*
G01*
X9552500Y650000D02*
G75*
G03*
X9552500Y650000I-17500J0D01*
G01*
X9652500Y2190000D02*
G75*
G03*
X9652500Y2190000I-17500J0D01*
G01*
X9667500Y915000D02*
G75*
G03*
X9667500Y915000I-17500J0D01*
G01*
X9667500Y280000D02*
G75*
G03*
X9667500Y280000I-17500J0D01*
G01*
X9742500Y2400000D02*
G75*
G03*
X9742500Y2400000I-17500J0D01*
G01*
X9787500Y1220000D02*
G75*
G03*
X9787500Y1220000I-17500J0D01*
G01*
X9787500Y590000D02*
G75*
G03*
X9787500Y590000I-17500J0D01*
G01*
X9867500Y2520000D02*
G75*
G03*
X9867500Y2520000I-17500J0D01*
G01*
X9937500Y2340000D02*
G75*
G03*
X9937500Y2340000I-17500J0D01*
G01*
X10117500Y2345000D02*
G75*
G03*
X10117500Y2345000I-17500J0D01*
G01*
X10137500Y2070000D02*
G75*
G03*
X10137500Y2070000I-17500J0D01*
G01*
X10137500Y2000000D02*
G75*
G03*
X10137500Y2000000I-17500J0D01*
G01*
X10137500Y1925000D02*
G75*
G03*
X10137500Y1925000I-17500J0D01*
G01*
X10157500Y200000D02*
G75*
G03*
X10157500Y200000I-17500J0D01*
G01*
X10192500Y2590000D02*
G75*
G03*
X10192500Y2590000I-17500J0D01*
G01*
X10197500Y2975000D02*
G75*
G03*
X10197500Y2975000I-17500J0D01*
G01*
X10262500Y1295000D02*
G75*
G03*
X10262500Y1295000I-17500J0D01*
G01*
X10312500Y2400000D02*
G75*
G03*
X10312500Y2400000I-17500J0D01*
G01*
X10422500Y2915000D02*
G75*
G03*
X10422500Y2915000I-17500J0D01*
G01*
X10552500Y3025000D02*
G75*
G03*
X10552500Y3025000I-17500J0D01*
G01*
X10597500Y2515000D02*
G75*
G03*
X10597500Y2515000I-17500J0D01*
G01*
X10847500Y2450000D02*
G75*
G03*
X10847500Y2450000I-17500J0D01*
G01*
X11007500Y1245000D02*
G75*
G03*
X11007500Y1245000I-17500J0D01*
G01*
X11437500Y2780000D02*
G75*
G03*
X11437500Y2780000I-17500J0D01*
G01*
X11802500Y2855000D02*
G75*
G03*
X11802500Y2855000I-17500J0D01*
G01*
X12037500Y1750000D02*
G75*
G03*
X12037500Y1750000I-17500J0D01*
G01*
X12037500Y1010000D02*
G75*
G03*
X12037500Y1010000I-17500J0D01*
G01*
X1556000Y393500D02*
X1556000Y333500D01*
X1526000Y363500D02*
X1586000Y363500D01*
X1556000Y266500D02*
X1556000Y206500D01*
X1526000Y236500D02*
X1586000Y236500D01*
X1683000Y393500D02*
X1683000Y333500D01*
X1653000Y363500D02*
X1713000Y363500D01*
X1683000Y266500D02*
X1683000Y206500D01*
X1653000Y236500D02*
X1713000Y236500D01*
X1810000Y393500D02*
X1810000Y333500D01*
X1780000Y363500D02*
X1840000Y363500D01*
X1810000Y266500D02*
X1810000Y206500D01*
X1780000Y236500D02*
X1840000Y236500D01*
X1937000Y393500D02*
X1937000Y333500D01*
X1907000Y363500D02*
X1967000Y363500D01*
X1937000Y266500D02*
X1937000Y206500D01*
X1907000Y236500D02*
X1967000Y236500D01*
X2064000Y393500D02*
X2064000Y333500D01*
X2034000Y363500D02*
X2094000Y363500D01*
X2064000Y266500D02*
X2064000Y206500D01*
X2034000Y236500D02*
X2094000Y236500D01*
X10551820Y1664180D02*
X10551820Y1727820D01*
X10488180Y1727820D01*
X10488180Y1664180D01*
X10551820Y1664180D01*
X10551820Y1410180D02*
X10551820Y1473820D01*
X10488180Y1473820D01*
X10488180Y1410180D01*
X10551820Y1410180D01*
X10551820Y1156180D02*
X10551820Y1219820D01*
X10488180Y1219820D01*
X10488180Y1156180D01*
X10551820Y1156180D01*
X10551820Y902180D02*
X10551820Y965820D01*
X10488180Y965820D01*
X10488180Y902180D01*
X10551820Y902180D01*
X10551820Y648180D02*
X10551820Y711820D01*
X10488180Y711820D01*
X10488180Y648180D01*
X10551820Y648180D01*
X10805820Y1791180D02*
X10805820Y1854820D01*
X10742180Y1854820D01*
X10742180Y1791180D01*
X10805820Y1791180D01*
X10805820Y1283180D02*
X10805820Y1346820D01*
X10742180Y1346820D01*
X10742180Y1283180D01*
X10805820Y1283180D01*
X10805820Y1029180D02*
X10805820Y1092820D01*
X10742180Y1092820D01*
X10742180Y1029180D01*
X10805820Y1029180D01*
X10805820Y775180D02*
X10805820Y838820D01*
X10742180Y838820D01*
X10742180Y775180D01*
X10805820Y775180D01*
X11220000Y2500000D02*
X11270000Y2550000D01*
X11220000Y2600000D01*
X11170000Y2550000D01*
X11220000Y2500000D01*
X11180000Y2600000D02*
X11180000Y2500000D01*
X11260000Y2600000D02*
X11260000Y2500000D01*
X11180000Y2500000D02*
G75*
G03*
X11260000Y2500000I40000J0D01*
G01*
X11260000Y2600000D02*
G75*
G03*
X11180000Y2600000I-40000J0D01*
G01*
X11770000Y2500000D02*
X11820000Y2550000D01*
X11770000Y2600000D01*
X11720000Y2550000D01*
X11770000Y2500000D01*
X11730000Y2600000D02*
X11730000Y2500000D01*
X11810000Y2600000D02*
X11810000Y2500000D01*
X11730000Y2500000D02*
G75*
G03*
X11810000Y2500000I40000J0D01*
G01*
X11810000Y2600000D02*
G75*
G03*
X11730000Y2600000I-40000J0D01*
G01*
X11815000Y1864000D02*
X11865000Y1914000D01*
X11815000Y1964000D01*
X11765000Y1914000D01*
X11815000Y1864000D01*
X11815000Y1610000D02*
X11865000Y1660000D01*
X11815000Y1710000D01*
X11765000Y1660000D01*
X11815000Y1610000D01*
X11815000Y792000D02*
X11865000Y842000D01*
X11815000Y892000D01*
X11765000Y842000D01*
X11815000Y792000D01*
X11815000Y538000D02*
X11865000Y588000D01*
X11815000Y638000D01*
X11765000Y588000D01*
X11815000Y538000D01*
X12010000Y2700000D02*
X12060000Y2750000D01*
X12010000Y2800000D01*
X11960000Y2750000D01*
X12010000Y2700000D01*
X11970000Y2800000D02*
X11970000Y2700000D01*
X12050000Y2800000D02*
X12050000Y2700000D01*
X11970000Y2700000D02*
G75*
G03*
X12050000Y2700000I40000J0D01*
G01*
X12050000Y2800000D02*
G75*
G03*
X11970000Y2800000I-40000J0D01*
G01*
X11019000Y2111000D02*
X11189000Y1941000D01*
X11189000Y2111000D02*
X11019000Y1941000D01*
X11189000Y2026000D02*
G75*
G03*
X11189000Y2026000I-85000J0D01*
G01*
X11019000Y561000D02*
X11189000Y391000D01*
X11189000Y561000D02*
X11019000Y391000D01*
X11189000Y476000D02*
G75*
G03*
X11189000Y476000I-85000J0D01*
G01*
D12*
X236428Y-515714D02*
X236428Y-215714D01*
X307857Y-215714D01*
X350714Y-230000D01*
X379286Y-258571D01*
X393571Y-287143D01*
X407857Y-344286D01*
X407857Y-387143D01*
X393571Y-444286D01*
X379286Y-472857D01*
X350714Y-501429D01*
X307857Y-515714D01*
X236428Y-515714D01*
X536428Y-515714D02*
X536428Y-315714D01*
X536428Y-372857D02*
X550714Y-344286D01*
X565000Y-330000D01*
X593571Y-315714D01*
X622143Y-315714D01*
X722143Y-515714D02*
X722143Y-315714D01*
X722143Y-215714D02*
X707857Y-230000D01*
X722143Y-244286D01*
X736428Y-230000D01*
X722143Y-215714D01*
X722143Y-244286D01*
X907857Y-515714D02*
X879286Y-501429D01*
X865000Y-472857D01*
X865000Y-215714D01*
X1065000Y-515714D02*
X1036428Y-501429D01*
X1022143Y-472857D01*
X1022143Y-215714D01*
X1407857Y-515714D02*
X1407857Y-215714D01*
X1507857Y-430000D01*
X1607857Y-215714D01*
X1607857Y-515714D01*
X1879286Y-515714D02*
X1879286Y-358571D01*
X1865000Y-330000D01*
X1836428Y-315714D01*
X1779286Y-315714D01*
X1750714Y-330000D01*
X1879286Y-501429D02*
X1850714Y-515714D01*
X1779286Y-515714D01*
X1750714Y-501429D01*
X1736428Y-472857D01*
X1736428Y-444286D01*
X1750714Y-415714D01*
X1779286Y-401429D01*
X1850714Y-401429D01*
X1879286Y-387143D01*
X2022143Y-315714D02*
X2022143Y-615714D01*
X2022143Y-330000D02*
X2050714Y-315714D01*
X2107857Y-315714D01*
X2136428Y-330000D01*
X2150714Y-344286D01*
X2165000Y-372857D01*
X2165000Y-458571D01*
X2150714Y-487143D01*
X2136428Y-501429D01*
X2107857Y-515714D01*
X2050714Y-515714D01*
X2022143Y-501429D01*
X2293571Y-487143D02*
X2307857Y-501429D01*
X2293571Y-515714D01*
X2279286Y-501429D01*
X2293571Y-487143D01*
X2293571Y-515714D01*
X2293571Y-330000D02*
X2307857Y-344286D01*
X2293571Y-358571D01*
X2279286Y-344286D01*
X2293571Y-330000D01*
X2293571Y-358571D01*
X-70000Y-1000000D02*
X-50000Y-1020000D01*
X-50000Y-1000000D02*
X-70000Y-1020000D01*
X293571Y-845714D02*
X322143Y-845714D01*
X350714Y-860000D01*
X365000Y-874286D01*
X379286Y-902857D01*
X393571Y-960000D01*
X393571Y-1031429D01*
X379286Y-1088572D01*
X365000Y-1117143D01*
X350714Y-1131429D01*
X322143Y-1145714D01*
X293571Y-1145714D01*
X265000Y-1131429D01*
X250714Y-1117143D01*
X236428Y-1088572D01*
X222143Y-1031429D01*
X222143Y-960000D01*
X236428Y-902857D01*
X250714Y-874286D01*
X265000Y-860000D01*
X293571Y-845714D01*
X522143Y-1117143D02*
X536428Y-1131429D01*
X522143Y-1145714D01*
X507857Y-1131429D01*
X522143Y-1117143D01*
X522143Y-1145714D01*
X650714Y-874286D02*
X665000Y-860000D01*
X693571Y-845714D01*
X765000Y-845714D01*
X793571Y-860000D01*
X807857Y-874286D01*
X822143Y-902857D01*
X822143Y-931429D01*
X807857Y-974286D01*
X636428Y-1145714D01*
X822143Y-1145714D01*
X1007857Y-845714D02*
X1036428Y-845714D01*
X1065000Y-860000D01*
X1079286Y-874286D01*
X1093571Y-902857D01*
X1107857Y-960000D01*
X1107857Y-1031429D01*
X1093571Y-1088572D01*
X1079286Y-1117143D01*
X1065000Y-1131429D01*
X1036428Y-1145714D01*
X1007857Y-1145714D01*
X979286Y-1131429D01*
X965000Y-1117143D01*
X950714Y-1088572D01*
X936428Y-1031429D01*
X936428Y-960000D01*
X950714Y-902857D01*
X965000Y-874286D01*
X979286Y-860000D01*
X1007857Y-845714D01*
X1236428Y-1145714D02*
X1236428Y-945714D01*
X1236428Y-974286D02*
X1250714Y-960000D01*
X1279286Y-945714D01*
X1322143Y-945714D01*
X1350714Y-960000D01*
X1365000Y-988571D01*
X1365000Y-1145714D01*
X1365000Y-988571D02*
X1379286Y-960000D01*
X1407857Y-945714D01*
X1450714Y-945714D01*
X1479286Y-960000D01*
X1493571Y-988571D01*
X1493571Y-1145714D01*
X1636428Y-1145714D02*
X1636428Y-945714D01*
X1636428Y-974286D02*
X1650714Y-960000D01*
X1679286Y-945714D01*
X1722143Y-945714D01*
X1750714Y-960000D01*
X1765000Y-988571D01*
X1765000Y-1145714D01*
X1765000Y-988571D02*
X1779286Y-960000D01*
X1807857Y-945714D01*
X1850714Y-945714D01*
X1879286Y-960000D01*
X1893571Y-988571D01*
X1893571Y-1145714D01*
X2479286Y-831429D02*
X2222143Y-1217143D01*
X2865000Y-845714D02*
X2893571Y-845714D01*
X2922143Y-860000D01*
X2936428Y-874286D01*
X2950714Y-902857D01*
X2965000Y-960000D01*
X2965000Y-1031429D01*
X2950714Y-1088572D01*
X2936428Y-1117143D01*
X2922143Y-1131429D01*
X2893571Y-1145714D01*
X2865000Y-1145714D01*
X2836428Y-1131429D01*
X2822143Y-1117143D01*
X2807857Y-1088572D01*
X2793571Y-1031429D01*
X2793571Y-960000D01*
X2807857Y-902857D01*
X2822143Y-874286D01*
X2836428Y-860000D01*
X2865000Y-845714D01*
X3093571Y-1117143D02*
X3107857Y-1131429D01*
X3093571Y-1145714D01*
X3079286Y-1131429D01*
X3093571Y-1117143D01*
X3093571Y-1145714D01*
X3293571Y-845714D02*
X3322143Y-845714D01*
X3350714Y-860000D01*
X3365000Y-874286D01*
X3379286Y-902857D01*
X3393571Y-960000D01*
X3393571Y-1031429D01*
X3379286Y-1088572D01*
X3365000Y-1117143D01*
X3350714Y-1131429D01*
X3322143Y-1145714D01*
X3293571Y-1145714D01*
X3265000Y-1131429D01*
X3250714Y-1117143D01*
X3236428Y-1088572D01*
X3222143Y-1031429D01*
X3222143Y-960000D01*
X3236428Y-902857D01*
X3250714Y-874286D01*
X3265000Y-860000D01*
X3293571Y-845714D01*
X3579286Y-845714D02*
X3607857Y-845714D01*
X3636428Y-860000D01*
X3650714Y-874286D01*
X3665000Y-902857D01*
X3679286Y-960000D01*
X3679286Y-1031429D01*
X3665000Y-1088572D01*
X3650714Y-1117143D01*
X3636428Y-1131429D01*
X3607857Y-1145714D01*
X3579286Y-1145714D01*
X3550714Y-1131429D01*
X3536428Y-1117143D01*
X3522143Y-1088572D01*
X3507857Y-1031429D01*
X3507857Y-960000D01*
X3522143Y-902857D01*
X3536428Y-874286D01*
X3550714Y-860000D01*
X3579286Y-845714D01*
X3850714Y-974286D02*
X3822143Y-960000D01*
X3807857Y-945714D01*
X3793571Y-917143D01*
X3793571Y-902857D01*
X3807857Y-874286D01*
X3822143Y-860000D01*
X3850714Y-845714D01*
X3907857Y-845714D01*
X3936428Y-860000D01*
X3950714Y-874286D01*
X3965000Y-902857D01*
X3965000Y-917143D01*
X3950714Y-945714D01*
X3936428Y-960000D01*
X3907857Y-974286D01*
X3850714Y-974286D01*
X3822143Y-988571D01*
X3807857Y-1002857D01*
X3793571Y-1031429D01*
X3793571Y-1088572D01*
X3807857Y-1117143D01*
X3822143Y-1131429D01*
X3850714Y-1145714D01*
X3907857Y-1145714D01*
X3936428Y-1131429D01*
X3950714Y-1117143D01*
X3965000Y-1088572D01*
X3965000Y-1031429D01*
X3950714Y-1002857D01*
X3936428Y-988571D01*
X3907857Y-974286D01*
X4079286Y-845714D02*
X4079286Y-902857D01*
X4193571Y-845714D02*
X4193571Y-902857D01*
X4636428Y-1260000D02*
X4622143Y-1245714D01*
X4593571Y-1202857D01*
X4579286Y-1174286D01*
X4565000Y-1131429D01*
X4550714Y-1060000D01*
X4550714Y-1002857D01*
X4565000Y-931429D01*
X4579286Y-888571D01*
X4593571Y-860000D01*
X4622143Y-817143D01*
X4636428Y-802857D01*
X4907857Y-1145714D02*
X4736428Y-1145714D01*
X4822143Y-1145714D02*
X4822143Y-845714D01*
X4793571Y-888571D01*
X4765000Y-917143D01*
X4736428Y-931429D01*
X5007857Y-845714D02*
X5193571Y-845714D01*
X5093571Y-960000D01*
X5136428Y-960000D01*
X5165000Y-974286D01*
X5179286Y-988571D01*
X5193571Y-1017143D01*
X5193571Y-1088572D01*
X5179286Y-1117143D01*
X5165000Y-1131429D01*
X5136428Y-1145714D01*
X5050714Y-1145714D01*
X5022143Y-1131429D01*
X5007857Y-1117143D01*
X5307857Y-874286D02*
X5322143Y-860000D01*
X5350714Y-845714D01*
X5422143Y-845714D01*
X5450714Y-860000D01*
X5465000Y-874286D01*
X5479286Y-902857D01*
X5479286Y-931429D01*
X5465000Y-974286D01*
X5293571Y-1145714D01*
X5479286Y-1145714D01*
X5836428Y-1145714D02*
X5836428Y-845714D01*
X5965000Y-1145714D02*
X5965000Y-988571D01*
X5950714Y-960000D01*
X5922143Y-945714D01*
X5879286Y-945714D01*
X5850714Y-960000D01*
X5836428Y-974286D01*
X6150714Y-1145714D02*
X6122143Y-1131429D01*
X6107857Y-1117143D01*
X6093571Y-1088572D01*
X6093571Y-1002857D01*
X6107857Y-974286D01*
X6122143Y-960000D01*
X6150714Y-945714D01*
X6193571Y-945714D01*
X6222143Y-960000D01*
X6236428Y-974286D01*
X6250714Y-1002857D01*
X6250714Y-1088572D01*
X6236428Y-1117143D01*
X6222143Y-1131429D01*
X6193571Y-1145714D01*
X6150714Y-1145714D01*
X6422143Y-1145714D02*
X6393571Y-1131429D01*
X6379286Y-1102857D01*
X6379286Y-845714D01*
X6650714Y-1131429D02*
X6622143Y-1145714D01*
X6565000Y-1145714D01*
X6536428Y-1131429D01*
X6522143Y-1102857D01*
X6522143Y-988571D01*
X6536428Y-960000D01*
X6565000Y-945714D01*
X6622143Y-945714D01*
X6650714Y-960000D01*
X6665000Y-988571D01*
X6665000Y-1017143D01*
X6522143Y-1045714D01*
X6779286Y-1131429D02*
X6807857Y-1145714D01*
X6865000Y-1145714D01*
X6893571Y-1131429D01*
X6907857Y-1102857D01*
X6907857Y-1088572D01*
X6893571Y-1060000D01*
X6865000Y-1045714D01*
X6822143Y-1045714D01*
X6793571Y-1031429D01*
X6779286Y-1002857D01*
X6779286Y-988571D01*
X6793571Y-960000D01*
X6822143Y-945714D01*
X6865000Y-945714D01*
X6893571Y-960000D01*
X7007857Y-1260000D02*
X7022143Y-1245714D01*
X7050714Y-1202857D01*
X7065000Y-1174286D01*
X7079286Y-1131429D01*
X7093571Y-1060000D01*
X7093571Y-1002857D01*
X7079286Y-931429D01*
X7065000Y-888571D01*
X7050714Y-860000D01*
X7022143Y-817143D01*
X7007857Y-802857D01*
X-50000Y-1406000D02*
G75*
G03*
X-50000Y-1406000I-17500J0D01*
G01*
X293571Y-1241714D02*
X322143Y-1241714D01*
X350714Y-1256000D01*
X365000Y-1270286D01*
X379286Y-1298857D01*
X393571Y-1356000D01*
X393571Y-1427429D01*
X379286Y-1484571D01*
X365000Y-1513143D01*
X350714Y-1527429D01*
X322143Y-1541714D01*
X293571Y-1541714D01*
X265000Y-1527429D01*
X250714Y-1513143D01*
X236428Y-1484571D01*
X222143Y-1427429D01*
X222143Y-1356000D01*
X236428Y-1298857D01*
X250714Y-1270286D01*
X265000Y-1256000D01*
X293571Y-1241714D01*
X522143Y-1513143D02*
X536428Y-1527429D01*
X522143Y-1541714D01*
X507857Y-1527429D01*
X522143Y-1513143D01*
X522143Y-1541714D01*
X636428Y-1241714D02*
X822143Y-1241714D01*
X722143Y-1356000D01*
X765000Y-1356000D01*
X793571Y-1370286D01*
X807857Y-1384572D01*
X822143Y-1413143D01*
X822143Y-1484571D01*
X807857Y-1513143D01*
X793571Y-1527429D01*
X765000Y-1541714D01*
X679286Y-1541714D01*
X650714Y-1527429D01*
X636428Y-1513143D01*
X1093571Y-1241714D02*
X950714Y-1241714D01*
X936428Y-1384572D01*
X950714Y-1370286D01*
X979286Y-1356000D01*
X1050714Y-1356000D01*
X1079286Y-1370286D01*
X1093571Y-1384572D01*
X1107857Y-1413143D01*
X1107857Y-1484571D01*
X1093571Y-1513143D01*
X1079286Y-1527429D01*
X1050714Y-1541714D01*
X979286Y-1541714D01*
X950714Y-1527429D01*
X936428Y-1513143D01*
X1236428Y-1541714D02*
X1236428Y-1341714D01*
X1236428Y-1370286D02*
X1250714Y-1356000D01*
X1279286Y-1341714D01*
X1322143Y-1341714D01*
X1350714Y-1356000D01*
X1365000Y-1384572D01*
X1365000Y-1541714D01*
X1365000Y-1384572D02*
X1379286Y-1356000D01*
X1407857Y-1341714D01*
X1450714Y-1341714D01*
X1479286Y-1356000D01*
X1493571Y-1384572D01*
X1493571Y-1541714D01*
X1636428Y-1541714D02*
X1636428Y-1341714D01*
X1636428Y-1370286D02*
X1650714Y-1356000D01*
X1679286Y-1341714D01*
X1722143Y-1341714D01*
X1750714Y-1356000D01*
X1765000Y-1384572D01*
X1765000Y-1541714D01*
X1765000Y-1384572D02*
X1779286Y-1356000D01*
X1807857Y-1341714D01*
X1850714Y-1341714D01*
X1879286Y-1356000D01*
X1893571Y-1384572D01*
X1893571Y-1541714D01*
X2479286Y-1227429D02*
X2222143Y-1613143D01*
X2865000Y-1241714D02*
X2893571Y-1241714D01*
X2922143Y-1256000D01*
X2936428Y-1270286D01*
X2950714Y-1298857D01*
X2965000Y-1356000D01*
X2965000Y-1427429D01*
X2950714Y-1484571D01*
X2936428Y-1513143D01*
X2922143Y-1527429D01*
X2893571Y-1541714D01*
X2865000Y-1541714D01*
X2836428Y-1527429D01*
X2822143Y-1513143D01*
X2807857Y-1484571D01*
X2793571Y-1427429D01*
X2793571Y-1356000D01*
X2807857Y-1298857D01*
X2822143Y-1270286D01*
X2836428Y-1256000D01*
X2865000Y-1241714D01*
X3093571Y-1513143D02*
X3107857Y-1527429D01*
X3093571Y-1541714D01*
X3079286Y-1527429D01*
X3093571Y-1513143D01*
X3093571Y-1541714D01*
X3293571Y-1241714D02*
X3322143Y-1241714D01*
X3350714Y-1256000D01*
X3365000Y-1270286D01*
X3379286Y-1298857D01*
X3393571Y-1356000D01*
X3393571Y-1427429D01*
X3379286Y-1484571D01*
X3365000Y-1513143D01*
X3350714Y-1527429D01*
X3322143Y-1541714D01*
X3293571Y-1541714D01*
X3265000Y-1527429D01*
X3250714Y-1513143D01*
X3236428Y-1484571D01*
X3222143Y-1427429D01*
X3222143Y-1356000D01*
X3236428Y-1298857D01*
X3250714Y-1270286D01*
X3265000Y-1256000D01*
X3293571Y-1241714D01*
X3679286Y-1541714D02*
X3507857Y-1541714D01*
X3593571Y-1541714D02*
X3593571Y-1241714D01*
X3565000Y-1284572D01*
X3536428Y-1313143D01*
X3507857Y-1327429D01*
X3936428Y-1341714D02*
X3936428Y-1541714D01*
X3865000Y-1227429D02*
X3793571Y-1441714D01*
X3979286Y-1441714D01*
X4079286Y-1241714D02*
X4079286Y-1298857D01*
X4193571Y-1241714D02*
X4193571Y-1298857D01*
X4636428Y-1656000D02*
X4622143Y-1641714D01*
X4593571Y-1598857D01*
X4579286Y-1570286D01*
X4565000Y-1527429D01*
X4550714Y-1456000D01*
X4550714Y-1398857D01*
X4565000Y-1327429D01*
X4579286Y-1284572D01*
X4593571Y-1256000D01*
X4622143Y-1213143D01*
X4636428Y-1198857D01*
X4907857Y-1541714D02*
X4736428Y-1541714D01*
X4822143Y-1541714D02*
X4822143Y-1241714D01*
X4793571Y-1284572D01*
X4765000Y-1313143D01*
X4736428Y-1327429D01*
X5050714Y-1541714D02*
X5107857Y-1541714D01*
X5136428Y-1527429D01*
X5150714Y-1513143D01*
X5179286Y-1470286D01*
X5193571Y-1413143D01*
X5193571Y-1298857D01*
X5179286Y-1270286D01*
X5165000Y-1256000D01*
X5136428Y-1241714D01*
X5079286Y-1241714D01*
X5050714Y-1256000D01*
X5036428Y-1270286D01*
X5022143Y-1298857D01*
X5022143Y-1370286D01*
X5036428Y-1398857D01*
X5050714Y-1413143D01*
X5079286Y-1427429D01*
X5136428Y-1427429D01*
X5165000Y-1413143D01*
X5179286Y-1398857D01*
X5193571Y-1370286D01*
X5307857Y-1270286D02*
X5322143Y-1256000D01*
X5350714Y-1241714D01*
X5422143Y-1241714D01*
X5450714Y-1256000D01*
X5465000Y-1270286D01*
X5479286Y-1298857D01*
X5479286Y-1327429D01*
X5465000Y-1370286D01*
X5293571Y-1541714D01*
X5479286Y-1541714D01*
X5836428Y-1541714D02*
X5836428Y-1241714D01*
X5965000Y-1541714D02*
X5965000Y-1384572D01*
X5950714Y-1356000D01*
X5922143Y-1341714D01*
X5879286Y-1341714D01*
X5850714Y-1356000D01*
X5836428Y-1370286D01*
X6150714Y-1541714D02*
X6122143Y-1527429D01*
X6107857Y-1513143D01*
X6093571Y-1484571D01*
X6093571Y-1398857D01*
X6107857Y-1370286D01*
X6122143Y-1356000D01*
X6150714Y-1341714D01*
X6193571Y-1341714D01*
X6222143Y-1356000D01*
X6236428Y-1370286D01*
X6250714Y-1398857D01*
X6250714Y-1484571D01*
X6236428Y-1513143D01*
X6222143Y-1527429D01*
X6193571Y-1541714D01*
X6150714Y-1541714D01*
X6422143Y-1541714D02*
X6393571Y-1527429D01*
X6379286Y-1498857D01*
X6379286Y-1241714D01*
X6650714Y-1527429D02*
X6622143Y-1541714D01*
X6565000Y-1541714D01*
X6536428Y-1527429D01*
X6522143Y-1498857D01*
X6522143Y-1384572D01*
X6536428Y-1356000D01*
X6565000Y-1341714D01*
X6622143Y-1341714D01*
X6650714Y-1356000D01*
X6665000Y-1384572D01*
X6665000Y-1413143D01*
X6522143Y-1441714D01*
X6779286Y-1527429D02*
X6807857Y-1541714D01*
X6865000Y-1541714D01*
X6893571Y-1527429D01*
X6907857Y-1498857D01*
X6907857Y-1484571D01*
X6893571Y-1456000D01*
X6865000Y-1441714D01*
X6822143Y-1441714D01*
X6793571Y-1427429D01*
X6779286Y-1398857D01*
X6779286Y-1384572D01*
X6793571Y-1356000D01*
X6822143Y-1341714D01*
X6865000Y-1341714D01*
X6893571Y-1356000D01*
X7007857Y-1656000D02*
X7022143Y-1641714D01*
X7050714Y-1598857D01*
X7065000Y-1570286D01*
X7079286Y-1527429D01*
X7093571Y-1456000D01*
X7093571Y-1398857D01*
X7079286Y-1327429D01*
X7065000Y-1284572D01*
X7050714Y-1256000D01*
X7022143Y-1213143D01*
X7007857Y-1198857D01*
X-80000Y-1772000D02*
X-80000Y-1832000D01*
X-110000Y-1802000D02*
X-50000Y-1802000D01*
X293571Y-1637714D02*
X322143Y-1637714D01*
X350714Y-1652000D01*
X365000Y-1666286D01*
X379286Y-1694857D01*
X393571Y-1752000D01*
X393571Y-1823429D01*
X379286Y-1880571D01*
X365000Y-1909143D01*
X350714Y-1923429D01*
X322143Y-1937714D01*
X293571Y-1937714D01*
X265000Y-1923429D01*
X250714Y-1909143D01*
X236428Y-1880571D01*
X222143Y-1823429D01*
X222143Y-1752000D01*
X236428Y-1694857D01*
X250714Y-1666286D01*
X265000Y-1652000D01*
X293571Y-1637714D01*
X522143Y-1909143D02*
X536428Y-1923429D01*
X522143Y-1937714D01*
X507857Y-1923429D01*
X522143Y-1909143D01*
X522143Y-1937714D01*
X793571Y-1637714D02*
X736428Y-1637714D01*
X707857Y-1652000D01*
X693571Y-1666286D01*
X665000Y-1709143D01*
X650714Y-1766286D01*
X650714Y-1880571D01*
X665000Y-1909143D01*
X679286Y-1923429D01*
X707857Y-1937714D01*
X765000Y-1937714D01*
X793571Y-1923429D01*
X807857Y-1909143D01*
X822143Y-1880571D01*
X822143Y-1809143D01*
X807857Y-1780571D01*
X793571Y-1766286D01*
X765000Y-1752000D01*
X707857Y-1752000D01*
X679286Y-1766286D01*
X665000Y-1780571D01*
X650714Y-1809143D01*
X1007857Y-1637714D02*
X1036428Y-1637714D01*
X1065000Y-1652000D01*
X1079286Y-1666286D01*
X1093571Y-1694857D01*
X1107857Y-1752000D01*
X1107857Y-1823429D01*
X1093571Y-1880571D01*
X1079286Y-1909143D01*
X1065000Y-1923429D01*
X1036428Y-1937714D01*
X1007857Y-1937714D01*
X979286Y-1923429D01*
X965000Y-1909143D01*
X950714Y-1880571D01*
X936428Y-1823429D01*
X936428Y-1752000D01*
X950714Y-1694857D01*
X965000Y-1666286D01*
X979286Y-1652000D01*
X1007857Y-1637714D01*
X1236428Y-1937714D02*
X1236428Y-1737714D01*
X1236428Y-1766286D02*
X1250714Y-1752000D01*
X1279286Y-1737714D01*
X1322143Y-1737714D01*
X1350714Y-1752000D01*
X1365000Y-1780571D01*
X1365000Y-1937714D01*
X1365000Y-1780571D02*
X1379286Y-1752000D01*
X1407857Y-1737714D01*
X1450714Y-1737714D01*
X1479286Y-1752000D01*
X1493571Y-1780571D01*
X1493571Y-1937714D01*
X1636428Y-1937714D02*
X1636428Y-1737714D01*
X1636428Y-1766286D02*
X1650714Y-1752000D01*
X1679286Y-1737714D01*
X1722143Y-1737714D01*
X1750714Y-1752000D01*
X1765000Y-1780571D01*
X1765000Y-1937714D01*
X1765000Y-1780571D02*
X1779286Y-1752000D01*
X1807857Y-1737714D01*
X1850714Y-1737714D01*
X1879286Y-1752000D01*
X1893571Y-1780571D01*
X1893571Y-1937714D01*
X2479286Y-1623429D02*
X2222143Y-2009143D01*
X2865000Y-1637714D02*
X2893571Y-1637714D01*
X2922143Y-1652000D01*
X2936428Y-1666286D01*
X2950714Y-1694857D01*
X2965000Y-1752000D01*
X2965000Y-1823429D01*
X2950714Y-1880571D01*
X2936428Y-1909143D01*
X2922143Y-1923429D01*
X2893571Y-1937714D01*
X2865000Y-1937714D01*
X2836428Y-1923429D01*
X2822143Y-1909143D01*
X2807857Y-1880571D01*
X2793571Y-1823429D01*
X2793571Y-1752000D01*
X2807857Y-1694857D01*
X2822143Y-1666286D01*
X2836428Y-1652000D01*
X2865000Y-1637714D01*
X3093571Y-1909143D02*
X3107857Y-1923429D01*
X3093571Y-1937714D01*
X3079286Y-1923429D01*
X3093571Y-1909143D01*
X3093571Y-1937714D01*
X3293571Y-1637714D02*
X3322143Y-1637714D01*
X3350714Y-1652000D01*
X3365000Y-1666286D01*
X3379286Y-1694857D01*
X3393571Y-1752000D01*
X3393571Y-1823429D01*
X3379286Y-1880571D01*
X3365000Y-1909143D01*
X3350714Y-1923429D01*
X3322143Y-1937714D01*
X3293571Y-1937714D01*
X3265000Y-1923429D01*
X3250714Y-1909143D01*
X3236428Y-1880571D01*
X3222143Y-1823429D01*
X3222143Y-1752000D01*
X3236428Y-1694857D01*
X3250714Y-1666286D01*
X3265000Y-1652000D01*
X3293571Y-1637714D01*
X3507857Y-1666286D02*
X3522143Y-1652000D01*
X3550714Y-1637714D01*
X3622143Y-1637714D01*
X3650714Y-1652000D01*
X3665000Y-1666286D01*
X3679286Y-1694857D01*
X3679286Y-1723429D01*
X3665000Y-1766286D01*
X3493571Y-1937714D01*
X3679286Y-1937714D01*
X3936428Y-1737714D02*
X3936428Y-1937714D01*
X3865000Y-1623429D02*
X3793571Y-1837714D01*
X3979286Y-1837714D01*
X4079286Y-1637714D02*
X4079286Y-1694857D01*
X4193571Y-1637714D02*
X4193571Y-1694857D01*
X4636428Y-2052000D02*
X4622143Y-2037714D01*
X4593571Y-1994857D01*
X4579286Y-1966286D01*
X4565000Y-1923429D01*
X4550714Y-1852000D01*
X4550714Y-1794857D01*
X4565000Y-1723429D01*
X4579286Y-1680571D01*
X4593571Y-1652000D01*
X4622143Y-1609143D01*
X4636428Y-1594857D01*
X4907857Y-1937714D02*
X4736428Y-1937714D01*
X4822143Y-1937714D02*
X4822143Y-1637714D01*
X4793571Y-1680571D01*
X4765000Y-1709143D01*
X4736428Y-1723429D01*
X5093571Y-1637714D02*
X5122143Y-1637714D01*
X5150714Y-1652000D01*
X5165000Y-1666286D01*
X5179286Y-1694857D01*
X5193571Y-1752000D01*
X5193571Y-1823429D01*
X5179286Y-1880571D01*
X5165000Y-1909143D01*
X5150714Y-1923429D01*
X5122143Y-1937714D01*
X5093571Y-1937714D01*
X5065000Y-1923429D01*
X5050714Y-1909143D01*
X5036428Y-1880571D01*
X5022143Y-1823429D01*
X5022143Y-1752000D01*
X5036428Y-1694857D01*
X5050714Y-1666286D01*
X5065000Y-1652000D01*
X5093571Y-1637714D01*
X5550714Y-1937714D02*
X5550714Y-1637714D01*
X5679286Y-1937714D02*
X5679286Y-1780571D01*
X5665000Y-1752000D01*
X5636428Y-1737714D01*
X5593571Y-1737714D01*
X5565000Y-1752000D01*
X5550714Y-1766286D01*
X5865000Y-1937714D02*
X5836428Y-1923429D01*
X5822143Y-1909143D01*
X5807857Y-1880571D01*
X5807857Y-1794857D01*
X5822143Y-1766286D01*
X5836428Y-1752000D01*
X5865000Y-1737714D01*
X5907857Y-1737714D01*
X5936428Y-1752000D01*
X5950714Y-1766286D01*
X5965000Y-1794857D01*
X5965000Y-1880571D01*
X5950714Y-1909143D01*
X5936428Y-1923429D01*
X5907857Y-1937714D01*
X5865000Y-1937714D01*
X6136428Y-1937714D02*
X6107857Y-1923429D01*
X6093571Y-1894857D01*
X6093571Y-1637714D01*
X6365000Y-1923429D02*
X6336428Y-1937714D01*
X6279286Y-1937714D01*
X6250714Y-1923429D01*
X6236428Y-1894857D01*
X6236428Y-1780571D01*
X6250714Y-1752000D01*
X6279286Y-1737714D01*
X6336428Y-1737714D01*
X6365000Y-1752000D01*
X6379286Y-1780571D01*
X6379286Y-1809143D01*
X6236428Y-1837714D01*
X6493571Y-1923429D02*
X6522143Y-1937714D01*
X6579286Y-1937714D01*
X6607857Y-1923429D01*
X6622143Y-1894857D01*
X6622143Y-1880571D01*
X6607857Y-1852000D01*
X6579286Y-1837714D01*
X6536428Y-1837714D01*
X6507857Y-1823429D01*
X6493571Y-1794857D01*
X6493571Y-1780571D01*
X6507857Y-1752000D01*
X6536428Y-1737714D01*
X6579286Y-1737714D01*
X6607857Y-1752000D01*
X6722143Y-2052000D02*
X6736428Y-2037714D01*
X6765000Y-1994857D01*
X6779286Y-1966286D01*
X6793571Y-1923429D01*
X6807857Y-1852000D01*
X6807857Y-1794857D01*
X6793571Y-1723429D01*
X6779286Y-1680571D01*
X6765000Y-1652000D01*
X6736428Y-1609143D01*
X6722143Y-1594857D01*
X-63180Y-2229820D02*
X-63180Y-2166180D01*
X-126820Y-2166180D01*
X-126820Y-2229820D01*
X-63180Y-2229820D01*
X293571Y-2033714D02*
X322143Y-2033714D01*
X350714Y-2048000D01*
X365000Y-2062286D01*
X379286Y-2090857D01*
X393571Y-2148000D01*
X393571Y-2219429D01*
X379286Y-2276572D01*
X365000Y-2305143D01*
X350714Y-2319429D01*
X322143Y-2333714D01*
X293571Y-2333714D01*
X265000Y-2319429D01*
X250714Y-2305143D01*
X236428Y-2276572D01*
X222143Y-2219429D01*
X222143Y-2148000D01*
X236428Y-2090857D01*
X250714Y-2062286D01*
X265000Y-2048000D01*
X293571Y-2033714D01*
X522143Y-2305143D02*
X536428Y-2319429D01*
X522143Y-2333714D01*
X507857Y-2319429D01*
X522143Y-2305143D01*
X522143Y-2333714D01*
X679286Y-2333714D02*
X736428Y-2333714D01*
X765000Y-2319429D01*
X779286Y-2305143D01*
X807857Y-2262286D01*
X822143Y-2205143D01*
X822143Y-2090857D01*
X807857Y-2062286D01*
X793571Y-2048000D01*
X765000Y-2033714D01*
X707857Y-2033714D01*
X679286Y-2048000D01*
X665000Y-2062286D01*
X650714Y-2090857D01*
X650714Y-2162286D01*
X665000Y-2190857D01*
X679286Y-2205143D01*
X707857Y-2219429D01*
X765000Y-2219429D01*
X793571Y-2205143D01*
X807857Y-2190857D01*
X822143Y-2162286D01*
X1007857Y-2033714D02*
X1036428Y-2033714D01*
X1065000Y-2048000D01*
X1079286Y-2062286D01*
X1093571Y-2090857D01*
X1107857Y-2148000D01*
X1107857Y-2219429D01*
X1093571Y-2276572D01*
X1079286Y-2305143D01*
X1065000Y-2319429D01*
X1036428Y-2333714D01*
X1007857Y-2333714D01*
X979286Y-2319429D01*
X965000Y-2305143D01*
X950714Y-2276572D01*
X936428Y-2219429D01*
X936428Y-2148000D01*
X950714Y-2090857D01*
X965000Y-2062286D01*
X979286Y-2048000D01*
X1007857Y-2033714D01*
X1236428Y-2333714D02*
X1236428Y-2133714D01*
X1236428Y-2162286D02*
X1250714Y-2148000D01*
X1279286Y-2133714D01*
X1322143Y-2133714D01*
X1350714Y-2148000D01*
X1365000Y-2176572D01*
X1365000Y-2333714D01*
X1365000Y-2176572D02*
X1379286Y-2148000D01*
X1407857Y-2133714D01*
X1450714Y-2133714D01*
X1479286Y-2148000D01*
X1493571Y-2176572D01*
X1493571Y-2333714D01*
X1636428Y-2333714D02*
X1636428Y-2133714D01*
X1636428Y-2162286D02*
X1650714Y-2148000D01*
X1679286Y-2133714D01*
X1722143Y-2133714D01*
X1750714Y-2148000D01*
X1765000Y-2176572D01*
X1765000Y-2333714D01*
X1765000Y-2176572D02*
X1779286Y-2148000D01*
X1807857Y-2133714D01*
X1850714Y-2133714D01*
X1879286Y-2148000D01*
X1893571Y-2176572D01*
X1893571Y-2333714D01*
X2479286Y-2019429D02*
X2222143Y-2405143D01*
X2865000Y-2033714D02*
X2893571Y-2033714D01*
X2922143Y-2048000D01*
X2936428Y-2062286D01*
X2950714Y-2090857D01*
X2965000Y-2148000D01*
X2965000Y-2219429D01*
X2950714Y-2276572D01*
X2936428Y-2305143D01*
X2922143Y-2319429D01*
X2893571Y-2333714D01*
X2865000Y-2333714D01*
X2836428Y-2319429D01*
X2822143Y-2305143D01*
X2807857Y-2276572D01*
X2793571Y-2219429D01*
X2793571Y-2148000D01*
X2807857Y-2090857D01*
X2822143Y-2062286D01*
X2836428Y-2048000D01*
X2865000Y-2033714D01*
X3093571Y-2305143D02*
X3107857Y-2319429D01*
X3093571Y-2333714D01*
X3079286Y-2319429D01*
X3093571Y-2305143D01*
X3093571Y-2333714D01*
X3293571Y-2033714D02*
X3322143Y-2033714D01*
X3350714Y-2048000D01*
X3365000Y-2062286D01*
X3379286Y-2090857D01*
X3393571Y-2148000D01*
X3393571Y-2219429D01*
X3379286Y-2276572D01*
X3365000Y-2305143D01*
X3350714Y-2319429D01*
X3322143Y-2333714D01*
X3293571Y-2333714D01*
X3265000Y-2319429D01*
X3250714Y-2305143D01*
X3236428Y-2276572D01*
X3222143Y-2219429D01*
X3222143Y-2148000D01*
X3236428Y-2090857D01*
X3250714Y-2062286D01*
X3265000Y-2048000D01*
X3293571Y-2033714D01*
X3493571Y-2033714D02*
X3679286Y-2033714D01*
X3579286Y-2148000D01*
X3622143Y-2148000D01*
X3650714Y-2162286D01*
X3665000Y-2176572D01*
X3679286Y-2205143D01*
X3679286Y-2276572D01*
X3665000Y-2305143D01*
X3650714Y-2319429D01*
X3622143Y-2333714D01*
X3536428Y-2333714D01*
X3507857Y-2319429D01*
X3493571Y-2305143D01*
X3950714Y-2033714D02*
X3807857Y-2033714D01*
X3793571Y-2176572D01*
X3807857Y-2162286D01*
X3836428Y-2148000D01*
X3907857Y-2148000D01*
X3936428Y-2162286D01*
X3950714Y-2176572D01*
X3965000Y-2205143D01*
X3965000Y-2276572D01*
X3950714Y-2305143D01*
X3936428Y-2319429D01*
X3907857Y-2333714D01*
X3836428Y-2333714D01*
X3807857Y-2319429D01*
X3793571Y-2305143D01*
X4079286Y-2033714D02*
X4079286Y-2090857D01*
X4193571Y-2033714D02*
X4193571Y-2090857D01*
X4636428Y-2448000D02*
X4622143Y-2433714D01*
X4593571Y-2390857D01*
X4579286Y-2362286D01*
X4565000Y-2319429D01*
X4550714Y-2248000D01*
X4550714Y-2190857D01*
X4565000Y-2119429D01*
X4579286Y-2076571D01*
X4593571Y-2048000D01*
X4622143Y-2005143D01*
X4636428Y-1990857D01*
X4765000Y-2333714D02*
X4822143Y-2333714D01*
X4850714Y-2319429D01*
X4865000Y-2305143D01*
X4893571Y-2262286D01*
X4907857Y-2205143D01*
X4907857Y-2090857D01*
X4893571Y-2062286D01*
X4879286Y-2048000D01*
X4850714Y-2033714D01*
X4793571Y-2033714D01*
X4765000Y-2048000D01*
X4750714Y-2062286D01*
X4736428Y-2090857D01*
X4736428Y-2162286D01*
X4750714Y-2190857D01*
X4765000Y-2205143D01*
X4793571Y-2219429D01*
X4850714Y-2219429D01*
X4879286Y-2205143D01*
X4893571Y-2190857D01*
X4907857Y-2162286D01*
X5265000Y-2333714D02*
X5265000Y-2033714D01*
X5393571Y-2333714D02*
X5393571Y-2176572D01*
X5379286Y-2148000D01*
X5350714Y-2133714D01*
X5307857Y-2133714D01*
X5279286Y-2148000D01*
X5265000Y-2162286D01*
X5579286Y-2333714D02*
X5550714Y-2319429D01*
X5536428Y-2305143D01*
X5522143Y-2276572D01*
X5522143Y-2190857D01*
X5536428Y-2162286D01*
X5550714Y-2148000D01*
X5579286Y-2133714D01*
X5622143Y-2133714D01*
X5650714Y-2148000D01*
X5665000Y-2162286D01*
X5679286Y-2190857D01*
X5679286Y-2276572D01*
X5665000Y-2305143D01*
X5650714Y-2319429D01*
X5622143Y-2333714D01*
X5579286Y-2333714D01*
X5850714Y-2333714D02*
X5822143Y-2319429D01*
X5807857Y-2290857D01*
X5807857Y-2033714D01*
X6079286Y-2319429D02*
X6050714Y-2333714D01*
X5993571Y-2333714D01*
X5965000Y-2319429D01*
X5950714Y-2290857D01*
X5950714Y-2176572D01*
X5965000Y-2148000D01*
X5993571Y-2133714D01*
X6050714Y-2133714D01*
X6079286Y-2148000D01*
X6093571Y-2176572D01*
X6093571Y-2205143D01*
X5950714Y-2233714D01*
X6207857Y-2319429D02*
X6236428Y-2333714D01*
X6293571Y-2333714D01*
X6322143Y-2319429D01*
X6336428Y-2290857D01*
X6336428Y-2276572D01*
X6322143Y-2248000D01*
X6293571Y-2233714D01*
X6250714Y-2233714D01*
X6222143Y-2219429D01*
X6207857Y-2190857D01*
X6207857Y-2176572D01*
X6222143Y-2148000D01*
X6250714Y-2133714D01*
X6293571Y-2133714D01*
X6322143Y-2148000D01*
X6436428Y-2448000D02*
X6450714Y-2433714D01*
X6479286Y-2390857D01*
X6493571Y-2362286D01*
X6507857Y-2319429D01*
X6522143Y-2248000D01*
X6522143Y-2190857D01*
X6507857Y-2119429D01*
X6493571Y-2076571D01*
X6479286Y-2048000D01*
X6450714Y-2005143D01*
X6436428Y-1990857D01*
X-100000Y-2644000D02*
X-50000Y-2594000D01*
X-100000Y-2544000D01*
X-150000Y-2594000D01*
X-100000Y-2644000D01*
X393571Y-2729714D02*
X222143Y-2729714D01*
X307857Y-2729714D02*
X307857Y-2429714D01*
X279286Y-2472572D01*
X250714Y-2501143D01*
X222143Y-2515429D01*
X522143Y-2701143D02*
X536428Y-2715429D01*
X522143Y-2729714D01*
X507857Y-2715429D01*
X522143Y-2701143D01*
X522143Y-2729714D01*
X722143Y-2429714D02*
X750714Y-2429714D01*
X779286Y-2444000D01*
X793571Y-2458286D01*
X807857Y-2486857D01*
X822143Y-2544000D01*
X822143Y-2615429D01*
X807857Y-2672572D01*
X793571Y-2701143D01*
X779286Y-2715429D01*
X750714Y-2729714D01*
X722143Y-2729714D01*
X693571Y-2715429D01*
X679286Y-2701143D01*
X665000Y-2672572D01*
X650714Y-2615429D01*
X650714Y-2544000D01*
X665000Y-2486857D01*
X679286Y-2458286D01*
X693571Y-2444000D01*
X722143Y-2429714D01*
X1007857Y-2429714D02*
X1036428Y-2429714D01*
X1065000Y-2444000D01*
X1079286Y-2458286D01*
X1093571Y-2486857D01*
X1107857Y-2544000D01*
X1107857Y-2615429D01*
X1093571Y-2672572D01*
X1079286Y-2701143D01*
X1065000Y-2715429D01*
X1036428Y-2729714D01*
X1007857Y-2729714D01*
X979286Y-2715429D01*
X965000Y-2701143D01*
X950714Y-2672572D01*
X936428Y-2615429D01*
X936428Y-2544000D01*
X950714Y-2486857D01*
X965000Y-2458286D01*
X979286Y-2444000D01*
X1007857Y-2429714D01*
X1236428Y-2729714D02*
X1236428Y-2529714D01*
X1236428Y-2558286D02*
X1250714Y-2544000D01*
X1279286Y-2529714D01*
X1322143Y-2529714D01*
X1350714Y-2544000D01*
X1365000Y-2572572D01*
X1365000Y-2729714D01*
X1365000Y-2572572D02*
X1379286Y-2544000D01*
X1407857Y-2529714D01*
X1450714Y-2529714D01*
X1479286Y-2544000D01*
X1493571Y-2572572D01*
X1493571Y-2729714D01*
X1636428Y-2729714D02*
X1636428Y-2529714D01*
X1636428Y-2558286D02*
X1650714Y-2544000D01*
X1679286Y-2529714D01*
X1722143Y-2529714D01*
X1750714Y-2544000D01*
X1765000Y-2572572D01*
X1765000Y-2729714D01*
X1765000Y-2572572D02*
X1779286Y-2544000D01*
X1807857Y-2529714D01*
X1850714Y-2529714D01*
X1879286Y-2544000D01*
X1893571Y-2572572D01*
X1893571Y-2729714D01*
X2479286Y-2415429D02*
X2222143Y-2801143D01*
X2865000Y-2429714D02*
X2893571Y-2429714D01*
X2922143Y-2444000D01*
X2936428Y-2458286D01*
X2950714Y-2486857D01*
X2965000Y-2544000D01*
X2965000Y-2615429D01*
X2950714Y-2672572D01*
X2936428Y-2701143D01*
X2922143Y-2715429D01*
X2893571Y-2729714D01*
X2865000Y-2729714D01*
X2836428Y-2715429D01*
X2822143Y-2701143D01*
X2807857Y-2672572D01*
X2793571Y-2615429D01*
X2793571Y-2544000D01*
X2807857Y-2486857D01*
X2822143Y-2458286D01*
X2836428Y-2444000D01*
X2865000Y-2429714D01*
X3093571Y-2701143D02*
X3107857Y-2715429D01*
X3093571Y-2729714D01*
X3079286Y-2715429D01*
X3093571Y-2701143D01*
X3093571Y-2729714D01*
X3293571Y-2429714D02*
X3322143Y-2429714D01*
X3350714Y-2444000D01*
X3365000Y-2458286D01*
X3379286Y-2486857D01*
X3393571Y-2544000D01*
X3393571Y-2615429D01*
X3379286Y-2672572D01*
X3365000Y-2701143D01*
X3350714Y-2715429D01*
X3322143Y-2729714D01*
X3293571Y-2729714D01*
X3265000Y-2715429D01*
X3250714Y-2701143D01*
X3236428Y-2672572D01*
X3222143Y-2615429D01*
X3222143Y-2544000D01*
X3236428Y-2486857D01*
X3250714Y-2458286D01*
X3265000Y-2444000D01*
X3293571Y-2429714D01*
X3493571Y-2429714D02*
X3679286Y-2429714D01*
X3579286Y-2544000D01*
X3622143Y-2544000D01*
X3650714Y-2558286D01*
X3665000Y-2572572D01*
X3679286Y-2601143D01*
X3679286Y-2672572D01*
X3665000Y-2701143D01*
X3650714Y-2715429D01*
X3622143Y-2729714D01*
X3536428Y-2729714D01*
X3507857Y-2715429D01*
X3493571Y-2701143D01*
X3822143Y-2729714D02*
X3879286Y-2729714D01*
X3907857Y-2715429D01*
X3922143Y-2701143D01*
X3950714Y-2658286D01*
X3965000Y-2601143D01*
X3965000Y-2486857D01*
X3950714Y-2458286D01*
X3936428Y-2444000D01*
X3907857Y-2429714D01*
X3850714Y-2429714D01*
X3822143Y-2444000D01*
X3807857Y-2458286D01*
X3793571Y-2486857D01*
X3793571Y-2558286D01*
X3807857Y-2586857D01*
X3822143Y-2601143D01*
X3850714Y-2615429D01*
X3907857Y-2615429D01*
X3936428Y-2601143D01*
X3950714Y-2586857D01*
X3965000Y-2558286D01*
X4079286Y-2429714D02*
X4079286Y-2486857D01*
X4193571Y-2429714D02*
X4193571Y-2486857D01*
X4636428Y-2844000D02*
X4622143Y-2829714D01*
X4593571Y-2786857D01*
X4579286Y-2758286D01*
X4565000Y-2715429D01*
X4550714Y-2644000D01*
X4550714Y-2586857D01*
X4565000Y-2515429D01*
X4579286Y-2472572D01*
X4593571Y-2444000D01*
X4622143Y-2401143D01*
X4636428Y-2386857D01*
X4879286Y-2529714D02*
X4879286Y-2729714D01*
X4807857Y-2415429D02*
X4736428Y-2629714D01*
X4922143Y-2629714D01*
X5265000Y-2729714D02*
X5265000Y-2429714D01*
X5393571Y-2729714D02*
X5393571Y-2572572D01*
X5379286Y-2544000D01*
X5350714Y-2529714D01*
X5307857Y-2529714D01*
X5279286Y-2544000D01*
X5265000Y-2558286D01*
X5579286Y-2729714D02*
X5550714Y-2715429D01*
X5536428Y-2701143D01*
X5522143Y-2672572D01*
X5522143Y-2586857D01*
X5536428Y-2558286D01*
X5550714Y-2544000D01*
X5579286Y-2529714D01*
X5622143Y-2529714D01*
X5650714Y-2544000D01*
X5665000Y-2558286D01*
X5679286Y-2586857D01*
X5679286Y-2672572D01*
X5665000Y-2701143D01*
X5650714Y-2715429D01*
X5622143Y-2729714D01*
X5579286Y-2729714D01*
X5850714Y-2729714D02*
X5822143Y-2715429D01*
X5807857Y-2686857D01*
X5807857Y-2429714D01*
X6079286Y-2715429D02*
X6050714Y-2729714D01*
X5993571Y-2729714D01*
X5965000Y-2715429D01*
X5950714Y-2686857D01*
X5950714Y-2572572D01*
X5965000Y-2544000D01*
X5993571Y-2529714D01*
X6050714Y-2529714D01*
X6079286Y-2544000D01*
X6093571Y-2572572D01*
X6093571Y-2601143D01*
X5950714Y-2629714D01*
X6207857Y-2715429D02*
X6236428Y-2729714D01*
X6293571Y-2729714D01*
X6322143Y-2715429D01*
X6336428Y-2686857D01*
X6336428Y-2672572D01*
X6322143Y-2644000D01*
X6293571Y-2629714D01*
X6250714Y-2629714D01*
X6222143Y-2615429D01*
X6207857Y-2586857D01*
X6207857Y-2572572D01*
X6222143Y-2544000D01*
X6250714Y-2529714D01*
X6293571Y-2529714D01*
X6322143Y-2544000D01*
X6693571Y-2615429D02*
X6922143Y-2615429D01*
X6807857Y-2729714D02*
X6807857Y-2501143D01*
X7265000Y-2429714D02*
X7450714Y-2429714D01*
X7350714Y-2544000D01*
X7393571Y-2544000D01*
X7422143Y-2558286D01*
X7436428Y-2572572D01*
X7450714Y-2601143D01*
X7450714Y-2672572D01*
X7436428Y-2701143D01*
X7422143Y-2715429D01*
X7393571Y-2729714D01*
X7307857Y-2729714D01*
X7279286Y-2715429D01*
X7265000Y-2701143D01*
X7793571Y-2715429D02*
X7822143Y-2729714D01*
X7879286Y-2729714D01*
X7907857Y-2715429D01*
X7922143Y-2686857D01*
X7922143Y-2672572D01*
X7907857Y-2644000D01*
X7879286Y-2629714D01*
X7836428Y-2629714D01*
X7807857Y-2615429D01*
X7793571Y-2586857D01*
X7793571Y-2572572D01*
X7807857Y-2544000D01*
X7836428Y-2529714D01*
X7879286Y-2529714D01*
X7907857Y-2544000D01*
X8093571Y-2729714D02*
X8065000Y-2715429D01*
X8050714Y-2686857D01*
X8050714Y-2429714D01*
X8250714Y-2729714D02*
X8222143Y-2715429D01*
X8207857Y-2701143D01*
X8193571Y-2672572D01*
X8193571Y-2586857D01*
X8207857Y-2558286D01*
X8222143Y-2544000D01*
X8250714Y-2529714D01*
X8293571Y-2529714D01*
X8322143Y-2544000D01*
X8336428Y-2558286D01*
X8350714Y-2586857D01*
X8350714Y-2672572D01*
X8336428Y-2701143D01*
X8322143Y-2715429D01*
X8293571Y-2729714D01*
X8250714Y-2729714D01*
X8436428Y-2529714D02*
X8550714Y-2529714D01*
X8479286Y-2429714D02*
X8479286Y-2686857D01*
X8493571Y-2715429D01*
X8522143Y-2729714D01*
X8550714Y-2729714D01*
X8636428Y-2715429D02*
X8665000Y-2729714D01*
X8722143Y-2729714D01*
X8750714Y-2715429D01*
X8765000Y-2686857D01*
X8765000Y-2672572D01*
X8750714Y-2644000D01*
X8722143Y-2629714D01*
X8679286Y-2629714D01*
X8650714Y-2615429D01*
X8636428Y-2586857D01*
X8636428Y-2572572D01*
X8650714Y-2544000D01*
X8679286Y-2529714D01*
X8722143Y-2529714D01*
X8750714Y-2544000D01*
X8865000Y-2844000D02*
X8879286Y-2829714D01*
X8907857Y-2786857D01*
X8922143Y-2758286D01*
X8936428Y-2715429D01*
X8950714Y-2644000D01*
X8950714Y-2586857D01*
X8936428Y-2515429D01*
X8922143Y-2472572D01*
X8907857Y-2444000D01*
X8879286Y-2401143D01*
X8865000Y-2386857D01*
X-220000Y-2905000D02*
X-50000Y-3075000D01*
X-50000Y-2905000D02*
X-220000Y-3075000D01*
X-50000Y-2990000D02*
G75*
G03*
X-50000Y-2990000I-85000J0D01*
G01*
X393571Y-3125714D02*
X222143Y-3125714D01*
X307857Y-3125714D02*
X307857Y-2825714D01*
X279286Y-2868571D01*
X250714Y-2897143D01*
X222143Y-2911429D01*
X522143Y-3097143D02*
X536428Y-3111429D01*
X522143Y-3125714D01*
X507857Y-3111429D01*
X522143Y-3097143D01*
X522143Y-3125714D01*
X636428Y-2825714D02*
X836428Y-2825714D01*
X707857Y-3125714D01*
X1007857Y-2825714D02*
X1036428Y-2825714D01*
X1065000Y-2840000D01*
X1079286Y-2854286D01*
X1093571Y-2882857D01*
X1107857Y-2940000D01*
X1107857Y-3011429D01*
X1093571Y-3068571D01*
X1079286Y-3097143D01*
X1065000Y-3111429D01*
X1036428Y-3125714D01*
X1007857Y-3125714D01*
X979286Y-3111429D01*
X965000Y-3097143D01*
X950714Y-3068571D01*
X936428Y-3011429D01*
X936428Y-2940000D01*
X950714Y-2882857D01*
X965000Y-2854286D01*
X979286Y-2840000D01*
X1007857Y-2825714D01*
X1236428Y-3125714D02*
X1236428Y-2925714D01*
X1236428Y-2954286D02*
X1250714Y-2940000D01*
X1279286Y-2925714D01*
X1322143Y-2925714D01*
X1350714Y-2940000D01*
X1365000Y-2968571D01*
X1365000Y-3125714D01*
X1365000Y-2968571D02*
X1379286Y-2940000D01*
X1407857Y-2925714D01*
X1450714Y-2925714D01*
X1479286Y-2940000D01*
X1493571Y-2968571D01*
X1493571Y-3125714D01*
X1636428Y-3125714D02*
X1636428Y-2925714D01*
X1636428Y-2954286D02*
X1650714Y-2940000D01*
X1679286Y-2925714D01*
X1722143Y-2925714D01*
X1750714Y-2940000D01*
X1765000Y-2968571D01*
X1765000Y-3125714D01*
X1765000Y-2968571D02*
X1779286Y-2940000D01*
X1807857Y-2925714D01*
X1850714Y-2925714D01*
X1879286Y-2940000D01*
X1893571Y-2968571D01*
X1893571Y-3125714D01*
X2479286Y-2811429D02*
X2222143Y-3197143D01*
X2865000Y-2825714D02*
X2893571Y-2825714D01*
X2922143Y-2840000D01*
X2936428Y-2854286D01*
X2950714Y-2882857D01*
X2965000Y-2940000D01*
X2965000Y-3011429D01*
X2950714Y-3068571D01*
X2936428Y-3097143D01*
X2922143Y-3111429D01*
X2893571Y-3125714D01*
X2865000Y-3125714D01*
X2836428Y-3111429D01*
X2822143Y-3097143D01*
X2807857Y-3068571D01*
X2793571Y-3011429D01*
X2793571Y-2940000D01*
X2807857Y-2882857D01*
X2822143Y-2854286D01*
X2836428Y-2840000D01*
X2865000Y-2825714D01*
X3093571Y-3097143D02*
X3107857Y-3111429D01*
X3093571Y-3125714D01*
X3079286Y-3111429D01*
X3093571Y-3097143D01*
X3093571Y-3125714D01*
X3293571Y-2825714D02*
X3322143Y-2825714D01*
X3350714Y-2840000D01*
X3365000Y-2854286D01*
X3379286Y-2882857D01*
X3393571Y-2940000D01*
X3393571Y-3011429D01*
X3379286Y-3068571D01*
X3365000Y-3097143D01*
X3350714Y-3111429D01*
X3322143Y-3125714D01*
X3293571Y-3125714D01*
X3265000Y-3111429D01*
X3250714Y-3097143D01*
X3236428Y-3068571D01*
X3222143Y-3011429D01*
X3222143Y-2940000D01*
X3236428Y-2882857D01*
X3250714Y-2854286D01*
X3265000Y-2840000D01*
X3293571Y-2825714D01*
X3650714Y-2825714D02*
X3593571Y-2825714D01*
X3565000Y-2840000D01*
X3550714Y-2854286D01*
X3522143Y-2897143D01*
X3507857Y-2954286D01*
X3507857Y-3068571D01*
X3522143Y-3097143D01*
X3536428Y-3111429D01*
X3565000Y-3125714D01*
X3622143Y-3125714D01*
X3650714Y-3111429D01*
X3665000Y-3097143D01*
X3679286Y-3068571D01*
X3679286Y-2997143D01*
X3665000Y-2968571D01*
X3650714Y-2954286D01*
X3622143Y-2940000D01*
X3565000Y-2940000D01*
X3536428Y-2954286D01*
X3522143Y-2968571D01*
X3507857Y-2997143D01*
X3779286Y-2825714D02*
X3979286Y-2825714D01*
X3850714Y-3125714D01*
X4079286Y-2825714D02*
X4079286Y-2882857D01*
X4193571Y-2825714D02*
X4193571Y-2882857D01*
X4636428Y-3240000D02*
X4622143Y-3225714D01*
X4593571Y-3182857D01*
X4579286Y-3154286D01*
X4565000Y-3111429D01*
X4550714Y-3040000D01*
X4550714Y-2982857D01*
X4565000Y-2911429D01*
X4579286Y-2868571D01*
X4593571Y-2840000D01*
X4622143Y-2797143D01*
X4636428Y-2782857D01*
X4736428Y-2854286D02*
X4750714Y-2840000D01*
X4779286Y-2825714D01*
X4850714Y-2825714D01*
X4879286Y-2840000D01*
X4893571Y-2854286D01*
X4907857Y-2882857D01*
X4907857Y-2911429D01*
X4893571Y-2954286D01*
X4722143Y-3125714D01*
X4907857Y-3125714D01*
X5265000Y-3125714D02*
X5265000Y-2825714D01*
X5393571Y-3125714D02*
X5393571Y-2968571D01*
X5379286Y-2940000D01*
X5350714Y-2925714D01*
X5307857Y-2925714D01*
X5279286Y-2940000D01*
X5265000Y-2954286D01*
X5579286Y-3125714D02*
X5550714Y-3111429D01*
X5536428Y-3097143D01*
X5522143Y-3068571D01*
X5522143Y-2982857D01*
X5536428Y-2954286D01*
X5550714Y-2940000D01*
X5579286Y-2925714D01*
X5622143Y-2925714D01*
X5650714Y-2940000D01*
X5665000Y-2954286D01*
X5679286Y-2982857D01*
X5679286Y-3068571D01*
X5665000Y-3097143D01*
X5650714Y-3111429D01*
X5622143Y-3125714D01*
X5579286Y-3125714D01*
X5850714Y-3125714D02*
X5822143Y-3111429D01*
X5807857Y-3082857D01*
X5807857Y-2825714D01*
X6079286Y-3111429D02*
X6050714Y-3125714D01*
X5993571Y-3125714D01*
X5965000Y-3111429D01*
X5950714Y-3082857D01*
X5950714Y-2968571D01*
X5965000Y-2940000D01*
X5993571Y-2925714D01*
X6050714Y-2925714D01*
X6079286Y-2940000D01*
X6093571Y-2968571D01*
X6093571Y-2997143D01*
X5950714Y-3025714D01*
X6207857Y-3111429D02*
X6236428Y-3125714D01*
X6293571Y-3125714D01*
X6322143Y-3111429D01*
X6336428Y-3082857D01*
X6336428Y-3068571D01*
X6322143Y-3040000D01*
X6293571Y-3025714D01*
X6250714Y-3025714D01*
X6222143Y-3011429D01*
X6207857Y-2982857D01*
X6207857Y-2968571D01*
X6222143Y-2940000D01*
X6250714Y-2925714D01*
X6293571Y-2925714D01*
X6322143Y-2940000D01*
X6436428Y-3240000D02*
X6450714Y-3225714D01*
X6479286Y-3182857D01*
X6493571Y-3154286D01*
X6507857Y-3111429D01*
X6522143Y-3040000D01*
X6522143Y-2982857D01*
X6507857Y-2911429D01*
X6493571Y-2868571D01*
X6479286Y-2840000D01*
X6450714Y-2797143D01*
X6436428Y-2782857D01*
M02*
