%FSLAX45Y45*%
G04 Gerber Fmt 4.5, Leading zero omitted, Abs format (unit mm)*
G04 Created by KiCad (PCBNEW 5.1.9-73d0e3b20d~88~ubuntu20.04.1) date 2021-01-24 23:06:21*
%MOMM*%
%LPD*%
G01*
G04 APERTURE LIST*
%TA.AperFunction,Profile*%
%ADD10C,1.000000*%
%TD*%
%ADD11C,0.200000*%
%ADD12C,0.300000*%
G04 APERTURE END LIST*
D10*
X11810000Y390000D02*
X12200000Y390000D01*
X11810000Y0D02*
X11810000Y390000D01*
X0Y0D02*
X0Y2500000D01*
X12200000Y3250000D02*
X9645000Y3250000D01*
X8895000Y2500000D02*
X9645000Y3250000D01*
X0Y2500000D02*
X8895000Y2500000D01*
X12200000Y3250000D02*
X12200000Y390000D01*
X11810000Y0D02*
X0Y0D01*
D11*
X2606470Y421130D02*
X2705530Y322070D01*
X2705530Y421130D02*
X2606470Y322070D01*
X2606470Y217930D02*
X2705530Y118870D01*
X2705530Y217930D02*
X2606470Y118870D01*
X3114470Y319530D02*
X3213530Y220470D01*
X3213530Y319530D02*
X3114470Y220470D01*
X2580000Y1550000D02*
G75*
G03*
X2580000Y1550000I-100000J0D01*
G01*
X2570000Y1025000D02*
X2570000Y2075000D01*
X2390000Y1025000D02*
X2390000Y2075000D01*
X2570000Y2075000D02*
G75*
G03*
X2390000Y2075000I-90000J0D01*
G01*
X2390000Y1025000D02*
G75*
G03*
X2570000Y1025000I90000J0D01*
G01*
X11409000Y1983000D02*
X11409000Y1663000D01*
X11249000Y1823000D02*
X11569000Y1823000D01*
X11409000Y840000D02*
X11409000Y520000D01*
X11249000Y680000D02*
X11569000Y680000D01*
D12*
X236428Y-515714D02*
X236428Y-215714D01*
X307857Y-215714D01*
X350714Y-230000D01*
X379286Y-258571D01*
X393571Y-287143D01*
X407857Y-344286D01*
X407857Y-387143D01*
X393571Y-444286D01*
X379286Y-472857D01*
X350714Y-501429D01*
X307857Y-515714D01*
X236428Y-515714D01*
X536428Y-515714D02*
X536428Y-315714D01*
X536428Y-372857D02*
X550714Y-344286D01*
X565000Y-330000D01*
X593571Y-315714D01*
X622143Y-315714D01*
X722143Y-515714D02*
X722143Y-315714D01*
X722143Y-215714D02*
X707857Y-230000D01*
X722143Y-244286D01*
X736428Y-230000D01*
X722143Y-215714D01*
X722143Y-244286D01*
X907857Y-515714D02*
X879286Y-501429D01*
X865000Y-472857D01*
X865000Y-215714D01*
X1065000Y-515714D02*
X1036428Y-501429D01*
X1022143Y-472857D01*
X1022143Y-215714D01*
X1407857Y-515714D02*
X1407857Y-215714D01*
X1507857Y-430000D01*
X1607857Y-215714D01*
X1607857Y-515714D01*
X1879286Y-515714D02*
X1879286Y-358571D01*
X1865000Y-330000D01*
X1836428Y-315714D01*
X1779286Y-315714D01*
X1750714Y-330000D01*
X1879286Y-501429D02*
X1850714Y-515714D01*
X1779286Y-515714D01*
X1750714Y-501429D01*
X1736428Y-472857D01*
X1736428Y-444286D01*
X1750714Y-415714D01*
X1779286Y-401429D01*
X1850714Y-401429D01*
X1879286Y-387143D01*
X2022143Y-315714D02*
X2022143Y-615714D01*
X2022143Y-330000D02*
X2050714Y-315714D01*
X2107857Y-315714D01*
X2136428Y-330000D01*
X2150714Y-344286D01*
X2165000Y-372857D01*
X2165000Y-458571D01*
X2150714Y-487143D01*
X2136428Y-501429D01*
X2107857Y-515714D01*
X2050714Y-515714D01*
X2022143Y-501429D01*
X2293571Y-487143D02*
X2307857Y-501429D01*
X2293571Y-515714D01*
X2279286Y-501429D01*
X2293571Y-487143D01*
X2293571Y-515714D01*
X2293571Y-330000D02*
X2307857Y-344286D01*
X2293571Y-358571D01*
X2279286Y-344286D01*
X2293571Y-330000D01*
X2293571Y-358571D01*
X-149060Y-960470D02*
X-50000Y-1059530D01*
X-50000Y-960470D02*
X-149060Y-1059530D01*
X293571Y-845714D02*
X322143Y-845714D01*
X350714Y-860000D01*
X365000Y-874286D01*
X379286Y-902857D01*
X393571Y-960000D01*
X393571Y-1031429D01*
X379286Y-1088572D01*
X365000Y-1117143D01*
X350714Y-1131429D01*
X322143Y-1145714D01*
X293571Y-1145714D01*
X265000Y-1131429D01*
X250714Y-1117143D01*
X236428Y-1088572D01*
X222143Y-1031429D01*
X222143Y-960000D01*
X236428Y-902857D01*
X250714Y-874286D01*
X265000Y-860000D01*
X293571Y-845714D01*
X522143Y-1117143D02*
X536428Y-1131429D01*
X522143Y-1145714D01*
X507857Y-1131429D01*
X522143Y-1117143D01*
X522143Y-1145714D01*
X679286Y-1145714D02*
X736428Y-1145714D01*
X765000Y-1131429D01*
X779286Y-1117143D01*
X807857Y-1074286D01*
X822143Y-1017143D01*
X822143Y-902857D01*
X807857Y-874286D01*
X793571Y-860000D01*
X765000Y-845714D01*
X707857Y-845714D01*
X679286Y-860000D01*
X665000Y-874286D01*
X650714Y-902857D01*
X650714Y-974286D01*
X665000Y-1002857D01*
X679286Y-1017143D01*
X707857Y-1031429D01*
X765000Y-1031429D01*
X793571Y-1017143D01*
X807857Y-1002857D01*
X822143Y-974286D01*
X965000Y-1145714D02*
X1022143Y-1145714D01*
X1050714Y-1131429D01*
X1065000Y-1117143D01*
X1093571Y-1074286D01*
X1107857Y-1017143D01*
X1107857Y-902857D01*
X1093571Y-874286D01*
X1079286Y-860000D01*
X1050714Y-845714D01*
X993571Y-845714D01*
X965000Y-860000D01*
X950714Y-874286D01*
X936428Y-902857D01*
X936428Y-974286D01*
X950714Y-1002857D01*
X965000Y-1017143D01*
X993571Y-1031429D01*
X1050714Y-1031429D01*
X1079286Y-1017143D01*
X1093571Y-1002857D01*
X1107857Y-974286D01*
X1236428Y-1145714D02*
X1236428Y-945714D01*
X1236428Y-974286D02*
X1250714Y-960000D01*
X1279286Y-945714D01*
X1322143Y-945714D01*
X1350714Y-960000D01*
X1365000Y-988571D01*
X1365000Y-1145714D01*
X1365000Y-988571D02*
X1379286Y-960000D01*
X1407857Y-945714D01*
X1450714Y-945714D01*
X1479286Y-960000D01*
X1493571Y-988571D01*
X1493571Y-1145714D01*
X1636428Y-1145714D02*
X1636428Y-945714D01*
X1636428Y-974286D02*
X1650714Y-960000D01*
X1679286Y-945714D01*
X1722143Y-945714D01*
X1750714Y-960000D01*
X1765000Y-988571D01*
X1765000Y-1145714D01*
X1765000Y-988571D02*
X1779286Y-960000D01*
X1807857Y-945714D01*
X1850714Y-945714D01*
X1879286Y-960000D01*
X1893571Y-988571D01*
X1893571Y-1145714D01*
X2479286Y-831429D02*
X2222143Y-1217143D01*
X2865000Y-845714D02*
X2893571Y-845714D01*
X2922143Y-860000D01*
X2936428Y-874286D01*
X2950714Y-902857D01*
X2965000Y-960000D01*
X2965000Y-1031429D01*
X2950714Y-1088572D01*
X2936428Y-1117143D01*
X2922143Y-1131429D01*
X2893571Y-1145714D01*
X2865000Y-1145714D01*
X2836428Y-1131429D01*
X2822143Y-1117143D01*
X2807857Y-1088572D01*
X2793571Y-1031429D01*
X2793571Y-960000D01*
X2807857Y-902857D01*
X2822143Y-874286D01*
X2836428Y-860000D01*
X2865000Y-845714D01*
X3093571Y-1117143D02*
X3107857Y-1131429D01*
X3093571Y-1145714D01*
X3079286Y-1131429D01*
X3093571Y-1117143D01*
X3093571Y-1145714D01*
X3293571Y-845714D02*
X3322143Y-845714D01*
X3350714Y-860000D01*
X3365000Y-874286D01*
X3379286Y-902857D01*
X3393571Y-960000D01*
X3393571Y-1031429D01*
X3379286Y-1088572D01*
X3365000Y-1117143D01*
X3350714Y-1131429D01*
X3322143Y-1145714D01*
X3293571Y-1145714D01*
X3265000Y-1131429D01*
X3250714Y-1117143D01*
X3236428Y-1088572D01*
X3222143Y-1031429D01*
X3222143Y-960000D01*
X3236428Y-902857D01*
X3250714Y-874286D01*
X3265000Y-860000D01*
X3293571Y-845714D01*
X3493571Y-845714D02*
X3679286Y-845714D01*
X3579286Y-960000D01*
X3622143Y-960000D01*
X3650714Y-974286D01*
X3665000Y-988571D01*
X3679286Y-1017143D01*
X3679286Y-1088572D01*
X3665000Y-1117143D01*
X3650714Y-1131429D01*
X3622143Y-1145714D01*
X3536428Y-1145714D01*
X3507857Y-1131429D01*
X3493571Y-1117143D01*
X3822143Y-1145714D02*
X3879286Y-1145714D01*
X3907857Y-1131429D01*
X3922143Y-1117143D01*
X3950714Y-1074286D01*
X3965000Y-1017143D01*
X3965000Y-902857D01*
X3950714Y-874286D01*
X3936428Y-860000D01*
X3907857Y-845714D01*
X3850714Y-845714D01*
X3822143Y-860000D01*
X3807857Y-874286D01*
X3793571Y-902857D01*
X3793571Y-974286D01*
X3807857Y-1002857D01*
X3822143Y-1017143D01*
X3850714Y-1031429D01*
X3907857Y-1031429D01*
X3936428Y-1017143D01*
X3950714Y-1002857D01*
X3965000Y-974286D01*
X4079286Y-845714D02*
X4079286Y-902857D01*
X4193571Y-845714D02*
X4193571Y-902857D01*
X4636428Y-1260000D02*
X4622143Y-1245714D01*
X4593571Y-1202857D01*
X4579286Y-1174286D01*
X4565000Y-1131429D01*
X4550714Y-1060000D01*
X4550714Y-1002857D01*
X4565000Y-931429D01*
X4579286Y-888571D01*
X4593571Y-860000D01*
X4622143Y-817143D01*
X4636428Y-802857D01*
X4722143Y-845714D02*
X4907857Y-845714D01*
X4807857Y-960000D01*
X4850714Y-960000D01*
X4879286Y-974286D01*
X4893571Y-988571D01*
X4907857Y-1017143D01*
X4907857Y-1088572D01*
X4893571Y-1117143D01*
X4879286Y-1131429D01*
X4850714Y-1145714D01*
X4765000Y-1145714D01*
X4736428Y-1131429D01*
X4722143Y-1117143D01*
X5265000Y-1145714D02*
X5265000Y-845714D01*
X5393571Y-1145714D02*
X5393571Y-988571D01*
X5379286Y-960000D01*
X5350714Y-945714D01*
X5307857Y-945714D01*
X5279286Y-960000D01*
X5265000Y-974286D01*
X5579286Y-1145714D02*
X5550714Y-1131429D01*
X5536428Y-1117143D01*
X5522143Y-1088572D01*
X5522143Y-1002857D01*
X5536428Y-974286D01*
X5550714Y-960000D01*
X5579286Y-945714D01*
X5622143Y-945714D01*
X5650714Y-960000D01*
X5665000Y-974286D01*
X5679286Y-1002857D01*
X5679286Y-1088572D01*
X5665000Y-1117143D01*
X5650714Y-1131429D01*
X5622143Y-1145714D01*
X5579286Y-1145714D01*
X5850714Y-1145714D02*
X5822143Y-1131429D01*
X5807857Y-1102857D01*
X5807857Y-845714D01*
X6079286Y-1131429D02*
X6050714Y-1145714D01*
X5993571Y-1145714D01*
X5965000Y-1131429D01*
X5950714Y-1102857D01*
X5950714Y-988571D01*
X5965000Y-960000D01*
X5993571Y-945714D01*
X6050714Y-945714D01*
X6079286Y-960000D01*
X6093571Y-988571D01*
X6093571Y-1017143D01*
X5950714Y-1045714D01*
X6207857Y-1131429D02*
X6236428Y-1145714D01*
X6293571Y-1145714D01*
X6322143Y-1131429D01*
X6336428Y-1102857D01*
X6336428Y-1088572D01*
X6322143Y-1060000D01*
X6293571Y-1045714D01*
X6250714Y-1045714D01*
X6222143Y-1031429D01*
X6207857Y-1002857D01*
X6207857Y-988571D01*
X6222143Y-960000D01*
X6250714Y-945714D01*
X6293571Y-945714D01*
X6322143Y-960000D01*
X6436428Y-1260000D02*
X6450714Y-1245714D01*
X6479286Y-1202857D01*
X6493571Y-1174286D01*
X6507857Y-1131429D01*
X6522143Y-1060000D01*
X6522143Y-1002857D01*
X6507857Y-931429D01*
X6493571Y-888571D01*
X6479286Y-860000D01*
X6450714Y-817143D01*
X6436428Y-802857D01*
X6979286Y-1260000D02*
X6965000Y-1245714D01*
X6936428Y-1202857D01*
X6922143Y-1174286D01*
X6907857Y-1131429D01*
X6893571Y-1060000D01*
X6893571Y-1002857D01*
X6907857Y-931429D01*
X6922143Y-888571D01*
X6936428Y-860000D01*
X6965000Y-817143D01*
X6979286Y-802857D01*
X7093571Y-945714D02*
X7093571Y-1145714D01*
X7093571Y-974286D02*
X7107857Y-960000D01*
X7136428Y-945714D01*
X7179286Y-945714D01*
X7207857Y-960000D01*
X7222143Y-988571D01*
X7222143Y-1145714D01*
X7407857Y-1145714D02*
X7379286Y-1131429D01*
X7365000Y-1117143D01*
X7350714Y-1088572D01*
X7350714Y-1002857D01*
X7365000Y-974286D01*
X7379286Y-960000D01*
X7407857Y-945714D01*
X7450714Y-945714D01*
X7479286Y-960000D01*
X7493571Y-974286D01*
X7507857Y-1002857D01*
X7507857Y-1088572D01*
X7493571Y-1117143D01*
X7479286Y-1131429D01*
X7450714Y-1145714D01*
X7407857Y-1145714D01*
X7593571Y-945714D02*
X7707857Y-945714D01*
X7636428Y-845714D02*
X7636428Y-1102857D01*
X7650714Y-1131429D01*
X7679286Y-1145714D01*
X7707857Y-1145714D01*
X8036428Y-945714D02*
X8036428Y-1245714D01*
X8036428Y-960000D02*
X8065000Y-945714D01*
X8122143Y-945714D01*
X8150714Y-960000D01*
X8165000Y-974286D01*
X8179286Y-1002857D01*
X8179286Y-1088572D01*
X8165000Y-1117143D01*
X8150714Y-1131429D01*
X8122143Y-1145714D01*
X8065000Y-1145714D01*
X8036428Y-1131429D01*
X8350714Y-1145714D02*
X8322143Y-1131429D01*
X8307857Y-1102857D01*
X8307857Y-845714D01*
X8593571Y-1145714D02*
X8593571Y-988571D01*
X8579286Y-960000D01*
X8550714Y-945714D01*
X8493571Y-945714D01*
X8465000Y-960000D01*
X8593571Y-1131429D02*
X8565000Y-1145714D01*
X8493571Y-1145714D01*
X8465000Y-1131429D01*
X8450714Y-1102857D01*
X8450714Y-1074286D01*
X8465000Y-1045714D01*
X8493571Y-1031429D01*
X8565000Y-1031429D01*
X8593571Y-1017143D01*
X8693571Y-945714D02*
X8807857Y-945714D01*
X8736428Y-845714D02*
X8736428Y-1102857D01*
X8750714Y-1131429D01*
X8779286Y-1145714D01*
X8807857Y-1145714D01*
X9022143Y-1131429D02*
X8993571Y-1145714D01*
X8936428Y-1145714D01*
X8907857Y-1131429D01*
X8893571Y-1102857D01*
X8893571Y-988571D01*
X8907857Y-960000D01*
X8936428Y-945714D01*
X8993571Y-945714D01*
X9022143Y-960000D01*
X9036428Y-988571D01*
X9036428Y-1017143D01*
X8893571Y-1045714D01*
X9293571Y-1145714D02*
X9293571Y-845714D01*
X9293571Y-1131429D02*
X9265000Y-1145714D01*
X9207857Y-1145714D01*
X9179286Y-1131429D01*
X9165000Y-1117143D01*
X9150714Y-1088572D01*
X9150714Y-1002857D01*
X9165000Y-974286D01*
X9179286Y-960000D01*
X9207857Y-945714D01*
X9265000Y-945714D01*
X9293571Y-960000D01*
X9407857Y-1260000D02*
X9422143Y-1245714D01*
X9450714Y-1202857D01*
X9465000Y-1174286D01*
X9479286Y-1131429D01*
X9493571Y-1060000D01*
X9493571Y-1002857D01*
X9479286Y-931429D01*
X9465000Y-888571D01*
X9450714Y-860000D01*
X9422143Y-817143D01*
X9407857Y-802857D01*
X-50000Y-1406000D02*
G75*
G03*
X-50000Y-1406000I-100000J0D01*
G01*
X222143Y-1270286D02*
X236428Y-1256000D01*
X265000Y-1241714D01*
X336428Y-1241714D01*
X365000Y-1256000D01*
X379286Y-1270286D01*
X393571Y-1298857D01*
X393571Y-1327429D01*
X379286Y-1370286D01*
X207857Y-1541714D01*
X393571Y-1541714D01*
X522143Y-1513143D02*
X536428Y-1527429D01*
X522143Y-1541714D01*
X507857Y-1527429D01*
X522143Y-1513143D01*
X522143Y-1541714D01*
X722143Y-1241714D02*
X750714Y-1241714D01*
X779286Y-1256000D01*
X793571Y-1270286D01*
X807857Y-1298857D01*
X822143Y-1356000D01*
X822143Y-1427429D01*
X807857Y-1484571D01*
X793571Y-1513143D01*
X779286Y-1527429D01*
X750714Y-1541714D01*
X722143Y-1541714D01*
X693571Y-1527429D01*
X679286Y-1513143D01*
X665000Y-1484571D01*
X650714Y-1427429D01*
X650714Y-1356000D01*
X665000Y-1298857D01*
X679286Y-1270286D01*
X693571Y-1256000D01*
X722143Y-1241714D01*
X1007857Y-1241714D02*
X1036428Y-1241714D01*
X1065000Y-1256000D01*
X1079286Y-1270286D01*
X1093571Y-1298857D01*
X1107857Y-1356000D01*
X1107857Y-1427429D01*
X1093571Y-1484571D01*
X1079286Y-1513143D01*
X1065000Y-1527429D01*
X1036428Y-1541714D01*
X1007857Y-1541714D01*
X979286Y-1527429D01*
X965000Y-1513143D01*
X950714Y-1484571D01*
X936428Y-1427429D01*
X936428Y-1356000D01*
X950714Y-1298857D01*
X965000Y-1270286D01*
X979286Y-1256000D01*
X1007857Y-1241714D01*
X1236428Y-1541714D02*
X1236428Y-1341714D01*
X1236428Y-1370286D02*
X1250714Y-1356000D01*
X1279286Y-1341714D01*
X1322143Y-1341714D01*
X1350714Y-1356000D01*
X1365000Y-1384572D01*
X1365000Y-1541714D01*
X1365000Y-1384572D02*
X1379286Y-1356000D01*
X1407857Y-1341714D01*
X1450714Y-1341714D01*
X1479286Y-1356000D01*
X1493571Y-1384572D01*
X1493571Y-1541714D01*
X1636428Y-1541714D02*
X1636428Y-1341714D01*
X1636428Y-1370286D02*
X1650714Y-1356000D01*
X1679286Y-1341714D01*
X1722143Y-1341714D01*
X1750714Y-1356000D01*
X1765000Y-1384572D01*
X1765000Y-1541714D01*
X1765000Y-1384572D02*
X1779286Y-1356000D01*
X1807857Y-1341714D01*
X1850714Y-1341714D01*
X1879286Y-1356000D01*
X1893571Y-1384572D01*
X1893571Y-1541714D01*
X2479286Y-1227429D02*
X2222143Y-1613143D01*
X2865000Y-1241714D02*
X2893571Y-1241714D01*
X2922143Y-1256000D01*
X2936428Y-1270286D01*
X2950714Y-1298857D01*
X2965000Y-1356000D01*
X2965000Y-1427429D01*
X2950714Y-1484571D01*
X2936428Y-1513143D01*
X2922143Y-1527429D01*
X2893571Y-1541714D01*
X2865000Y-1541714D01*
X2836428Y-1527429D01*
X2822143Y-1513143D01*
X2807857Y-1484571D01*
X2793571Y-1427429D01*
X2793571Y-1356000D01*
X2807857Y-1298857D01*
X2822143Y-1270286D01*
X2836428Y-1256000D01*
X2865000Y-1241714D01*
X3093571Y-1513143D02*
X3107857Y-1527429D01*
X3093571Y-1541714D01*
X3079286Y-1527429D01*
X3093571Y-1513143D01*
X3093571Y-1541714D01*
X3293571Y-1241714D02*
X3322143Y-1241714D01*
X3350714Y-1256000D01*
X3365000Y-1270286D01*
X3379286Y-1298857D01*
X3393571Y-1356000D01*
X3393571Y-1427429D01*
X3379286Y-1484571D01*
X3365000Y-1513143D01*
X3350714Y-1527429D01*
X3322143Y-1541714D01*
X3293571Y-1541714D01*
X3265000Y-1527429D01*
X3250714Y-1513143D01*
X3236428Y-1484571D01*
X3222143Y-1427429D01*
X3222143Y-1356000D01*
X3236428Y-1298857D01*
X3250714Y-1270286D01*
X3265000Y-1256000D01*
X3293571Y-1241714D01*
X3493571Y-1241714D02*
X3693571Y-1241714D01*
X3565000Y-1541714D01*
X3822143Y-1541714D02*
X3879286Y-1541714D01*
X3907857Y-1527429D01*
X3922143Y-1513143D01*
X3950714Y-1470286D01*
X3965000Y-1413143D01*
X3965000Y-1298857D01*
X3950714Y-1270286D01*
X3936428Y-1256000D01*
X3907857Y-1241714D01*
X3850714Y-1241714D01*
X3822143Y-1256000D01*
X3807857Y-1270286D01*
X3793571Y-1298857D01*
X3793571Y-1370286D01*
X3807857Y-1398857D01*
X3822143Y-1413143D01*
X3850714Y-1427429D01*
X3907857Y-1427429D01*
X3936428Y-1413143D01*
X3950714Y-1398857D01*
X3965000Y-1370286D01*
X4079286Y-1241714D02*
X4079286Y-1298857D01*
X4193571Y-1241714D02*
X4193571Y-1298857D01*
X4636428Y-1656000D02*
X4622143Y-1641714D01*
X4593571Y-1598857D01*
X4579286Y-1570286D01*
X4565000Y-1527429D01*
X4550714Y-1456000D01*
X4550714Y-1398857D01*
X4565000Y-1327429D01*
X4579286Y-1284572D01*
X4593571Y-1256000D01*
X4622143Y-1213143D01*
X4636428Y-1198857D01*
X4907857Y-1541714D02*
X4736428Y-1541714D01*
X4822143Y-1541714D02*
X4822143Y-1241714D01*
X4793571Y-1284572D01*
X4765000Y-1313143D01*
X4736428Y-1327429D01*
X5250714Y-1527429D02*
X5279286Y-1541714D01*
X5336428Y-1541714D01*
X5365000Y-1527429D01*
X5379286Y-1498857D01*
X5379286Y-1484571D01*
X5365000Y-1456000D01*
X5336428Y-1441714D01*
X5293571Y-1441714D01*
X5265000Y-1427429D01*
X5250714Y-1398857D01*
X5250714Y-1384572D01*
X5265000Y-1356000D01*
X5293571Y-1341714D01*
X5336428Y-1341714D01*
X5365000Y-1356000D01*
X5550714Y-1541714D02*
X5522143Y-1527429D01*
X5507857Y-1498857D01*
X5507857Y-1241714D01*
X5707857Y-1541714D02*
X5679286Y-1527429D01*
X5665000Y-1513143D01*
X5650714Y-1484571D01*
X5650714Y-1398857D01*
X5665000Y-1370286D01*
X5679286Y-1356000D01*
X5707857Y-1341714D01*
X5750714Y-1341714D01*
X5779286Y-1356000D01*
X5793571Y-1370286D01*
X5807857Y-1398857D01*
X5807857Y-1484571D01*
X5793571Y-1513143D01*
X5779286Y-1527429D01*
X5750714Y-1541714D01*
X5707857Y-1541714D01*
X5893571Y-1341714D02*
X6007857Y-1341714D01*
X5936428Y-1241714D02*
X5936428Y-1498857D01*
X5950714Y-1527429D01*
X5979286Y-1541714D01*
X6007857Y-1541714D01*
X6079286Y-1656000D02*
X6093571Y-1641714D01*
X6122143Y-1598857D01*
X6136428Y-1570286D01*
X6150714Y-1527429D01*
X6165000Y-1456000D01*
X6165000Y-1398857D01*
X6150714Y-1327429D01*
X6136428Y-1284572D01*
X6122143Y-1256000D01*
X6093571Y-1213143D01*
X6079286Y-1198857D01*
X6622143Y-1656000D02*
X6607857Y-1641714D01*
X6579286Y-1598857D01*
X6565000Y-1570286D01*
X6550714Y-1527429D01*
X6536428Y-1456000D01*
X6536428Y-1398857D01*
X6550714Y-1327429D01*
X6565000Y-1284572D01*
X6579286Y-1256000D01*
X6607857Y-1213143D01*
X6622143Y-1198857D01*
X6736428Y-1341714D02*
X6736428Y-1541714D01*
X6736428Y-1370286D02*
X6750714Y-1356000D01*
X6779286Y-1341714D01*
X6822143Y-1341714D01*
X6850714Y-1356000D01*
X6865000Y-1384572D01*
X6865000Y-1541714D01*
X7050714Y-1541714D02*
X7022143Y-1527429D01*
X7007857Y-1513143D01*
X6993571Y-1484571D01*
X6993571Y-1398857D01*
X7007857Y-1370286D01*
X7022143Y-1356000D01*
X7050714Y-1341714D01*
X7093571Y-1341714D01*
X7122143Y-1356000D01*
X7136428Y-1370286D01*
X7150714Y-1398857D01*
X7150714Y-1484571D01*
X7136428Y-1513143D01*
X7122143Y-1527429D01*
X7093571Y-1541714D01*
X7050714Y-1541714D01*
X7236428Y-1341714D02*
X7350714Y-1341714D01*
X7279286Y-1241714D02*
X7279286Y-1498857D01*
X7293571Y-1527429D01*
X7322143Y-1541714D01*
X7350714Y-1541714D01*
X7679286Y-1341714D02*
X7679286Y-1641714D01*
X7679286Y-1356000D02*
X7707857Y-1341714D01*
X7765000Y-1341714D01*
X7793571Y-1356000D01*
X7807857Y-1370286D01*
X7822143Y-1398857D01*
X7822143Y-1484571D01*
X7807857Y-1513143D01*
X7793571Y-1527429D01*
X7765000Y-1541714D01*
X7707857Y-1541714D01*
X7679286Y-1527429D01*
X7993571Y-1541714D02*
X7965000Y-1527429D01*
X7950714Y-1498857D01*
X7950714Y-1241714D01*
X8236428Y-1541714D02*
X8236428Y-1384572D01*
X8222143Y-1356000D01*
X8193571Y-1341714D01*
X8136428Y-1341714D01*
X8107857Y-1356000D01*
X8236428Y-1527429D02*
X8207857Y-1541714D01*
X8136428Y-1541714D01*
X8107857Y-1527429D01*
X8093571Y-1498857D01*
X8093571Y-1470286D01*
X8107857Y-1441714D01*
X8136428Y-1427429D01*
X8207857Y-1427429D01*
X8236428Y-1413143D01*
X8336428Y-1341714D02*
X8450714Y-1341714D01*
X8379286Y-1241714D02*
X8379286Y-1498857D01*
X8393571Y-1527429D01*
X8422143Y-1541714D01*
X8450714Y-1541714D01*
X8665000Y-1527429D02*
X8636428Y-1541714D01*
X8579286Y-1541714D01*
X8550714Y-1527429D01*
X8536428Y-1498857D01*
X8536428Y-1384572D01*
X8550714Y-1356000D01*
X8579286Y-1341714D01*
X8636428Y-1341714D01*
X8665000Y-1356000D01*
X8679286Y-1384572D01*
X8679286Y-1413143D01*
X8536428Y-1441714D01*
X8936428Y-1541714D02*
X8936428Y-1241714D01*
X8936428Y-1527429D02*
X8907857Y-1541714D01*
X8850714Y-1541714D01*
X8822143Y-1527429D01*
X8807857Y-1513143D01*
X8793571Y-1484571D01*
X8793571Y-1398857D01*
X8807857Y-1370286D01*
X8822143Y-1356000D01*
X8850714Y-1341714D01*
X8907857Y-1341714D01*
X8936428Y-1356000D01*
X9050714Y-1656000D02*
X9065000Y-1641714D01*
X9093571Y-1598857D01*
X9107857Y-1570286D01*
X9122143Y-1527429D01*
X9136428Y-1456000D01*
X9136428Y-1398857D01*
X9122143Y-1327429D01*
X9107857Y-1284572D01*
X9093571Y-1256000D01*
X9065000Y-1213143D01*
X9050714Y-1198857D01*
X-210000Y-1642000D02*
X-210000Y-1962000D01*
X-370000Y-1802000D02*
X-50000Y-1802000D01*
X207857Y-1637714D02*
X393571Y-1637714D01*
X293571Y-1752000D01*
X336428Y-1752000D01*
X365000Y-1766286D01*
X379286Y-1780571D01*
X393571Y-1809143D01*
X393571Y-1880571D01*
X379286Y-1909143D01*
X365000Y-1923429D01*
X336428Y-1937714D01*
X250714Y-1937714D01*
X222143Y-1923429D01*
X207857Y-1909143D01*
X522143Y-1909143D02*
X536428Y-1923429D01*
X522143Y-1937714D01*
X507857Y-1923429D01*
X522143Y-1909143D01*
X522143Y-1937714D01*
X650714Y-1666286D02*
X665000Y-1652000D01*
X693571Y-1637714D01*
X765000Y-1637714D01*
X793571Y-1652000D01*
X807857Y-1666286D01*
X822143Y-1694857D01*
X822143Y-1723429D01*
X807857Y-1766286D01*
X636428Y-1937714D01*
X822143Y-1937714D01*
X1007857Y-1637714D02*
X1036428Y-1637714D01*
X1065000Y-1652000D01*
X1079286Y-1666286D01*
X1093571Y-1694857D01*
X1107857Y-1752000D01*
X1107857Y-1823429D01*
X1093571Y-1880571D01*
X1079286Y-1909143D01*
X1065000Y-1923429D01*
X1036428Y-1937714D01*
X1007857Y-1937714D01*
X979286Y-1923429D01*
X965000Y-1909143D01*
X950714Y-1880571D01*
X936428Y-1823429D01*
X936428Y-1752000D01*
X950714Y-1694857D01*
X965000Y-1666286D01*
X979286Y-1652000D01*
X1007857Y-1637714D01*
X1236428Y-1937714D02*
X1236428Y-1737714D01*
X1236428Y-1766286D02*
X1250714Y-1752000D01*
X1279286Y-1737714D01*
X1322143Y-1737714D01*
X1350714Y-1752000D01*
X1365000Y-1780571D01*
X1365000Y-1937714D01*
X1365000Y-1780571D02*
X1379286Y-1752000D01*
X1407857Y-1737714D01*
X1450714Y-1737714D01*
X1479286Y-1752000D01*
X1493571Y-1780571D01*
X1493571Y-1937714D01*
X1636428Y-1937714D02*
X1636428Y-1737714D01*
X1636428Y-1766286D02*
X1650714Y-1752000D01*
X1679286Y-1737714D01*
X1722143Y-1737714D01*
X1750714Y-1752000D01*
X1765000Y-1780571D01*
X1765000Y-1937714D01*
X1765000Y-1780571D02*
X1779286Y-1752000D01*
X1807857Y-1737714D01*
X1850714Y-1737714D01*
X1879286Y-1752000D01*
X1893571Y-1780571D01*
X1893571Y-1937714D01*
X2479286Y-1623429D02*
X2222143Y-2009143D01*
X2865000Y-1637714D02*
X2893571Y-1637714D01*
X2922143Y-1652000D01*
X2936428Y-1666286D01*
X2950714Y-1694857D01*
X2965000Y-1752000D01*
X2965000Y-1823429D01*
X2950714Y-1880571D01*
X2936428Y-1909143D01*
X2922143Y-1923429D01*
X2893571Y-1937714D01*
X2865000Y-1937714D01*
X2836428Y-1923429D01*
X2822143Y-1909143D01*
X2807857Y-1880571D01*
X2793571Y-1823429D01*
X2793571Y-1752000D01*
X2807857Y-1694857D01*
X2822143Y-1666286D01*
X2836428Y-1652000D01*
X2865000Y-1637714D01*
X3093571Y-1909143D02*
X3107857Y-1923429D01*
X3093571Y-1937714D01*
X3079286Y-1923429D01*
X3093571Y-1909143D01*
X3093571Y-1937714D01*
X3393571Y-1937714D02*
X3222143Y-1937714D01*
X3307857Y-1937714D02*
X3307857Y-1637714D01*
X3279286Y-1680571D01*
X3250714Y-1709143D01*
X3222143Y-1723429D01*
X3507857Y-1666286D02*
X3522143Y-1652000D01*
X3550714Y-1637714D01*
X3622143Y-1637714D01*
X3650714Y-1652000D01*
X3665000Y-1666286D01*
X3679286Y-1694857D01*
X3679286Y-1723429D01*
X3665000Y-1766286D01*
X3493571Y-1937714D01*
X3679286Y-1937714D01*
X3936428Y-1637714D02*
X3879286Y-1637714D01*
X3850714Y-1652000D01*
X3836428Y-1666286D01*
X3807857Y-1709143D01*
X3793571Y-1766286D01*
X3793571Y-1880571D01*
X3807857Y-1909143D01*
X3822143Y-1923429D01*
X3850714Y-1937714D01*
X3907857Y-1937714D01*
X3936428Y-1923429D01*
X3950714Y-1909143D01*
X3965000Y-1880571D01*
X3965000Y-1809143D01*
X3950714Y-1780571D01*
X3936428Y-1766286D01*
X3907857Y-1752000D01*
X3850714Y-1752000D01*
X3822143Y-1766286D01*
X3807857Y-1780571D01*
X3793571Y-1809143D01*
X4079286Y-1637714D02*
X4079286Y-1694857D01*
X4193571Y-1637714D02*
X4193571Y-1694857D01*
X4636428Y-2052000D02*
X4622143Y-2037714D01*
X4593571Y-1994857D01*
X4579286Y-1966286D01*
X4565000Y-1923429D01*
X4550714Y-1852000D01*
X4550714Y-1794857D01*
X4565000Y-1723429D01*
X4579286Y-1680571D01*
X4593571Y-1652000D01*
X4622143Y-1609143D01*
X4636428Y-1594857D01*
X4736428Y-1666286D02*
X4750714Y-1652000D01*
X4779286Y-1637714D01*
X4850714Y-1637714D01*
X4879286Y-1652000D01*
X4893571Y-1666286D01*
X4907857Y-1694857D01*
X4907857Y-1723429D01*
X4893571Y-1766286D01*
X4722143Y-1937714D01*
X4907857Y-1937714D01*
X5265000Y-1937714D02*
X5265000Y-1637714D01*
X5393571Y-1937714D02*
X5393571Y-1780571D01*
X5379286Y-1752000D01*
X5350714Y-1737714D01*
X5307857Y-1737714D01*
X5279286Y-1752000D01*
X5265000Y-1766286D01*
X5579286Y-1937714D02*
X5550714Y-1923429D01*
X5536428Y-1909143D01*
X5522143Y-1880571D01*
X5522143Y-1794857D01*
X5536428Y-1766286D01*
X5550714Y-1752000D01*
X5579286Y-1737714D01*
X5622143Y-1737714D01*
X5650714Y-1752000D01*
X5665000Y-1766286D01*
X5679286Y-1794857D01*
X5679286Y-1880571D01*
X5665000Y-1909143D01*
X5650714Y-1923429D01*
X5622143Y-1937714D01*
X5579286Y-1937714D01*
X5850714Y-1937714D02*
X5822143Y-1923429D01*
X5807857Y-1894857D01*
X5807857Y-1637714D01*
X6079286Y-1923429D02*
X6050714Y-1937714D01*
X5993571Y-1937714D01*
X5965000Y-1923429D01*
X5950714Y-1894857D01*
X5950714Y-1780571D01*
X5965000Y-1752000D01*
X5993571Y-1737714D01*
X6050714Y-1737714D01*
X6079286Y-1752000D01*
X6093571Y-1780571D01*
X6093571Y-1809143D01*
X5950714Y-1837714D01*
X6207857Y-1923429D02*
X6236428Y-1937714D01*
X6293571Y-1937714D01*
X6322143Y-1923429D01*
X6336428Y-1894857D01*
X6336428Y-1880571D01*
X6322143Y-1852000D01*
X6293571Y-1837714D01*
X6250714Y-1837714D01*
X6222143Y-1823429D01*
X6207857Y-1794857D01*
X6207857Y-1780571D01*
X6222143Y-1752000D01*
X6250714Y-1737714D01*
X6293571Y-1737714D01*
X6322143Y-1752000D01*
X6436428Y-2052000D02*
X6450714Y-2037714D01*
X6479286Y-1994857D01*
X6493571Y-1966286D01*
X6507857Y-1923429D01*
X6522143Y-1852000D01*
X6522143Y-1794857D01*
X6507857Y-1723429D01*
X6493571Y-1680571D01*
X6479286Y-1652000D01*
X6450714Y-1609143D01*
X6436428Y-1594857D01*
X6979286Y-2052000D02*
X6965000Y-2037714D01*
X6936428Y-1994857D01*
X6922143Y-1966286D01*
X6907857Y-1923429D01*
X6893571Y-1852000D01*
X6893571Y-1794857D01*
X6907857Y-1723429D01*
X6922143Y-1680571D01*
X6936428Y-1652000D01*
X6965000Y-1609143D01*
X6979286Y-1594857D01*
X7093571Y-1737714D02*
X7093571Y-1937714D01*
X7093571Y-1766286D02*
X7107857Y-1752000D01*
X7136428Y-1737714D01*
X7179286Y-1737714D01*
X7207857Y-1752000D01*
X7222143Y-1780571D01*
X7222143Y-1937714D01*
X7407857Y-1937714D02*
X7379286Y-1923429D01*
X7365000Y-1909143D01*
X7350714Y-1880571D01*
X7350714Y-1794857D01*
X7365000Y-1766286D01*
X7379286Y-1752000D01*
X7407857Y-1737714D01*
X7450714Y-1737714D01*
X7479286Y-1752000D01*
X7493571Y-1766286D01*
X7507857Y-1794857D01*
X7507857Y-1880571D01*
X7493571Y-1909143D01*
X7479286Y-1923429D01*
X7450714Y-1937714D01*
X7407857Y-1937714D01*
X7593571Y-1737714D02*
X7707857Y-1737714D01*
X7636428Y-1637714D02*
X7636428Y-1894857D01*
X7650714Y-1923429D01*
X7679286Y-1937714D01*
X7707857Y-1937714D01*
X8036428Y-1737714D02*
X8036428Y-2037714D01*
X8036428Y-1752000D02*
X8065000Y-1737714D01*
X8122143Y-1737714D01*
X8150714Y-1752000D01*
X8165000Y-1766286D01*
X8179286Y-1794857D01*
X8179286Y-1880571D01*
X8165000Y-1909143D01*
X8150714Y-1923429D01*
X8122143Y-1937714D01*
X8065000Y-1937714D01*
X8036428Y-1923429D01*
X8350714Y-1937714D02*
X8322143Y-1923429D01*
X8307857Y-1894857D01*
X8307857Y-1637714D01*
X8593571Y-1937714D02*
X8593571Y-1780571D01*
X8579286Y-1752000D01*
X8550714Y-1737714D01*
X8493571Y-1737714D01*
X8465000Y-1752000D01*
X8593571Y-1923429D02*
X8565000Y-1937714D01*
X8493571Y-1937714D01*
X8465000Y-1923429D01*
X8450714Y-1894857D01*
X8450714Y-1866286D01*
X8465000Y-1837714D01*
X8493571Y-1823429D01*
X8565000Y-1823429D01*
X8593571Y-1809143D01*
X8693571Y-1737714D02*
X8807857Y-1737714D01*
X8736428Y-1637714D02*
X8736428Y-1894857D01*
X8750714Y-1923429D01*
X8779286Y-1937714D01*
X8807857Y-1937714D01*
X9022143Y-1923429D02*
X8993571Y-1937714D01*
X8936428Y-1937714D01*
X8907857Y-1923429D01*
X8893571Y-1894857D01*
X8893571Y-1780571D01*
X8907857Y-1752000D01*
X8936428Y-1737714D01*
X8993571Y-1737714D01*
X9022143Y-1752000D01*
X9036428Y-1780571D01*
X9036428Y-1809143D01*
X8893571Y-1837714D01*
X9293571Y-1937714D02*
X9293571Y-1637714D01*
X9293571Y-1923429D02*
X9265000Y-1937714D01*
X9207857Y-1937714D01*
X9179286Y-1923429D01*
X9165000Y-1909143D01*
X9150714Y-1880571D01*
X9150714Y-1794857D01*
X9165000Y-1766286D01*
X9179286Y-1752000D01*
X9207857Y-1737714D01*
X9265000Y-1737714D01*
X9293571Y-1752000D01*
X9407857Y-2052000D02*
X9422143Y-2037714D01*
X9450714Y-1994857D01*
X9465000Y-1966286D01*
X9479286Y-1923429D01*
X9493571Y-1852000D01*
X9493571Y-1794857D01*
X9479286Y-1723429D01*
X9465000Y-1680571D01*
X9450714Y-1652000D01*
X9422143Y-1609143D01*
X9407857Y-1594857D01*
M02*
