G04 #@! TF.GenerationSoftware,KiCad,Pcbnew,5.1.9-73d0e3b20d~88~ubuntu20.04.1*
G04 #@! TF.CreationDate,2021-01-24T23:08:50+01:00*
G04 #@! TF.ProjectId,CIS,4349532e-6b69-4636-9164-5f7063625858,1.0.0*
G04 #@! TF.SameCoordinates,PX6bc3e40PY635f740*
G04 #@! TF.FileFunction,Paste,Bot*
G04 #@! TF.FilePolarity,Positive*
%FSLAX46Y46*%
G04 Gerber Fmt 4.6, Leading zero omitted, Abs format (unit mm)*
G04 Created by KiCad (PCBNEW 5.1.9-73d0e3b20d~88~ubuntu20.04.1) date 2021-01-24 23:08:50*
%MOMM*%
%LPD*%
G01*
G04 APERTURE LIST*
%ADD10R,0.600000X0.500000*%
%ADD11R,1.050000X0.650000*%
%ADD12R,0.500000X0.600000*%
%ADD13R,0.800000X0.800000*%
%ADD14R,0.900000X1.700000*%
%ADD15R,0.900000X0.500000*%
%ADD16R,0.400000X0.600000*%
%ADD17R,0.600000X0.400000*%
G04 APERTURE END LIST*
D10*
X52050000Y13100000D03*
X50950000Y13100000D03*
D11*
X79025000Y3575000D03*
X74875000Y3575000D03*
X79025000Y1425000D03*
X74875000Y1425000D03*
D10*
X52150000Y15300000D03*
X51050000Y15300000D03*
X53450000Y16400000D03*
X52350000Y16400000D03*
X52050000Y14200000D03*
X50950000Y14200000D03*
D12*
X52100000Y12250000D03*
X52100000Y11150000D03*
D10*
X54150000Y11000000D03*
X53050000Y11000000D03*
X53050000Y12100000D03*
X54150000Y12100000D03*
X53850000Y13100000D03*
X54950000Y13100000D03*
X53950000Y14200000D03*
X55050000Y14200000D03*
X53150000Y15400000D03*
X54250000Y15400000D03*
D12*
X103100000Y12950000D03*
X103100000Y11850000D03*
X109900000Y11750000D03*
X109900000Y10650000D03*
D10*
X50900000Y4800000D03*
X49800000Y4800000D03*
X73400000Y4800000D03*
X72300000Y4800000D03*
X39650000Y4800000D03*
X38550000Y4800000D03*
X84650000Y4800000D03*
X83550000Y4800000D03*
X62150000Y4800000D03*
X61050000Y4800000D03*
X109050000Y24500000D03*
X110150000Y24500000D03*
X117850000Y27800000D03*
X116750000Y27800000D03*
D12*
X50000000Y13350000D03*
X50000000Y14450000D03*
X55900000Y12150000D03*
X55900000Y13250000D03*
D10*
X59050000Y12900000D03*
X57950000Y12900000D03*
D12*
X56900000Y11350000D03*
X56900000Y12450000D03*
D13*
X28100000Y23300000D03*
X29700000Y23300000D03*
D14*
X102250000Y20000000D03*
X105150000Y20000000D03*
D15*
X56500000Y7950000D03*
X56500000Y9450000D03*
X57300000Y13950000D03*
X57300000Y15450000D03*
D16*
X31750000Y13400000D03*
X30850000Y13400000D03*
D17*
X31200000Y22450000D03*
X31200000Y23350000D03*
D16*
X51000000Y3600000D03*
X50100000Y3600000D03*
X73500000Y3600000D03*
X72600000Y3600000D03*
X50100000Y2400000D03*
X51000000Y2400000D03*
X72600000Y2400000D03*
X73500000Y2400000D03*
X38850000Y3600000D03*
X39750000Y3600000D03*
X84750000Y3600000D03*
X83850000Y3600000D03*
X38850000Y2400000D03*
X39750000Y2400000D03*
X83850000Y2400000D03*
X84750000Y2400000D03*
X62250000Y3600000D03*
X61350000Y3600000D03*
X61350000Y2400000D03*
X62250000Y2400000D03*
D17*
X120200000Y9350000D03*
X120200000Y8450000D03*
X120200000Y18250000D03*
X120200000Y19150000D03*
D16*
X115750000Y27800000D03*
X114850000Y27800000D03*
X109250000Y25700000D03*
X110150000Y25700000D03*
X52650000Y10100000D03*
X51750000Y10100000D03*
D11*
X56525000Y3575000D03*
X52375000Y3575000D03*
X56525000Y1425000D03*
X52375000Y1425000D03*
X45275000Y3575000D03*
X41125000Y3575000D03*
X45275000Y1425000D03*
X41125000Y1425000D03*
X90275000Y3575000D03*
X86125000Y3575000D03*
X90275000Y1425000D03*
X86125000Y1425000D03*
X67775000Y3575000D03*
X63625000Y3575000D03*
X67775000Y1425000D03*
X63625000Y1425000D03*
D10*
X31650000Y12200000D03*
X30550000Y12200000D03*
X30550000Y11100000D03*
X31650000Y11100000D03*
D12*
X56000000Y14250000D03*
X56000000Y15350000D03*
D10*
X58950000Y11900000D03*
X60050000Y11900000D03*
D12*
X58000000Y10850000D03*
X58000000Y11950000D03*
X53000000Y14250000D03*
X53000000Y13150000D03*
M02*
