M48
; DRILL file {KiCad 5.1.9-73d0e3b20d~88~ubuntu20.04.1} date Sun Jan 24 23:06:22 2021
; FORMAT={-:-/ absolute / metric / decimal}
; #@! TF.CreationDate,2021-01-24T23:06:22+01:00
; #@! TF.GenerationSoftware,Kicad,Pcbnew,5.1.9-73d0e3b20d~88~ubuntu20.04.1
; #@! TF.FileFunction,Plated,1,6,PTH
FMAT,2
METRIC
T1C0.200
T2C0.350
T3C0.600
T4C0.900
T5C1.000
T6C1.700
%
G90
G05
T1
X10.05Y22.25
X11.05Y20.95
X11.6Y5.1
X11.6Y4.0
X11.6Y2.9
X16.2Y22.9
X21.9Y15.3
X26.8Y11.6
X29.6Y17.7
X29.75Y2.7
X29.75Y1.4
X32.2Y19.6
X32.3Y13.4
X32.3Y12.2
X32.3Y11.1
X32.6Y18.2
X32.6Y17.0
X34.2Y16.4
X34.2Y15.8
X35.6Y17.6
X37.0Y17.9
X37.1Y20.6
X40.0Y16.9
X41.9Y6.8
X42.4Y7.2
X43.9Y11.3
X44.1Y15.7
X44.6Y5.0
X44.971Y16.079
X45.3Y14.1
X46.0Y13.9
X46.067Y14.495
X46.4Y11.3
X46.4Y9.5
X46.925Y11.625
X47.316Y19.659
X47.482Y13.442
X47.625Y10.85
X47.889Y15.73
X48.6Y17.6
X48.862Y12.063
X49.038Y17.231
X49.338Y12.523
X49.34Y15.29
X49.539Y17.777
X49.55Y19.5
X50.24Y15.27
X50.24Y12.53
X50.241Y11.618
X50.241Y10.672
X50.365Y13.944
X50.44Y18.729
X50.445Y21.055
X50.65Y19.55
X50.687Y10.238
X50.701Y12.081
X50.72Y16.645
X51.161Y11.592
X51.17Y10.68
X51.233Y19.407
X51.533Y12.709
X51.59Y14.77
X51.598Y15.761
X52.08Y10.684
X52.5Y15.834
X52.54Y19.42
X52.54Y9.304
X52.54Y8.399
X52.55Y14.8
X52.57Y5.32
X52.9Y16.9
X53.0Y20.816
X53.05Y11.566
X53.086Y7.086
X53.449Y14.803
X53.45Y10.23
X53.46Y9.304
X53.46Y8.37
X53.688Y7.172
X54.05Y15.962
X54.367Y18.5
X54.38Y10.22
X54.398Y16.65
X54.59Y8.457
X54.8Y14.733
X54.8Y11.6
X54.85Y9.77
X55.29Y18.54
X55.3Y13.6
X55.3Y12.07
X55.3Y10.205
X55.33Y14.842
X55.524Y19.276
X55.985Y18.915
X56.1Y10.0
X56.213Y11.162
X56.66Y14.359
X56.66Y13.447
X57.13Y13.066
X57.562Y8.234
X58.07Y13.9
X58.3Y15.8
X58.503Y14.362
X58.52Y13.44
X58.962Y14.853
X59.213Y15.388
X59.7Y12.9
X59.9Y13.9
X61.241Y13.2
X62.055Y12.1
X63.92Y11.41
X66.35Y6.55
X66.413Y4.793
X78.834Y8.771
X81.15Y11.0
X81.175Y6.0
X85.55Y6.3
X86.427Y6.404
X87.05Y5.757
X87.238Y11.8
X87.55Y6.025
X88.025Y5.35
X88.2Y12.8
X92.802Y26.491
X94.543Y27.043
X96.172Y30.425
X96.179Y29.611
X96.183Y27.54
X96.2Y28.181
X98.3Y29.1
X101.904Y30.425
X106.0Y28.475
T2
X6.4Y14.4
X6.4Y13.7
X7.0Y14.0
X7.75Y15.75
X8.1Y6.0
X8.5Y23.5
X8.55Y14.7
X9.1Y21.6
X9.2Y6.0
X9.4Y14.7
X9.7Y12.5
X10.25Y14.7
X10.7Y23.8
X11.1Y13.6
X12.0Y10.75
X12.2Y22.8
X12.5Y21.9
X14.1Y14.45
X14.1Y13.6
X14.1Y12.7
X16.25Y12.6
X16.35Y21.95
X17.3Y5.8
X17.9Y10.7
X18.3Y6.0
X19.85Y17.65
X19.85Y17.0
X19.85Y16.3
X21.2Y5.0
X21.35Y17.6
X21.9Y16.3
X28.1Y22.1
X29.7Y12.2
X29.7Y11.1
X30.1Y13.4
X31.2Y1.8
X31.4Y4.1
X32.4Y15.2
X32.7Y10.3
X33.5Y9.6
X33.7Y4.4
X34.3Y20.0
X34.8Y20.6
X34.9Y9.6
X35.5Y12.8
X35.5Y11.3
X35.5Y1.6
X35.6Y14.9
X35.9Y8.5
X35.9Y7.9
X37.2Y13.2
X38.0Y9.4
X39.8Y1.6
X40.5Y4.7
X42.4Y21.2
X43.1Y19.3
X43.4Y22.0
X44.1Y12.8
X44.2Y19.3
X44.9Y13.6
X45.3Y16.6
X45.3Y19.3
X45.3Y17.7
X46.3Y1.4
X46.6Y19.6
X46.8Y12.9
X47.1Y21.9
X47.6Y21.5
X47.684Y17.15
X47.9Y8.5
X48.1Y21.9
X48.7Y5.4
X48.8Y7.6
X50.3Y5.5
X51.0Y1.3
X51.05Y8.25
X51.5Y7.8
X53.35Y21.95
X53.7Y6.2
X53.8Y20.2
X54.15Y22.75
X56.5Y7.19
X57.385Y10.756
X57.6Y1.4
X57.7Y6.1
X60.3Y6.3
X60.8Y10.7
X60.8Y7.0
X61.6Y15.4
X61.8Y5.6
X62.3Y1.6
X62.5Y7.8
X63.1Y2.8
X64.35Y5.8
X64.6Y2.75
X65.05Y5.2
X65.8Y2.8
X66.8Y3.275
X67.6Y7.35
X68.8Y1.4
X68.85Y3.85
X68.95Y16.25
X69.2Y6.3
X70.1Y3.9
X71.4Y7.5
X71.7Y5.6
X72.0Y21.8
X72.4Y7.9
X72.9Y21.8
X73.091Y15.05
X73.1Y16.05
X73.2Y19.2
X73.3Y6.2
X73.3Y5.5
X73.8Y21.8
X73.9Y19.2
X73.9Y14.95
X74.1Y4.8
X74.2Y2.7
X74.95Y14.95
X75.1Y21.8
X75.15Y19.2
X75.85Y19.2
X76.0Y21.8
X76.55Y19.2
X76.6Y14.4
X76.9Y21.8
X77.9Y14.25
X78.05Y19.5
X78.8Y17.8
X78.8Y17.2
X78.8Y16.6
X79.7Y14.5
X80.0Y1.4
X80.75Y8.5
X80.9Y4.7
X81.05Y12.3
X81.05Y9.7
X81.05Y7.3
X83.2Y3.6
X83.5Y9.25
X83.6Y14.15
X84.2Y6.0
X85.3Y2.825
X85.35Y20.55
X85.5Y14.25
X85.8Y15.7
X86.15Y9.075
X86.775Y8.45
X86.8Y19.856
X86.8Y9.75
X87.45Y9.075
X87.578Y13.872
X88.2Y3.1
X88.7Y11.1
X88.8Y6.8
X88.9Y14.75
X88.9Y12.6
X89.9Y4.6
X90.1Y14.9
X90.64Y5.84
X90.85Y12.1
X91.3Y1.4
X94.75Y24.75
X95.35Y12.8
X95.35Y6.5
X96.35Y21.9
X96.5Y9.15
X96.5Y2.8
X97.25Y24.0
X97.7Y12.2
X97.7Y5.9
X98.5Y25.2
X99.2Y23.4
X101.0Y23.45
X101.2Y20.7
X101.2Y20.0
X101.2Y19.25
X101.4Y2.0
X101.75Y25.9
X101.8Y29.75
X102.45Y12.95
X102.95Y24.0
X104.05Y29.15
X105.35Y30.25
X105.8Y25.15
X108.3Y24.5
X109.9Y12.45
X114.2Y27.8
X117.85Y28.55
X120.2Y17.5
X120.2Y10.1
T3
X15.56Y3.635
X15.56Y2.365
X16.83Y3.635
X16.83Y2.365
X18.1Y3.635
X18.1Y2.365
X19.37Y3.635
X19.37Y2.365
X20.64Y3.635
X20.64Y2.365
T4
X105.2Y16.96
X105.2Y14.42
X105.2Y11.88
X105.2Y9.34
X105.2Y6.8
X107.74Y18.23
X107.74Y13.15
X107.74Y10.61
X107.74Y8.07
T5
X118.15Y19.14
X118.15Y16.6
X118.15Y8.42
X118.15Y5.88
T6
X111.04Y20.26
X111.04Y4.76
T5
G00X112.2Y26.0
M15
G01X112.2Y25.0
M16
G05
G00X117.7Y26.0
M15
G01X117.7Y25.0
M16
G05
G00X120.1Y28.0
M15
G01X120.1Y27.0
M16
G05
T0
M30
