M48
; DRILL file {KiCad 7.0.2-0} date 2023 May 18, Thursday 01:22:22
; FORMAT={-:-/ absolute / metric / decimal}
; #@! TF.CreationDate,2023-05-18T01:22:22+02:00
; #@! TF.GenerationSoftware,Kicad,Pcbnew,7.0.2-0
; #@! TF.FileFunction,Plated,1,6,PTH
FMAT,2
METRIC
; #@! TA.AperFunction,Plated,PTH,ViaDrill
T1C0.150
; #@! TA.AperFunction,Plated,PTH,ComponentDrill
T2C0.900
; #@! TA.AperFunction,Plated,PTH,ComponentDrill
T3C1.000
; #@! TA.AperFunction,Plated,PTH,ComponentDrill
T4C1.700
%
G90
G05
T1
X11.836Y22.706
X11.836Y22.106
X14.136Y21.806
X14.336Y23.606
X14.336Y22.407
X14.336Y21.106
X14.736Y21.906
X15.736Y18.806
X16.236Y18.006
X16.336Y22.706
X16.436Y31.507
X17.036Y29.607
X17.436Y22.706
X17.436Y14.606
X17.436Y13.606
X17.436Y12.606
X17.736Y16.206
X18.236Y18.006
X18.436Y21.106
X18.636Y31.807
X18.836Y19.106
X18.936Y20.206
X18.966Y29.32
X19.036Y17.306
X19.136Y21.006
X20.436Y16.306
X20.936Y24.206
X20.936Y23.106
X20.936Y21.906
X21.236Y27.206
X21.336Y11.606
X22.636Y27.206
X22.752Y25.492
X23.206Y16.817
X23.236Y12.906
X24.097Y20.137
X24.097Y19.706
X24.097Y19.287
X25.136Y22.006
X25.136Y11.006
X25.997Y20.137
X26.116Y26.406
X26.336Y24.706
X26.337Y24.227
X27.036Y11.906
X27.397Y17.912
X28.147Y24.357
X28.547Y18.387
X28.647Y24.857
X28.647Y24.357
X28.647Y22.006
X28.997Y19.537
X29.147Y24.857
X29.147Y24.357
X29.236Y16.906
X29.736Y21.506
X33.297Y11.087
X33.747Y11.087
X33.897Y11.487
X35.547Y10.437
X36.197Y9.737
X37.286Y28.256
X37.456Y19.117
X37.736Y17.217
X37.736Y16.117
X37.856Y19.607
X38.136Y18.417
X38.197Y14.087
X38.431Y11.271
X38.497Y10.587
X38.497Y10.087
X38.497Y9.587
X38.697Y14.087
X38.867Y28.522
X39.336Y28.906
X39.347Y14.137
X39.456Y20.578
X39.836Y29.306
X40.236Y18.417
X40.236Y16.117
X40.256Y17.217
X40.556Y22.617
X40.556Y20.817
X40.847Y14.439
X41.497Y10.087
X41.497Y9.637
X41.947Y9.637
X42.156Y22.017
X42.217Y21.417
X42.256Y24.917
X42.548Y25.726
X43.456Y17.517
X43.456Y16.317
X43.556Y21.617
X44.147Y10.487
X44.247Y12.637
X44.647Y13.137
X45.056Y19.317
X45.456Y23.317
X45.736Y27.206
X45.777Y12.122
X47.312Y27.63
X47.39Y24.552
X47.674Y25.944
X48.236Y29.242
X48.247Y22.817
X48.686Y12.557
X48.836Y24.506
X49.056Y11.317
X49.536Y25.306
X50.236Y29.242
X50.277Y16.522
X50.277Y15.922
X50.636Y27.143
X50.96Y11.482
X51.236Y27.306
X51.336Y30.007
X51.936Y17.307
X52.036Y23.707
X52.036Y20.807
X52.136Y27.307
X52.836Y21.607
X52.907Y24.087
X52.936Y18.007
X53.236Y27.307
X53.236Y25.707
X53.236Y24.607
X53.236Y22.107
X53.936Y21.907
X54.003Y22.502
X54.147Y19.307
X54.287Y10.145
X54.336Y17.507
X54.536Y27.506
X54.736Y20.907
X54.877Y12.722
X54.922Y19.715
X55.036Y29.907
X55.056Y27.068
X55.418Y21.45
X55.447Y10.257
X55.547Y23.857
X55.561Y18.857
X55.62Y25.157
X55.836Y16.507
X55.836Y11.506
X56.036Y29.907
X56.036Y27.706
X56.236Y29.056
X56.383Y15.695
X56.436Y26.306
X56.798Y20.071
X57.086Y12.957
X57.236Y25.306
X57.274Y20.531
X57.276Y23.297
X57.475Y25.785
X57.486Y27.507
X57.718Y24.668
X58.176Y23.277
X58.176Y20.537
X58.177Y19.625
X58.177Y18.68
X58.186Y13.069
X58.261Y28.296
X58.301Y21.952
X58.6Y13.417
X58.623Y18.246
X58.656Y24.653
X58.986Y16.257
X59.047Y29.008
X59.097Y19.599
X59.106Y18.687
X59.169Y27.414
X59.436Y15.807
X59.469Y20.716
X59.526Y22.777
X59.534Y23.768
X60.016Y18.691
X60.047Y28.317
X60.436Y23.841
X60.476Y27.427
X60.476Y16.407
X60.486Y22.807
X60.506Y13.327
X60.836Y24.907
X60.916Y26.068
X60.936Y29.156
X60.986Y19.573
X61.022Y15.093
X61.267Y18.237
X61.286Y29.957
X61.385Y22.81
X61.396Y16.377
X61.636Y14.207
X61.856Y17.766
X61.875Y25.109
X61.915Y28.093
X61.986Y23.969
X62.086Y30.757
X62.303Y26.508
X62.316Y17.406
X62.334Y24.657
X62.636Y22.741
X62.736Y19.607
X62.786Y17.777
X63.206Y22.776
X63.226Y26.547
X63.236Y21.607
X63.236Y18.213
X63.251Y20.071
X63.46Y27.284
X63.695Y20.53
X63.747Y16.037
X63.847Y14.357
X63.907Y16.436
X64.036Y18.007
X64.149Y19.17
X64.186Y19.956
X64.275Y26.922
X64.547Y16.55
X64.596Y22.367
X64.596Y21.455
X64.686Y18.166
X65.247Y14.357
X65.321Y18.764
X65.426Y21.426
X65.986Y21.906
X66.236Y25.513
X66.236Y23.807
X66.439Y22.37
X66.456Y21.447
X66.898Y22.861
X67.718Y21.224
X68.236Y14.307
X68.736Y15.007
X68.797Y22.087
X68.847Y20.037
X68.909Y23.476
X69.209Y20.986
X69.497Y22.706
X71.076Y16.266
X71.136Y19.406
X72.029Y16.099
X72.036Y22.906
X73.296Y20.545
X74.536Y15.556
X74.566Y20.546
X75.836Y22.706
X76.586Y14.597
X76.886Y24.257
X78.036Y15.856
X78.136Y20.306
X78.436Y17.906
X79.436Y19.006
X79.936Y29.807
X80.836Y29.807
X81.036Y24.057
X81.036Y22.906
X81.136Y27.207
X81.736Y29.807
X81.836Y27.207
X81.836Y22.957
X82.886Y22.957
X83.036Y29.807
X83.086Y27.207
X83.786Y27.207
X83.936Y29.807
X84.486Y27.207
X84.536Y22.407
X84.836Y29.807
X85.636Y27.306
X85.836Y22.257
X86.736Y25.807
X86.736Y25.207
X87.236Y24.806
X87.756Y22.417
X104.347Y21.157
X106.147Y20.957
X106.647Y12.457
X107.047Y14.557
X116.136Y17.557
X120.036Y22.062
X134.297Y17.557
X138.036Y22.062
X160.906Y15.553
X161.186Y20.307
X161.186Y17.707
X161.736Y12.006
X163.336Y11.607
X163.636Y17.257
X163.736Y22.157
X165.436Y10.832
X165.486Y28.557
X165.636Y22.257
X165.646Y23.831
X165.686Y14.307
X166.286Y17.082
X166.636Y14.406
X166.911Y16.457
X166.936Y28.006
X166.936Y17.757
X167.186Y13.764
X167.374Y19.807
X167.586Y17.082
X167.686Y14.032
X167.714Y21.88
X168.161Y13.357
X168.336Y20.807
X168.336Y11.107
X168.836Y19.107
X168.936Y14.807
X169.136Y22.706
X169.835Y21.107
X170.036Y12.607
X170.776Y13.847
X170.936Y22.706
X170.936Y19.606
X172.536Y27.406
X172.792Y25.963
X173.481Y14.507
X173.836Y24.806
X174.236Y21.406
X174.518Y25.964
X174.631Y17.157
X174.631Y10.807
X174.836Y27.406
X175.831Y20.207
X175.831Y13.907
X176.456Y10.017
X182.586Y20.957
X190.036Y20.457
X199.747Y28.957
X199.747Y18.257
T2
X184.997Y24.967
X184.997Y22.427
X184.997Y19.887
X184.997Y17.347
X184.997Y14.807
X187.537Y26.237
X187.537Y21.157
X187.537Y18.617
X187.537Y16.077
T3
X197.947Y27.147
X197.947Y24.607
X197.947Y16.427
X197.947Y13.887
T4
X190.837Y28.267
X190.837Y12.767
T0
M30
