M48
; DRILL file {KiCad 7.0.2-0} date 2023 May 18, Thursday 01:22:22
; FORMAT={-:-/ absolute / metric / decimal}
; #@! TF.CreationDate,2023-05-18T01:22:22+02:00
; #@! TF.GenerationSoftware,Kicad,Pcbnew,7.0.2-0
; #@! TF.FileFunction,NonPlated,1,6,NPTH
FMAT,2
METRIC
; #@! TA.AperFunction,NonPlated,NPTH,ComponentDrill
T1C0.300
; #@! TA.AperFunction,NonPlated,NPTH,ComponentDrill
T2C0.991
; #@! TA.AperFunction,NonPlated,NPTH,ComponentDrill
T3C2.000
; #@! TA.AperFunction,NonPlated,NPTH,ComponentDrill
T4C2.375
; #@! TA.AperFunction,NonPlated,NPTH,ComponentDrill
T5C3.000
; #@! TA.AperFunction,NonPlated,NPTH,ComponentDrill
T6C3.200
; #@! TA.AperFunction,NonPlated,NPTH,ComponentDrill
T7C5.000
%
G90
G05
T1
X0.3Y32.99
X0.3Y7.99
X0.7Y32.99
X0.7Y7.99
X1.1Y32.99
X1.1Y7.99
X1.5Y32.99
X1.5Y7.99
X1.9Y32.99
X1.9Y7.99
X2.3Y32.99
X2.3Y7.99
X2.7Y32.99
X2.7Y7.99
X3.1Y32.99
X3.1Y7.99
X3.5Y32.99
X3.5Y7.99
X3.9Y32.99
X3.9Y7.99
X4.3Y32.99
X4.3Y7.99
X4.7Y32.99
X4.7Y7.99
X8.0Y40.69
X8.0Y40.29
X8.0Y39.89
X8.0Y39.49
X8.0Y39.09
X8.0Y38.69
X8.0Y38.29
X8.0Y37.89
X8.0Y37.49
X8.0Y37.09
X8.0Y36.69
X8.0Y36.29
X8.0Y4.69
X8.0Y4.29
X8.0Y3.89
X8.0Y3.49
X8.0Y3.09
X8.0Y2.69
X8.0Y2.29
X8.0Y1.89
X8.0Y1.49
X8.0Y1.09
X8.0Y0.69
X8.0Y0.29
X8.2Y27.158
X8.2Y26.741
X8.2Y26.324
X8.2Y25.907
X8.2Y25.49
X8.2Y25.073
X8.2Y24.657
X8.2Y24.24
X8.2Y23.823
X8.2Y23.406
X8.2Y22.989
X8.2Y22.572
X8.2Y22.156
X8.2Y18.824
X8.2Y18.407
X8.2Y17.991
X8.2Y17.574
X8.2Y17.157
X8.2Y16.74
X8.2Y16.323
X8.2Y15.907
X8.2Y15.49
X8.2Y15.073
X8.2Y14.656
X8.2Y14.239
X8.2Y13.822
X37.837Y32.79
X37.837Y8.19
X38.254Y32.79
X38.254Y8.19
X38.671Y32.79
X38.671Y8.19
X39.087Y32.79
X39.087Y8.19
X39.504Y32.79
X39.504Y8.19
X39.921Y32.79
X39.921Y8.19
X40.338Y32.79
X40.338Y8.19
X40.755Y32.79
X40.755Y8.19
X41.172Y32.79
X41.172Y8.19
X41.588Y32.79
X41.588Y8.19
X42.005Y32.79
X42.005Y8.19
X42.422Y32.79
X42.422Y8.19
X42.839Y32.79
X42.839Y8.19
X70.175Y32.79
X70.175Y8.19
X70.592Y32.79
X70.592Y8.19
X71.009Y32.79
X71.009Y8.19
X71.425Y32.79
X71.425Y8.19
X71.842Y32.79
X71.842Y8.19
X72.259Y32.79
X72.259Y8.19
X72.676Y32.79
X72.676Y8.19
X73.093Y32.79
X73.093Y8.19
X73.51Y32.79
X73.51Y8.19
X73.926Y32.79
X73.926Y8.19
X74.343Y32.79
X74.343Y8.19
X74.76Y32.79
X74.76Y8.19
X75.177Y32.79
X75.177Y8.19
X102.513Y32.79
X102.513Y8.19
X102.93Y32.79
X102.93Y8.19
X103.346Y32.79
X103.346Y8.19
X103.763Y32.79
X103.763Y8.19
X104.18Y32.79
X104.18Y8.19
X104.597Y32.79
X104.597Y8.19
X105.014Y32.79
X105.014Y8.19
X105.431Y32.79
X105.431Y8.19
X105.847Y32.79
X105.847Y8.19
X106.264Y32.79
X106.264Y8.19
X106.681Y32.79
X106.681Y8.19
X107.098Y32.79
X107.098Y8.19
X107.515Y32.79
X107.515Y8.19
X134.851Y32.79
X134.851Y8.19
X135.268Y32.79
X135.268Y8.19
X135.684Y32.79
X135.684Y8.19
X136.101Y32.79
X136.101Y8.19
X136.518Y32.79
X136.518Y8.19
X136.935Y32.79
X136.935Y8.19
X137.352Y32.79
X137.352Y8.19
X137.769Y32.79
X137.769Y8.19
X138.185Y32.79
X138.185Y8.19
X138.602Y32.79
X138.602Y8.19
X139.019Y32.79
X139.019Y8.19
X139.436Y32.79
X139.436Y8.19
X139.853Y32.79
X139.853Y8.19
X167.189Y32.79
X167.189Y8.19
X167.605Y32.79
X167.605Y8.19
X168.022Y32.79
X168.022Y8.19
X168.439Y32.79
X168.439Y8.19
X168.856Y32.79
X168.856Y8.19
X169.273Y32.79
X169.273Y8.19
X169.69Y32.79
X169.69Y8.19
X170.106Y32.79
X170.106Y8.19
X170.523Y32.79
X170.523Y8.19
X170.94Y32.79
X170.94Y8.19
X171.357Y32.79
X171.357Y8.19
X171.774Y32.79
X171.774Y8.19
X172.191Y32.79
X172.191Y8.19
X201.811Y27.157
X201.811Y26.74
X201.812Y26.323
X201.812Y25.906
X201.813Y25.49
X201.813Y25.073
X201.813Y24.656
X201.814Y24.239
X201.814Y23.822
X201.815Y23.405
X201.815Y22.989
X201.816Y22.572
X201.816Y22.155
X201.82Y18.824
X201.82Y18.407
X201.82Y17.99
X201.821Y17.573
X201.821Y17.156
X201.822Y16.739
X201.822Y16.323
X201.823Y15.906
X201.823Y15.489
X201.823Y15.072
X201.824Y14.655
X201.824Y14.238
X201.825Y13.822
X202.028Y40.69
X202.028Y40.29
X202.028Y39.89
X202.028Y39.49
X202.028Y39.09
X202.028Y38.69
X202.028Y38.29
X202.028Y37.89
X202.028Y37.49
X202.028Y37.09
X202.028Y36.69
X202.028Y36.29
X202.028Y4.69
X202.028Y4.29
X202.028Y3.89
X202.028Y3.49
X202.028Y3.09
X202.028Y2.69
X202.028Y2.29
X202.028Y1.89
X202.028Y1.49
X202.028Y1.09
X202.028Y0.69
X202.028Y0.29
X205.328Y32.99
X205.328Y7.99
X205.728Y32.99
X205.728Y7.99
X206.128Y32.99
X206.128Y7.99
X206.528Y32.99
X206.528Y7.99
X206.928Y32.99
X206.928Y7.99
X207.328Y32.99
X207.328Y7.99
X207.728Y32.99
X207.728Y7.99
X208.128Y32.99
X208.128Y7.99
X208.528Y32.99
X208.528Y7.99
X208.928Y32.99
X208.928Y7.99
X209.328Y32.99
X209.328Y7.99
X209.728Y32.99
X209.728Y7.99
T2
X172.64Y24.027
X173.656Y29.107
X174.672Y24.027
T4
X171.116Y29.107
X171.116Y25.932
X176.196Y29.107
X176.196Y25.932
T5
X20.0Y38.49
X20.0Y2.49
X190.028Y38.49
X190.028Y2.49
T6
X193.887Y26.237
X193.887Y14.807
T7
X20.0Y68.49
X20.0Y-27.51
X190.028Y68.49
X190.028Y-27.51
T3
G00X32.736Y15.266
M15
G01X32.736Y25.766
M16
G05
T0
M30
