%TF.GenerationSoftware,KiCad,Pcbnew,7.0.2-0*%
%TF.CreationDate,2023-05-18T01:22:18+02:00*%
%TF.ProjectId,panel,70616e65-6c2e-46b6-9963-61645f706362,2.2.0*%
%TF.SameCoordinates,PX2918ffdPY6cadc66*%
%TF.FileFunction,Legend,Bot*%
%TF.FilePolarity,Positive*%
%FSLAX46Y46*%
G04 Gerber Fmt 4.6, Leading zero omitted, Abs format (unit mm)*
G04 Created by KiCad (PCBNEW 7.0.2-0) date 2023-05-18 01:22:18*
%MOMM*%
%LPD*%
G01*
G04 APERTURE LIST*
%ADD10C,1.000000*%
%ADD11C,2.000000*%
%ADD12C,0.100000*%
%ADD13C,0.127000*%
%ADD14C,0.120000*%
G04 APERTURE END LIST*
D10*
X145697430Y12487430D02*
X140697430Y12487430D01*
X137697430Y15487430D01*
X140497430Y17687430D01*
X145697430Y12487430D01*
G36*
X145697430Y12487430D02*
G01*
X140697430Y12487430D01*
X137697430Y15487430D01*
X140497430Y17687430D01*
X145697430Y12487430D01*
G37*
D11*
X24497430Y24937430D02*
X33497430Y24937430D01*
X33497430Y15937430D01*
X24497430Y15937430D01*
X24497430Y24937430D01*
D12*
X133597430Y17587430D02*
X137697430Y17587430D01*
X137697430Y16987430D01*
X133597430Y16987430D01*
X133597430Y17587430D01*
G36*
X133597430Y17587430D02*
G01*
X137697430Y17587430D01*
X137697430Y16987430D01*
X133597430Y16987430D01*
X133597430Y17587430D01*
G37*
X136997430Y23687430D02*
X139297430Y23687430D01*
X139297430Y21787430D01*
X136997430Y21787430D01*
X136997430Y23687430D01*
G36*
X136997430Y23687430D02*
G01*
X139297430Y23687430D01*
X139297430Y21787430D01*
X136997430Y21787430D01*
X136997430Y23687430D01*
G37*
X25097430Y19037430D02*
X27397430Y19037430D01*
X27397430Y17137430D01*
X25097430Y17137430D01*
X25097430Y19037430D01*
G36*
X25097430Y19037430D02*
G01*
X27397430Y19037430D01*
X27397430Y17137430D01*
X25097430Y17137430D01*
X25097430Y19037430D01*
G37*
X115397430Y17587430D02*
X119497430Y17587430D01*
X119497430Y16987430D01*
X115397430Y16987430D01*
X115397430Y17587430D01*
G36*
X115397430Y17587430D02*
G01*
X119497430Y17587430D01*
X119497430Y16987430D01*
X115397430Y16987430D01*
X115397430Y17587430D01*
G37*
D10*
X133297430Y23687430D02*
X139297430Y23687430D01*
X139297430Y16587430D01*
X133297430Y16587430D01*
X133297430Y23687430D01*
D11*
X113697430Y24887430D02*
X121697430Y24887430D01*
X121697430Y15887430D01*
X113697430Y15887430D01*
X113697430Y24887430D01*
D10*
X115097430Y23687430D02*
X121097430Y23687430D01*
X121097430Y16587430D01*
X115097430Y16587430D01*
X115097430Y23687430D01*
X25097430Y24237430D02*
X31097430Y24237430D01*
X31097430Y17137430D01*
X25097430Y17137430D01*
X25097430Y24237430D01*
D11*
X24497430Y24937430D02*
X32497430Y24937430D01*
X32497430Y15937430D01*
X24497430Y15937430D01*
X24497430Y24937430D01*
X112697430Y24887430D02*
X121697430Y24887430D01*
X121697430Y15887430D01*
X112697430Y15887430D01*
X112697430Y24887430D01*
X131897430Y24887430D02*
X139897430Y24887430D01*
X139897430Y15887430D01*
X131897430Y15887430D01*
X131897430Y24887430D01*
D10*
X127497430Y12487430D02*
X122497430Y12487430D01*
X119497430Y15487430D01*
X122297430Y17687430D01*
X127497430Y12487430D01*
G36*
X127497430Y12487430D02*
G01*
X122497430Y12487430D01*
X119497430Y15487430D01*
X122297430Y17687430D01*
X127497430Y12487430D01*
G37*
D12*
X118797430Y23687430D02*
X121097430Y23687430D01*
X121097430Y21787430D01*
X118797430Y21787430D01*
X118797430Y23687430D01*
G36*
X118797430Y23687430D02*
G01*
X121097430Y23687430D01*
X121097430Y21787430D01*
X118797430Y21787430D01*
X118797430Y23687430D01*
G37*
D10*
X122097430Y23187430D02*
X119297430Y25387430D01*
X122297430Y28387430D01*
X127297430Y28387430D01*
X122097430Y23187430D01*
G36*
X122097430Y23187430D02*
G01*
X119297430Y25387430D01*
X122297430Y28387430D01*
X127297430Y28387430D01*
X122097430Y23187430D01*
G37*
D11*
X130897430Y24887430D02*
X139897430Y24887430D01*
X139897430Y15887430D01*
X130897430Y15887430D01*
X130897430Y24887430D01*
D12*
X26697430Y23837430D02*
X30797430Y23837430D01*
X30797430Y23237430D01*
X26697430Y23237430D01*
X26697430Y23837430D01*
G36*
X26697430Y23837430D02*
G01*
X30797430Y23837430D01*
X30797430Y23237430D01*
X26697430Y23237430D01*
X26697430Y23837430D01*
G37*
D10*
X26697430Y25487430D02*
X23897430Y23287430D01*
X18697430Y28487430D01*
X23697430Y28487430D01*
X26697430Y25487430D01*
G36*
X26697430Y25487430D02*
G01*
X23897430Y23287430D01*
X18697430Y28487430D01*
X23697430Y28487430D01*
X26697430Y25487430D01*
G37*
X140397430Y23187430D02*
X137597430Y25387430D01*
X140597430Y28387430D01*
X145597430Y28387430D01*
X140397430Y23187430D01*
G36*
X140397430Y23187430D02*
G01*
X137597430Y25387430D01*
X140597430Y28387430D01*
X145597430Y28387430D01*
X140397430Y23187430D01*
G37*
X26697430Y15487430D02*
X23697430Y12487430D01*
X18697430Y12487430D01*
X23897430Y17687430D01*
X26697430Y15487430D01*
G36*
X26697430Y15487430D02*
G01*
X23697430Y12487430D01*
X18697430Y12487430D01*
X23897430Y17687430D01*
X26697430Y15487430D01*
G37*
D12*
%TO.C,K1*%
X40736110Y11016030D02*
X40736110Y20516030D01*
X101236110Y11016030D02*
X40736110Y11016030D01*
X40736110Y20516030D02*
X40736110Y30016030D01*
X40736110Y30016030D02*
X101236110Y30016030D01*
X101236110Y30016030D02*
X101236110Y11016030D01*
D13*
%TO.C,R26*%
X107877430Y22208870D02*
X107877430Y21708870D01*
X106817430Y21708870D02*
X106817430Y22208870D01*
%TO.C,C8*%
X62586110Y20637430D02*
X62086110Y20637430D01*
X62086110Y21577430D02*
X62586110Y21577430D01*
%TO.C,C79*%
X58406110Y22157430D02*
X58406110Y21657430D01*
X57466110Y21657430D02*
X57466110Y22157430D01*
%TO.C,L5*%
X63756110Y17207430D02*
X63756110Y16207430D01*
X65116110Y16207430D02*
X65116110Y17207430D01*
%TO.C,R5*%
X38986110Y18947430D02*
X39486110Y18947430D01*
X39486110Y17887430D02*
X38986110Y17887430D01*
%TO.C,R18*%
X25667430Y22557430D02*
X25667430Y23057430D01*
X26727430Y23057430D02*
X26727430Y22557430D01*
%TO.C,R49*%
X198497430Y29487430D02*
X198997430Y29487430D01*
X198997430Y28427430D02*
X198497430Y28427430D01*
%TO.C,C32*%
X59186110Y22677430D02*
X59686110Y22677430D01*
X59686110Y21737430D02*
X59186110Y21737430D01*
%TO.C,C42*%
X54377430Y9457430D02*
X54377430Y9957430D01*
X55317430Y9957430D02*
X55317430Y9457430D01*
%TO.C,C47*%
X182766110Y20157430D02*
X182766110Y20657430D01*
X183706110Y20657430D02*
X183706110Y20157430D01*
%TO.C,C49*%
X189566110Y18957430D02*
X189566110Y19457430D01*
X190506110Y19457430D02*
X190506110Y18957430D01*
%TO.C,C33*%
X59286110Y23777430D02*
X59786110Y23777430D01*
X59786110Y22837430D02*
X59286110Y22837430D01*
%TO.C,C2*%
X61286110Y19477430D02*
X61786110Y19477430D01*
X61786110Y18537430D02*
X61286110Y18537430D01*
%TO.C,C10*%
X62686110Y21737430D02*
X62186110Y21737430D01*
X62186110Y22677430D02*
X62686110Y22677430D01*
%TO.C,R21*%
X120527430Y18257430D02*
X120527430Y17757430D01*
X119467430Y17757430D02*
X119467430Y18257430D01*
%TO.C,D4*%
X119397430Y19007430D02*
X119397430Y21207430D01*
X120597430Y19007430D02*
X119397430Y19007430D01*
X120597430Y19007430D02*
X120597430Y21207430D01*
%TO.C,R16*%
X138727430Y18207430D02*
X138727430Y17707430D01*
X137667430Y17707430D02*
X137667430Y18207430D01*
%TO.C,C53*%
X105417430Y22108870D02*
X105417430Y21608870D01*
X104477430Y21608870D02*
X104477430Y22108870D01*
%TO.C,SW2*%
X133697430Y23218870D02*
X134697430Y23218870D01*
X137097430Y17818870D02*
X137097430Y23018870D01*
X133697430Y17818870D02*
X133697430Y23218870D01*
%TO.C,R22*%
X54177430Y9857430D02*
X54177430Y9357430D01*
X53117430Y9357430D02*
X53117430Y9857430D01*
%TO.C,C26*%
X67886110Y21336030D02*
X67386110Y21336030D01*
X67386110Y22276030D02*
X67886110Y22276030D01*
%TO.C,C82*%
X62666110Y23696030D02*
X62666110Y24196030D01*
X63606110Y24196030D02*
X63606110Y23696030D01*
%TO.C,R53*%
X59886110Y18637430D02*
X60386110Y18637430D01*
X60386110Y17577430D02*
X59886110Y17577430D01*
%TO.C,F1*%
X184836110Y29077430D02*
X182836110Y29077430D01*
X182836110Y26937430D02*
X184836110Y26937430D01*
%TO.C,R27*%
X105797430Y15987430D02*
X106297430Y15987430D01*
X106297430Y14927430D02*
X105797430Y14927430D01*
%TO.C,C15*%
X39286110Y16747430D02*
X38786110Y16747430D01*
X38786110Y17687430D02*
X39286110Y17687430D01*
%TO.C,C3*%
X59186110Y21577430D02*
X59686110Y21577430D01*
X59686110Y20637430D02*
X59186110Y20637430D01*
%TO.C,R19*%
X51917430Y9357430D02*
X51917430Y9857430D01*
X52977430Y9857430D02*
X52977430Y9357430D01*
%TO.C,C27*%
X68586110Y22236030D02*
X68086110Y22236030D01*
X68086110Y23176030D02*
X68586110Y23176030D01*
%TO.C,D3*%
X26797430Y21757430D02*
X26797430Y19557430D01*
X25597430Y21757430D02*
X26797430Y21757430D01*
X25597430Y21757430D02*
X25597430Y19557430D01*
%TO.C,C34*%
X60586110Y24877430D02*
X61086110Y24877430D01*
X61086110Y23937430D02*
X60586110Y23937430D01*
%TO.C,C28*%
X67786110Y23136030D02*
X67286110Y23136030D01*
X67286110Y24076030D02*
X67786110Y24076030D01*
%TO.C,C83*%
X67686110Y19437430D02*
X67186110Y19437430D01*
X67186110Y20377430D02*
X67686110Y20377430D01*
%TO.C,C84*%
X66286110Y21377430D02*
X66786110Y21377430D01*
X66786110Y20437430D02*
X66286110Y20437430D01*
%TO.C,R48*%
X198497430Y18787430D02*
X198997430Y18787430D01*
X198997430Y17727430D02*
X198497430Y17727430D01*
D14*
%TO.C,K3*%
X174926110Y28472430D02*
X174291110Y28472430D01*
X174926110Y27837430D02*
X174926110Y28472430D01*
D13*
%TO.C,C12*%
X61886110Y22937430D02*
X61386110Y22937430D01*
X61386110Y23877430D02*
X61886110Y23877430D01*
%TO.C,C77*%
X61406110Y21957430D02*
X61406110Y21457430D01*
X60466110Y21457430D02*
X60466110Y21957430D01*
%TO.C,R42*%
X105617430Y21708870D02*
X105617430Y22208870D01*
X106677430Y22208870D02*
X106677430Y21708870D01*
%TO.C,C1*%
X59566110Y19457430D02*
X59566110Y19957430D01*
X60506110Y19957430D02*
X60506110Y19457430D01*
%TO.C,L7*%
X64756110Y23706030D02*
X64756110Y22706030D01*
X66116110Y22706030D02*
X66116110Y23706030D01*
%TO.C,C6*%
X61786110Y19637430D02*
X61286110Y19637430D01*
X61286110Y20577430D02*
X61786110Y20577430D01*
%TO.C,C81*%
X64606110Y23256030D02*
X64606110Y22756030D01*
X63666110Y22756030D02*
X63666110Y23256030D01*
%TO.C,C18*%
X39286110Y15647430D02*
X38786110Y15647430D01*
X38786110Y16587430D02*
X39286110Y16587430D01*
%TO.C,SW3*%
X27297430Y23218870D02*
X28297430Y23218870D01*
X30697430Y17818870D02*
X30697430Y23018870D01*
X27297430Y17818870D02*
X27297430Y23218870D01*
%TO.C,SW1*%
X115497430Y23218870D02*
X116497430Y23218870D01*
X118897430Y17818870D02*
X118897430Y23018870D01*
X115497430Y17818870D02*
X115497430Y23218870D01*
%TO.C,C56*%
X105897430Y13527430D02*
X106397430Y13527430D01*
X106397430Y12587430D02*
X105897430Y12587430D01*
%TO.C,C69*%
X56366110Y21656030D02*
X56366110Y22156030D01*
X57306110Y22156030D02*
X57306110Y21656030D01*
%TO.C,D1*%
X137597430Y19007430D02*
X137597430Y21207430D01*
X138797430Y19007430D02*
X137597430Y19007430D01*
X138797430Y19007430D02*
X138797430Y21207430D01*
%TO.C,R43*%
X106297430Y13727430D02*
X105797430Y13727430D01*
X105797430Y14787430D02*
X106297430Y14787430D01*
%TD*%
M02*
