%TF.GenerationSoftware,KiCad,Pcbnew,7.0.2-0*%
%TF.CreationDate,2023-05-18T01:22:18+02:00*%
%TF.ProjectId,panel,70616e65-6c2e-46b6-9963-61645f706362,2.2.0*%
%TF.SameCoordinates,PX2918ffdPY6cadc66*%
%TF.FileFunction,Soldermask,Bot*%
%TF.FilePolarity,Negative*%
%FSLAX46Y46*%
G04 Gerber Fmt 4.6, Leading zero omitted, Abs format (unit mm)*
G04 Created by KiCad (PCBNEW 7.0.2-0) date 2023-05-18 01:22:18*
%MOMM*%
%LPD*%
G01*
G04 APERTURE LIST*
%ADD10C,0.127000*%
%ADD11C,0.010000*%
%ADD12C,0.300000*%
%ADD13C,5.000000*%
%ADD14C,3.000000*%
%ADD15C,3.200000*%
%ADD16R,1.800000X1.800000*%
%ADD17C,1.800000*%
%ADD18C,2.000000*%
%ADD19O,2.500000X13.000000*%
%ADD20R,0.600000X0.400000*%
%ADD21R,0.600000X0.500000*%
%ADD22R,0.500000X0.600000*%
%ADD23R,0.900000X0.500000*%
%ADD24R,0.400000X0.600000*%
%ADD25C,1.000000*%
%ADD26C,2.540000*%
%ADD27R,0.800000X0.800000*%
%ADD28R,0.650000X1.050000*%
%ADD29R,0.900000X1.700000*%
%ADD30C,2.374900*%
%ADD31C,0.990600*%
%ADD32C,0.787400*%
G04 APERTURE END LIST*
D10*
X8769443Y30462824D02*
X8836109Y30462824D01*
X8836109Y30462824D02*
X8902776Y30496157D01*
X8902776Y30496157D02*
X8936109Y30529490D01*
X8936109Y30529490D02*
X8969443Y30596157D01*
X8969443Y30596157D02*
X9002776Y30729490D01*
X9002776Y30729490D02*
X9002776Y30896157D01*
X9002776Y30896157D02*
X8969443Y31029490D01*
X8969443Y31029490D02*
X8936109Y31096157D01*
X8936109Y31096157D02*
X8902776Y31129490D01*
X8902776Y31129490D02*
X8836109Y31162824D01*
X8836109Y31162824D02*
X8769443Y31162824D01*
X8769443Y31162824D02*
X8702776Y31129490D01*
X8702776Y31129490D02*
X8669443Y31096157D01*
X8669443Y31096157D02*
X8636109Y31029490D01*
X8636109Y31029490D02*
X8602776Y30896157D01*
X8602776Y30896157D02*
X8602776Y30729490D01*
X8602776Y30729490D02*
X8636109Y30596157D01*
X8636109Y30596157D02*
X8669443Y30529490D01*
X8669443Y30529490D02*
X8702776Y30496157D01*
X8702776Y30496157D02*
X8769443Y30462824D01*
X9636110Y30462824D02*
X9302776Y30462824D01*
X9302776Y30462824D02*
X9269443Y30796157D01*
X9269443Y30796157D02*
X9302776Y30762824D01*
X9302776Y30762824D02*
X9369443Y30729490D01*
X9369443Y30729490D02*
X9536110Y30729490D01*
X9536110Y30729490D02*
X9602776Y30762824D01*
X9602776Y30762824D02*
X9636110Y30796157D01*
X9636110Y30796157D02*
X9669443Y30862824D01*
X9669443Y30862824D02*
X9669443Y31029490D01*
X9669443Y31029490D02*
X9636110Y31096157D01*
X9636110Y31096157D02*
X9602776Y31129490D01*
X9602776Y31129490D02*
X9536110Y31162824D01*
X9536110Y31162824D02*
X9369443Y31162824D01*
X9369443Y31162824D02*
X9302776Y31129490D01*
X9302776Y31129490D02*
X9269443Y31096157D01*
X10469443Y30429490D02*
X9869443Y31329490D01*
X10669443Y30529490D02*
X10702776Y30496157D01*
X10702776Y30496157D02*
X10769443Y30462824D01*
X10769443Y30462824D02*
X10936110Y30462824D01*
X10936110Y30462824D02*
X11002776Y30496157D01*
X11002776Y30496157D02*
X11036110Y30529490D01*
X11036110Y30529490D02*
X11069443Y30596157D01*
X11069443Y30596157D02*
X11069443Y30662824D01*
X11069443Y30662824D02*
X11036110Y30762824D01*
X11036110Y30762824D02*
X10636110Y31162824D01*
X10636110Y31162824D02*
X11069443Y31162824D01*
X11502777Y30462824D02*
X11569443Y30462824D01*
X11569443Y30462824D02*
X11636110Y30496157D01*
X11636110Y30496157D02*
X11669443Y30529490D01*
X11669443Y30529490D02*
X11702777Y30596157D01*
X11702777Y30596157D02*
X11736110Y30729490D01*
X11736110Y30729490D02*
X11736110Y30896157D01*
X11736110Y30896157D02*
X11702777Y31029490D01*
X11702777Y31029490D02*
X11669443Y31096157D01*
X11669443Y31096157D02*
X11636110Y31129490D01*
X11636110Y31129490D02*
X11569443Y31162824D01*
X11569443Y31162824D02*
X11502777Y31162824D01*
X11502777Y31162824D02*
X11436110Y31129490D01*
X11436110Y31129490D02*
X11402777Y31096157D01*
X11402777Y31096157D02*
X11369443Y31029490D01*
X11369443Y31029490D02*
X11336110Y30896157D01*
X11336110Y30896157D02*
X11336110Y30729490D01*
X11336110Y30729490D02*
X11369443Y30596157D01*
X11369443Y30596157D02*
X11402777Y30529490D01*
X11402777Y30529490D02*
X11436110Y30496157D01*
X11436110Y30496157D02*
X11502777Y30462824D01*
X12002777Y30529490D02*
X12036110Y30496157D01*
X12036110Y30496157D02*
X12102777Y30462824D01*
X12102777Y30462824D02*
X12269444Y30462824D01*
X12269444Y30462824D02*
X12336110Y30496157D01*
X12336110Y30496157D02*
X12369444Y30529490D01*
X12369444Y30529490D02*
X12402777Y30596157D01*
X12402777Y30596157D02*
X12402777Y30662824D01*
X12402777Y30662824D02*
X12369444Y30762824D01*
X12369444Y30762824D02*
X11969444Y31162824D01*
X11969444Y31162824D02*
X12402777Y31162824D01*
X12636111Y30462824D02*
X13069444Y30462824D01*
X13069444Y30462824D02*
X12836111Y30729490D01*
X12836111Y30729490D02*
X12936111Y30729490D01*
X12936111Y30729490D02*
X13002777Y30762824D01*
X13002777Y30762824D02*
X13036111Y30796157D01*
X13036111Y30796157D02*
X13069444Y30862824D01*
X13069444Y30862824D02*
X13069444Y31029490D01*
X13069444Y31029490D02*
X13036111Y31096157D01*
X13036111Y31096157D02*
X13002777Y31129490D01*
X13002777Y31129490D02*
X12936111Y31162824D01*
X12936111Y31162824D02*
X12736111Y31162824D01*
X12736111Y31162824D02*
X12669444Y31129490D01*
X12669444Y31129490D02*
X12636111Y31096157D01*
X9336110Y31830157D02*
X9502776Y32296824D01*
X9502776Y32296824D02*
X9669443Y31830157D01*
X9902776Y31663490D02*
X9936109Y31630157D01*
X9936109Y31630157D02*
X10002776Y31596824D01*
X10002776Y31596824D02*
X10169443Y31596824D01*
X10169443Y31596824D02*
X10236109Y31630157D01*
X10236109Y31630157D02*
X10269443Y31663490D01*
X10269443Y31663490D02*
X10302776Y31730157D01*
X10302776Y31730157D02*
X10302776Y31796824D01*
X10302776Y31796824D02*
X10269443Y31896824D01*
X10269443Y31896824D02*
X9869443Y32296824D01*
X9869443Y32296824D02*
X10302776Y32296824D01*
X10602776Y32230157D02*
X10636110Y32263490D01*
X10636110Y32263490D02*
X10602776Y32296824D01*
X10602776Y32296824D02*
X10569443Y32263490D01*
X10569443Y32263490D02*
X10602776Y32230157D01*
X10602776Y32230157D02*
X10602776Y32296824D01*
X10902776Y31663490D02*
X10936109Y31630157D01*
X10936109Y31630157D02*
X11002776Y31596824D01*
X11002776Y31596824D02*
X11169443Y31596824D01*
X11169443Y31596824D02*
X11236109Y31630157D01*
X11236109Y31630157D02*
X11269443Y31663490D01*
X11269443Y31663490D02*
X11302776Y31730157D01*
X11302776Y31730157D02*
X11302776Y31796824D01*
X11302776Y31796824D02*
X11269443Y31896824D01*
X11269443Y31896824D02*
X10869443Y32296824D01*
X10869443Y32296824D02*
X11302776Y32296824D01*
X11602776Y32230157D02*
X11636110Y32263490D01*
X11636110Y32263490D02*
X11602776Y32296824D01*
X11602776Y32296824D02*
X11569443Y32263490D01*
X11569443Y32263490D02*
X11602776Y32230157D01*
X11602776Y32230157D02*
X11602776Y32296824D01*
X12069443Y31596824D02*
X12136109Y31596824D01*
X12136109Y31596824D02*
X12202776Y31630157D01*
X12202776Y31630157D02*
X12236109Y31663490D01*
X12236109Y31663490D02*
X12269443Y31730157D01*
X12269443Y31730157D02*
X12302776Y31863490D01*
X12302776Y31863490D02*
X12302776Y32030157D01*
X12302776Y32030157D02*
X12269443Y32163490D01*
X12269443Y32163490D02*
X12236109Y32230157D01*
X12236109Y32230157D02*
X12202776Y32263490D01*
X12202776Y32263490D02*
X12136109Y32296824D01*
X12136109Y32296824D02*
X12069443Y32296824D01*
X12069443Y32296824D02*
X12002776Y32263490D01*
X12002776Y32263490D02*
X11969443Y32230157D01*
X11969443Y32230157D02*
X11936109Y32163490D01*
X11936109Y32163490D02*
X11902776Y32030157D01*
X11902776Y32030157D02*
X11902776Y31863490D01*
X11902776Y31863490D02*
X11936109Y31730157D01*
X11936109Y31730157D02*
X11969443Y31663490D01*
X11969443Y31663490D02*
X12002776Y31630157D01*
X12002776Y31630157D02*
X12069443Y31596824D01*
%TO.C,G1*%
D11*
X181513930Y11005130D02*
X180764630Y11005130D01*
X180764630Y11360730D01*
X181513930Y11360730D01*
X181513930Y11005130D01*
G36*
X181513930Y11005130D02*
G01*
X180764630Y11005130D01*
X180764630Y11360730D01*
X181513930Y11360730D01*
X181513930Y11005130D01*
G37*
X181183730Y9944272D02*
X181183949Y9838361D01*
X181184974Y9748858D01*
X181187314Y9678454D01*
X181191477Y9623919D01*
X181197971Y9582029D01*
X181207305Y9549554D01*
X181219987Y9523268D01*
X181236525Y9499944D01*
X181257428Y9476353D01*
X181270654Y9463418D01*
X181334150Y9422316D01*
X181412096Y9398071D01*
X181500064Y9391638D01*
X181593628Y9403968D01*
X181641577Y9415101D01*
X181638078Y9222690D01*
X181634580Y9030280D01*
X181520280Y9031362D01*
X181517199Y9031393D01*
X181457661Y9033244D01*
X181414456Y9038392D01*
X181378943Y9048481D01*
X181342480Y9065153D01*
X181336149Y9068504D01*
X181276119Y9108620D01*
X181223089Y9157799D01*
X181185788Y9208080D01*
X181179755Y9216274D01*
X181174852Y9211667D01*
X181172289Y9187716D01*
X181171416Y9141405D01*
X181171030Y9049330D01*
X180764630Y9049330D01*
X180764630Y10281230D01*
X181183730Y10281230D01*
X181183730Y9944272D01*
G36*
X181183730Y9944272D02*
G01*
X181183949Y9838361D01*
X181184974Y9748858D01*
X181187314Y9678454D01*
X181191477Y9623919D01*
X181197971Y9582029D01*
X181207305Y9549554D01*
X181219987Y9523268D01*
X181236525Y9499944D01*
X181257428Y9476353D01*
X181270654Y9463418D01*
X181334150Y9422316D01*
X181412096Y9398071D01*
X181500064Y9391638D01*
X181593628Y9403968D01*
X181641577Y9415101D01*
X181638078Y9222690D01*
X181634580Y9030280D01*
X181520280Y9031362D01*
X181517199Y9031393D01*
X181457661Y9033244D01*
X181414456Y9038392D01*
X181378943Y9048481D01*
X181342480Y9065153D01*
X181336149Y9068504D01*
X181276119Y9108620D01*
X181223089Y9157799D01*
X181185788Y9208080D01*
X181179755Y9216274D01*
X181174852Y9211667D01*
X181172289Y9187716D01*
X181171416Y9141405D01*
X181171030Y9049330D01*
X180764630Y9049330D01*
X180764630Y10281230D01*
X181183730Y10281230D01*
X181183730Y9944272D01*
G37*
X185123627Y10316448D02*
X185211071Y10306645D01*
X185291592Y10283641D01*
X185380134Y10243697D01*
X185463753Y10192536D01*
X185532824Y10135283D01*
X185560320Y10105670D01*
X185627619Y10009429D01*
X185676235Y9900742D01*
X185705727Y9783612D01*
X185715653Y9662040D01*
X185705574Y9540028D01*
X185675049Y9421579D01*
X185623637Y9310694D01*
X185604720Y9282221D01*
X185553430Y9222236D01*
X185490188Y9163157D01*
X185422720Y9111855D01*
X185358752Y9075200D01*
X185264779Y9040300D01*
X185141659Y9015579D01*
X185018255Y9012557D01*
X184898054Y9030641D01*
X184784543Y9069238D01*
X184681208Y9127756D01*
X184591537Y9205603D01*
X184519919Y9294272D01*
X184467031Y9390329D01*
X184432775Y9496808D01*
X184414855Y9619081D01*
X184412650Y9679082D01*
X184424815Y9803253D01*
X184458507Y9919836D01*
X184511942Y10026267D01*
X184583339Y10119981D01*
X184670916Y10198414D01*
X184772891Y10259003D01*
X184887482Y10299181D01*
X184934433Y10308224D01*
X185027159Y10316876D01*
X185123627Y10316448D01*
G36*
X185123627Y10316448D02*
G01*
X185211071Y10306645D01*
X185291592Y10283641D01*
X185380134Y10243697D01*
X185463753Y10192536D01*
X185532824Y10135283D01*
X185560320Y10105670D01*
X185627619Y10009429D01*
X185676235Y9900742D01*
X185705727Y9783612D01*
X185715653Y9662040D01*
X185705574Y9540028D01*
X185675049Y9421579D01*
X185623637Y9310694D01*
X185604720Y9282221D01*
X185553430Y9222236D01*
X185490188Y9163157D01*
X185422720Y9111855D01*
X185358752Y9075200D01*
X185264779Y9040300D01*
X185141659Y9015579D01*
X185018255Y9012557D01*
X184898054Y9030641D01*
X184784543Y9069238D01*
X184681208Y9127756D01*
X184591537Y9205603D01*
X184519919Y9294272D01*
X184467031Y9390329D01*
X184432775Y9496808D01*
X184414855Y9619081D01*
X184412650Y9679082D01*
X184424815Y9803253D01*
X184458507Y9919836D01*
X184511942Y10026267D01*
X184583339Y10119981D01*
X184670916Y10198414D01*
X184772891Y10259003D01*
X184887482Y10299181D01*
X184934433Y10308224D01*
X185027159Y10316876D01*
X185123627Y10316448D01*
G37*
X182164278Y11446455D02*
X182165298Y11347677D01*
X182166511Y11258148D01*
X182167997Y11188271D01*
X182169969Y11135006D01*
X182172638Y11095314D01*
X182176214Y11066155D01*
X182180910Y11044490D01*
X182186935Y11027278D01*
X182194502Y11011480D01*
X182222072Y10971648D01*
X182271038Y10932137D01*
X182328505Y10909657D01*
X182389246Y10904458D01*
X182448034Y10916790D01*
X182499640Y10946902D01*
X182538838Y10995043D01*
X182542168Y11001615D01*
X182548021Y11017209D01*
X182552691Y11038013D01*
X182556355Y11066910D01*
X182559193Y11106786D01*
X182561379Y11160523D01*
X182563093Y11231008D01*
X182564511Y11321123D01*
X182565811Y11433755D01*
X182569943Y11830630D01*
X182975816Y11830630D01*
X182971500Y11344855D01*
X182971026Y11292436D01*
X182969674Y11166487D01*
X182967884Y11062349D01*
X182965222Y10977402D01*
X182961254Y10909022D01*
X182955545Y10854588D01*
X182947663Y10811479D01*
X182937171Y10777072D01*
X182923637Y10748746D01*
X182906627Y10723878D01*
X182885706Y10699847D01*
X182860440Y10674030D01*
X182828529Y10644958D01*
X182772915Y10608151D01*
X182709291Y10584081D01*
X182632224Y10570956D01*
X182536280Y10566980D01*
X182485485Y10567407D01*
X182438760Y10569983D01*
X182402306Y10576301D01*
X182367753Y10587938D01*
X182326730Y10606472D01*
X182282989Y10630159D01*
X182233764Y10662417D01*
X182196555Y10692809D01*
X182148930Y10739652D01*
X182148930Y10598730D01*
X181742530Y10598730D01*
X181742530Y11830630D01*
X182160576Y11830630D01*
X182164278Y11446455D01*
G36*
X182164278Y11446455D02*
G01*
X182165298Y11347677D01*
X182166511Y11258148D01*
X182167997Y11188271D01*
X182169969Y11135006D01*
X182172638Y11095314D01*
X182176214Y11066155D01*
X182180910Y11044490D01*
X182186935Y11027278D01*
X182194502Y11011480D01*
X182222072Y10971648D01*
X182271038Y10932137D01*
X182328505Y10909657D01*
X182389246Y10904458D01*
X182448034Y10916790D01*
X182499640Y10946902D01*
X182538838Y10995043D01*
X182542168Y11001615D01*
X182548021Y11017209D01*
X182552691Y11038013D01*
X182556355Y11066910D01*
X182559193Y11106786D01*
X182561379Y11160523D01*
X182563093Y11231008D01*
X182564511Y11321123D01*
X182565811Y11433755D01*
X182569943Y11830630D01*
X182975816Y11830630D01*
X182971500Y11344855D01*
X182971026Y11292436D01*
X182969674Y11166487D01*
X182967884Y11062349D01*
X182965222Y10977402D01*
X182961254Y10909022D01*
X182955545Y10854588D01*
X182947663Y10811479D01*
X182937171Y10777072D01*
X182923637Y10748746D01*
X182906627Y10723878D01*
X182885706Y10699847D01*
X182860440Y10674030D01*
X182828529Y10644958D01*
X182772915Y10608151D01*
X182709291Y10584081D01*
X182632224Y10570956D01*
X182536280Y10566980D01*
X182485485Y10567407D01*
X182438760Y10569983D01*
X182402306Y10576301D01*
X182367753Y10587938D01*
X182326730Y10606472D01*
X182282989Y10630159D01*
X182233764Y10662417D01*
X182196555Y10692809D01*
X182148930Y10739652D01*
X182148930Y10598730D01*
X181742530Y10598730D01*
X181742530Y11830630D01*
X182160576Y11830630D01*
X182164278Y11446455D01*
G37*
X185044530Y11477335D02*
X185044533Y11463469D01*
X185044997Y11345257D01*
X185046558Y11249250D01*
X185049671Y11172565D01*
X185054788Y11112319D01*
X185062361Y11065628D01*
X185072843Y11029608D01*
X185086687Y11001376D01*
X185104346Y10978048D01*
X185126273Y10956741D01*
X185136340Y10948501D01*
X185174678Y10924005D01*
X185209857Y10909829D01*
X185240441Y10905778D01*
X185296660Y10908577D01*
X185348933Y10921954D01*
X185386970Y10943928D01*
X185396459Y10953066D01*
X185411790Y10970532D01*
X185423949Y10990583D01*
X185433300Y11016071D01*
X185440210Y11049848D01*
X185445044Y11094765D01*
X185448167Y11153674D01*
X185449945Y11229427D01*
X185450744Y11324876D01*
X185450930Y11442872D01*
X185450930Y11830630D01*
X185872161Y11830630D01*
X185867361Y11357555D01*
X185867010Y11323177D01*
X185865748Y11206993D01*
X185864477Y11112674D01*
X185863021Y11037421D01*
X185861204Y10978435D01*
X185858849Y10932915D01*
X185855779Y10898061D01*
X185851818Y10871074D01*
X185846791Y10849153D01*
X185840520Y10829498D01*
X185832830Y10809311D01*
X185826250Y10793626D01*
X185777808Y10711421D01*
X185713668Y10644521D01*
X185637963Y10597416D01*
X185624817Y10591760D01*
X185589752Y10579602D01*
X185552005Y10572290D01*
X185504017Y10568700D01*
X185438230Y10567708D01*
X185391374Y10568562D01*
X185301837Y10577619D01*
X185226997Y10598303D01*
X185160487Y10632761D01*
X185095944Y10683139D01*
X185031830Y10740783D01*
X185031830Y10598730D01*
X184638130Y10598730D01*
X184638130Y11830630D01*
X185044530Y11830630D01*
X185044530Y11477335D01*
G36*
X185044530Y11477335D02*
G01*
X185044533Y11463469D01*
X185044997Y11345257D01*
X185046558Y11249250D01*
X185049671Y11172565D01*
X185054788Y11112319D01*
X185062361Y11065628D01*
X185072843Y11029608D01*
X185086687Y11001376D01*
X185104346Y10978048D01*
X185126273Y10956741D01*
X185136340Y10948501D01*
X185174678Y10924005D01*
X185209857Y10909829D01*
X185240441Y10905778D01*
X185296660Y10908577D01*
X185348933Y10921954D01*
X185386970Y10943928D01*
X185396459Y10953066D01*
X185411790Y10970532D01*
X185423949Y10990583D01*
X185433300Y11016071D01*
X185440210Y11049848D01*
X185445044Y11094765D01*
X185448167Y11153674D01*
X185449945Y11229427D01*
X185450744Y11324876D01*
X185450930Y11442872D01*
X185450930Y11830630D01*
X185872161Y11830630D01*
X185867361Y11357555D01*
X185867010Y11323177D01*
X185865748Y11206993D01*
X185864477Y11112674D01*
X185863021Y11037421D01*
X185861204Y10978435D01*
X185858849Y10932915D01*
X185855779Y10898061D01*
X185851818Y10871074D01*
X185846791Y10849153D01*
X185840520Y10829498D01*
X185832830Y10809311D01*
X185826250Y10793626D01*
X185777808Y10711421D01*
X185713668Y10644521D01*
X185637963Y10597416D01*
X185624817Y10591760D01*
X185589752Y10579602D01*
X185552005Y10572290D01*
X185504017Y10568700D01*
X185438230Y10567708D01*
X185391374Y10568562D01*
X185301837Y10577619D01*
X185226997Y10598303D01*
X185160487Y10632761D01*
X185095944Y10683139D01*
X185031830Y10740783D01*
X185031830Y10598730D01*
X184638130Y10598730D01*
X184638130Y11830630D01*
X185044530Y11830630D01*
X185044530Y11477335D01*
G37*
X186868093Y11851079D02*
X186983099Y11816307D01*
X187085802Y11763874D01*
X187172372Y11694757D01*
X187175197Y11691898D01*
X187225194Y11629317D01*
X187270086Y11552491D01*
X187304845Y11471308D01*
X187324446Y11395655D01*
X187333414Y11335330D01*
X187128772Y11335330D01*
X187057783Y11335403D01*
X187001718Y11335962D01*
X186964032Y11337518D01*
X186941065Y11340580D01*
X186929163Y11345658D01*
X186924667Y11353263D01*
X186923921Y11363905D01*
X186918482Y11395574D01*
X186894443Y11444599D01*
X186856332Y11489874D01*
X186809777Y11523529D01*
X186749854Y11544481D01*
X186681446Y11545997D01*
X186616816Y11524904D01*
X186559852Y11482558D01*
X186514437Y11420319D01*
X186513630Y11418801D01*
X186501459Y11392704D01*
X186493439Y11365250D01*
X186488741Y11330434D01*
X186486531Y11282246D01*
X186485980Y11214680D01*
X186486019Y11189707D01*
X186486874Y11130483D01*
X186489551Y11088532D01*
X186494971Y11057784D01*
X186504057Y11032171D01*
X186517730Y11005621D01*
X186524693Y10993898D01*
X186572169Y10938014D01*
X186629971Y10900531D01*
X186693513Y10882178D01*
X186758206Y10883686D01*
X186819462Y10905782D01*
X186872695Y10949197D01*
X186882728Y10961696D01*
X186903259Y10996140D01*
X186911430Y11024621D01*
X186911430Y11055930D01*
X187321282Y11055930D01*
X187313155Y10996634D01*
X187305689Y10958425D01*
X187272787Y10869708D01*
X187221612Y10785089D01*
X187156703Y10711293D01*
X187082595Y10655041D01*
X187016700Y10622458D01*
X186909450Y10587313D01*
X186793450Y10566437D01*
X186676676Y10561107D01*
X186567103Y10572597D01*
X186566614Y10572693D01*
X186463324Y10603228D01*
X186364877Y10651331D01*
X186276358Y10713435D01*
X186202854Y10785978D01*
X186149448Y10865392D01*
X186142371Y10879669D01*
X186097347Y10996956D01*
X186069817Y11122162D01*
X186060932Y11247856D01*
X186071842Y11366610D01*
X186076546Y11389133D01*
X186114245Y11500505D01*
X186172403Y11602400D01*
X186248013Y11691752D01*
X186338066Y11765492D01*
X186439558Y11820553D01*
X186549480Y11853867D01*
X186616494Y11863725D01*
X186744615Y11867211D01*
X186868093Y11851079D01*
G36*
X186868093Y11851079D02*
G01*
X186983099Y11816307D01*
X187085802Y11763874D01*
X187172372Y11694757D01*
X187175197Y11691898D01*
X187225194Y11629317D01*
X187270086Y11552491D01*
X187304845Y11471308D01*
X187324446Y11395655D01*
X187333414Y11335330D01*
X187128772Y11335330D01*
X187057783Y11335403D01*
X187001718Y11335962D01*
X186964032Y11337518D01*
X186941065Y11340580D01*
X186929163Y11345658D01*
X186924667Y11353263D01*
X186923921Y11363905D01*
X186918482Y11395574D01*
X186894443Y11444599D01*
X186856332Y11489874D01*
X186809777Y11523529D01*
X186749854Y11544481D01*
X186681446Y11545997D01*
X186616816Y11524904D01*
X186559852Y11482558D01*
X186514437Y11420319D01*
X186513630Y11418801D01*
X186501459Y11392704D01*
X186493439Y11365250D01*
X186488741Y11330434D01*
X186486531Y11282246D01*
X186485980Y11214680D01*
X186486019Y11189707D01*
X186486874Y11130483D01*
X186489551Y11088532D01*
X186494971Y11057784D01*
X186504057Y11032171D01*
X186517730Y11005621D01*
X186524693Y10993898D01*
X186572169Y10938014D01*
X186629971Y10900531D01*
X186693513Y10882178D01*
X186758206Y10883686D01*
X186819462Y10905782D01*
X186872695Y10949197D01*
X186882728Y10961696D01*
X186903259Y10996140D01*
X186911430Y11024621D01*
X186911430Y11055930D01*
X187321282Y11055930D01*
X187313155Y10996634D01*
X187305689Y10958425D01*
X187272787Y10869708D01*
X187221612Y10785089D01*
X187156703Y10711293D01*
X187082595Y10655041D01*
X187016700Y10622458D01*
X186909450Y10587313D01*
X186793450Y10566437D01*
X186676676Y10561107D01*
X186567103Y10572597D01*
X186566614Y10572693D01*
X186463324Y10603228D01*
X186364877Y10651331D01*
X186276358Y10713435D01*
X186202854Y10785978D01*
X186149448Y10865392D01*
X186142371Y10879669D01*
X186097347Y10996956D01*
X186069817Y11122162D01*
X186060932Y11247856D01*
X186071842Y11366610D01*
X186076546Y11389133D01*
X186114245Y11500505D01*
X186172403Y11602400D01*
X186248013Y11691752D01*
X186338066Y11765492D01*
X186439558Y11820553D01*
X186549480Y11853867D01*
X186616494Y11863725D01*
X186744615Y11867211D01*
X186868093Y11851079D01*
G37*
X188291456Y11852673D02*
X188404220Y11824699D01*
X188502033Y11783282D01*
X188507115Y11780474D01*
X188591192Y11720527D01*
X188663279Y11643989D01*
X188716742Y11557829D01*
X188734318Y11518668D01*
X188747769Y11484517D01*
X188752919Y11465505D01*
X188748182Y11459872D01*
X188729159Y11455055D01*
X188692988Y11451892D01*
X188636925Y11450158D01*
X188558226Y11449630D01*
X188363522Y11449630D01*
X188346297Y11481814D01*
X188344046Y11485669D01*
X188319227Y11514557D01*
X188286233Y11540474D01*
X188266661Y11551530D01*
X188193161Y11577100D01*
X188118419Y11581418D01*
X188046917Y11565927D01*
X187983137Y11532072D01*
X187931563Y11481295D01*
X187896677Y11415040D01*
X187890390Y11395739D01*
X187880521Y11360746D01*
X187876630Y11339417D01*
X187876695Y11338778D01*
X187882101Y11334333D01*
X187897724Y11330744D01*
X187925734Y11327928D01*
X187968298Y11325805D01*
X188027586Y11324295D01*
X188105767Y11323316D01*
X188205008Y11322788D01*
X188327480Y11322630D01*
X188778330Y11322630D01*
X188777886Y11255955D01*
X188774924Y11197199D01*
X188759509Y11092351D01*
X188733220Y10989168D01*
X188698620Y10899188D01*
X188694978Y10891663D01*
X188630439Y10786841D01*
X188549855Y10701372D01*
X188454236Y10635809D01*
X188344591Y10590705D01*
X188221929Y10566614D01*
X188087259Y10564088D01*
X188071075Y10565216D01*
X187938389Y10587148D01*
X187818795Y10630381D01*
X187713420Y10694087D01*
X187623387Y10777443D01*
X187549822Y10879620D01*
X187493848Y10999794D01*
X187486254Y11023836D01*
X187475307Y11081330D01*
X187874918Y11081330D01*
X187883733Y11052755D01*
X187891963Y11028403D01*
X187931215Y10950872D01*
X187983626Y10894808D01*
X188048870Y10860484D01*
X188126623Y10848173D01*
X188166110Y10849694D01*
X188205451Y10860326D01*
X188246472Y10884896D01*
X188272674Y10906128D01*
X188322765Y10969109D01*
X188353507Y11046405D01*
X188361983Y11081330D01*
X187874918Y11081330D01*
X187475307Y11081330D01*
X187471385Y11101930D01*
X187464813Y11192195D01*
X187466523Y11285991D01*
X187476497Y11374682D01*
X187494719Y11449630D01*
X187500367Y11465475D01*
X187554879Y11578100D01*
X187628182Y11674228D01*
X187718726Y11752485D01*
X187824964Y11811495D01*
X187945348Y11849884D01*
X188049510Y11864894D01*
X188170850Y11866355D01*
X188291456Y11852673D01*
G36*
X188291456Y11852673D02*
G01*
X188404220Y11824699D01*
X188502033Y11783282D01*
X188507115Y11780474D01*
X188591192Y11720527D01*
X188663279Y11643989D01*
X188716742Y11557829D01*
X188734318Y11518668D01*
X188747769Y11484517D01*
X188752919Y11465505D01*
X188748182Y11459872D01*
X188729159Y11455055D01*
X188692988Y11451892D01*
X188636925Y11450158D01*
X188558226Y11449630D01*
X188363522Y11449630D01*
X188346297Y11481814D01*
X188344046Y11485669D01*
X188319227Y11514557D01*
X188286233Y11540474D01*
X188266661Y11551530D01*
X188193161Y11577100D01*
X188118419Y11581418D01*
X188046917Y11565927D01*
X187983137Y11532072D01*
X187931563Y11481295D01*
X187896677Y11415040D01*
X187890390Y11395739D01*
X187880521Y11360746D01*
X187876630Y11339417D01*
X187876695Y11338778D01*
X187882101Y11334333D01*
X187897724Y11330744D01*
X187925734Y11327928D01*
X187968298Y11325805D01*
X188027586Y11324295D01*
X188105767Y11323316D01*
X188205008Y11322788D01*
X188327480Y11322630D01*
X188778330Y11322630D01*
X188777886Y11255955D01*
X188774924Y11197199D01*
X188759509Y11092351D01*
X188733220Y10989168D01*
X188698620Y10899188D01*
X188694978Y10891663D01*
X188630439Y10786841D01*
X188549855Y10701372D01*
X188454236Y10635809D01*
X188344591Y10590705D01*
X188221929Y10566614D01*
X188087259Y10564088D01*
X188071075Y10565216D01*
X187938389Y10587148D01*
X187818795Y10630381D01*
X187713420Y10694087D01*
X187623387Y10777443D01*
X187549822Y10879620D01*
X187493848Y10999794D01*
X187486254Y11023836D01*
X187475307Y11081330D01*
X187874918Y11081330D01*
X187883733Y11052755D01*
X187891963Y11028403D01*
X187931215Y10950872D01*
X187983626Y10894808D01*
X188048870Y10860484D01*
X188126623Y10848173D01*
X188166110Y10849694D01*
X188205451Y10860326D01*
X188246472Y10884896D01*
X188272674Y10906128D01*
X188322765Y10969109D01*
X188353507Y11046405D01*
X188361983Y11081330D01*
X187874918Y11081330D01*
X187475307Y11081330D01*
X187471385Y11101930D01*
X187464813Y11192195D01*
X187466523Y11285991D01*
X187476497Y11374682D01*
X187494719Y11449630D01*
X187500367Y11465475D01*
X187554879Y11578100D01*
X187628182Y11674228D01*
X187718726Y11752485D01*
X187824964Y11811495D01*
X187945348Y11849884D01*
X188049510Y11864894D01*
X188170850Y11866355D01*
X188291456Y11852673D01*
G37*
X182510947Y10300205D02*
X182627113Y10264835D01*
X182730725Y10212870D01*
X182817713Y10145244D01*
X182832659Y10129166D01*
X182864084Y10087886D01*
X182895353Y10039098D01*
X182922545Y9989644D01*
X182941741Y9946366D01*
X182949019Y9916105D01*
X182944427Y9910535D01*
X182925599Y9905696D01*
X182889646Y9902529D01*
X182833815Y9900808D01*
X182755355Y9900310D01*
X182561680Y9900390D01*
X182540499Y9937619D01*
X182517697Y9966198D01*
X182468983Y9999620D01*
X182407760Y10022363D01*
X182340874Y10032873D01*
X182275169Y10029596D01*
X182217490Y10010977D01*
X182207310Y10005246D01*
X182156225Y9963604D01*
X182113410Y9908535D01*
X182083918Y9847786D01*
X182072800Y9789105D01*
X182075634Y9785782D01*
X182089499Y9782028D01*
X182116732Y9779046D01*
X182159336Y9776764D01*
X182219318Y9775111D01*
X182298683Y9774019D01*
X182399435Y9773415D01*
X182523580Y9773230D01*
X182974430Y9773230D01*
X182973986Y9706555D01*
X182973985Y9706368D01*
X182971353Y9659357D01*
X182964920Y9600288D01*
X182956073Y9541904D01*
X182943612Y9484108D01*
X182901255Y9362750D01*
X182840426Y9256968D01*
X182762267Y9168183D01*
X182667919Y9097812D01*
X182558522Y9047276D01*
X182555342Y9046197D01*
X182472185Y9026641D01*
X182375708Y9017015D01*
X182275087Y9017311D01*
X182179502Y9027522D01*
X182098130Y9047641D01*
X182014303Y9082791D01*
X181905348Y9149865D01*
X181814466Y9234548D01*
X181742258Y9336243D01*
X181689325Y9454351D01*
X181671854Y9524031D01*
X181670955Y9531930D01*
X182071018Y9531930D01*
X182079853Y9503355D01*
X182095771Y9461141D01*
X182137435Y9392491D01*
X182190848Y9341394D01*
X182252621Y9309313D01*
X182319367Y9297709D01*
X182387699Y9308046D01*
X182454228Y9341784D01*
X182473487Y9359990D01*
X182501567Y9397237D01*
X182527894Y9441439D01*
X182547447Y9483933D01*
X182555205Y9516055D01*
X182553707Y9519221D01*
X182540974Y9524245D01*
X182513122Y9527860D01*
X182467583Y9530233D01*
X182401789Y9531533D01*
X182313174Y9531930D01*
X182071018Y9531930D01*
X181670955Y9531930D01*
X181661022Y9619206D01*
X181660564Y9719957D01*
X181670452Y9816794D01*
X181690657Y9900230D01*
X181695939Y9915022D01*
X181750563Y10028454D01*
X181823669Y10124864D01*
X181913952Y10203092D01*
X182020106Y10261976D01*
X182140826Y10300358D01*
X182257233Y10317431D01*
X182386297Y10318048D01*
X182510947Y10300205D01*
G36*
X182510947Y10300205D02*
G01*
X182627113Y10264835D01*
X182730725Y10212870D01*
X182817713Y10145244D01*
X182832659Y10129166D01*
X182864084Y10087886D01*
X182895353Y10039098D01*
X182922545Y9989644D01*
X182941741Y9946366D01*
X182949019Y9916105D01*
X182944427Y9910535D01*
X182925599Y9905696D01*
X182889646Y9902529D01*
X182833815Y9900808D01*
X182755355Y9900310D01*
X182561680Y9900390D01*
X182540499Y9937619D01*
X182517697Y9966198D01*
X182468983Y9999620D01*
X182407760Y10022363D01*
X182340874Y10032873D01*
X182275169Y10029596D01*
X182217490Y10010977D01*
X182207310Y10005246D01*
X182156225Y9963604D01*
X182113410Y9908535D01*
X182083918Y9847786D01*
X182072800Y9789105D01*
X182075634Y9785782D01*
X182089499Y9782028D01*
X182116732Y9779046D01*
X182159336Y9776764D01*
X182219318Y9775111D01*
X182298683Y9774019D01*
X182399435Y9773415D01*
X182523580Y9773230D01*
X182974430Y9773230D01*
X182973986Y9706555D01*
X182973985Y9706368D01*
X182971353Y9659357D01*
X182964920Y9600288D01*
X182956073Y9541904D01*
X182943612Y9484108D01*
X182901255Y9362750D01*
X182840426Y9256968D01*
X182762267Y9168183D01*
X182667919Y9097812D01*
X182558522Y9047276D01*
X182555342Y9046197D01*
X182472185Y9026641D01*
X182375708Y9017015D01*
X182275087Y9017311D01*
X182179502Y9027522D01*
X182098130Y9047641D01*
X182014303Y9082791D01*
X181905348Y9149865D01*
X181814466Y9234548D01*
X181742258Y9336243D01*
X181689325Y9454351D01*
X181671854Y9524031D01*
X181670955Y9531930D01*
X182071018Y9531930D01*
X182079853Y9503355D01*
X182095771Y9461141D01*
X182137435Y9392491D01*
X182190848Y9341394D01*
X182252621Y9309313D01*
X182319367Y9297709D01*
X182387699Y9308046D01*
X182454228Y9341784D01*
X182473487Y9359990D01*
X182501567Y9397237D01*
X182527894Y9441439D01*
X182547447Y9483933D01*
X182555205Y9516055D01*
X182553707Y9519221D01*
X182540974Y9524245D01*
X182513122Y9527860D01*
X182467583Y9530233D01*
X182401789Y9531533D01*
X182313174Y9531930D01*
X182071018Y9531930D01*
X181670955Y9531930D01*
X181661022Y9619206D01*
X181660564Y9719957D01*
X181670452Y9816794D01*
X181690657Y9900230D01*
X181695939Y9915022D01*
X181750563Y10028454D01*
X181823669Y10124864D01*
X181913952Y10203092D01*
X182020106Y10261976D01*
X182140826Y10300358D01*
X182257233Y10317431D01*
X182386297Y10318048D01*
X182510947Y10300205D01*
G37*
X183756519Y10311906D02*
X183837698Y10305221D01*
X183908718Y10295586D01*
X183962005Y10283393D01*
X184021755Y10261735D01*
X184116945Y10212050D01*
X184190125Y10150159D01*
X184241789Y10075448D01*
X184272426Y9987308D01*
X184282530Y9885129D01*
X184281384Y9851112D01*
X184265697Y9768164D01*
X184229957Y9697381D01*
X184172050Y9633956D01*
X184162526Y9625773D01*
X184130632Y9601892D01*
X184095196Y9582047D01*
X184051900Y9564693D01*
X183996427Y9548285D01*
X183924460Y9531276D01*
X183831680Y9512122D01*
X183827018Y9511192D01*
X183759957Y9496785D01*
X183697518Y9481628D01*
X183646493Y9467466D01*
X183613676Y9456048D01*
X183583594Y9440259D01*
X183546097Y9408894D01*
X183528224Y9375099D01*
X183532618Y9342572D01*
X183542453Y9327516D01*
X183571107Y9304809D01*
X183614743Y9292316D01*
X183678126Y9288259D01*
X183724161Y9290152D01*
X183784871Y9303594D01*
X183826862Y9330859D01*
X183852415Y9373058D01*
X183868532Y9417630D01*
X184244430Y9417630D01*
X184244430Y9388185D01*
X184244220Y9378443D01*
X184229329Y9302228D01*
X184193614Y9227690D01*
X184140849Y9159820D01*
X184074810Y9103611D01*
X183999273Y9064053D01*
X183899309Y9034879D01*
X183763789Y9015863D01*
X183615780Y9015239D01*
X183531277Y9023235D01*
X183409649Y9048501D01*
X183306410Y9088686D01*
X183222583Y9143351D01*
X183159188Y9212055D01*
X183143067Y9236947D01*
X183128429Y9269336D01*
X183120357Y9307833D01*
X183116083Y9362074D01*
X183116603Y9446157D01*
X183128848Y9518148D01*
X183154819Y9578715D01*
X183196461Y9629664D01*
X183255719Y9672804D01*
X183334537Y9709941D01*
X183434859Y9742882D01*
X183558630Y9773437D01*
X183612933Y9785700D01*
X183700547Y9807510D01*
X183766780Y9827468D01*
X183814147Y9846500D01*
X183845164Y9865535D01*
X183862343Y9885500D01*
X183874549Y9918851D01*
X183869426Y9950174D01*
X183844557Y9986603D01*
X183834675Y9997218D01*
X183786300Y10029187D01*
X183728425Y10044594D01*
X183666541Y10044574D01*
X183606143Y10030265D01*
X183552722Y10002803D01*
X183511773Y9963326D01*
X183488789Y9912971D01*
X183480411Y9874830D01*
X183088730Y9874830D01*
X183088730Y9904274D01*
X183089788Y9917529D01*
X183096602Y9954655D01*
X183107644Y9997412D01*
X183146422Y10088118D01*
X183206176Y10166069D01*
X183285972Y10228646D01*
X183385593Y10275680D01*
X183504825Y10307005D01*
X183527770Y10310350D01*
X183593981Y10314862D01*
X183672755Y10315250D01*
X183756519Y10311906D01*
G36*
X183756519Y10311906D02*
G01*
X183837698Y10305221D01*
X183908718Y10295586D01*
X183962005Y10283393D01*
X184021755Y10261735D01*
X184116945Y10212050D01*
X184190125Y10150159D01*
X184241789Y10075448D01*
X184272426Y9987308D01*
X184282530Y9885129D01*
X184281384Y9851112D01*
X184265697Y9768164D01*
X184229957Y9697381D01*
X184172050Y9633956D01*
X184162526Y9625773D01*
X184130632Y9601892D01*
X184095196Y9582047D01*
X184051900Y9564693D01*
X183996427Y9548285D01*
X183924460Y9531276D01*
X183831680Y9512122D01*
X183827018Y9511192D01*
X183759957Y9496785D01*
X183697518Y9481628D01*
X183646493Y9467466D01*
X183613676Y9456048D01*
X183583594Y9440259D01*
X183546097Y9408894D01*
X183528224Y9375099D01*
X183532618Y9342572D01*
X183542453Y9327516D01*
X183571107Y9304809D01*
X183614743Y9292316D01*
X183678126Y9288259D01*
X183724161Y9290152D01*
X183784871Y9303594D01*
X183826862Y9330859D01*
X183852415Y9373058D01*
X183868532Y9417630D01*
X184244430Y9417630D01*
X184244430Y9388185D01*
X184244220Y9378443D01*
X184229329Y9302228D01*
X184193614Y9227690D01*
X184140849Y9159820D01*
X184074810Y9103611D01*
X183999273Y9064053D01*
X183899309Y9034879D01*
X183763789Y9015863D01*
X183615780Y9015239D01*
X183531277Y9023235D01*
X183409649Y9048501D01*
X183306410Y9088686D01*
X183222583Y9143351D01*
X183159188Y9212055D01*
X183143067Y9236947D01*
X183128429Y9269336D01*
X183120357Y9307833D01*
X183116083Y9362074D01*
X183116603Y9446157D01*
X183128848Y9518148D01*
X183154819Y9578715D01*
X183196461Y9629664D01*
X183255719Y9672804D01*
X183334537Y9709941D01*
X183434859Y9742882D01*
X183558630Y9773437D01*
X183612933Y9785700D01*
X183700547Y9807510D01*
X183766780Y9827468D01*
X183814147Y9846500D01*
X183845164Y9865535D01*
X183862343Y9885500D01*
X183874549Y9918851D01*
X183869426Y9950174D01*
X183844557Y9986603D01*
X183834675Y9997218D01*
X183786300Y10029187D01*
X183728425Y10044594D01*
X183666541Y10044574D01*
X183606143Y10030265D01*
X183552722Y10002803D01*
X183511773Y9963326D01*
X183488789Y9912971D01*
X183480411Y9874830D01*
X183088730Y9874830D01*
X183088730Y9904274D01*
X183089788Y9917529D01*
X183096602Y9954655D01*
X183107644Y9997412D01*
X183146422Y10088118D01*
X183206176Y10166069D01*
X183285972Y10228646D01*
X183385593Y10275680D01*
X183504825Y10307005D01*
X183527770Y10310350D01*
X183593981Y10314862D01*
X183672755Y10315250D01*
X183756519Y10311906D01*
G37*
X183717142Y11855585D02*
X183811880Y11832145D01*
X183895034Y11797247D01*
X183960568Y11751991D01*
X183987857Y11727019D01*
X183996610Y11778824D01*
X184005362Y11830630D01*
X184213796Y11830630D01*
X184256056Y11830416D01*
X184323557Y11829014D01*
X184376064Y11826472D01*
X184410110Y11822987D01*
X184422230Y11818756D01*
X184417836Y11800260D01*
X184406843Y11771131D01*
X184406773Y11770967D01*
X184401800Y11748009D01*
X184397390Y11703657D01*
X184393504Y11637110D01*
X184390105Y11547568D01*
X184387155Y11434230D01*
X184384618Y11296296D01*
X184377780Y10857212D01*
X184339548Y10782491D01*
X184313403Y10738566D01*
X184260105Y10678427D01*
X184191870Y10631950D01*
X184106557Y10598126D01*
X184002024Y10575949D01*
X183876130Y10564409D01*
X183809691Y10562633D01*
X183668366Y10569767D01*
X183545237Y10592385D01*
X183440834Y10630191D01*
X183355687Y10682894D01*
X183290326Y10750198D01*
X183245280Y10831812D01*
X183221078Y10927440D01*
X183212457Y10992430D01*
X183410943Y10992430D01*
X183481105Y10992199D01*
X183536802Y10991195D01*
X183573920Y10989054D01*
X183596022Y10985411D01*
X183606671Y10979902D01*
X183609430Y10972164D01*
X183610142Y10963828D01*
X183624761Y10926512D01*
X183653301Y10888465D01*
X183689207Y10858987D01*
X183724055Y10844390D01*
X183781014Y10836251D01*
X183841518Y10840959D01*
X183898583Y10857074D01*
X183945227Y10883157D01*
X183974464Y10917769D01*
X183976098Y10921463D01*
X183982064Y10965360D01*
X183968523Y11008699D01*
X183938543Y11040961D01*
X183936492Y11042071D01*
X183910889Y11050341D01*
X183866651Y11060453D01*
X183809407Y11071230D01*
X183744787Y11081493D01*
X183695176Y11088769D01*
X183608119Y11102332D01*
X183539562Y11114588D01*
X183484950Y11126606D01*
X183439729Y11139453D01*
X183399346Y11154197D01*
X183359247Y11171906D01*
X183330756Y11186688D01*
X183258302Y11241326D01*
X183206445Y11310776D01*
X183175322Y11394812D01*
X183165448Y11489549D01*
X183585157Y11489549D01*
X183588223Y11439765D01*
X183609590Y11395159D01*
X183611170Y11393213D01*
X183640592Y11368882D01*
X183687516Y11346691D01*
X183754570Y11325629D01*
X183844380Y11304682D01*
X183844859Y11304582D01*
X183892715Y11294048D01*
X183933003Y11284165D01*
X183957048Y11277060D01*
X183960631Y11275755D01*
X183971479Y11274768D01*
X183976835Y11284503D01*
X183977855Y11309827D01*
X183975693Y11355603D01*
X183974443Y11372641D01*
X183957962Y11459245D01*
X183925642Y11526087D01*
X183877426Y11573287D01*
X183848476Y11589079D01*
X183809804Y11598925D01*
X183756776Y11601224D01*
X183721433Y11599847D01*
X183679302Y11595524D01*
X183652063Y11589436D01*
X183627320Y11574423D01*
X183598740Y11536954D01*
X183585157Y11489549D01*
X183165448Y11489549D01*
X183165067Y11493210D01*
X183165239Y11505363D01*
X183178770Y11603911D01*
X183213185Y11688829D01*
X183267474Y11758773D01*
X183340625Y11812395D01*
X183431630Y11848351D01*
X183517044Y11863694D01*
X183616852Y11866468D01*
X183717142Y11855585D01*
G36*
X183717142Y11855585D02*
G01*
X183811880Y11832145D01*
X183895034Y11797247D01*
X183960568Y11751991D01*
X183987857Y11727019D01*
X183996610Y11778824D01*
X184005362Y11830630D01*
X184213796Y11830630D01*
X184256056Y11830416D01*
X184323557Y11829014D01*
X184376064Y11826472D01*
X184410110Y11822987D01*
X184422230Y11818756D01*
X184417836Y11800260D01*
X184406843Y11771131D01*
X184406773Y11770967D01*
X184401800Y11748009D01*
X184397390Y11703657D01*
X184393504Y11637110D01*
X184390105Y11547568D01*
X184387155Y11434230D01*
X184384618Y11296296D01*
X184377780Y10857212D01*
X184339548Y10782491D01*
X184313403Y10738566D01*
X184260105Y10678427D01*
X184191870Y10631950D01*
X184106557Y10598126D01*
X184002024Y10575949D01*
X183876130Y10564409D01*
X183809691Y10562633D01*
X183668366Y10569767D01*
X183545237Y10592385D01*
X183440834Y10630191D01*
X183355687Y10682894D01*
X183290326Y10750198D01*
X183245280Y10831812D01*
X183221078Y10927440D01*
X183212457Y10992430D01*
X183410943Y10992430D01*
X183481105Y10992199D01*
X183536802Y10991195D01*
X183573920Y10989054D01*
X183596022Y10985411D01*
X183606671Y10979902D01*
X183609430Y10972164D01*
X183610142Y10963828D01*
X183624761Y10926512D01*
X183653301Y10888465D01*
X183689207Y10858987D01*
X183724055Y10844390D01*
X183781014Y10836251D01*
X183841518Y10840959D01*
X183898583Y10857074D01*
X183945227Y10883157D01*
X183974464Y10917769D01*
X183976098Y10921463D01*
X183982064Y10965360D01*
X183968523Y11008699D01*
X183938543Y11040961D01*
X183936492Y11042071D01*
X183910889Y11050341D01*
X183866651Y11060453D01*
X183809407Y11071230D01*
X183744787Y11081493D01*
X183695176Y11088769D01*
X183608119Y11102332D01*
X183539562Y11114588D01*
X183484950Y11126606D01*
X183439729Y11139453D01*
X183399346Y11154197D01*
X183359247Y11171906D01*
X183330756Y11186688D01*
X183258302Y11241326D01*
X183206445Y11310776D01*
X183175322Y11394812D01*
X183165448Y11489549D01*
X183585157Y11489549D01*
X183588223Y11439765D01*
X183609590Y11395159D01*
X183611170Y11393213D01*
X183640592Y11368882D01*
X183687516Y11346691D01*
X183754570Y11325629D01*
X183844380Y11304682D01*
X183844859Y11304582D01*
X183892715Y11294048D01*
X183933003Y11284165D01*
X183957048Y11277060D01*
X183960631Y11275755D01*
X183971479Y11274768D01*
X183976835Y11284503D01*
X183977855Y11309827D01*
X183975693Y11355603D01*
X183974443Y11372641D01*
X183957962Y11459245D01*
X183925642Y11526087D01*
X183877426Y11573287D01*
X183848476Y11589079D01*
X183809804Y11598925D01*
X183756776Y11601224D01*
X183721433Y11599847D01*
X183679302Y11595524D01*
X183652063Y11589436D01*
X183627320Y11574423D01*
X183598740Y11536954D01*
X183585157Y11489549D01*
X183165448Y11489549D01*
X183165067Y11493210D01*
X183165239Y11505363D01*
X183178770Y11603911D01*
X183213185Y11688829D01*
X183267474Y11758773D01*
X183340625Y11812395D01*
X183431630Y11848351D01*
X183517044Y11863694D01*
X183616852Y11866468D01*
X183717142Y11855585D01*
G37*
X177941611Y11688659D02*
X177996483Y11652406D01*
X178003239Y11645600D01*
X178029536Y11599553D01*
X178033587Y11545368D01*
X178014906Y11487395D01*
X178006313Y11475334D01*
X177979471Y11445986D01*
X177939291Y11406500D01*
X177889527Y11360521D01*
X177833931Y11311692D01*
X177740121Y11229822D01*
X177661899Y11157436D01*
X177600503Y11094644D01*
X177553982Y11038823D01*
X177520384Y10987349D01*
X177497758Y10937600D01*
X177484153Y10886953D01*
X177477617Y10832785D01*
X177477414Y10788750D01*
X177493604Y10707602D01*
X177532853Y10633071D01*
X177596313Y10562534D01*
X177599095Y10560015D01*
X177680092Y10503455D01*
X177770032Y10469660D01*
X177866016Y10458964D01*
X177965147Y10471704D01*
X178064527Y10508216D01*
X178115501Y10538684D01*
X178180945Y10588689D01*
X178247586Y10649055D01*
X178308884Y10713802D01*
X178358303Y10776951D01*
X178379729Y10805931D01*
X178429692Y10854875D01*
X178484925Y10882285D01*
X178549916Y10890829D01*
X178556018Y10890805D01*
X178598773Y10887574D01*
X178630106Y10875884D01*
X178662338Y10851414D01*
X178686201Y10828057D01*
X178702910Y10799578D01*
X178707230Y10764392D01*
X178706555Y10749126D01*
X178700113Y10718866D01*
X178684957Y10687596D01*
X178658786Y10652445D01*
X178619298Y10610543D01*
X178564188Y10559018D01*
X178491155Y10495000D01*
X178478653Y10484220D01*
X178387311Y10403600D01*
X178314379Y10334767D01*
X178257927Y10274957D01*
X178216022Y10221406D01*
X178186731Y10171352D01*
X178168122Y10122030D01*
X178158263Y10070677D01*
X178155222Y10014530D01*
X178157559Y9957963D01*
X178172018Y9888976D01*
X178202501Y9829374D01*
X178252256Y9771003D01*
X178301925Y9727295D01*
X178362074Y9691976D01*
X178431165Y9671177D01*
X178516730Y9661786D01*
X178581135Y9661053D01*
X178656877Y9670303D01*
X178722905Y9694014D01*
X178786196Y9734964D01*
X178853725Y9795928D01*
X178866255Y9808677D01*
X178912269Y9858727D01*
X178955612Y9910149D01*
X178988318Y9953612D01*
X179004925Y9977293D01*
X179052224Y10034359D01*
X179098313Y10071275D01*
X179147900Y10091146D01*
X179205692Y10097080D01*
X179244475Y10096212D01*
X179274321Y10090707D01*
X179297529Y10076526D01*
X179324155Y10049641D01*
X179328746Y10044562D01*
X179352552Y10014082D01*
X179366413Y9984940D01*
X179369060Y9955025D01*
X179359222Y9922230D01*
X179335633Y9884446D01*
X179297022Y9839565D01*
X179242120Y9785477D01*
X179169658Y9720074D01*
X179078368Y9641248D01*
X178998831Y9569967D01*
X178920901Y9489502D01*
X178864041Y9415841D01*
X178826910Y9347418D01*
X178812235Y9294141D01*
X178806745Y9221296D01*
X178813417Y9147214D01*
X178832034Y9083084D01*
X178861828Y9032626D01*
X178904848Y8981251D01*
X178953165Y8937657D01*
X178999231Y8909670D01*
X179001589Y8908677D01*
X179026980Y8895396D01*
X179037430Y8885008D01*
X179031618Y8879583D01*
X179007400Y8868200D01*
X178970755Y8855223D01*
X178934308Y8844371D01*
X178770981Y8808247D01*
X178599171Y8788405D01*
X178427572Y8785521D01*
X178264879Y8800271D01*
X178245022Y8803438D01*
X178052648Y8847567D01*
X177870780Y8913488D01*
X177700740Y8999609D01*
X177543849Y9104338D01*
X177401427Y9226082D01*
X177274796Y9363248D01*
X177165276Y9514244D01*
X177074190Y9677477D01*
X177002857Y9851355D01*
X176952598Y10034285D01*
X176924736Y10224674D01*
X176920590Y10420930D01*
X176920834Y10426657D01*
X176941786Y10629245D01*
X176986163Y10822173D01*
X177053760Y11004978D01*
X177144372Y11177193D01*
X177257792Y11338356D01*
X177393814Y11488001D01*
X177499977Y11591624D01*
X177569580Y11551802D01*
X177639182Y11511979D01*
X177657809Y11547479D01*
X177664199Y11558495D01*
X177695425Y11598974D01*
X177735698Y11639116D01*
X177777414Y11671919D01*
X177812968Y11690378D01*
X177879686Y11700866D01*
X177941611Y11688659D01*
G36*
X177941611Y11688659D02*
G01*
X177996483Y11652406D01*
X178003239Y11645600D01*
X178029536Y11599553D01*
X178033587Y11545368D01*
X178014906Y11487395D01*
X178006313Y11475334D01*
X177979471Y11445986D01*
X177939291Y11406500D01*
X177889527Y11360521D01*
X177833931Y11311692D01*
X177740121Y11229822D01*
X177661899Y11157436D01*
X177600503Y11094644D01*
X177553982Y11038823D01*
X177520384Y10987349D01*
X177497758Y10937600D01*
X177484153Y10886953D01*
X177477617Y10832785D01*
X177477414Y10788750D01*
X177493604Y10707602D01*
X177532853Y10633071D01*
X177596313Y10562534D01*
X177599095Y10560015D01*
X177680092Y10503455D01*
X177770032Y10469660D01*
X177866016Y10458964D01*
X177965147Y10471704D01*
X178064527Y10508216D01*
X178115501Y10538684D01*
X178180945Y10588689D01*
X178247586Y10649055D01*
X178308884Y10713802D01*
X178358303Y10776951D01*
X178379729Y10805931D01*
X178429692Y10854875D01*
X178484925Y10882285D01*
X178549916Y10890829D01*
X178556018Y10890805D01*
X178598773Y10887574D01*
X178630106Y10875884D01*
X178662338Y10851414D01*
X178686201Y10828057D01*
X178702910Y10799578D01*
X178707230Y10764392D01*
X178706555Y10749126D01*
X178700113Y10718866D01*
X178684957Y10687596D01*
X178658786Y10652445D01*
X178619298Y10610543D01*
X178564188Y10559018D01*
X178491155Y10495000D01*
X178478653Y10484220D01*
X178387311Y10403600D01*
X178314379Y10334767D01*
X178257927Y10274957D01*
X178216022Y10221406D01*
X178186731Y10171352D01*
X178168122Y10122030D01*
X178158263Y10070677D01*
X178155222Y10014530D01*
X178157559Y9957963D01*
X178172018Y9888976D01*
X178202501Y9829374D01*
X178252256Y9771003D01*
X178301925Y9727295D01*
X178362074Y9691976D01*
X178431165Y9671177D01*
X178516730Y9661786D01*
X178581135Y9661053D01*
X178656877Y9670303D01*
X178722905Y9694014D01*
X178786196Y9734964D01*
X178853725Y9795928D01*
X178866255Y9808677D01*
X178912269Y9858727D01*
X178955612Y9910149D01*
X178988318Y9953612D01*
X179004925Y9977293D01*
X179052224Y10034359D01*
X179098313Y10071275D01*
X179147900Y10091146D01*
X179205692Y10097080D01*
X179244475Y10096212D01*
X179274321Y10090707D01*
X179297529Y10076526D01*
X179324155Y10049641D01*
X179328746Y10044562D01*
X179352552Y10014082D01*
X179366413Y9984940D01*
X179369060Y9955025D01*
X179359222Y9922230D01*
X179335633Y9884446D01*
X179297022Y9839565D01*
X179242120Y9785477D01*
X179169658Y9720074D01*
X179078368Y9641248D01*
X178998831Y9569967D01*
X178920901Y9489502D01*
X178864041Y9415841D01*
X178826910Y9347418D01*
X178812235Y9294141D01*
X178806745Y9221296D01*
X178813417Y9147214D01*
X178832034Y9083084D01*
X178861828Y9032626D01*
X178904848Y8981251D01*
X178953165Y8937657D01*
X178999231Y8909670D01*
X179001589Y8908677D01*
X179026980Y8895396D01*
X179037430Y8885008D01*
X179031618Y8879583D01*
X179007400Y8868200D01*
X178970755Y8855223D01*
X178934308Y8844371D01*
X178770981Y8808247D01*
X178599171Y8788405D01*
X178427572Y8785521D01*
X178264879Y8800271D01*
X178245022Y8803438D01*
X178052648Y8847567D01*
X177870780Y8913488D01*
X177700740Y8999609D01*
X177543849Y9104338D01*
X177401427Y9226082D01*
X177274796Y9363248D01*
X177165276Y9514244D01*
X177074190Y9677477D01*
X177002857Y9851355D01*
X176952598Y10034285D01*
X176924736Y10224674D01*
X176920590Y10420930D01*
X176920834Y10426657D01*
X176941786Y10629245D01*
X176986163Y10822173D01*
X177053760Y11004978D01*
X177144372Y11177193D01*
X177257792Y11338356D01*
X177393814Y11488001D01*
X177499977Y11591624D01*
X177569580Y11551802D01*
X177639182Y11511979D01*
X177657809Y11547479D01*
X177664199Y11558495D01*
X177695425Y11598974D01*
X177735698Y11639116D01*
X177777414Y11671919D01*
X177812968Y11690378D01*
X177879686Y11700866D01*
X177941611Y11688659D01*
G37*
X178514602Y11938943D02*
X178590910Y11934875D01*
X178667868Y11928829D01*
X178738558Y11921213D01*
X178796061Y11912437D01*
X178946836Y11875680D01*
X179126683Y11809305D01*
X179296056Y11721665D01*
X179453295Y11614431D01*
X179596738Y11489271D01*
X179724724Y11347856D01*
X179835594Y11191853D01*
X179927686Y11022934D01*
X179999341Y10842766D01*
X180048896Y10653021D01*
X180057529Y10598984D01*
X180066906Y10497495D01*
X180070750Y10385588D01*
X180069057Y10272062D01*
X180061824Y10165721D01*
X180049051Y10075365D01*
X180024000Y9966168D01*
X179960964Y9775875D01*
X179875590Y9597656D01*
X179767786Y9431329D01*
X179637456Y9276712D01*
X179529870Y9163658D01*
X179409836Y9264156D01*
X179360158Y9212846D01*
X179340311Y9193140D01*
X179290814Y9153359D01*
X179243570Y9131932D01*
X179192173Y9125529D01*
X179149096Y9131637D01*
X179107044Y9154305D01*
X179081425Y9189442D01*
X179075218Y9232509D01*
X179091405Y9278967D01*
X179093066Y9281292D01*
X179111257Y9300612D01*
X179144938Y9332763D01*
X179190941Y9374838D01*
X179246098Y9423928D01*
X179307242Y9477125D01*
X179382551Y9543234D01*
X179461785Y9617036D01*
X179519802Y9677017D01*
X179556632Y9723208D01*
X179566700Y9738915D01*
X179610697Y9832214D01*
X179630908Y9927308D01*
X179628131Y10021086D01*
X179603166Y10110440D01*
X179556811Y10192258D01*
X179489865Y10263432D01*
X179403127Y10320851D01*
X179385550Y10328707D01*
X179321527Y10346169D01*
X179244676Y10355527D01*
X179163441Y10356525D01*
X179086266Y10348906D01*
X179021597Y10332416D01*
X178961038Y10302111D01*
X178888244Y10248356D01*
X178820877Y10180908D01*
X178765556Y10105629D01*
X178761320Y10098759D01*
X178703900Y10019703D01*
X178643823Y9961382D01*
X178582972Y9925292D01*
X178523227Y9912930D01*
X178517834Y9913278D01*
X178485220Y9925101D01*
X178451756Y9948687D01*
X178425655Y9977145D01*
X178415130Y10003589D01*
X178415130Y10003812D01*
X178425260Y10045835D01*
X178451742Y10091331D01*
X178489105Y10130887D01*
X178548959Y10180456D01*
X178624231Y10244655D01*
X178696466Y10308153D01*
X178762315Y10367901D01*
X178818431Y10420853D01*
X178861468Y10463960D01*
X178888077Y10494174D01*
X178907831Y10522435D01*
X178935825Y10569857D01*
X178954752Y10611067D01*
X178956880Y10617455D01*
X178969493Y10681143D01*
X178973141Y10756054D01*
X178967867Y10831014D01*
X178953711Y10894844D01*
X178933084Y10940637D01*
X178883767Y11008914D01*
X178818439Y11068544D01*
X178742796Y11113617D01*
X178728064Y11120177D01*
X178687729Y11135706D01*
X178649370Y11144819D01*
X178603874Y11149192D01*
X178542130Y11150500D01*
X178514207Y11150493D01*
X178461309Y11148782D01*
X178421362Y11143424D01*
X178385606Y11132864D01*
X178345280Y11115546D01*
X178271704Y11072743D01*
X178186745Y10998347D01*
X178113450Y10903530D01*
X178108196Y10895350D01*
X178069809Y10839254D01*
X178036597Y10799702D01*
X178003205Y10771107D01*
X177964280Y10747883D01*
X177937946Y10736117D01*
X177880916Y10722579D01*
X177829745Y10725015D01*
X177787684Y10740963D01*
X177757985Y10767962D01*
X177743901Y10803552D01*
X177748685Y10845272D01*
X177775587Y10890661D01*
X177784094Y10899932D01*
X177813570Y10928696D01*
X177856076Y10967827D01*
X177907295Y11013389D01*
X177962912Y11061448D01*
X177977097Y11073549D01*
X178066137Y11151179D01*
X178137058Y11217078D01*
X178191932Y11274127D01*
X178232831Y11325207D01*
X178261828Y11373197D01*
X178280995Y11420979D01*
X178292403Y11471432D01*
X178298125Y11527438D01*
X178297277Y11617813D01*
X178281083Y11693748D01*
X178247163Y11761181D01*
X178193180Y11826774D01*
X178186872Y11833344D01*
X178157737Y11865451D01*
X178139027Y11889118D01*
X178134545Y11899620D01*
X178143035Y11902053D01*
X178174381Y11908002D01*
X178225083Y11916278D01*
X178291673Y11926325D01*
X178370680Y11937584D01*
X178391617Y11939507D01*
X178445865Y11940623D01*
X178514602Y11938943D01*
G36*
X178514602Y11938943D02*
G01*
X178590910Y11934875D01*
X178667868Y11928829D01*
X178738558Y11921213D01*
X178796061Y11912437D01*
X178946836Y11875680D01*
X179126683Y11809305D01*
X179296056Y11721665D01*
X179453295Y11614431D01*
X179596738Y11489271D01*
X179724724Y11347856D01*
X179835594Y11191853D01*
X179927686Y11022934D01*
X179999341Y10842766D01*
X180048896Y10653021D01*
X180057529Y10598984D01*
X180066906Y10497495D01*
X180070750Y10385588D01*
X180069057Y10272062D01*
X180061824Y10165721D01*
X180049051Y10075365D01*
X180024000Y9966168D01*
X179960964Y9775875D01*
X179875590Y9597656D01*
X179767786Y9431329D01*
X179637456Y9276712D01*
X179529870Y9163658D01*
X179409836Y9264156D01*
X179360158Y9212846D01*
X179340311Y9193140D01*
X179290814Y9153359D01*
X179243570Y9131932D01*
X179192173Y9125529D01*
X179149096Y9131637D01*
X179107044Y9154305D01*
X179081425Y9189442D01*
X179075218Y9232509D01*
X179091405Y9278967D01*
X179093066Y9281292D01*
X179111257Y9300612D01*
X179144938Y9332763D01*
X179190941Y9374838D01*
X179246098Y9423928D01*
X179307242Y9477125D01*
X179382551Y9543234D01*
X179461785Y9617036D01*
X179519802Y9677017D01*
X179556632Y9723208D01*
X179566700Y9738915D01*
X179610697Y9832214D01*
X179630908Y9927308D01*
X179628131Y10021086D01*
X179603166Y10110440D01*
X179556811Y10192258D01*
X179489865Y10263432D01*
X179403127Y10320851D01*
X179385550Y10328707D01*
X179321527Y10346169D01*
X179244676Y10355527D01*
X179163441Y10356525D01*
X179086266Y10348906D01*
X179021597Y10332416D01*
X178961038Y10302111D01*
X178888244Y10248356D01*
X178820877Y10180908D01*
X178765556Y10105629D01*
X178761320Y10098759D01*
X178703900Y10019703D01*
X178643823Y9961382D01*
X178582972Y9925292D01*
X178523227Y9912930D01*
X178517834Y9913278D01*
X178485220Y9925101D01*
X178451756Y9948687D01*
X178425655Y9977145D01*
X178415130Y10003589D01*
X178415130Y10003812D01*
X178425260Y10045835D01*
X178451742Y10091331D01*
X178489105Y10130887D01*
X178548959Y10180456D01*
X178624231Y10244655D01*
X178696466Y10308153D01*
X178762315Y10367901D01*
X178818431Y10420853D01*
X178861468Y10463960D01*
X178888077Y10494174D01*
X178907831Y10522435D01*
X178935825Y10569857D01*
X178954752Y10611067D01*
X178956880Y10617455D01*
X178969493Y10681143D01*
X178973141Y10756054D01*
X178967867Y10831014D01*
X178953711Y10894844D01*
X178933084Y10940637D01*
X178883767Y11008914D01*
X178818439Y11068544D01*
X178742796Y11113617D01*
X178728064Y11120177D01*
X178687729Y11135706D01*
X178649370Y11144819D01*
X178603874Y11149192D01*
X178542130Y11150500D01*
X178514207Y11150493D01*
X178461309Y11148782D01*
X178421362Y11143424D01*
X178385606Y11132864D01*
X178345280Y11115546D01*
X178271704Y11072743D01*
X178186745Y10998347D01*
X178113450Y10903530D01*
X178108196Y10895350D01*
X178069809Y10839254D01*
X178036597Y10799702D01*
X178003205Y10771107D01*
X177964280Y10747883D01*
X177937946Y10736117D01*
X177880916Y10722579D01*
X177829745Y10725015D01*
X177787684Y10740963D01*
X177757985Y10767962D01*
X177743901Y10803552D01*
X177748685Y10845272D01*
X177775587Y10890661D01*
X177784094Y10899932D01*
X177813570Y10928696D01*
X177856076Y10967827D01*
X177907295Y11013389D01*
X177962912Y11061448D01*
X177977097Y11073549D01*
X178066137Y11151179D01*
X178137058Y11217078D01*
X178191932Y11274127D01*
X178232831Y11325207D01*
X178261828Y11373197D01*
X178280995Y11420979D01*
X178292403Y11471432D01*
X178298125Y11527438D01*
X178297277Y11617813D01*
X178281083Y11693748D01*
X178247163Y11761181D01*
X178193180Y11826774D01*
X178186872Y11833344D01*
X178157737Y11865451D01*
X178139027Y11889118D01*
X178134545Y11899620D01*
X178143035Y11902053D01*
X178174381Y11908002D01*
X178225083Y11916278D01*
X178291673Y11926325D01*
X178370680Y11937584D01*
X178391617Y11939507D01*
X178445865Y11940623D01*
X178514602Y11938943D01*
G37*
%TO.C,G2*%
X163418930Y25498430D02*
X163025230Y25498430D01*
X163025230Y24330030D01*
X162758530Y24330030D01*
X162758530Y25765130D01*
X163418930Y25765130D01*
X163418930Y25498430D01*
G36*
X163418930Y25498430D02*
G01*
X163025230Y25498430D01*
X163025230Y24330030D01*
X162758530Y24330030D01*
X162758530Y25765130D01*
X163418930Y25765130D01*
X163418930Y25498430D01*
G37*
X158681830Y26260430D02*
X158935830Y26260430D01*
X158935830Y25993730D01*
X158148430Y25993730D01*
X158148430Y26260430D01*
X158402430Y26260430D01*
X158402430Y27428830D01*
X158681830Y27428830D01*
X158681830Y26260430D01*
G36*
X158681830Y26260430D02*
G01*
X158935830Y26260430D01*
X158935830Y25993730D01*
X158148430Y25993730D01*
X158148430Y26260430D01*
X158402430Y26260430D01*
X158402430Y27428830D01*
X158681830Y27428830D01*
X158681830Y26260430D01*
G37*
X159672430Y24596730D02*
X159926430Y24596730D01*
X159926430Y24330030D01*
X159151730Y24330030D01*
X159151730Y24596730D01*
X159405730Y24596730D01*
X159405730Y25765130D01*
X159672430Y25765130D01*
X159672430Y24596730D01*
G36*
X159672430Y24596730D02*
G01*
X159926430Y24596730D01*
X159926430Y24330030D01*
X159151730Y24330030D01*
X159151730Y24596730D01*
X159405730Y24596730D01*
X159405730Y25765130D01*
X159672430Y25765130D01*
X159672430Y24596730D01*
G37*
X157488030Y25498430D02*
X156980030Y25498430D01*
X156980030Y25130130D01*
X157488030Y25130130D01*
X157488030Y24863430D01*
X156980030Y24863430D01*
X156980030Y24596730D01*
X157488030Y24596730D01*
X157488030Y24330030D01*
X156713330Y24330030D01*
X156713330Y25765130D01*
X157488030Y25765130D01*
X157488030Y25498430D01*
G36*
X157488030Y25498430D02*
G01*
X156980030Y25498430D01*
X156980030Y25130130D01*
X157488030Y25130130D01*
X157488030Y24863430D01*
X156980030Y24863430D01*
X156980030Y24596730D01*
X157488030Y24596730D01*
X157488030Y24330030D01*
X156713330Y24330030D01*
X156713330Y25765130D01*
X157488030Y25765130D01*
X157488030Y25498430D01*
G37*
X159405730Y26793830D02*
X159888330Y26793830D01*
X159888330Y27428830D01*
X160167730Y27428830D01*
X160167730Y25993730D01*
X159888330Y25993730D01*
X159888330Y26527130D01*
X159405730Y26527130D01*
X159405730Y25993730D01*
X159139030Y25993730D01*
X159139030Y27428830D01*
X159405730Y27428830D01*
X159405730Y26793830D01*
G36*
X159405730Y26793830D02*
G01*
X159888330Y26793830D01*
X159888330Y27428830D01*
X160167730Y27428830D01*
X160167730Y25993730D01*
X159888330Y25993730D01*
X159888330Y26527130D01*
X159405730Y26527130D01*
X159405730Y25993730D01*
X159139030Y25993730D01*
X159139030Y27428830D01*
X159405730Y27428830D01*
X159405730Y26793830D01*
G37*
X160361246Y28620848D02*
X160364580Y28161867D01*
X160974180Y29079169D01*
X161104355Y29079499D01*
X161234530Y29079830D01*
X161234530Y27644730D01*
X160968142Y27644730D01*
X160961480Y28576626D01*
X160351880Y27646260D01*
X160091530Y27644730D01*
X160091530Y29079830D01*
X160357913Y29079830D01*
X160361246Y28620848D01*
G36*
X160361246Y28620848D02*
G01*
X160364580Y28161867D01*
X160974180Y29079169D01*
X161104355Y29079499D01*
X161234530Y29079830D01*
X161234530Y27644730D01*
X160968142Y27644730D01*
X160961480Y28576626D01*
X160351880Y27646260D01*
X160091530Y27644730D01*
X160091530Y29079830D01*
X160357913Y29079830D01*
X160361246Y28620848D01*
G37*
X162339430Y28813130D02*
X161831430Y28813130D01*
X161831430Y28444830D01*
X162339430Y28444830D01*
X162339430Y28178130D01*
X161831430Y28178130D01*
X161831430Y27911430D01*
X162339430Y27911430D01*
X162339430Y27644730D01*
X161564730Y27644730D01*
X161564730Y29079830D01*
X162339430Y29079830D01*
X162339430Y28813130D01*
G36*
X162339430Y28813130D02*
G01*
X161831430Y28813130D01*
X161831430Y28444830D01*
X162339430Y28444830D01*
X162339430Y28178130D01*
X161831430Y28178130D01*
X161831430Y27911430D01*
X162339430Y27911430D01*
X162339430Y27644730D01*
X161564730Y27644730D01*
X161564730Y29079830D01*
X162339430Y29079830D01*
X162339430Y28813130D01*
G37*
X157110046Y26969186D02*
X157113380Y26509543D01*
X157416400Y26969186D01*
X157719420Y27428830D01*
X157983330Y27428830D01*
X157983330Y25993730D01*
X157703930Y25993730D01*
X157703888Y26914480D01*
X157397078Y26454105D01*
X157090267Y25993730D01*
X156827630Y25993730D01*
X156827630Y27428830D01*
X157106713Y27428830D01*
X157110046Y26969186D01*
G36*
X157110046Y26969186D02*
G01*
X157113380Y26509543D01*
X157416400Y26969186D01*
X157719420Y27428830D01*
X157983330Y27428830D01*
X157983330Y25993730D01*
X157703930Y25993730D01*
X157703888Y26914480D01*
X157397078Y26454105D01*
X157090267Y25993730D01*
X156827630Y25993730D01*
X156827630Y27428830D01*
X157106713Y27428830D01*
X157110046Y26969186D01*
G37*
X158888046Y28620848D02*
X158891380Y28161867D01*
X159500980Y29079169D01*
X159631155Y29079499D01*
X159761330Y29079830D01*
X159761330Y27644730D01*
X159494942Y27644730D01*
X159491611Y28110398D01*
X159488280Y28576067D01*
X159180941Y28110398D01*
X158873602Y27644730D01*
X158618330Y27644730D01*
X158618330Y29079830D01*
X158884713Y29079830D01*
X158888046Y28620848D01*
G36*
X158888046Y28620848D02*
G01*
X158891380Y28161867D01*
X159500980Y29079169D01*
X159631155Y29079499D01*
X159761330Y29079830D01*
X159761330Y27644730D01*
X159494942Y27644730D01*
X159491611Y28110398D01*
X159488280Y28576067D01*
X159180941Y28110398D01*
X158873602Y27644730D01*
X158618330Y27644730D01*
X158618330Y29079830D01*
X158884713Y29079830D01*
X158888046Y28620848D01*
G37*
X156179930Y26802345D02*
X156302266Y26566312D01*
X156340749Y26492153D01*
X156387933Y26401413D01*
X156434901Y26311258D01*
X156477838Y26229013D01*
X156512925Y26162005D01*
X156601247Y25993730D01*
X156449883Y25993730D01*
X156298519Y25993729D01*
X156172580Y26235030D01*
X156158335Y26262242D01*
X156122154Y26330598D01*
X156090433Y26389453D01*
X156064969Y26435539D01*
X156047556Y26465587D01*
X156039991Y26476330D01*
X156038466Y26474821D01*
X156027110Y26456559D01*
X156006618Y26420173D01*
X155978778Y26368940D01*
X155945379Y26306134D01*
X155908210Y26235030D01*
X155783077Y25993730D01*
X155479212Y25993730D01*
X155567534Y26162005D01*
X155597748Y26219693D01*
X155639915Y26300440D01*
X155686590Y26390010D01*
X155733955Y26481076D01*
X155778193Y26566312D01*
X155900530Y26802345D01*
X155900530Y27428830D01*
X156179930Y27428830D01*
X156179930Y26802345D01*
G36*
X156179930Y26802345D02*
G01*
X156302266Y26566312D01*
X156340749Y26492153D01*
X156387933Y26401413D01*
X156434901Y26311258D01*
X156477838Y26229013D01*
X156512925Y26162005D01*
X156601247Y25993730D01*
X156449883Y25993730D01*
X156298519Y25993729D01*
X156172580Y26235030D01*
X156158335Y26262242D01*
X156122154Y26330598D01*
X156090433Y26389453D01*
X156064969Y26435539D01*
X156047556Y26465587D01*
X156039991Y26476330D01*
X156038466Y26474821D01*
X156027110Y26456559D01*
X156006618Y26420173D01*
X155978778Y26368940D01*
X155945379Y26306134D01*
X155908210Y26235030D01*
X155783077Y25993730D01*
X155479212Y25993730D01*
X155567534Y26162005D01*
X155597748Y26219693D01*
X155639915Y26300440D01*
X155686590Y26390010D01*
X155733955Y26481076D01*
X155778193Y26566312D01*
X155900530Y26802345D01*
X155900530Y27428830D01*
X156179930Y27428830D01*
X156179930Y26802345D01*
G37*
X155862430Y25158792D02*
X155998955Y25152200D01*
X156076791Y25146524D01*
X156152791Y25134460D01*
X156214682Y25114805D01*
X156268477Y25085544D01*
X156320188Y25044665D01*
X156371157Y24992972D01*
X156410450Y24933982D01*
X156433456Y24867149D01*
X156443992Y24784455D01*
X156445224Y24755758D01*
X156440278Y24660862D01*
X156419412Y24580024D01*
X156381397Y24507814D01*
X156351502Y24467453D01*
X156313867Y24428639D01*
X156270469Y24398179D01*
X156218047Y24374996D01*
X156153341Y24358014D01*
X156073089Y24346160D01*
X155974031Y24338357D01*
X155852905Y24333530D01*
X155595730Y24326392D01*
X155595730Y24888830D01*
X155862430Y24888830D01*
X155862430Y24593100D01*
X155962793Y24599979D01*
X155992063Y24602342D01*
X156056546Y24611952D01*
X156102768Y24627988D01*
X156135793Y24652714D01*
X156160681Y24688389D01*
X156167036Y24700485D01*
X156178080Y24728357D01*
X156177809Y24753831D01*
X156167031Y24789845D01*
X156162838Y24801160D01*
X156139509Y24840674D01*
X156103730Y24866585D01*
X156085393Y24874201D01*
X156033012Y24885271D01*
X155960855Y24888810D01*
X155862430Y24888830D01*
X155595730Y24888830D01*
X155595730Y25765130D01*
X155862430Y25765130D01*
X155862430Y25158792D01*
G36*
X155862430Y25158792D02*
G01*
X155998955Y25152200D01*
X156076791Y25146524D01*
X156152791Y25134460D01*
X156214682Y25114805D01*
X156268477Y25085544D01*
X156320188Y25044665D01*
X156371157Y24992972D01*
X156410450Y24933982D01*
X156433456Y24867149D01*
X156443992Y24784455D01*
X156445224Y24755758D01*
X156440278Y24660862D01*
X156419412Y24580024D01*
X156381397Y24507814D01*
X156351502Y24467453D01*
X156313867Y24428639D01*
X156270469Y24398179D01*
X156218047Y24374996D01*
X156153341Y24358014D01*
X156073089Y24346160D01*
X155974031Y24338357D01*
X155852905Y24333530D01*
X155595730Y24326392D01*
X155595730Y24888830D01*
X155862430Y24888830D01*
X155862430Y24593100D01*
X155962793Y24599979D01*
X155992063Y24602342D01*
X156056546Y24611952D01*
X156102768Y24627988D01*
X156135793Y24652714D01*
X156160681Y24688389D01*
X156167036Y24700485D01*
X156178080Y24728357D01*
X156177809Y24753831D01*
X156167031Y24789845D01*
X156162838Y24801160D01*
X156139509Y24840674D01*
X156103730Y24866585D01*
X156085393Y24874201D01*
X156033012Y24885271D01*
X155960855Y24888810D01*
X155862430Y24888830D01*
X155595730Y24888830D01*
X155595730Y25765130D01*
X155862430Y25765130D01*
X155862430Y25158792D01*
G37*
X158323572Y29079158D02*
X158371070Y29077083D01*
X158403273Y29073939D01*
X158415130Y29070071D01*
X158411113Y29058003D01*
X158398687Y29024176D01*
X158378638Y28970744D01*
X158351764Y28899802D01*
X158318861Y28813442D01*
X158280729Y28713758D01*
X158238164Y28602843D01*
X158191964Y28482791D01*
X158142927Y28355696D01*
X157870724Y27651080D01*
X157727002Y27647666D01*
X157583280Y27644253D01*
X157310230Y28351219D01*
X157262965Y28473593D01*
X157249548Y28508330D01*
X157542045Y28508330D01*
X157631636Y28279488D01*
X157635227Y28270341D01*
X157662995Y28201366D01*
X157687896Y28142468D01*
X157708394Y28097064D01*
X157722953Y28068573D01*
X157730039Y28060413D01*
X157735096Y28070029D01*
X157748385Y28100318D01*
X157767777Y28147028D01*
X157791584Y28206076D01*
X157818117Y28273380D01*
X157838771Y28326321D01*
X157863047Y28388543D01*
X157883048Y28439792D01*
X157897121Y28475840D01*
X157903615Y28492455D01*
X157901349Y28498353D01*
X157885534Y28503102D01*
X157852941Y28506177D01*
X157800701Y28507834D01*
X157725946Y28508330D01*
X157542045Y28508330D01*
X157249548Y28508330D01*
X157216341Y28594304D01*
X157173199Y28706000D01*
X157134348Y28806584D01*
X157100597Y28893958D01*
X157072758Y28966026D01*
X157051641Y29020690D01*
X157038054Y29055854D01*
X157032808Y29069421D01*
X157042223Y29073446D01*
X157072480Y29076301D01*
X157119040Y29077590D01*
X157177292Y29077068D01*
X157326146Y29073480D01*
X157440854Y28774562D01*
X158014180Y28781380D01*
X158070788Y28930605D01*
X158127395Y29079830D01*
X158271262Y29079830D01*
X158323572Y29079158D01*
G36*
X158323572Y29079158D02*
G01*
X158371070Y29077083D01*
X158403273Y29073939D01*
X158415130Y29070071D01*
X158411113Y29058003D01*
X158398687Y29024176D01*
X158378638Y28970744D01*
X158351764Y28899802D01*
X158318861Y28813442D01*
X158280729Y28713758D01*
X158238164Y28602843D01*
X158191964Y28482791D01*
X158142927Y28355696D01*
X157870724Y27651080D01*
X157727002Y27647666D01*
X157583280Y27644253D01*
X157310230Y28351219D01*
X157262965Y28473593D01*
X157249548Y28508330D01*
X157542045Y28508330D01*
X157631636Y28279488D01*
X157635227Y28270341D01*
X157662995Y28201366D01*
X157687896Y28142468D01*
X157708394Y28097064D01*
X157722953Y28068573D01*
X157730039Y28060413D01*
X157735096Y28070029D01*
X157748385Y28100318D01*
X157767777Y28147028D01*
X157791584Y28206076D01*
X157818117Y28273380D01*
X157838771Y28326321D01*
X157863047Y28388543D01*
X157883048Y28439792D01*
X157897121Y28475840D01*
X157903615Y28492455D01*
X157901349Y28498353D01*
X157885534Y28503102D01*
X157852941Y28506177D01*
X157800701Y28507834D01*
X157725946Y28508330D01*
X157542045Y28508330D01*
X157249548Y28508330D01*
X157216341Y28594304D01*
X157173199Y28706000D01*
X157134348Y28806584D01*
X157100597Y28893958D01*
X157072758Y28966026D01*
X157051641Y29020690D01*
X157038054Y29055854D01*
X157032808Y29069421D01*
X157042223Y29073446D01*
X157072480Y29076301D01*
X157119040Y29077590D01*
X157177292Y29077068D01*
X157326146Y29073480D01*
X157440854Y28774562D01*
X158014180Y28781380D01*
X158070788Y28930605D01*
X158127395Y29079830D01*
X158271262Y29079830D01*
X158323572Y29079158D01*
G37*
X161571080Y25466680D02*
X161858192Y25463271D01*
X162145305Y25459862D01*
X162260013Y25758780D01*
X162408867Y25762368D01*
X162465414Y25762902D01*
X162512419Y25761668D01*
X162543268Y25758859D01*
X162553351Y25754721D01*
X162548499Y25742177D01*
X162535242Y25707884D01*
X162514418Y25654004D01*
X162486836Y25582634D01*
X162453307Y25495873D01*
X162414641Y25395817D01*
X162371649Y25284563D01*
X162325142Y25164208D01*
X162275930Y25036851D01*
X162002880Y24330218D01*
X161861383Y24330124D01*
X161719887Y24330030D01*
X161698179Y24384005D01*
X161694737Y24392613D01*
X161678977Y24432571D01*
X161656343Y24490471D01*
X161627838Y24563711D01*
X161594465Y24649690D01*
X161557227Y24745806D01*
X161517127Y24849458D01*
X161475170Y24958043D01*
X161432358Y25068960D01*
X161390409Y25177755D01*
X161682713Y25177755D01*
X161687012Y25166818D01*
X161699467Y25134827D01*
X161718170Y25086649D01*
X161741476Y25026520D01*
X161767741Y24958680D01*
X161788524Y24905460D01*
X161812957Y24844233D01*
X161833415Y24794473D01*
X161848208Y24760270D01*
X161855650Y24745713D01*
X161856091Y24745505D01*
X161864335Y24756383D01*
X161879842Y24787169D01*
X161901072Y24834445D01*
X161926480Y24894790D01*
X161954523Y24964788D01*
X162044114Y25193630D01*
X161860213Y25193630D01*
X161791728Y25193231D01*
X161737459Y25191703D01*
X161703114Y25188786D01*
X161685822Y25184222D01*
X161682713Y25177755D01*
X161390409Y25177755D01*
X161389695Y25179608D01*
X161348183Y25287386D01*
X161308826Y25389690D01*
X161272628Y25483921D01*
X161240592Y25567475D01*
X161213721Y25637753D01*
X161193017Y25692151D01*
X161179486Y25728069D01*
X161174129Y25742905D01*
X161173355Y25746342D01*
X161174902Y25754832D01*
X161185623Y25760308D01*
X161209575Y25763418D01*
X161250812Y25764809D01*
X161313391Y25765130D01*
X161458714Y25765130D01*
X161571080Y25466680D01*
G36*
X161571080Y25466680D02*
G01*
X161858192Y25463271D01*
X162145305Y25459862D01*
X162260013Y25758780D01*
X162408867Y25762368D01*
X162465414Y25762902D01*
X162512419Y25761668D01*
X162543268Y25758859D01*
X162553351Y25754721D01*
X162548499Y25742177D01*
X162535242Y25707884D01*
X162514418Y25654004D01*
X162486836Y25582634D01*
X162453307Y25495873D01*
X162414641Y25395817D01*
X162371649Y25284563D01*
X162325142Y25164208D01*
X162275930Y25036851D01*
X162002880Y24330218D01*
X161861383Y24330124D01*
X161719887Y24330030D01*
X161698179Y24384005D01*
X161694737Y24392613D01*
X161678977Y24432571D01*
X161656343Y24490471D01*
X161627838Y24563711D01*
X161594465Y24649690D01*
X161557227Y24745806D01*
X161517127Y24849458D01*
X161475170Y24958043D01*
X161432358Y25068960D01*
X161390409Y25177755D01*
X161682713Y25177755D01*
X161687012Y25166818D01*
X161699467Y25134827D01*
X161718170Y25086649D01*
X161741476Y25026520D01*
X161767741Y24958680D01*
X161788524Y24905460D01*
X161812957Y24844233D01*
X161833415Y24794473D01*
X161848208Y24760270D01*
X161855650Y24745713D01*
X161856091Y24745505D01*
X161864335Y24756383D01*
X161879842Y24787169D01*
X161901072Y24834445D01*
X161926480Y24894790D01*
X161954523Y24964788D01*
X162044114Y25193630D01*
X161860213Y25193630D01*
X161791728Y25193231D01*
X161737459Y25191703D01*
X161703114Y25188786D01*
X161685822Y25184222D01*
X161682713Y25177755D01*
X161390409Y25177755D01*
X161389695Y25179608D01*
X161348183Y25287386D01*
X161308826Y25389690D01*
X161272628Y25483921D01*
X161240592Y25567475D01*
X161213721Y25637753D01*
X161193017Y25692151D01*
X161179486Y25728069D01*
X161174129Y25742905D01*
X161173355Y25746342D01*
X161174902Y25754832D01*
X161185623Y25760308D01*
X161209575Y25763418D01*
X161250812Y25764809D01*
X161313391Y25765130D01*
X161458714Y25765130D01*
X161571080Y25466680D01*
G37*
X160421730Y25460330D02*
X160421800Y25404556D01*
X160422372Y25317836D01*
X160423633Y25252603D01*
X160425722Y25206307D01*
X160428779Y25176397D01*
X160432943Y25160321D01*
X160438353Y25155530D01*
X160438562Y25155551D01*
X160449150Y25167247D01*
X160469686Y25198450D01*
X160498467Y25246260D01*
X160533792Y25307776D01*
X160573959Y25380099D01*
X160617265Y25460330D01*
X160779552Y25765130D01*
X161083023Y25765130D01*
X161068111Y25736555D01*
X161061492Y25724023D01*
X161043617Y25690393D01*
X161016971Y25640370D01*
X160983370Y25577358D01*
X160944629Y25504764D01*
X160902564Y25425994D01*
X160868923Y25362746D01*
X160831105Y25290931D01*
X160798885Y25228943D01*
X160773874Y25179914D01*
X160757684Y25146978D01*
X160751930Y25133271D01*
X160752342Y25131637D01*
X160766617Y25119894D01*
X160794930Y25106983D01*
X160839447Y25084353D01*
X160895838Y25039649D01*
X160945532Y24983802D01*
X160980974Y24924233D01*
X160993659Y24891237D01*
X161006861Y24832904D01*
X161011319Y24761830D01*
X161010489Y24714835D01*
X160999301Y24629124D01*
X160973627Y24555759D01*
X160931429Y24487750D01*
X160914102Y24466410D01*
X160871427Y24425729D01*
X160820430Y24393364D01*
X160758314Y24368564D01*
X160682280Y24350581D01*
X160589530Y24338664D01*
X160477265Y24332063D01*
X160342688Y24330030D01*
X160155030Y24330030D01*
X160155030Y24888830D01*
X160421730Y24888830D01*
X160421730Y24593149D01*
X160526505Y24599881D01*
X160543432Y24601075D01*
X160613925Y24609632D01*
X160664267Y24623701D01*
X160698616Y24644880D01*
X160721132Y24674771D01*
X160724645Y24681942D01*
X160739561Y24739526D01*
X160731908Y24793504D01*
X160703320Y24838995D01*
X160655428Y24871121D01*
X160621123Y24880054D01*
X160571626Y24886415D01*
X160517387Y24888830D01*
X160421730Y24888830D01*
X160155030Y24888830D01*
X160155030Y25765130D01*
X160421730Y25765130D01*
X160421730Y25460330D01*
G36*
X160421730Y25460330D02*
G01*
X160421800Y25404556D01*
X160422372Y25317836D01*
X160423633Y25252603D01*
X160425722Y25206307D01*
X160428779Y25176397D01*
X160432943Y25160321D01*
X160438353Y25155530D01*
X160438562Y25155551D01*
X160449150Y25167247D01*
X160469686Y25198450D01*
X160498467Y25246260D01*
X160533792Y25307776D01*
X160573959Y25380099D01*
X160617265Y25460330D01*
X160779552Y25765130D01*
X161083023Y25765130D01*
X161068111Y25736555D01*
X161061492Y25724023D01*
X161043617Y25690393D01*
X161016971Y25640370D01*
X160983370Y25577358D01*
X160944629Y25504764D01*
X160902564Y25425994D01*
X160868923Y25362746D01*
X160831105Y25290931D01*
X160798885Y25228943D01*
X160773874Y25179914D01*
X160757684Y25146978D01*
X160751930Y25133271D01*
X160752342Y25131637D01*
X160766617Y25119894D01*
X160794930Y25106983D01*
X160839447Y25084353D01*
X160895838Y25039649D01*
X160945532Y24983802D01*
X160980974Y24924233D01*
X160993659Y24891237D01*
X161006861Y24832904D01*
X161011319Y24761830D01*
X161010489Y24714835D01*
X160999301Y24629124D01*
X160973627Y24555759D01*
X160931429Y24487750D01*
X160914102Y24466410D01*
X160871427Y24425729D01*
X160820430Y24393364D01*
X160758314Y24368564D01*
X160682280Y24350581D01*
X160589530Y24338664D01*
X160477265Y24332063D01*
X160342688Y24330030D01*
X160155030Y24330030D01*
X160155030Y24888830D01*
X160421730Y24888830D01*
X160421730Y24593149D01*
X160526505Y24599881D01*
X160543432Y24601075D01*
X160613925Y24609632D01*
X160664267Y24623701D01*
X160698616Y24644880D01*
X160721132Y24674771D01*
X160724645Y24681942D01*
X160739561Y24739526D01*
X160731908Y24793504D01*
X160703320Y24838995D01*
X160655428Y24871121D01*
X160621123Y24880054D01*
X160571626Y24886415D01*
X160517387Y24888830D01*
X160421730Y24888830D01*
X160155030Y24888830D01*
X160155030Y25765130D01*
X160421730Y25765130D01*
X160421730Y25460330D01*
G37*
X162885530Y28775030D02*
X162885600Y28719256D01*
X162886172Y28632536D01*
X162887433Y28567303D01*
X162889522Y28521007D01*
X162892579Y28491097D01*
X162896743Y28475021D01*
X162902153Y28470230D01*
X162902362Y28470251D01*
X162912950Y28481947D01*
X162933486Y28513150D01*
X162962267Y28560960D01*
X162997592Y28622476D01*
X163037759Y28694799D01*
X163081065Y28775030D01*
X163243352Y29079830D01*
X163546823Y29079830D01*
X163531911Y29051255D01*
X163525292Y29038723D01*
X163507417Y29005093D01*
X163480771Y28955070D01*
X163447170Y28892058D01*
X163408429Y28819464D01*
X163366364Y28740694D01*
X163332723Y28677446D01*
X163294905Y28605631D01*
X163262685Y28543643D01*
X163237674Y28494614D01*
X163221484Y28461678D01*
X163215730Y28447971D01*
X163216142Y28446337D01*
X163230417Y28434594D01*
X163258730Y28421683D01*
X163303247Y28399053D01*
X163359638Y28354349D01*
X163409332Y28298502D01*
X163444774Y28238933D01*
X163457459Y28205937D01*
X163470661Y28147604D01*
X163475119Y28076530D01*
X163474289Y28029535D01*
X163463101Y27943824D01*
X163437427Y27870459D01*
X163395229Y27802450D01*
X163377902Y27781110D01*
X163335227Y27740429D01*
X163284230Y27708064D01*
X163222114Y27683264D01*
X163146080Y27665281D01*
X163053330Y27653364D01*
X162941065Y27646763D01*
X162806488Y27644730D01*
X162618830Y27644730D01*
X162618830Y28203530D01*
X162885530Y28203530D01*
X162885530Y27907849D01*
X162990305Y27914581D01*
X163007232Y27915775D01*
X163077725Y27924332D01*
X163128067Y27938401D01*
X163162416Y27959580D01*
X163184932Y27989471D01*
X163188445Y27996642D01*
X163203361Y28054226D01*
X163195708Y28108204D01*
X163167120Y28153695D01*
X163119228Y28185821D01*
X163084923Y28194754D01*
X163035426Y28201115D01*
X162981187Y28203530D01*
X162885530Y28203530D01*
X162618830Y28203530D01*
X162618830Y29079830D01*
X162885530Y29079830D01*
X162885530Y28775030D01*
G36*
X162885530Y28775030D02*
G01*
X162885600Y28719256D01*
X162886172Y28632536D01*
X162887433Y28567303D01*
X162889522Y28521007D01*
X162892579Y28491097D01*
X162896743Y28475021D01*
X162902153Y28470230D01*
X162902362Y28470251D01*
X162912950Y28481947D01*
X162933486Y28513150D01*
X162962267Y28560960D01*
X162997592Y28622476D01*
X163037759Y28694799D01*
X163081065Y28775030D01*
X163243352Y29079830D01*
X163546823Y29079830D01*
X163531911Y29051255D01*
X163525292Y29038723D01*
X163507417Y29005093D01*
X163480771Y28955070D01*
X163447170Y28892058D01*
X163408429Y28819464D01*
X163366364Y28740694D01*
X163332723Y28677446D01*
X163294905Y28605631D01*
X163262685Y28543643D01*
X163237674Y28494614D01*
X163221484Y28461678D01*
X163215730Y28447971D01*
X163216142Y28446337D01*
X163230417Y28434594D01*
X163258730Y28421683D01*
X163303247Y28399053D01*
X163359638Y28354349D01*
X163409332Y28298502D01*
X163444774Y28238933D01*
X163457459Y28205937D01*
X163470661Y28147604D01*
X163475119Y28076530D01*
X163474289Y28029535D01*
X163463101Y27943824D01*
X163437427Y27870459D01*
X163395229Y27802450D01*
X163377902Y27781110D01*
X163335227Y27740429D01*
X163284230Y27708064D01*
X163222114Y27683264D01*
X163146080Y27665281D01*
X163053330Y27653364D01*
X162941065Y27646763D01*
X162806488Y27644730D01*
X162618830Y27644730D01*
X162618830Y28203530D01*
X162885530Y28203530D01*
X162885530Y27907849D01*
X162990305Y27914581D01*
X163007232Y27915775D01*
X163077725Y27924332D01*
X163128067Y27938401D01*
X163162416Y27959580D01*
X163184932Y27989471D01*
X163188445Y27996642D01*
X163203361Y28054226D01*
X163195708Y28108204D01*
X163167120Y28153695D01*
X163119228Y28185821D01*
X163084923Y28194754D01*
X163035426Y28201115D01*
X162981187Y28203530D01*
X162885530Y28203530D01*
X162618830Y28203530D01*
X162618830Y29079830D01*
X162885530Y29079830D01*
X162885530Y28775030D01*
G37*
X158537676Y25794558D02*
X158676721Y25765059D01*
X158807669Y25711754D01*
X158929545Y25634882D01*
X158962048Y25610331D01*
X159005554Y25576052D01*
X159030777Y25550152D01*
X159038626Y25527714D01*
X159030008Y25503819D01*
X159005833Y25473550D01*
X158967007Y25431987D01*
X158942570Y25406222D01*
X158908196Y25370989D01*
X158882559Y25345980D01*
X158869903Y25335414D01*
X158869850Y25335393D01*
X158855712Y25341248D01*
X158828945Y25360427D01*
X158795299Y25388814D01*
X158780852Y25401415D01*
X158682981Y25468712D01*
X158577766Y25512099D01*
X158467157Y25531204D01*
X158353103Y25525656D01*
X158237553Y25495083D01*
X158204718Y25480140D01*
X158137682Y25435401D01*
X158074379Y25376548D01*
X158021735Y25310508D01*
X157986676Y25244206D01*
X157973082Y25203915D01*
X157950897Y25091190D01*
X157953036Y24982997D01*
X157979169Y24880900D01*
X158028961Y24786462D01*
X158102080Y24701249D01*
X158102409Y24700938D01*
X158170210Y24644549D01*
X158237342Y24606996D01*
X158312013Y24584817D01*
X158402430Y24574551D01*
X158440957Y24572979D01*
X158495063Y24574193D01*
X158541748Y24581567D01*
X158592244Y24596395D01*
X158638004Y24614206D01*
X158712868Y24652094D01*
X158781017Y24696464D01*
X158833314Y24741804D01*
X158863396Y24773825D01*
X159066298Y24590911D01*
X158982624Y24513182D01*
X158893101Y24441892D01*
X158774076Y24375444D01*
X158645105Y24330235D01*
X158509447Y24307060D01*
X158370366Y24306715D01*
X158231121Y24329993D01*
X158110703Y24371607D01*
X157993811Y24436358D01*
X157891928Y24519899D01*
X157807041Y24620247D01*
X157741139Y24735418D01*
X157696211Y24863430D01*
X157688996Y24896113D01*
X157681994Y24949319D01*
X157679767Y25012022D01*
X157681823Y25092030D01*
X157691651Y25199938D01*
X157718040Y25317718D01*
X157761893Y25421940D01*
X157825059Y25516785D01*
X157909386Y25606431D01*
X157931931Y25626467D01*
X158041688Y25703777D01*
X158162901Y25758851D01*
X158293236Y25790568D01*
X158391505Y25800013D01*
X158537676Y25794558D01*
G36*
X158537676Y25794558D02*
G01*
X158676721Y25765059D01*
X158807669Y25711754D01*
X158929545Y25634882D01*
X158962048Y25610331D01*
X159005554Y25576052D01*
X159030777Y25550152D01*
X159038626Y25527714D01*
X159030008Y25503819D01*
X159005833Y25473550D01*
X158967007Y25431987D01*
X158942570Y25406222D01*
X158908196Y25370989D01*
X158882559Y25345980D01*
X158869903Y25335414D01*
X158869850Y25335393D01*
X158855712Y25341248D01*
X158828945Y25360427D01*
X158795299Y25388814D01*
X158780852Y25401415D01*
X158682981Y25468712D01*
X158577766Y25512099D01*
X158467157Y25531204D01*
X158353103Y25525656D01*
X158237553Y25495083D01*
X158204718Y25480140D01*
X158137682Y25435401D01*
X158074379Y25376548D01*
X158021735Y25310508D01*
X157986676Y25244206D01*
X157973082Y25203915D01*
X157950897Y25091190D01*
X157953036Y24982997D01*
X157979169Y24880900D01*
X158028961Y24786462D01*
X158102080Y24701249D01*
X158102409Y24700938D01*
X158170210Y24644549D01*
X158237342Y24606996D01*
X158312013Y24584817D01*
X158402430Y24574551D01*
X158440957Y24572979D01*
X158495063Y24574193D01*
X158541748Y24581567D01*
X158592244Y24596395D01*
X158638004Y24614206D01*
X158712868Y24652094D01*
X158781017Y24696464D01*
X158833314Y24741804D01*
X158863396Y24773825D01*
X159066298Y24590911D01*
X158982624Y24513182D01*
X158893101Y24441892D01*
X158774076Y24375444D01*
X158645105Y24330235D01*
X158509447Y24307060D01*
X158370366Y24306715D01*
X158231121Y24329993D01*
X158110703Y24371607D01*
X157993811Y24436358D01*
X157891928Y24519899D01*
X157807041Y24620247D01*
X157741139Y24735418D01*
X157696211Y24863430D01*
X157688996Y24896113D01*
X157681994Y24949319D01*
X157679767Y25012022D01*
X157681823Y25092030D01*
X157691651Y25199938D01*
X157718040Y25317718D01*
X157761893Y25421940D01*
X157825059Y25516785D01*
X157909386Y25606431D01*
X157931931Y25626467D01*
X158041688Y25703777D01*
X158162901Y25758851D01*
X158293236Y25790568D01*
X158391505Y25800013D01*
X158537676Y25794558D01*
G37*
X156310211Y29115475D02*
X156399879Y29106516D01*
X156489085Y29090210D01*
X156569366Y29067469D01*
X156599620Y29055099D01*
X156663653Y29021663D01*
X156733299Y28978200D01*
X156800629Y28929819D01*
X156857719Y28881629D01*
X156906858Y28835413D01*
X156716555Y28645110D01*
X156644480Y28703816D01*
X156586589Y28746999D01*
X156480680Y28805726D01*
X156373605Y28839101D01*
X156265219Y28847145D01*
X156155378Y28829878D01*
X156043938Y28787319D01*
X155964860Y28737145D01*
X155894690Y28664748D01*
X155838622Y28571830D01*
X155826838Y28545743D01*
X155815553Y28513077D01*
X155809022Y28477652D01*
X155806009Y28431926D01*
X155805280Y28368362D01*
X155805285Y28359356D01*
X155806014Y28300177D01*
X155809020Y28257575D01*
X155815787Y28223717D01*
X155827803Y28190771D01*
X155846554Y28150906D01*
X155904233Y28060406D01*
X155981890Y27983936D01*
X156076105Y27926167D01*
X156102772Y27914307D01*
X156136223Y27902823D01*
X156172056Y27896180D01*
X156217936Y27893120D01*
X156281530Y27892380D01*
X156281701Y27892380D01*
X156343958Y27892994D01*
X156388753Y27895794D01*
X156423991Y27902221D01*
X156457581Y27913714D01*
X156497430Y27931716D01*
X156539366Y27954506D01*
X156597966Y27992928D01*
X156647653Y28032216D01*
X156715326Y28093378D01*
X156812753Y27995146D01*
X156910180Y27896913D01*
X156836501Y27830291D01*
X156808186Y27805885D01*
X156692033Y27726406D01*
X156563884Y27667870D01*
X156427458Y27631702D01*
X156286473Y27619330D01*
X156259231Y27619565D01*
X156172411Y27624903D01*
X156095148Y27639024D01*
X156017601Y27664232D01*
X155929927Y27702832D01*
X155888292Y27724341D01*
X155777685Y27799347D01*
X155685764Y27890309D01*
X155613405Y27995404D01*
X155561481Y28112811D01*
X155530870Y28240707D01*
X155522446Y28377269D01*
X155537084Y28520676D01*
X155555670Y28598626D01*
X155603126Y28718433D01*
X155669662Y28826551D01*
X155752864Y28920435D01*
X155850319Y28997540D01*
X155959612Y29055322D01*
X156078330Y29091234D01*
X156106492Y29096776D01*
X156147045Y29104758D01*
X156173580Y29109981D01*
X156228544Y29116181D01*
X156310211Y29115475D01*
G36*
X156310211Y29115475D02*
G01*
X156399879Y29106516D01*
X156489085Y29090210D01*
X156569366Y29067469D01*
X156599620Y29055099D01*
X156663653Y29021663D01*
X156733299Y28978200D01*
X156800629Y28929819D01*
X156857719Y28881629D01*
X156906858Y28835413D01*
X156716555Y28645110D01*
X156644480Y28703816D01*
X156586589Y28746999D01*
X156480680Y28805726D01*
X156373605Y28839101D01*
X156265219Y28847145D01*
X156155378Y28829878D01*
X156043938Y28787319D01*
X155964860Y28737145D01*
X155894690Y28664748D01*
X155838622Y28571830D01*
X155826838Y28545743D01*
X155815553Y28513077D01*
X155809022Y28477652D01*
X155806009Y28431926D01*
X155805280Y28368362D01*
X155805285Y28359356D01*
X155806014Y28300177D01*
X155809020Y28257575D01*
X155815787Y28223717D01*
X155827803Y28190771D01*
X155846554Y28150906D01*
X155904233Y28060406D01*
X155981890Y27983936D01*
X156076105Y27926167D01*
X156102772Y27914307D01*
X156136223Y27902823D01*
X156172056Y27896180D01*
X156217936Y27893120D01*
X156281530Y27892380D01*
X156281701Y27892380D01*
X156343958Y27892994D01*
X156388753Y27895794D01*
X156423991Y27902221D01*
X156457581Y27913714D01*
X156497430Y27931716D01*
X156539366Y27954506D01*
X156597966Y27992928D01*
X156647653Y28032216D01*
X156715326Y28093378D01*
X156812753Y27995146D01*
X156910180Y27896913D01*
X156836501Y27830291D01*
X156808186Y27805885D01*
X156692033Y27726406D01*
X156563884Y27667870D01*
X156427458Y27631702D01*
X156286473Y27619330D01*
X156259231Y27619565D01*
X156172411Y27624903D01*
X156095148Y27639024D01*
X156017601Y27664232D01*
X155929927Y27702832D01*
X155888292Y27724341D01*
X155777685Y27799347D01*
X155685764Y27890309D01*
X155613405Y27995404D01*
X155561481Y28112811D01*
X155530870Y28240707D01*
X155522446Y28377269D01*
X155537084Y28520676D01*
X155555670Y28598626D01*
X155603126Y28718433D01*
X155669662Y28826551D01*
X155752864Y28920435D01*
X155850319Y28997540D01*
X155959612Y29055322D01*
X156078330Y29091234D01*
X156106492Y29096776D01*
X156147045Y29104758D01*
X156173580Y29109981D01*
X156228544Y29116181D01*
X156310211Y29115475D01*
G37*
X154967454Y27449290D02*
X155042307Y27438427D01*
X155101984Y27420024D01*
X155175536Y27376407D01*
X155246748Y27309023D01*
X155300018Y27227668D01*
X155315064Y27194658D01*
X155327656Y27155396D01*
X155333519Y27112113D01*
X155334785Y27054180D01*
X155334281Y27028571D01*
X155328431Y26965397D01*
X155314334Y26908418D01*
X155289842Y26854254D01*
X155252807Y26799525D01*
X155201080Y26740851D01*
X155132513Y26674851D01*
X155044959Y26598145D01*
X154999748Y26559321D01*
X154919271Y26487703D01*
X154858259Y26429252D01*
X154815803Y26383017D01*
X154790997Y26348043D01*
X154782930Y26323378D01*
X154786413Y26295914D01*
X154809145Y26259055D01*
X154853722Y26234718D01*
X154886257Y26228526D01*
X154944608Y26236642D01*
X155003721Y26266909D01*
X155059905Y26317839D01*
X155108747Y26373327D01*
X155209363Y26279995D01*
X155309980Y26186663D01*
X155259180Y26134018D01*
X155193803Y26074323D01*
X155100437Y26013097D01*
X155003224Y25974599D01*
X154904391Y25959371D01*
X154806165Y25967952D01*
X154710773Y26000883D01*
X154664485Y26027854D01*
X154595181Y26090852D01*
X154539303Y26175058D01*
X154538417Y26176783D01*
X154516781Y26242929D01*
X154510211Y26319909D01*
X154518626Y26398452D01*
X154541941Y26469285D01*
X154564471Y26508085D01*
X154614280Y26573113D01*
X154683438Y26647989D01*
X154770375Y26731053D01*
X154873527Y26820644D01*
X154899476Y26842492D01*
X154964095Y26899909D01*
X155010443Y26947169D01*
X155040767Y26987075D01*
X155057313Y27022428D01*
X155062330Y27056028D01*
X155054882Y27095502D01*
X155027616Y27137071D01*
X154985400Y27167766D01*
X154933590Y27185058D01*
X154877544Y27186413D01*
X154822619Y27169302D01*
X154816111Y27165576D01*
X154781559Y27138840D01*
X154742496Y27100899D01*
X154706710Y27059816D01*
X154681987Y27023657D01*
X154680211Y27020403D01*
X154672596Y27010419D01*
X154661663Y27008097D01*
X154642863Y27014894D01*
X154611646Y27032271D01*
X154563463Y27061689D01*
X154559366Y27064218D01*
X154506327Y27097168D01*
X154471552Y27120128D01*
X154451944Y27136326D01*
X154444402Y27148993D01*
X154445829Y27161355D01*
X154453125Y27176641D01*
X154484792Y27230314D01*
X154555652Y27316110D01*
X154640646Y27384255D01*
X154735937Y27431291D01*
X154743472Y27433818D01*
X154808872Y27447267D01*
X154886587Y27452330D01*
X154967454Y27449290D01*
G36*
X154967454Y27449290D02*
G01*
X155042307Y27438427D01*
X155101984Y27420024D01*
X155175536Y27376407D01*
X155246748Y27309023D01*
X155300018Y27227668D01*
X155315064Y27194658D01*
X155327656Y27155396D01*
X155333519Y27112113D01*
X155334785Y27054180D01*
X155334281Y27028571D01*
X155328431Y26965397D01*
X155314334Y26908418D01*
X155289842Y26854254D01*
X155252807Y26799525D01*
X155201080Y26740851D01*
X155132513Y26674851D01*
X155044959Y26598145D01*
X154999748Y26559321D01*
X154919271Y26487703D01*
X154858259Y26429252D01*
X154815803Y26383017D01*
X154790997Y26348043D01*
X154782930Y26323378D01*
X154786413Y26295914D01*
X154809145Y26259055D01*
X154853722Y26234718D01*
X154886257Y26228526D01*
X154944608Y26236642D01*
X155003721Y26266909D01*
X155059905Y26317839D01*
X155108747Y26373327D01*
X155209363Y26279995D01*
X155309980Y26186663D01*
X155259180Y26134018D01*
X155193803Y26074323D01*
X155100437Y26013097D01*
X155003224Y25974599D01*
X154904391Y25959371D01*
X154806165Y25967952D01*
X154710773Y26000883D01*
X154664485Y26027854D01*
X154595181Y26090852D01*
X154539303Y26175058D01*
X154538417Y26176783D01*
X154516781Y26242929D01*
X154510211Y26319909D01*
X154518626Y26398452D01*
X154541941Y26469285D01*
X154564471Y26508085D01*
X154614280Y26573113D01*
X154683438Y26647989D01*
X154770375Y26731053D01*
X154873527Y26820644D01*
X154899476Y26842492D01*
X154964095Y26899909D01*
X155010443Y26947169D01*
X155040767Y26987075D01*
X155057313Y27022428D01*
X155062330Y27056028D01*
X155054882Y27095502D01*
X155027616Y27137071D01*
X154985400Y27167766D01*
X154933590Y27185058D01*
X154877544Y27186413D01*
X154822619Y27169302D01*
X154816111Y27165576D01*
X154781559Y27138840D01*
X154742496Y27100899D01*
X154706710Y27059816D01*
X154681987Y27023657D01*
X154680211Y27020403D01*
X154672596Y27010419D01*
X154661663Y27008097D01*
X154642863Y27014894D01*
X154611646Y27032271D01*
X154563463Y27061689D01*
X154559366Y27064218D01*
X154506327Y27097168D01*
X154471552Y27120128D01*
X154451944Y27136326D01*
X154444402Y27148993D01*
X154445829Y27161355D01*
X154453125Y27176641D01*
X154484792Y27230314D01*
X154555652Y27316110D01*
X154640646Y27384255D01*
X154735937Y27431291D01*
X154743472Y27433818D01*
X154808872Y27447267D01*
X154886587Y27452330D01*
X154967454Y27449290D01*
G37*
X155002438Y29106344D02*
X155097205Y29076507D01*
X155180700Y29027571D01*
X155249921Y28960804D01*
X155301866Y28877475D01*
X155312148Y28854023D01*
X155325988Y28811503D01*
X155332688Y28765513D01*
X155334293Y28705180D01*
X155334011Y28686494D01*
X155329606Y28630428D01*
X155318363Y28579244D01*
X155298333Y28530103D01*
X155267564Y28480162D01*
X155224105Y28426581D01*
X155166005Y28366518D01*
X155091313Y28297133D01*
X154998078Y28215584D01*
X154929439Y28156135D01*
X154874945Y28107328D01*
X154835595Y28069404D01*
X154809052Y28039743D01*
X154792983Y28015724D01*
X154785054Y27994730D01*
X154782930Y27974139D01*
X154783020Y27970656D01*
X154796142Y27933906D01*
X154827139Y27905938D01*
X154869747Y27889298D01*
X154917702Y27886536D01*
X154964739Y27900198D01*
X154983798Y27912894D01*
X155016253Y27939290D01*
X155051809Y27971765D01*
X155111139Y28029164D01*
X155207384Y27941995D01*
X155236126Y27915607D01*
X155270965Y27882457D01*
X155294798Y27858288D01*
X155303630Y27847041D01*
X155303554Y27846193D01*
X155292567Y27829124D01*
X155266375Y27801648D01*
X155229878Y27767957D01*
X155187977Y27732242D01*
X155145574Y27698692D01*
X155107569Y27671499D01*
X155078864Y27654853D01*
X155074515Y27652967D01*
X155000691Y27631276D01*
X154915887Y27621291D01*
X154830967Y27623557D01*
X154756793Y27638624D01*
X154728836Y27649817D01*
X154662525Y27690377D01*
X154601981Y27745276D01*
X154553590Y27808106D01*
X154523740Y27872460D01*
X154512097Y27916437D01*
X154504865Y27967289D01*
X154508423Y28015509D01*
X154522709Y28073003D01*
X154532476Y28101065D01*
X154560417Y28156639D01*
X154601941Y28215820D01*
X154659066Y28281026D01*
X154733809Y28354675D01*
X154828187Y28439185D01*
X154872756Y28478062D01*
X154939478Y28538221D01*
X154989334Y28586734D01*
X155024436Y28626077D01*
X155046896Y28658727D01*
X155058823Y28687160D01*
X155062330Y28713854D01*
X155062203Y28719114D01*
X155048442Y28767390D01*
X155015720Y28806849D01*
X154969392Y28834208D01*
X154914814Y28846185D01*
X154857344Y28839495D01*
X154826409Y28825294D01*
X154783251Y28795396D01*
X154740918Y28757815D01*
X154706614Y28719076D01*
X154687545Y28685706D01*
X154680900Y28671181D01*
X154668780Y28660730D01*
X154666732Y28661322D01*
X154647898Y28670809D01*
X154614986Y28689233D01*
X154573765Y28713172D01*
X154530003Y28739207D01*
X154489469Y28763917D01*
X154457933Y28783882D01*
X154441164Y28795682D01*
X154441909Y28809137D01*
X154455303Y28837312D01*
X154478334Y28874569D01*
X154507656Y28915517D01*
X154539925Y28954770D01*
X154589796Y29003782D01*
X154677794Y29063456D01*
X154775100Y29100000D01*
X154791102Y29103645D01*
X154899403Y29115813D01*
X155002438Y29106344D01*
G36*
X155002438Y29106344D02*
G01*
X155097205Y29076507D01*
X155180700Y29027571D01*
X155249921Y28960804D01*
X155301866Y28877475D01*
X155312148Y28854023D01*
X155325988Y28811503D01*
X155332688Y28765513D01*
X155334293Y28705180D01*
X155334011Y28686494D01*
X155329606Y28630428D01*
X155318363Y28579244D01*
X155298333Y28530103D01*
X155267564Y28480162D01*
X155224105Y28426581D01*
X155166005Y28366518D01*
X155091313Y28297133D01*
X154998078Y28215584D01*
X154929439Y28156135D01*
X154874945Y28107328D01*
X154835595Y28069404D01*
X154809052Y28039743D01*
X154792983Y28015724D01*
X154785054Y27994730D01*
X154782930Y27974139D01*
X154783020Y27970656D01*
X154796142Y27933906D01*
X154827139Y27905938D01*
X154869747Y27889298D01*
X154917702Y27886536D01*
X154964739Y27900198D01*
X154983798Y27912894D01*
X155016253Y27939290D01*
X155051809Y27971765D01*
X155111139Y28029164D01*
X155207384Y27941995D01*
X155236126Y27915607D01*
X155270965Y27882457D01*
X155294798Y27858288D01*
X155303630Y27847041D01*
X155303554Y27846193D01*
X155292567Y27829124D01*
X155266375Y27801648D01*
X155229878Y27767957D01*
X155187977Y27732242D01*
X155145574Y27698692D01*
X155107569Y27671499D01*
X155078864Y27654853D01*
X155074515Y27652967D01*
X155000691Y27631276D01*
X154915887Y27621291D01*
X154830967Y27623557D01*
X154756793Y27638624D01*
X154728836Y27649817D01*
X154662525Y27690377D01*
X154601981Y27745276D01*
X154553590Y27808106D01*
X154523740Y27872460D01*
X154512097Y27916437D01*
X154504865Y27967289D01*
X154508423Y28015509D01*
X154522709Y28073003D01*
X154532476Y28101065D01*
X154560417Y28156639D01*
X154601941Y28215820D01*
X154659066Y28281026D01*
X154733809Y28354675D01*
X154828187Y28439185D01*
X154872756Y28478062D01*
X154939478Y28538221D01*
X154989334Y28586734D01*
X155024436Y28626077D01*
X155046896Y28658727D01*
X155058823Y28687160D01*
X155062330Y28713854D01*
X155062203Y28719114D01*
X155048442Y28767390D01*
X155015720Y28806849D01*
X154969392Y28834208D01*
X154914814Y28846185D01*
X154857344Y28839495D01*
X154826409Y28825294D01*
X154783251Y28795396D01*
X154740918Y28757815D01*
X154706614Y28719076D01*
X154687545Y28685706D01*
X154680900Y28671181D01*
X154668780Y28660730D01*
X154666732Y28661322D01*
X154647898Y28670809D01*
X154614986Y28689233D01*
X154573765Y28713172D01*
X154530003Y28739207D01*
X154489469Y28763917D01*
X154457933Y28783882D01*
X154441164Y28795682D01*
X154441909Y28809137D01*
X154455303Y28837312D01*
X154478334Y28874569D01*
X154507656Y28915517D01*
X154539925Y28954770D01*
X154589796Y29003782D01*
X154677794Y29063456D01*
X154775100Y29100000D01*
X154791102Y29103645D01*
X154899403Y29115813D01*
X155002438Y29106344D01*
G37*
X155002438Y25791644D02*
X155097205Y25761807D01*
X155180700Y25712871D01*
X155249921Y25646104D01*
X155301866Y25562775D01*
X155312148Y25539323D01*
X155325988Y25496803D01*
X155332688Y25450813D01*
X155334293Y25390480D01*
X155334011Y25371794D01*
X155329606Y25315728D01*
X155318363Y25264544D01*
X155298333Y25215403D01*
X155267564Y25165462D01*
X155224105Y25111881D01*
X155166005Y25051818D01*
X155091313Y24982433D01*
X154998078Y24900884D01*
X154929439Y24841435D01*
X154874945Y24792628D01*
X154835595Y24754704D01*
X154809052Y24725043D01*
X154792983Y24701024D01*
X154785054Y24680030D01*
X154782930Y24659439D01*
X154783020Y24655956D01*
X154796142Y24619206D01*
X154827139Y24591238D01*
X154869747Y24574598D01*
X154917702Y24571836D01*
X154964739Y24585498D01*
X154983798Y24598194D01*
X155016253Y24624590D01*
X155051809Y24657065D01*
X155111139Y24714464D01*
X155207384Y24627295D01*
X155236126Y24600907D01*
X155270965Y24567757D01*
X155294798Y24543588D01*
X155303630Y24532341D01*
X155303554Y24531493D01*
X155292567Y24514424D01*
X155266375Y24486948D01*
X155229878Y24453257D01*
X155187977Y24417542D01*
X155145574Y24383992D01*
X155107569Y24356799D01*
X155078864Y24340153D01*
X155074515Y24338267D01*
X155000691Y24316576D01*
X154915887Y24306591D01*
X154830967Y24308857D01*
X154756793Y24323924D01*
X154728836Y24335117D01*
X154662525Y24375677D01*
X154601981Y24430576D01*
X154553590Y24493406D01*
X154523740Y24557760D01*
X154512097Y24601737D01*
X154504865Y24652589D01*
X154508423Y24700809D01*
X154522709Y24758303D01*
X154532476Y24786365D01*
X154560417Y24841939D01*
X154601941Y24901120D01*
X154659066Y24966326D01*
X154733809Y25039975D01*
X154828187Y25124485D01*
X154872756Y25163362D01*
X154939478Y25223521D01*
X154989334Y25272034D01*
X155024436Y25311377D01*
X155046896Y25344027D01*
X155058823Y25372460D01*
X155062330Y25399154D01*
X155062203Y25404414D01*
X155048442Y25452690D01*
X155015720Y25492149D01*
X154969392Y25519508D01*
X154914814Y25531485D01*
X154857344Y25524795D01*
X154826409Y25510594D01*
X154783251Y25480696D01*
X154740918Y25443115D01*
X154706614Y25404376D01*
X154687545Y25371006D01*
X154680900Y25356481D01*
X154668780Y25346030D01*
X154666732Y25346622D01*
X154647898Y25356109D01*
X154614986Y25374533D01*
X154573765Y25398472D01*
X154530003Y25424507D01*
X154489469Y25449217D01*
X154457933Y25469182D01*
X154441164Y25480982D01*
X154441909Y25494437D01*
X154455303Y25522612D01*
X154478334Y25559869D01*
X154507656Y25600817D01*
X154539925Y25640070D01*
X154589796Y25689082D01*
X154677794Y25748756D01*
X154775100Y25785300D01*
X154791102Y25788945D01*
X154899403Y25801113D01*
X155002438Y25791644D01*
G36*
X155002438Y25791644D02*
G01*
X155097205Y25761807D01*
X155180700Y25712871D01*
X155249921Y25646104D01*
X155301866Y25562775D01*
X155312148Y25539323D01*
X155325988Y25496803D01*
X155332688Y25450813D01*
X155334293Y25390480D01*
X155334011Y25371794D01*
X155329606Y25315728D01*
X155318363Y25264544D01*
X155298333Y25215403D01*
X155267564Y25165462D01*
X155224105Y25111881D01*
X155166005Y25051818D01*
X155091313Y24982433D01*
X154998078Y24900884D01*
X154929439Y24841435D01*
X154874945Y24792628D01*
X154835595Y24754704D01*
X154809052Y24725043D01*
X154792983Y24701024D01*
X154785054Y24680030D01*
X154782930Y24659439D01*
X154783020Y24655956D01*
X154796142Y24619206D01*
X154827139Y24591238D01*
X154869747Y24574598D01*
X154917702Y24571836D01*
X154964739Y24585498D01*
X154983798Y24598194D01*
X155016253Y24624590D01*
X155051809Y24657065D01*
X155111139Y24714464D01*
X155207384Y24627295D01*
X155236126Y24600907D01*
X155270965Y24567757D01*
X155294798Y24543588D01*
X155303630Y24532341D01*
X155303554Y24531493D01*
X155292567Y24514424D01*
X155266375Y24486948D01*
X155229878Y24453257D01*
X155187977Y24417542D01*
X155145574Y24383992D01*
X155107569Y24356799D01*
X155078864Y24340153D01*
X155074515Y24338267D01*
X155000691Y24316576D01*
X154915887Y24306591D01*
X154830967Y24308857D01*
X154756793Y24323924D01*
X154728836Y24335117D01*
X154662525Y24375677D01*
X154601981Y24430576D01*
X154553590Y24493406D01*
X154523740Y24557760D01*
X154512097Y24601737D01*
X154504865Y24652589D01*
X154508423Y24700809D01*
X154522709Y24758303D01*
X154532476Y24786365D01*
X154560417Y24841939D01*
X154601941Y24901120D01*
X154659066Y24966326D01*
X154733809Y25039975D01*
X154828187Y25124485D01*
X154872756Y25163362D01*
X154939478Y25223521D01*
X154989334Y25272034D01*
X155024436Y25311377D01*
X155046896Y25344027D01*
X155058823Y25372460D01*
X155062330Y25399154D01*
X155062203Y25404414D01*
X155048442Y25452690D01*
X155015720Y25492149D01*
X154969392Y25519508D01*
X154914814Y25531485D01*
X154857344Y25524795D01*
X154826409Y25510594D01*
X154783251Y25480696D01*
X154740918Y25443115D01*
X154706614Y25404376D01*
X154687545Y25371006D01*
X154680900Y25356481D01*
X154668780Y25346030D01*
X154666732Y25346622D01*
X154647898Y25356109D01*
X154614986Y25374533D01*
X154573765Y25398472D01*
X154530003Y25424507D01*
X154489469Y25449217D01*
X154457933Y25469182D01*
X154441164Y25480982D01*
X154441909Y25494437D01*
X154455303Y25522612D01*
X154478334Y25559869D01*
X154507656Y25600817D01*
X154539925Y25640070D01*
X154589796Y25689082D01*
X154677794Y25748756D01*
X154775100Y25785300D01*
X154791102Y25788945D01*
X154899403Y25801113D01*
X155002438Y25791644D01*
G37*
X150420189Y29364466D02*
X150500313Y29359118D01*
X150570750Y29351230D01*
X150623680Y29341121D01*
X150633044Y29338560D01*
X150764063Y29289807D01*
X150882182Y29221455D01*
X150985229Y29135631D01*
X151071031Y29034461D01*
X151137414Y28920070D01*
X151182205Y28794586D01*
X151185661Y28779418D01*
X151195129Y28712714D01*
X151200184Y28632694D01*
X151200697Y28548502D01*
X151196544Y28469283D01*
X151187598Y28404180D01*
X151174923Y28358635D01*
X151154568Y28302271D01*
X151131108Y28247980D01*
X151128938Y28243476D01*
X151099333Y28187545D01*
X151064807Y28133147D01*
X151023158Y28077891D01*
X150972182Y28019385D01*
X150909675Y27955237D01*
X150833436Y27883056D01*
X150741259Y27800449D01*
X150630943Y27705025D01*
X150613982Y27690526D01*
X150499890Y27592404D01*
X150403947Y27508473D01*
X150324760Y27437142D01*
X150260939Y27376817D01*
X150211093Y27325908D01*
X150173830Y27282823D01*
X150147760Y27245970D01*
X150131491Y27213756D01*
X150123633Y27184590D01*
X150122793Y27156881D01*
X150127582Y27129036D01*
X150141778Y27097013D01*
X150178382Y27054724D01*
X150228613Y27019636D01*
X150285722Y26997367D01*
X150315908Y26991786D01*
X150402020Y26992821D01*
X150489488Y27017393D01*
X150576463Y27064347D01*
X150661095Y27132531D01*
X150741533Y27220790D01*
X150815928Y27327972D01*
X150869435Y27410907D01*
X150952768Y27519667D01*
X151040420Y27608598D01*
X151135859Y27681055D01*
X151242554Y27740389D01*
X151310337Y27769668D01*
X151393831Y27796294D01*
X151481587Y27812614D01*
X151580341Y27819796D01*
X151696830Y27819004D01*
X151778183Y27814235D01*
X151907041Y27795948D01*
X152019725Y27763587D01*
X152120435Y27715386D01*
X152213371Y27649581D01*
X152302732Y27564407D01*
X152339234Y27521780D01*
X152402961Y27427761D01*
X152452380Y27327100D01*
X152482998Y27228179D01*
X152484467Y27220690D01*
X152493038Y27151016D01*
X152496425Y27068842D01*
X152494774Y26983538D01*
X152488231Y26904473D01*
X152476944Y26841019D01*
X152471345Y26820689D01*
X152421921Y26695029D01*
X152347882Y26571811D01*
X152249883Y26452155D01*
X152244079Y26446127D01*
X152212966Y26416037D01*
X152166446Y26373050D01*
X152107572Y26319905D01*
X152039394Y26259337D01*
X151964963Y26194085D01*
X151887330Y26126885D01*
X151839274Y26085479D01*
X151732136Y25992235D01*
X151642974Y25912696D01*
X151570537Y25845215D01*
X151513578Y25788149D01*
X151470847Y25739852D01*
X151441095Y25698679D01*
X151423074Y25662985D01*
X151415533Y25631126D01*
X151417225Y25601456D01*
X151426899Y25572331D01*
X151443308Y25542105D01*
X151448060Y25534986D01*
X151490508Y25494853D01*
X151548494Y25465676D01*
X151614836Y25449351D01*
X151682351Y25447771D01*
X151743857Y25462831D01*
X151808616Y25499385D01*
X151882113Y25558930D01*
X151955569Y25635493D01*
X152025327Y25725226D01*
X152087727Y25824284D01*
X152161528Y25936083D01*
X152258925Y26045404D01*
X152369986Y26137803D01*
X152490580Y26209332D01*
X152551324Y26236538D01*
X152642411Y26267987D01*
X152735850Y26287430D01*
X152838893Y26296206D01*
X152958794Y26295650D01*
X152967029Y26295330D01*
X153094239Y26284573D01*
X153204446Y26262508D01*
X153303814Y26227485D01*
X153398508Y26177852D01*
X153447654Y26144840D01*
X153544614Y26059450D01*
X153627373Y25958028D01*
X153692206Y25845559D01*
X153735388Y25727030D01*
X153746988Y25660518D01*
X153752623Y25577465D01*
X153752267Y25487140D01*
X153746213Y25397596D01*
X153734753Y25316886D01*
X153718180Y25253061D01*
X153700716Y25208093D01*
X153675515Y25153974D01*
X153645159Y25101123D01*
X153607788Y25047432D01*
X153561538Y24990795D01*
X153504547Y24929104D01*
X153434953Y24860252D01*
X153350894Y24782132D01*
X153250507Y24692635D01*
X153131930Y24589655D01*
X153120965Y24580215D01*
X153020242Y24493120D01*
X152937071Y24420310D01*
X152869643Y24360019D01*
X152816150Y24310478D01*
X152774780Y24269920D01*
X152743727Y24236577D01*
X152721179Y24208681D01*
X152705328Y24184466D01*
X152694365Y24162162D01*
X152693882Y24160996D01*
X152677460Y24106949D01*
X152679243Y24062558D01*
X152699527Y24019615D01*
X152702983Y24014534D01*
X152752938Y23964644D01*
X152818533Y23934100D01*
X152898126Y23923695D01*
X152931499Y23925178D01*
X153004260Y23940498D01*
X153075323Y23973963D01*
X153148168Y24027472D01*
X153226278Y24102928D01*
X153322087Y24204773D01*
X153518550Y24030399D01*
X153715013Y23856024D01*
X153676829Y23807814D01*
X153673972Y23804227D01*
X153591184Y23713747D01*
X153493502Y23628130D01*
X153387271Y23551943D01*
X153278834Y23489757D01*
X153174536Y23446138D01*
X153123778Y23430381D01*
X153078531Y23419407D01*
X153033439Y23413082D01*
X152979992Y23410234D01*
X152909680Y23409692D01*
X152834696Y23411378D01*
X152749235Y23419297D01*
X152673864Y23435516D01*
X152600063Y23462025D01*
X152519309Y23500811D01*
X152506793Y23507574D01*
X152413034Y23571896D01*
X152328020Y23653556D01*
X152255853Y23747328D01*
X152200633Y23847988D01*
X152166462Y23950313D01*
X152159121Y24002216D01*
X152155579Y24069374D01*
X152156490Y24140813D01*
X152157150Y24153189D01*
X152167037Y24239606D01*
X152187439Y24319547D01*
X152220953Y24401039D01*
X152270176Y24492109D01*
X152294431Y24527566D01*
X152339876Y24583097D01*
X152399988Y24649316D01*
X152471916Y24723378D01*
X152552809Y24802441D01*
X152639818Y24883663D01*
X152730092Y24964201D01*
X152820780Y25041211D01*
X152913006Y25118645D01*
X153006818Y25201314D01*
X153082138Y25273237D01*
X153140454Y25336187D01*
X153183251Y25391940D01*
X153212018Y25442270D01*
X153228240Y25488952D01*
X153233405Y25533762D01*
X153232806Y25549477D01*
X153215840Y25615653D01*
X153178361Y25675110D01*
X153124192Y25724941D01*
X153057153Y25762238D01*
X152981066Y25784095D01*
X152899752Y25787603D01*
X152818197Y25772572D01*
X152741690Y25739410D01*
X152669102Y25686433D01*
X152597995Y25611857D01*
X152525930Y25513895D01*
X152507427Y25487030D01*
X152454867Y25417131D01*
X152393531Y25342254D01*
X152328049Y25267581D01*
X152263054Y25198297D01*
X152203177Y25139583D01*
X152153049Y25096623D01*
X152093392Y25054289D01*
X151994277Y24999305D01*
X151890603Y24962272D01*
X151776483Y24941309D01*
X151646030Y24934532D01*
X151587123Y24935981D01*
X151449325Y24953805D01*
X151324991Y24992409D01*
X151212481Y25052404D01*
X151110159Y25134400D01*
X151063807Y25181709D01*
X150987907Y25280331D01*
X150935315Y25384947D01*
X150904653Y25498692D01*
X150894544Y25624701D01*
X150899668Y25723141D01*
X150917542Y25813986D01*
X150950592Y25903463D01*
X151001234Y26000080D01*
X151010544Y26015064D01*
X151052690Y26072108D01*
X151111711Y26141067D01*
X151185034Y26219342D01*
X151270082Y26304335D01*
X151364281Y26393450D01*
X151465055Y26484088D01*
X151569830Y26573651D01*
X151622443Y26617783D01*
X151684973Y26671050D01*
X151741894Y26720379D01*
X151788532Y26761710D01*
X151820209Y26790987D01*
X151823234Y26793925D01*
X151896858Y26875905D01*
X151945920Y26954085D01*
X151970365Y27028156D01*
X151970139Y27097810D01*
X151945189Y27162737D01*
X151895461Y27222631D01*
X151883311Y27233451D01*
X151809936Y27282834D01*
X151730939Y27308431D01*
X151642452Y27311603D01*
X151574297Y27299914D01*
X151491200Y27266324D01*
X151412053Y27210808D01*
X151335290Y27132212D01*
X151259343Y27029382D01*
X151199029Y26948052D01*
X151114384Y26853605D01*
X151018074Y26761790D01*
X150915830Y26677642D01*
X150813384Y26606195D01*
X150716464Y26552483D01*
X150710650Y26549791D01*
X150581992Y26503758D01*
X150447837Y26479513D01*
X150311935Y26476568D01*
X150178037Y26494438D01*
X150049892Y26532635D01*
X149931252Y26590673D01*
X149825867Y26668066D01*
X149782418Y26709723D01*
X149702438Y26809059D01*
X149645931Y26917724D01*
X149612396Y27036835D01*
X149601329Y27167512D01*
X149604909Y27247899D01*
X149623383Y27354253D01*
X149659345Y27455229D01*
X149714759Y27555926D01*
X149791590Y27661447D01*
X149794066Y27664518D01*
X149829143Y27706467D01*
X149866941Y27748380D01*
X149909894Y27792544D01*
X149960435Y27841244D01*
X150020995Y27896767D01*
X150094009Y27961400D01*
X150181910Y28037429D01*
X150287130Y28127141D01*
X150326765Y28160948D01*
X150393905Y28219011D01*
X150455338Y28273097D01*
X150507618Y28320129D01*
X150547300Y28357028D01*
X150570939Y28380715D01*
X150577929Y28388704D01*
X150617208Y28442417D01*
X150649909Y28501273D01*
X150672244Y28557563D01*
X150680427Y28603580D01*
X150677776Y28633725D01*
X150655430Y28697588D01*
X150613768Y28755096D01*
X150556932Y28803161D01*
X150489064Y28838695D01*
X150414306Y28858608D01*
X150336798Y28859813D01*
X150272714Y28845036D01*
X150188835Y28805501D01*
X150107049Y28745267D01*
X150030618Y28666839D01*
X149962801Y28572718D01*
X149960515Y28569034D01*
X149936573Y28532821D01*
X149917648Y28508221D01*
X149907663Y28500379D01*
X149906856Y28500833D01*
X149890429Y28510481D01*
X149856227Y28530742D01*
X149807671Y28559586D01*
X149748180Y28594980D01*
X149681176Y28634895D01*
X149462573Y28765190D01*
X149489289Y28817735D01*
X149566177Y28947958D01*
X149664204Y29071554D01*
X149776007Y29175628D01*
X149900111Y29259024D01*
X150035044Y29320586D01*
X150179331Y29359158D01*
X150199895Y29362101D01*
X150262159Y29366275D01*
X150338197Y29366958D01*
X150420189Y29364466D01*
G36*
X150420189Y29364466D02*
G01*
X150500313Y29359118D01*
X150570750Y29351230D01*
X150623680Y29341121D01*
X150633044Y29338560D01*
X150764063Y29289807D01*
X150882182Y29221455D01*
X150985229Y29135631D01*
X151071031Y29034461D01*
X151137414Y28920070D01*
X151182205Y28794586D01*
X151185661Y28779418D01*
X151195129Y28712714D01*
X151200184Y28632694D01*
X151200697Y28548502D01*
X151196544Y28469283D01*
X151187598Y28404180D01*
X151174923Y28358635D01*
X151154568Y28302271D01*
X151131108Y28247980D01*
X151128938Y28243476D01*
X151099333Y28187545D01*
X151064807Y28133147D01*
X151023158Y28077891D01*
X150972182Y28019385D01*
X150909675Y27955237D01*
X150833436Y27883056D01*
X150741259Y27800449D01*
X150630943Y27705025D01*
X150613982Y27690526D01*
X150499890Y27592404D01*
X150403947Y27508473D01*
X150324760Y27437142D01*
X150260939Y27376817D01*
X150211093Y27325908D01*
X150173830Y27282823D01*
X150147760Y27245970D01*
X150131491Y27213756D01*
X150123633Y27184590D01*
X150122793Y27156881D01*
X150127582Y27129036D01*
X150141778Y27097013D01*
X150178382Y27054724D01*
X150228613Y27019636D01*
X150285722Y26997367D01*
X150315908Y26991786D01*
X150402020Y26992821D01*
X150489488Y27017393D01*
X150576463Y27064347D01*
X150661095Y27132531D01*
X150741533Y27220790D01*
X150815928Y27327972D01*
X150869435Y27410907D01*
X150952768Y27519667D01*
X151040420Y27608598D01*
X151135859Y27681055D01*
X151242554Y27740389D01*
X151310337Y27769668D01*
X151393831Y27796294D01*
X151481587Y27812614D01*
X151580341Y27819796D01*
X151696830Y27819004D01*
X151778183Y27814235D01*
X151907041Y27795948D01*
X152019725Y27763587D01*
X152120435Y27715386D01*
X152213371Y27649581D01*
X152302732Y27564407D01*
X152339234Y27521780D01*
X152402961Y27427761D01*
X152452380Y27327100D01*
X152482998Y27228179D01*
X152484467Y27220690D01*
X152493038Y27151016D01*
X152496425Y27068842D01*
X152494774Y26983538D01*
X152488231Y26904473D01*
X152476944Y26841019D01*
X152471345Y26820689D01*
X152421921Y26695029D01*
X152347882Y26571811D01*
X152249883Y26452155D01*
X152244079Y26446127D01*
X152212966Y26416037D01*
X152166446Y26373050D01*
X152107572Y26319905D01*
X152039394Y26259337D01*
X151964963Y26194085D01*
X151887330Y26126885D01*
X151839274Y26085479D01*
X151732136Y25992235D01*
X151642974Y25912696D01*
X151570537Y25845215D01*
X151513578Y25788149D01*
X151470847Y25739852D01*
X151441095Y25698679D01*
X151423074Y25662985D01*
X151415533Y25631126D01*
X151417225Y25601456D01*
X151426899Y25572331D01*
X151443308Y25542105D01*
X151448060Y25534986D01*
X151490508Y25494853D01*
X151548494Y25465676D01*
X151614836Y25449351D01*
X151682351Y25447771D01*
X151743857Y25462831D01*
X151808616Y25499385D01*
X151882113Y25558930D01*
X151955569Y25635493D01*
X152025327Y25725226D01*
X152087727Y25824284D01*
X152161528Y25936083D01*
X152258925Y26045404D01*
X152369986Y26137803D01*
X152490580Y26209332D01*
X152551324Y26236538D01*
X152642411Y26267987D01*
X152735850Y26287430D01*
X152838893Y26296206D01*
X152958794Y26295650D01*
X152967029Y26295330D01*
X153094239Y26284573D01*
X153204446Y26262508D01*
X153303814Y26227485D01*
X153398508Y26177852D01*
X153447654Y26144840D01*
X153544614Y26059450D01*
X153627373Y25958028D01*
X153692206Y25845559D01*
X153735388Y25727030D01*
X153746988Y25660518D01*
X153752623Y25577465D01*
X153752267Y25487140D01*
X153746213Y25397596D01*
X153734753Y25316886D01*
X153718180Y25253061D01*
X153700716Y25208093D01*
X153675515Y25153974D01*
X153645159Y25101123D01*
X153607788Y25047432D01*
X153561538Y24990795D01*
X153504547Y24929104D01*
X153434953Y24860252D01*
X153350894Y24782132D01*
X153250507Y24692635D01*
X153131930Y24589655D01*
X153120965Y24580215D01*
X153020242Y24493120D01*
X152937071Y24420310D01*
X152869643Y24360019D01*
X152816150Y24310478D01*
X152774780Y24269920D01*
X152743727Y24236577D01*
X152721179Y24208681D01*
X152705328Y24184466D01*
X152694365Y24162162D01*
X152693882Y24160996D01*
X152677460Y24106949D01*
X152679243Y24062558D01*
X152699527Y24019615D01*
X152702983Y24014534D01*
X152752938Y23964644D01*
X152818533Y23934100D01*
X152898126Y23923695D01*
X152931499Y23925178D01*
X153004260Y23940498D01*
X153075323Y23973963D01*
X153148168Y24027472D01*
X153226278Y24102928D01*
X153322087Y24204773D01*
X153518550Y24030399D01*
X153715013Y23856024D01*
X153676829Y23807814D01*
X153673972Y23804227D01*
X153591184Y23713747D01*
X153493502Y23628130D01*
X153387271Y23551943D01*
X153278834Y23489757D01*
X153174536Y23446138D01*
X153123778Y23430381D01*
X153078531Y23419407D01*
X153033439Y23413082D01*
X152979992Y23410234D01*
X152909680Y23409692D01*
X152834696Y23411378D01*
X152749235Y23419297D01*
X152673864Y23435516D01*
X152600063Y23462025D01*
X152519309Y23500811D01*
X152506793Y23507574D01*
X152413034Y23571896D01*
X152328020Y23653556D01*
X152255853Y23747328D01*
X152200633Y23847988D01*
X152166462Y23950313D01*
X152159121Y24002216D01*
X152155579Y24069374D01*
X152156490Y24140813D01*
X152157150Y24153189D01*
X152167037Y24239606D01*
X152187439Y24319547D01*
X152220953Y24401039D01*
X152270176Y24492109D01*
X152294431Y24527566D01*
X152339876Y24583097D01*
X152399988Y24649316D01*
X152471916Y24723378D01*
X152552809Y24802441D01*
X152639818Y24883663D01*
X152730092Y24964201D01*
X152820780Y25041211D01*
X152913006Y25118645D01*
X153006818Y25201314D01*
X153082138Y25273237D01*
X153140454Y25336187D01*
X153183251Y25391940D01*
X153212018Y25442270D01*
X153228240Y25488952D01*
X153233405Y25533762D01*
X153232806Y25549477D01*
X153215840Y25615653D01*
X153178361Y25675110D01*
X153124192Y25724941D01*
X153057153Y25762238D01*
X152981066Y25784095D01*
X152899752Y25787603D01*
X152818197Y25772572D01*
X152741690Y25739410D01*
X152669102Y25686433D01*
X152597995Y25611857D01*
X152525930Y25513895D01*
X152507427Y25487030D01*
X152454867Y25417131D01*
X152393531Y25342254D01*
X152328049Y25267581D01*
X152263054Y25198297D01*
X152203177Y25139583D01*
X152153049Y25096623D01*
X152093392Y25054289D01*
X151994277Y24999305D01*
X151890603Y24962272D01*
X151776483Y24941309D01*
X151646030Y24934532D01*
X151587123Y24935981D01*
X151449325Y24953805D01*
X151324991Y24992409D01*
X151212481Y25052404D01*
X151110159Y25134400D01*
X151063807Y25181709D01*
X150987907Y25280331D01*
X150935315Y25384947D01*
X150904653Y25498692D01*
X150894544Y25624701D01*
X150899668Y25723141D01*
X150917542Y25813986D01*
X150950592Y25903463D01*
X151001234Y26000080D01*
X151010544Y26015064D01*
X151052690Y26072108D01*
X151111711Y26141067D01*
X151185034Y26219342D01*
X151270082Y26304335D01*
X151364281Y26393450D01*
X151465055Y26484088D01*
X151569830Y26573651D01*
X151622443Y26617783D01*
X151684973Y26671050D01*
X151741894Y26720379D01*
X151788532Y26761710D01*
X151820209Y26790987D01*
X151823234Y26793925D01*
X151896858Y26875905D01*
X151945920Y26954085D01*
X151970365Y27028156D01*
X151970139Y27097810D01*
X151945189Y27162737D01*
X151895461Y27222631D01*
X151883311Y27233451D01*
X151809936Y27282834D01*
X151730939Y27308431D01*
X151642452Y27311603D01*
X151574297Y27299914D01*
X151491200Y27266324D01*
X151412053Y27210808D01*
X151335290Y27132212D01*
X151259343Y27029382D01*
X151199029Y26948052D01*
X151114384Y26853605D01*
X151018074Y26761790D01*
X150915830Y26677642D01*
X150813384Y26606195D01*
X150716464Y26552483D01*
X150710650Y26549791D01*
X150581992Y26503758D01*
X150447837Y26479513D01*
X150311935Y26476568D01*
X150178037Y26494438D01*
X150049892Y26532635D01*
X149931252Y26590673D01*
X149825867Y26668066D01*
X149782418Y26709723D01*
X149702438Y26809059D01*
X149645931Y26917724D01*
X149612396Y27036835D01*
X149601329Y27167512D01*
X149604909Y27247899D01*
X149623383Y27354253D01*
X149659345Y27455229D01*
X149714759Y27555926D01*
X149791590Y27661447D01*
X149794066Y27664518D01*
X149829143Y27706467D01*
X149866941Y27748380D01*
X149909894Y27792544D01*
X149960435Y27841244D01*
X150020995Y27896767D01*
X150094009Y27961400D01*
X150181910Y28037429D01*
X150287130Y28127141D01*
X150326765Y28160948D01*
X150393905Y28219011D01*
X150455338Y28273097D01*
X150507618Y28320129D01*
X150547300Y28357028D01*
X150570939Y28380715D01*
X150577929Y28388704D01*
X150617208Y28442417D01*
X150649909Y28501273D01*
X150672244Y28557563D01*
X150680427Y28603580D01*
X150677776Y28633725D01*
X150655430Y28697588D01*
X150613768Y28755096D01*
X150556932Y28803161D01*
X150489064Y28838695D01*
X150414306Y28858608D01*
X150336798Y28859813D01*
X150272714Y28845036D01*
X150188835Y28805501D01*
X150107049Y28745267D01*
X150030618Y28666839D01*
X149962801Y28572718D01*
X149960515Y28569034D01*
X149936573Y28532821D01*
X149917648Y28508221D01*
X149907663Y28500379D01*
X149906856Y28500833D01*
X149890429Y28510481D01*
X149856227Y28530742D01*
X149807671Y28559586D01*
X149748180Y28594980D01*
X149681176Y28634895D01*
X149462573Y28765190D01*
X149489289Y28817735D01*
X149566177Y28947958D01*
X149664204Y29071554D01*
X149776007Y29175628D01*
X149900111Y29259024D01*
X150035044Y29320586D01*
X150179331Y29359158D01*
X150199895Y29362101D01*
X150262159Y29366275D01*
X150338197Y29366958D01*
X150420189Y29364466D01*
G37*
%TD*%
D12*
%TO.C,REF\u002A\u002A*%
X107097956Y8190000D03*
%TD*%
%TO.C,REF\u002A\u002A*%
X8000000Y290000D03*
%TD*%
%TO.C,REF\u002A\u002A*%
X105430623Y32790000D03*
%TD*%
%TO.C,REF\u002A\u002A*%
X8000000Y39890000D03*
%TD*%
%TO.C,REF\u002A\u002A*%
X8200000Y24239833D03*
%TD*%
%TO.C,REF\u002A\u002A*%
X41171597Y8190000D03*
%TD*%
%TO.C,REF\u002A\u002A*%
X201813481Y24655937D03*
%TD*%
%TO.C,REF\u002A\u002A*%
X135684386Y8190000D03*
%TD*%
%TO.C,REF\u002A\u002A*%
X207727580Y32990000D03*
%TD*%
%TO.C,REF\u002A\u002A*%
X73092694Y8190000D03*
%TD*%
%TO.C,REF\u002A\u002A*%
X1100000Y32990000D03*
%TD*%
%TO.C,REF\u002A\u002A*%
X201823469Y15072105D03*
%TD*%
%TO.C,REF\u002A\u002A*%
X208527580Y7990000D03*
%TD*%
%TO.C,REF\u002A\u002A*%
X38670597Y8190000D03*
%TD*%
D13*
%TO.C,REF\u002A\u002A*%
X20000000Y-27510000D03*
%TD*%
D12*
%TO.C,REF\u002A\u002A*%
X102929624Y8190000D03*
%TD*%
%TO.C,REF\u002A\u002A*%
X107514789Y32790000D03*
%TD*%
%TO.C,REF\u002A\u002A*%
X74760027Y32790000D03*
%TD*%
%TO.C,REF\u002A\u002A*%
X201812612Y25489603D03*
%TD*%
%TO.C,REF\u002A\u002A*%
X201822166Y16322604D03*
%TD*%
%TO.C,REF\u002A\u002A*%
X8200000Y25073499D03*
%TD*%
%TO.C,REF\u002A\u002A*%
X71008527Y8190000D03*
%TD*%
%TO.C,REF\u002A\u002A*%
X72675861Y32790000D03*
%TD*%
%TO.C,REF\u002A\u002A*%
X37836931Y8190000D03*
%TD*%
%TO.C,REF\u002A\u002A*%
X202027580Y39090000D03*
%TD*%
D13*
%TO.C,REF\u002A\u002A*%
X190027580Y68490000D03*
%TD*%
D12*
%TO.C,REF\u002A\u002A*%
X209327580Y32990000D03*
%TD*%
%TO.C,REF\u002A\u002A*%
X8200000Y27157666D03*
%TD*%
%TO.C,REF\u002A\u002A*%
X170940149Y8190001D03*
%TD*%
%TO.C,REF\u002A\u002A*%
X42005264Y32790000D03*
%TD*%
%TO.C,REF\u002A\u002A*%
X168855983Y32789999D03*
%TD*%
%TO.C,REF\u002A\u002A*%
X135684386Y32789999D03*
%TD*%
%TO.C,REF\u002A\u002A*%
X40337931Y8190000D03*
%TD*%
%TO.C,REF\u002A\u002A*%
X201820862Y17573104D03*
%TD*%
%TO.C,REF\u002A\u002A*%
X4300000Y32990000D03*
%TD*%
%TO.C,REF\u002A\u002A*%
X201824338Y14238438D03*
%TD*%
%TO.C,REF\u002A\u002A*%
X202027580Y4690000D03*
%TD*%
%TO.C,REF\u002A\u002A*%
X700000Y32990000D03*
%TD*%
%TO.C,REF\u002A\u002A*%
X102512791Y32790000D03*
%TD*%
%TO.C,REF\u002A\u002A*%
X2700000Y32990000D03*
%TD*%
%TO.C,REF\u002A\u002A*%
X136934886Y8190000D03*
%TD*%
%TO.C,REF\u002A\u002A*%
X202027580Y39490000D03*
%TD*%
%TO.C,REF\u002A\u002A*%
X207327580Y32990000D03*
%TD*%
%TO.C,REF\u002A\u002A*%
X70174861Y32790000D03*
%TD*%
%TO.C,REF\u002A\u002A*%
X105013790Y32790000D03*
%TD*%
D13*
%TO.C,REF\u002A\u002A*%
X20000000Y68490000D03*
%TD*%
D12*
%TO.C,REF\u002A\u002A*%
X105847456Y8190000D03*
%TD*%
%TO.C,REF\u002A\u002A*%
X201813046Y25072770D03*
%TD*%
%TO.C,REF\u002A\u002A*%
X8200000Y14656001D03*
%TD*%
%TO.C,REF\u002A\u002A*%
X106264289Y32790000D03*
%TD*%
%TO.C,REF\u002A\u002A*%
X42005264Y8190000D03*
%TD*%
%TO.C,REF\u002A\u002A*%
X2300000Y32990000D03*
%TD*%
%TO.C,REF\u002A\u002A*%
X137768553Y8190000D03*
%TD*%
%TO.C,REF\u002A\u002A*%
X136518053Y32789999D03*
%TD*%
%TO.C,REF\u002A\u002A*%
X8200000Y17990667D03*
%TD*%
%TO.C,REF\u002A\u002A*%
X103346457Y8190000D03*
%TD*%
%TO.C,REF\u002A\u002A*%
X8200000Y16740167D03*
%TD*%
%TO.C,REF\u002A\u002A*%
X41588430Y8190000D03*
%TD*%
%TO.C,REF\u002A\u002A*%
X3500000Y32990000D03*
%TD*%
%TO.C,REF\u002A\u002A*%
X42422097Y32790000D03*
%TD*%
%TO.C,REF\u002A\u002A*%
X8000000Y3890000D03*
%TD*%
%TO.C,REF\u002A\u002A*%
X8000000Y37890000D03*
%TD*%
%TO.C,REF\u002A\u002A*%
X205727580Y32990000D03*
%TD*%
%TO.C,REF\u002A\u002A*%
X107514789Y8190000D03*
%TD*%
%TO.C,REF\u002A\u002A*%
X201814784Y23405437D03*
%TD*%
%TO.C,REF\u002A\u002A*%
X41588430Y32790000D03*
%TD*%
%TO.C,REF\u002A\u002A*%
X135267553Y8190000D03*
%TD*%
%TO.C,REF\u002A\u002A*%
X201814350Y23822270D03*
%TD*%
%TO.C,REF\u002A\u002A*%
X201823903Y14655271D03*
%TD*%
%TO.C,REF\u002A\u002A*%
X137351720Y32789999D03*
%TD*%
D13*
%TO.C,REF\u002A\u002A*%
X190027580Y-27510000D03*
%TD*%
D12*
%TO.C,REF\u002A\u002A*%
X168855983Y8190001D03*
%TD*%
%TO.C,REF\u002A\u002A*%
X8000000Y1490000D03*
%TD*%
%TO.C,REF\u002A\u002A*%
X170106483Y32789999D03*
%TD*%
D14*
%TO.C,REF\u002A\u002A*%
X20000000Y38490000D03*
%TD*%
D12*
%TO.C,REF\u002A\u002A*%
X42422097Y8190000D03*
%TD*%
%TO.C,REF\u002A\u002A*%
X137768553Y32789999D03*
%TD*%
%TO.C,REF\u002A\u002A*%
X206527580Y32990000D03*
%TD*%
D14*
%TO.C,REF\u002A\u002A*%
X20000000Y2490000D03*
%TD*%
D12*
%TO.C,REF\u002A\u002A*%
X4300000Y7990000D03*
%TD*%
%TO.C,REF\u002A\u002A*%
X8200000Y15072834D03*
%TD*%
%TO.C,REF\u002A\u002A*%
X202027580Y38690000D03*
%TD*%
%TO.C,REF\u002A\u002A*%
X8200000Y17157000D03*
%TD*%
%TO.C,REF\u002A\u002A*%
X205327580Y32990000D03*
%TD*%
%TO.C,REF\u002A\u002A*%
X39921097Y8190000D03*
%TD*%
%TO.C,REF\u002A\u002A*%
X39921097Y32790000D03*
%TD*%
%TO.C,REF\u002A\u002A*%
X202027580Y2290000D03*
%TD*%
%TO.C,REF\u002A\u002A*%
X8200000Y22989333D03*
%TD*%
%TO.C,REF\u002A\u002A*%
X201815653Y22571770D03*
%TD*%
%TO.C,REF\u002A\u002A*%
X3900000Y7990000D03*
%TD*%
%TO.C,REF\u002A\u002A*%
X137351720Y8190000D03*
%TD*%
%TO.C,REF\u002A\u002A*%
X8200000Y23406166D03*
%TD*%
%TO.C,REF\u002A\u002A*%
X202027580Y3490000D03*
%TD*%
%TO.C,REF\u002A\u002A*%
X8200000Y15906501D03*
%TD*%
%TO.C,REF\u002A\u002A*%
X201816087Y22154937D03*
%TD*%
%TO.C,REF\u002A\u002A*%
X202027580Y1090000D03*
%TD*%
%TO.C,REF\u002A\u002A*%
X8000000Y40290000D03*
%TD*%
%TO.C,REF\u002A\u002A*%
X209727580Y32990000D03*
%TD*%
%TO.C,REF\u002A\u002A*%
X300000Y32990000D03*
%TD*%
%TO.C,REF\u002A\u002A*%
X74343194Y32790000D03*
%TD*%
%TO.C,REF\u002A\u002A*%
X208127580Y32990000D03*
%TD*%
%TO.C,REF\u002A\u002A*%
X1100000Y7990000D03*
%TD*%
%TO.C,REF\u002A\u002A*%
X71842194Y8190000D03*
%TD*%
%TO.C,REF\u002A\u002A*%
X168439150Y32789999D03*
%TD*%
%TO.C,REF\u002A\u002A*%
X8000000Y3490000D03*
%TD*%
%TO.C,REF\u002A\u002A*%
X39087431Y32790000D03*
%TD*%
%TO.C,REF\u002A\u002A*%
X1900000Y32990000D03*
%TD*%
%TO.C,REF\u002A\u002A*%
X167605483Y8190001D03*
%TD*%
%TO.C,REF\u002A\u002A*%
X73926360Y8190000D03*
%TD*%
%TO.C,REF\u002A\u002A*%
X74760027Y8190000D03*
%TD*%
%TO.C,REF\u002A\u002A*%
X8000000Y39090000D03*
%TD*%
%TO.C,REF\u002A\u002A*%
X8000000Y36690000D03*
%TD*%
%TO.C,REF\u002A\u002A*%
X171773816Y32789999D03*
%TD*%
%TO.C,REF\u002A\u002A*%
X8000000Y4690000D03*
%TD*%
%TO.C,REF\u002A\u002A*%
X136101220Y8190000D03*
%TD*%
%TO.C,REF\u002A\u002A*%
X208927580Y32990000D03*
%TD*%
%TO.C,REF\u002A\u002A*%
X134850720Y8190000D03*
%TD*%
%TO.C,REF\u002A\u002A*%
X169689650Y32789999D03*
%TD*%
%TO.C,REF\u002A\u002A*%
X8000000Y3090000D03*
%TD*%
%TO.C,REF\u002A\u002A*%
X2300000Y7990000D03*
%TD*%
%TO.C,REF\u002A\u002A*%
X201810874Y27156936D03*
%TD*%
%TO.C,REF\u002A\u002A*%
X201820428Y17989937D03*
%TD*%
%TO.C,REF\u002A\u002A*%
X170106483Y8190001D03*
%TD*%
%TO.C,REF\u002A\u002A*%
X202027580Y39890000D03*
%TD*%
%TO.C,REF\u002A\u002A*%
X208927580Y7990000D03*
%TD*%
%TO.C,REF\u002A\u002A*%
X3100000Y7990000D03*
%TD*%
%TO.C,REF\u002A\u002A*%
X136934886Y32789999D03*
%TD*%
%TO.C,REF\u002A\u002A*%
X72259027Y8190000D03*
%TD*%
%TO.C,REF\u002A\u002A*%
X8000000Y2290000D03*
%TD*%
%TO.C,REF\u002A\u002A*%
X139852719Y8190000D03*
%TD*%
%TO.C,REF\u002A\u002A*%
X170523316Y8190001D03*
%TD*%
%TO.C,REF\u002A\u002A*%
X75176860Y8190000D03*
%TD*%
%TO.C,REF\u002A\u002A*%
X42838930Y8190000D03*
%TD*%
%TO.C,REF\u002A\u002A*%
X73509527Y32790000D03*
%TD*%
%TO.C,REF\u002A\u002A*%
X202027580Y2690000D03*
%TD*%
%TO.C,REF\u002A\u002A*%
X139852719Y32789999D03*
%TD*%
%TO.C,REF\u002A\u002A*%
X300000Y7990000D03*
%TD*%
%TO.C,REF\u002A\u002A*%
X202027580Y36690000D03*
%TD*%
%TO.C,REF\u002A\u002A*%
X202027580Y38290000D03*
%TD*%
%TO.C,REF\u002A\u002A*%
X102512791Y8190000D03*
%TD*%
%TO.C,REF\u002A\u002A*%
X171356983Y8190001D03*
%TD*%
%TO.C,REF\u002A\u002A*%
X71842194Y32790000D03*
%TD*%
%TO.C,REF\u002A\u002A*%
X8000000Y2690000D03*
%TD*%
%TO.C,REF\u002A\u002A*%
X70174861Y8190000D03*
%TD*%
%TO.C,REF\u002A\u002A*%
X105013790Y8190000D03*
%TD*%
%TO.C,REF\u002A\u002A*%
X139019053Y8190000D03*
%TD*%
%TO.C,REF\u002A\u002A*%
X202027580Y3090000D03*
%TD*%
%TO.C,REF\u002A\u002A*%
X4700000Y32990000D03*
%TD*%
%TO.C,REF\u002A\u002A*%
X206927580Y32990000D03*
%TD*%
D15*
%TO.C,J2*%
X193887430Y14807430D03*
X193887430Y26237430D03*
D16*
X184997430Y14807430D03*
D17*
X187537430Y16077430D03*
X184997430Y17347430D03*
X187537430Y18617430D03*
X184997430Y19887430D03*
X187537430Y21157430D03*
X184997430Y22427430D03*
X184997430Y24967430D03*
X187537430Y26237430D03*
D18*
X197947430Y13887430D03*
X197947430Y16427430D03*
X197947430Y24607430D03*
X197947430Y27147430D03*
D14*
X190837430Y12767430D03*
X190837430Y28267430D03*
%TD*%
D12*
%TO.C,REF\u002A\u002A*%
X202027580Y690000D03*
%TD*%
%TO.C,REF\u002A\u002A*%
X40754764Y32790000D03*
%TD*%
%TO.C,REF\u002A\u002A*%
X168022316Y32789999D03*
%TD*%
%TO.C,REF\u002A\u002A*%
X73092694Y32790000D03*
%TD*%
%TO.C,REF\u002A\u002A*%
X168439150Y8190001D03*
%TD*%
%TO.C,REF\u002A\u002A*%
X201822600Y15905771D03*
%TD*%
%TO.C,REF\u002A\u002A*%
X700000Y7990000D03*
%TD*%
%TO.C,REF\u002A\u002A*%
X172190649Y32789999D03*
%TD*%
%TO.C,REF\u002A\u002A*%
X105430623Y8190000D03*
%TD*%
%TO.C,REF\u002A\u002A*%
X202027580Y37090000D03*
%TD*%
%TO.C,REF\u002A\u002A*%
X136101220Y32789999D03*
%TD*%
%TO.C,REF\u002A\u002A*%
X39087431Y8190000D03*
%TD*%
%TO.C,REF\u002A\u002A*%
X102929624Y32790000D03*
%TD*%
%TO.C,REF\u002A\u002A*%
X103346457Y32790000D03*
%TD*%
%TO.C,REF\u002A\u002A*%
X39504264Y32790000D03*
%TD*%
%TO.C,REF\u002A\u002A*%
X2700000Y7990000D03*
%TD*%
%TO.C,REF\u002A\u002A*%
X167188650Y8190001D03*
%TD*%
%TO.C,REF\u002A\u002A*%
X8200000Y17573834D03*
%TD*%
%TO.C,REF\u002A\u002A*%
X172190649Y8190001D03*
%TD*%
%TO.C,REF\u002A\u002A*%
X138602219Y32789999D03*
%TD*%
%TO.C,REF\u002A\u002A*%
X73509527Y8190000D03*
%TD*%
%TO.C,REF\u002A\u002A*%
X206527580Y7990000D03*
%TD*%
%TO.C,REF\u002A\u002A*%
X138185386Y32789999D03*
%TD*%
%TO.C,REF\u002A\u002A*%
X8200000Y18407500D03*
%TD*%
%TO.C,REF\u002A\u002A*%
X201819559Y18823604D03*
%TD*%
%TO.C,REF\u002A\u002A*%
X1900000Y7990000D03*
%TD*%
%TO.C,REF\u002A\u002A*%
X169689650Y8190001D03*
%TD*%
%TO.C,REF\u002A\u002A*%
X171773816Y8190001D03*
%TD*%
%TO.C,REF\u002A\u002A*%
X8200000Y22572500D03*
%TD*%
%TO.C,REF\u002A\u002A*%
X138602219Y8190000D03*
%TD*%
%TO.C,REF\u002A\u002A*%
X103763291Y32790000D03*
%TD*%
%TO.C,REF\u002A\u002A*%
X206127580Y32990000D03*
%TD*%
%TO.C,REF\u002A\u002A*%
X202027580Y40690000D03*
%TD*%
%TO.C,REF\u002A\u002A*%
X104180124Y32790000D03*
%TD*%
%TO.C,REF\u002A\u002A*%
X39504264Y8190000D03*
%TD*%
%TO.C,REF\u002A\u002A*%
X168022316Y8190001D03*
%TD*%
%TO.C,REF\u002A\u002A*%
X138185386Y8190000D03*
%TD*%
%TO.C,REF\u002A\u002A*%
X1500000Y7990000D03*
%TD*%
%TO.C,REF\u002A\u002A*%
X202027580Y1490000D03*
%TD*%
%TO.C,REF\u002A\u002A*%
X205327580Y7990000D03*
%TD*%
%TO.C,REF\u002A\u002A*%
X72259027Y32790000D03*
%TD*%
%TO.C,REF\u002A\u002A*%
X1500000Y32990000D03*
%TD*%
%TO.C,REF\u002A\u002A*%
X8000000Y37490000D03*
%TD*%
%TO.C,REF\u002A\u002A*%
X201821297Y17156271D03*
%TD*%
%TO.C,REF\u002A\u002A*%
X167605483Y32789999D03*
%TD*%
%TO.C,REF\u002A\u002A*%
X8200000Y23823000D03*
%TD*%
%TO.C,REF\u002A\u002A*%
X202027580Y1890000D03*
%TD*%
%TO.C,REF\u002A\u002A*%
X42838930Y32790000D03*
%TD*%
%TO.C,REF\u002A\u002A*%
X40754764Y8190000D03*
%TD*%
%TO.C,REF\u002A\u002A*%
X107097956Y32790000D03*
%TD*%
%TO.C,REF\u002A\u002A*%
X71008527Y32790000D03*
%TD*%
%TO.C,REF\u002A\u002A*%
X70591694Y32790000D03*
%TD*%
%TO.C,REF\u002A\u002A*%
X8200000Y14239167D03*
%TD*%
%TO.C,REF\u002A\u002A*%
X167188650Y32789999D03*
%TD*%
%TO.C,REF\u002A\u002A*%
X206927580Y7990000D03*
%TD*%
%TO.C,REF\u002A\u002A*%
X38670597Y32790000D03*
%TD*%
%TO.C,REF\u002A\u002A*%
X41171597Y32790000D03*
%TD*%
%TO.C,REF\u002A\u002A*%
X208527580Y32990000D03*
%TD*%
%TO.C,REF\u002A\u002A*%
X104596957Y32790000D03*
%TD*%
%TO.C,REF\u002A\u002A*%
X202027580Y290000D03*
%TD*%
%TO.C,REF\u002A\u002A*%
X4700000Y7990000D03*
%TD*%
D14*
%TO.C,REF\u002A\u002A*%
X190027580Y38490000D03*
%TD*%
D12*
%TO.C,REF\u002A\u002A*%
X8200000Y13822334D03*
%TD*%
%TO.C,REF\u002A\u002A*%
X71425361Y32790000D03*
%TD*%
%TO.C,REF\u002A\u002A*%
X8200000Y26323999D03*
%TD*%
%TO.C,REF\u002A\u002A*%
X106264289Y8190000D03*
%TD*%
%TO.C,REF\u002A\u002A*%
X201819994Y18406771D03*
%TD*%
%TO.C,REF\u002A\u002A*%
X202027580Y4290000D03*
%TD*%
%TO.C,REF\u002A\u002A*%
X104596957Y8190000D03*
%TD*%
%TO.C,REF\u002A\u002A*%
X201811309Y26740103D03*
%TD*%
%TO.C,REF\u002A\u002A*%
X170940149Y32789999D03*
%TD*%
%TO.C,REF\u002A\u002A*%
X70591694Y8190000D03*
%TD*%
%TO.C,REF\u002A\u002A*%
X201824772Y13821605D03*
%TD*%
%TO.C,REF\u002A\u002A*%
X73926360Y32790000D03*
%TD*%
%TO.C,REF\u002A\u002A*%
X139435886Y32789999D03*
%TD*%
%TO.C,REF\u002A\u002A*%
X103763291Y8190000D03*
%TD*%
%TO.C,REF\u002A\u002A*%
X8000000Y690000D03*
%TD*%
%TO.C,REF\u002A\u002A*%
X8000000Y1090000D03*
%TD*%
%TO.C,REF\u002A\u002A*%
X8200000Y25907166D03*
%TD*%
%TO.C,REF\u002A\u002A*%
X72675861Y8190000D03*
%TD*%
%TO.C,REF\u002A\u002A*%
X8000000Y4290000D03*
%TD*%
%TO.C,REF\u002A\u002A*%
X8000000Y40690000D03*
%TD*%
%TO.C,REF\u002A\u002A*%
X201823035Y15488938D03*
%TD*%
%TO.C,REF\u002A\u002A*%
X201815218Y22988604D03*
%TD*%
%TO.C,REF\u002A\u002A*%
X8000000Y38290000D03*
%TD*%
%TO.C,REF\u002A\u002A*%
X106681123Y32790000D03*
%TD*%
%TO.C,REF\u002A\u002A*%
X8200000Y18824334D03*
%TD*%
%TO.C,REF\u002A\u002A*%
X38253764Y32790000D03*
%TD*%
%TO.C,REF\u002A\u002A*%
X40337931Y32790000D03*
%TD*%
%TO.C,REF\u002A\u002A*%
X8200000Y16323334D03*
%TD*%
%TO.C,REF\u002A\u002A*%
X8200000Y24656666D03*
%TD*%
%TO.C,REF\u002A\u002A*%
X3900000Y32990000D03*
%TD*%
%TO.C,REF\u002A\u002A*%
X201811743Y26323270D03*
%TD*%
%TO.C,REF\u002A\u002A*%
X169272816Y8190001D03*
%TD*%
%TO.C,REF\u002A\u002A*%
X8200000Y15489667D03*
%TD*%
%TO.C,REF\u002A\u002A*%
X208127580Y7990000D03*
%TD*%
%TO.C,REF\u002A\u002A*%
X170523316Y32789999D03*
%TD*%
%TO.C,REF\u002A\u002A*%
X8200000Y22155666D03*
%TD*%
%TO.C,REF\u002A\u002A*%
X8200000Y25490333D03*
%TD*%
%TO.C,REF\u002A\u002A*%
X202027580Y37890000D03*
%TD*%
%TO.C,REF\u002A\u002A*%
X105847456Y32790000D03*
%TD*%
%TO.C,REF\u002A\u002A*%
X8000000Y37090000D03*
%TD*%
%TO.C,REF\u002A\u002A*%
X8000000Y38690000D03*
%TD*%
%TO.C,REF\u002A\u002A*%
X8000000Y36290000D03*
%TD*%
%TO.C,REF\u002A\u002A*%
X136518053Y8190000D03*
%TD*%
%TO.C,REF\u002A\u002A*%
X38253764Y8190000D03*
%TD*%
%TO.C,REF\u002A\u002A*%
X207727580Y7990000D03*
%TD*%
D19*
%TO.C,K1*%
X32736110Y20516030D03*
%TD*%
D12*
%TO.C,REF\u002A\u002A*%
X3100000Y32990000D03*
%TD*%
D14*
%TO.C,REF\u002A\u002A*%
X190027580Y2490000D03*
%TD*%
D12*
%TO.C,REF\u002A\u002A*%
X202027580Y36290000D03*
%TD*%
%TO.C,REF\u002A\u002A*%
X135267553Y32789999D03*
%TD*%
%TO.C,REF\u002A\u002A*%
X75176860Y32790000D03*
%TD*%
%TO.C,REF\u002A\u002A*%
X209327580Y7990000D03*
%TD*%
%TO.C,REF\u002A\u002A*%
X8200000Y26740833D03*
%TD*%
%TO.C,REF\u002A\u002A*%
X171356983Y32789999D03*
%TD*%
%TO.C,REF\u002A\u002A*%
X3500000Y7990000D03*
%TD*%
%TO.C,REF\u002A\u002A*%
X201812178Y25906436D03*
%TD*%
%TO.C,REF\u002A\u002A*%
X206127580Y7990000D03*
%TD*%
%TO.C,REF\u002A\u002A*%
X37836931Y32790000D03*
%TD*%
%TO.C,REF\u002A\u002A*%
X201821731Y16739438D03*
%TD*%
%TO.C,REF\u002A\u002A*%
X209727580Y7990000D03*
%TD*%
%TO.C,REF\u002A\u002A*%
X106681123Y8190000D03*
%TD*%
%TO.C,REF\u002A\u002A*%
X71425361Y8190000D03*
%TD*%
%TO.C,REF\u002A\u002A*%
X8000000Y1890000D03*
%TD*%
%TO.C,REF\u002A\u002A*%
X74343194Y8190000D03*
%TD*%
%TO.C,REF\u002A\u002A*%
X104180124Y8190000D03*
%TD*%
%TO.C,REF\u002A\u002A*%
X207327580Y7990000D03*
%TD*%
%TO.C,REF\u002A\u002A*%
X139435886Y8190000D03*
%TD*%
%TO.C,REF\u002A\u002A*%
X169272816Y32789999D03*
%TD*%
%TO.C,REF\u002A\u002A*%
X201813915Y24239103D03*
%TD*%
%TO.C,REF\u002A\u002A*%
X8000000Y39490000D03*
%TD*%
%TO.C,REF\u002A\u002A*%
X134850720Y32789999D03*
%TD*%
%TO.C,REF\u002A\u002A*%
X205727580Y7990000D03*
%TD*%
%TO.C,REF\u002A\u002A*%
X139019053Y32789999D03*
%TD*%
%TO.C,REF\u002A\u002A*%
X202027580Y40290000D03*
%TD*%
%TO.C,REF\u002A\u002A*%
X202027580Y37490000D03*
%TD*%
%TO.C,REF\u002A\u002A*%
X202027580Y3890000D03*
%TD*%
D20*
%TO.C,R26*%
X107347430Y22408870D03*
X107347430Y21508870D03*
%TD*%
D21*
%TO.C,C8*%
X62886110Y21107430D03*
X61786110Y21107430D03*
%TD*%
D22*
%TO.C,C79*%
X57936110Y22457430D03*
X57936110Y21357430D03*
%TD*%
D23*
%TO.C,L5*%
X64436110Y17457430D03*
X64436110Y15957430D03*
%TD*%
D24*
%TO.C,R5*%
X38786110Y18417430D03*
X39686110Y18417430D03*
%TD*%
D20*
%TO.C,R18*%
X26197430Y22357430D03*
X26197430Y23257430D03*
%TD*%
D24*
%TO.C,R49*%
X198297430Y28957430D03*
X199197430Y28957430D03*
%TD*%
D21*
%TO.C,C32*%
X58886110Y22207430D03*
X59986110Y22207430D03*
%TD*%
D22*
%TO.C,C42*%
X54847430Y9157430D03*
X54847430Y10257430D03*
%TD*%
%TO.C,C47*%
X183236110Y19857430D03*
X183236110Y20957430D03*
%TD*%
%TO.C,C49*%
X190036110Y18657430D03*
X190036110Y19757430D03*
%TD*%
D21*
%TO.C,C33*%
X58986110Y23307430D03*
X60086110Y23307430D03*
%TD*%
D25*
%TO.C,REF\u002A\u002A*%
X20000000Y2490000D03*
%TD*%
D21*
%TO.C,C2*%
X60986110Y19007430D03*
X62086110Y19007430D03*
%TD*%
%TO.C,C10*%
X62986110Y22207430D03*
X61886110Y22207430D03*
%TD*%
D20*
%TO.C,R21*%
X119997430Y18457430D03*
X119997430Y17557430D03*
%TD*%
D26*
%TO.C,REF11*%
X195847430Y30907430D03*
%TD*%
D27*
%TO.C,D4*%
X119997430Y19607430D03*
X119997430Y21207430D03*
%TD*%
D20*
%TO.C,R16*%
X138197430Y18407430D03*
X138197430Y17507430D03*
%TD*%
D22*
%TO.C,C53*%
X104947430Y22408870D03*
X104947430Y21308870D03*
%TD*%
D28*
%TO.C,SW2*%
X134322430Y22493870D03*
X134322430Y18343870D03*
X136472430Y22493870D03*
X136472430Y18343870D03*
%TD*%
D20*
%TO.C,R22*%
X53647430Y10057430D03*
X53647430Y9157430D03*
%TD*%
D21*
%TO.C,C26*%
X68186110Y21806030D03*
X67086110Y21806030D03*
%TD*%
D22*
%TO.C,C82*%
X63136110Y23396030D03*
X63136110Y24496030D03*
%TD*%
D24*
%TO.C,R53*%
X59686110Y18107430D03*
X60586110Y18107430D03*
%TD*%
D29*
%TO.C,F1*%
X185286110Y28007430D03*
X182386110Y28007430D03*
%TD*%
D24*
%TO.C,R27*%
X105597430Y15457430D03*
X106497430Y15457430D03*
%TD*%
D21*
%TO.C,C15*%
X39586110Y17217430D03*
X38486110Y17217430D03*
%TD*%
%TO.C,C3*%
X58886110Y21107430D03*
X59986110Y21107430D03*
%TD*%
D20*
%TO.C,R19*%
X52447430Y9157430D03*
X52447430Y10057430D03*
%TD*%
D21*
%TO.C,C27*%
X68886110Y22706030D03*
X67786110Y22706030D03*
%TD*%
D26*
%TO.C,REF12*%
X195847430Y10157430D03*
%TD*%
D27*
%TO.C,D3*%
X26197430Y21157430D03*
X26197430Y19557430D03*
%TD*%
D21*
%TO.C,C34*%
X60286110Y24407430D03*
X61386110Y24407430D03*
%TD*%
D25*
%TO.C,REF\u002A\u002A*%
X190027580Y38490000D03*
%TD*%
%TO.C,REF\u002A\u002A*%
X20000000Y38490000D03*
%TD*%
D21*
%TO.C,C28*%
X68086110Y23606030D03*
X66986110Y23606030D03*
%TD*%
D26*
%TO.C,REF13*%
X10097430Y10157430D03*
%TD*%
D21*
%TO.C,C83*%
X67986110Y19907430D03*
X66886110Y19907430D03*
%TD*%
%TO.C,C84*%
X65986110Y20907430D03*
X67086110Y20907430D03*
%TD*%
D24*
%TO.C,R48*%
X198297430Y18257430D03*
X199197430Y18257430D03*
%TD*%
D30*
%TO.C,K3*%
X176196110Y29107430D03*
D31*
X173656110Y29107430D03*
D30*
X171116110Y29107430D03*
X176196110Y25932430D03*
X171116110Y25932430D03*
D31*
X174672110Y24027430D03*
X172640110Y24027430D03*
D32*
X174291110Y27837430D03*
X173021110Y27837430D03*
X174291110Y26567430D03*
X173021110Y26567430D03*
X174291110Y25297430D03*
X173021110Y25297430D03*
%TD*%
D21*
%TO.C,C12*%
X62186110Y23407430D03*
X61086110Y23407430D03*
%TD*%
D22*
%TO.C,C77*%
X60936110Y22257430D03*
X60936110Y21157430D03*
%TD*%
D25*
%TO.C,REF\u002A\u002A*%
X190027580Y2490000D03*
%TD*%
D20*
%TO.C,R42*%
X106147430Y21508870D03*
X106147430Y22408870D03*
%TD*%
D22*
%TO.C,C1*%
X60036110Y19157430D03*
X60036110Y20257430D03*
%TD*%
D23*
%TO.C,L7*%
X65436110Y23956030D03*
X65436110Y22456030D03*
%TD*%
D21*
%TO.C,C6*%
X62086110Y20107430D03*
X60986110Y20107430D03*
%TD*%
D22*
%TO.C,C81*%
X64136110Y23556030D03*
X64136110Y22456030D03*
%TD*%
D21*
%TO.C,C18*%
X39586110Y16117430D03*
X38486110Y16117430D03*
%TD*%
D28*
%TO.C,SW3*%
X27922430Y22493870D03*
X27922430Y18343870D03*
X30072430Y22493870D03*
X30072430Y18343870D03*
%TD*%
%TO.C,SW1*%
X116122430Y22493870D03*
X116122430Y18343870D03*
X118272430Y22493870D03*
X118272430Y18343870D03*
%TD*%
D21*
%TO.C,C56*%
X105597430Y13057430D03*
X106697430Y13057430D03*
%TD*%
D22*
%TO.C,C69*%
X56836110Y21356030D03*
X56836110Y22456030D03*
%TD*%
D27*
%TO.C,D1*%
X138197430Y19607430D03*
X138197430Y21207430D03*
%TD*%
D24*
%TO.C,R43*%
X106497430Y14257430D03*
X105597430Y14257430D03*
%TD*%
M02*
