%TF.GenerationSoftware,KiCad,Pcbnew,7.0.2-0*%
%TF.CreationDate,2023-05-18T01:22:18+02:00*%
%TF.ProjectId,panel,70616e65-6c2e-46b6-9963-61645f706362,2.2.0*%
%TF.SameCoordinates,PX2918ffdPY6cadc66*%
%TF.FileFunction,Legend,Top*%
%TF.FilePolarity,Positive*%
%FSLAX46Y46*%
G04 Gerber Fmt 4.6, Leading zero omitted, Abs format (unit mm)*
G04 Created by KiCad (PCBNEW 7.0.2-0) date 2023-05-18 01:22:18*
%MOMM*%
%LPD*%
G01*
G04 APERTURE LIST*
%ADD10C,0.127000*%
%ADD11C,0.150000*%
%ADD12C,0.120000*%
%ADD13C,0.160000*%
G04 APERTURE END LIST*
D10*
%TO.C,C58*%
X23586110Y21536030D02*
X24086110Y21536030D01*
X24086110Y22476030D02*
X23586110Y22476030D01*
%TO.C,C66*%
X50566110Y28757430D02*
X50566110Y28257430D01*
X51506110Y28257430D02*
X51506110Y28757430D01*
%TO.C,L1*%
X51227010Y11322430D02*
X51227010Y13722430D01*
X55527010Y13722430D02*
X55527010Y11322430D01*
%TO.C,R33*%
X161986110Y19777430D02*
X162486110Y19777430D01*
X162486110Y20837430D02*
X161986110Y20837430D01*
%TO.C,C17*%
X164611673Y27208313D02*
X164965227Y27561867D01*
X164300547Y28226547D02*
X163946993Y27872993D01*
%TO.C,U17*%
X178061110Y17027430D02*
X178061110Y19427430D01*
X174761110Y19427430D02*
X174761110Y16477430D01*
%TO.C,C76*%
X54245227Y20862993D02*
X53891673Y21216547D01*
X53226993Y20551867D02*
X53580547Y20198313D01*
%TO.C,U5*%
X39672430Y11837430D02*
X37797430Y11837430D01*
X39097430Y14137430D02*
X37797430Y14137430D01*
%TO.C,C52*%
X14666110Y19656030D02*
X14666110Y19156030D01*
X15606110Y19156030D02*
X15606110Y19656030D01*
%TO.C,C68*%
X69719181Y20910653D02*
X69224207Y20415679D01*
X68375679Y21264207D02*
X68870653Y21759181D01*
%TO.C,C22*%
X66786110Y13837430D02*
X67286110Y13837430D01*
X67286110Y14777430D02*
X66786110Y14777430D01*
%TO.C,C71*%
X63936110Y14757430D02*
X63936110Y15457430D01*
X65136110Y15457430D02*
X65136110Y14757430D01*
%TO.C,L4*%
X73036110Y25807430D02*
X73036110Y31607430D01*
X79036110Y25807430D02*
X73036110Y25807430D01*
X73036110Y31607430D02*
X79036110Y31607430D01*
X79036110Y31607430D02*
X79036110Y25807430D01*
%TO.C,C21*%
X168665227Y27672993D02*
X168311673Y28026547D01*
X167646993Y27361867D02*
X168000547Y27008313D01*
%TO.C,C67*%
X17816110Y22406030D02*
X17816110Y24406030D01*
X14856110Y24406030D02*
X14856110Y22406030D01*
%TO.C,C13*%
X46206110Y18847430D02*
X46706110Y18847430D01*
X46706110Y19787430D02*
X46206110Y19787430D01*
%TO.C,Q1*%
X21616110Y27766030D02*
X20206110Y27766030D01*
X20206110Y25446030D02*
X22236110Y25446030D01*
X20206110Y25446030D02*
X20206110Y26106030D01*
X20206110Y27106030D02*
X20206110Y27766030D01*
%TO.C,C78*%
X54786110Y25077430D02*
X54286110Y25077430D01*
X54286110Y24137430D02*
X54786110Y24137430D01*
%TO.C,C72*%
X57375679Y15064207D02*
X57870653Y15559181D01*
X58719181Y14710653D02*
X58224207Y14215679D01*
%TO.C,R44*%
X15186110Y28177430D02*
X15686110Y28177430D01*
X15686110Y29237430D02*
X15186110Y29237430D01*
%TO.C,C14*%
X40917430Y12887430D02*
X40917430Y13387430D01*
X39977430Y13387430D02*
X39977430Y12887430D01*
%TO.C,C87*%
X78206110Y18156030D02*
X78206110Y18656030D01*
X77266110Y18656030D02*
X77266110Y18156030D01*
%TO.C,C38*%
X20086110Y12756030D02*
X20086110Y12256030D01*
X21026110Y12256030D02*
X21026110Y12756030D01*
%TO.C,C23*%
X70906110Y16807430D02*
X70906110Y17307430D01*
X69966110Y17307430D02*
X69966110Y16807430D01*
%TO.C,R37*%
X161986110Y13477430D02*
X162486110Y13477430D01*
X162486110Y14537430D02*
X161986110Y14537430D01*
%TO.C,R3*%
X85306110Y23757430D02*
X85306110Y23257430D01*
X86366110Y23257430D02*
X86366110Y23757430D01*
%TO.C,R31*%
X176581110Y15137430D02*
X177081110Y15137430D01*
X177081110Y16197430D02*
X176581110Y16197430D01*
%TO.C,R8*%
X46256110Y12422430D02*
X46256110Y11922430D01*
X47316110Y11922430D02*
X47316110Y12422430D01*
%TO.C,C20*%
X87526110Y22757430D02*
X87526110Y23257430D01*
X86586110Y23257430D02*
X86586110Y22757430D01*
%TO.C,L6*%
X59736110Y13757430D02*
X62136110Y13757430D01*
X62136110Y9457430D02*
X59736110Y9457430D01*
%TO.C,C4*%
X56977010Y11967430D02*
X56977010Y11267430D01*
X55777010Y11267430D02*
X55777010Y11967430D01*
%TO.C,C89*%
X78436110Y25677430D02*
X77936110Y25677430D01*
X77936110Y24737430D02*
X78436110Y24737430D01*
%TO.C,C35*%
X85416110Y28607430D02*
X85416110Y30607430D01*
X82456110Y30607430D02*
X82456110Y28607430D01*
%TO.C,C75*%
X62645227Y29262993D02*
X62291673Y29616547D01*
X61626993Y28951867D02*
X61980547Y28598313D01*
%TO.C,C59*%
X25316110Y26506030D02*
X25816110Y26506030D01*
X25816110Y27446030D02*
X25316110Y27446030D01*
%TO.C,C31*%
X27086110Y18876030D02*
X26586110Y18876030D01*
X26586110Y17936030D02*
X27086110Y17936030D01*
%TO.C,L10*%
X41617430Y9387430D02*
X41617430Y10387430D01*
X42977430Y10387430D02*
X42977430Y9387430D01*
%TO.C,C19*%
X30336110Y23356030D02*
X30336110Y22656030D01*
X29136110Y22656030D02*
X29136110Y23356030D01*
%TO.C,R7*%
X45276110Y14272430D02*
X45276110Y13772430D01*
X46336110Y13772430D02*
X46336110Y14272430D01*
%TO.C,L3*%
X19836110Y20886030D02*
X20836110Y20886030D01*
X20836110Y19526030D02*
X19836110Y19526030D01*
%TO.C,R15*%
X19886110Y14676030D02*
X20386110Y14676030D01*
X20386110Y15736030D02*
X19886110Y15736030D01*
%TO.C,C90*%
X82316110Y28607430D02*
X82316110Y30607430D01*
X79356110Y30607430D02*
X79356110Y28607430D01*
%TO.C,C60*%
X53706110Y28257430D02*
X53706110Y28757430D01*
X52766110Y28757430D02*
X52766110Y28257430D01*
%TO.C,R11*%
X168466110Y11856030D02*
X168466110Y12356030D01*
X167406110Y12356030D02*
X167406110Y11856030D01*
%TO.C,R23*%
X15186110Y26977430D02*
X15686110Y26977430D01*
X15686110Y28037430D02*
X15186110Y28037430D01*
%TO.C,C5*%
X27222430Y20112430D02*
X27922430Y20112430D01*
X27922430Y18912430D02*
X27222430Y18912430D01*
%TO.C,C45*%
X169336110Y13387430D02*
X169836110Y13387430D01*
X169836110Y14327430D02*
X169336110Y14327430D01*
D11*
%TO.C,U2*%
X60936110Y14574733D02*
X68271183Y21909806D01*
X61115715Y14754338D02*
X61205518Y14844140D01*
X61205518Y14844140D02*
X60666702Y14844140D01*
X61295320Y14933943D02*
X60576900Y14933943D01*
X68271183Y21909806D02*
X60936110Y29244879D01*
X60756505Y14754338D02*
X61115715Y14754338D01*
X60576900Y14933943D02*
X60756505Y14754338D01*
X53601037Y21909806D02*
X60936110Y14574733D01*
X60936110Y29244879D02*
X53601037Y21909806D01*
X61089006Y14129255D02*
G75*
G03*
X61089006Y14129255I-223607J0D01*
G01*
D10*
%TO.C,C74*%
X53445227Y20062993D02*
X53091673Y20416547D01*
X52426993Y19751867D02*
X52780547Y19398313D01*
%TO.C,R6*%
X43047430Y12007430D02*
X43547430Y12007430D01*
X43547430Y13067430D02*
X43047430Y13067430D01*
%TO.C,C37*%
X19266110Y17056030D02*
X19266110Y16556030D01*
X20206110Y16556030D02*
X20206110Y17056030D01*
%TO.C,U3*%
X24736110Y21316030D02*
X22936110Y21316030D01*
X22936110Y18096030D02*
X25386110Y18096030D01*
%TO.C,R13*%
X16786110Y14136030D02*
X16286110Y14136030D01*
X16286110Y13076030D02*
X16786110Y13076030D01*
%TO.C,R38*%
X164666110Y11857430D02*
X164666110Y12357430D01*
X163606110Y12357430D02*
X163606110Y11857430D01*
D12*
%TO.C,J2*%
X184497430Y11567430D02*
X185497430Y11567430D01*
X185497430Y11567430D02*
X184997430Y12067430D01*
X184997430Y12067430D02*
X184497430Y11567430D01*
X183077430Y12267430D02*
X189207430Y12267430D01*
X183077430Y12267430D02*
X183077430Y28767430D01*
X192507430Y12267430D02*
X204907430Y12267430D01*
X204907430Y12267430D02*
X204907430Y28767430D01*
X183077430Y28767430D02*
X189207430Y28767430D01*
X192507430Y28767430D02*
X204907430Y28767430D01*
D10*
%TO.C,R50*%
X76806110Y20956030D02*
X76806110Y20456030D01*
X77866110Y20456030D02*
X77866110Y20956030D01*
%TO.C,XO1*%
X166188623Y28459080D02*
X169087760Y25559943D01*
X165234028Y27504486D02*
X166188623Y28459080D01*
X163784460Y26054917D02*
X164526922Y26797379D01*
X163784460Y26054917D02*
X164526922Y25312455D01*
X165234028Y24605348D02*
X166683597Y23155780D01*
X166683597Y23155780D02*
X169087760Y25559943D01*
%TO.C,C43*%
X162486110Y16977430D02*
X161986110Y16977430D01*
X161986110Y16037430D02*
X162486110Y16037430D01*
D12*
%TO.C,U8*%
X57146110Y27897430D02*
X56971110Y27897430D01*
X53926110Y28572430D02*
X53926110Y27897430D01*
X57146110Y28572430D02*
X57146110Y27897430D01*
X53926110Y30442430D02*
X53926110Y31117430D01*
X57146110Y30442430D02*
X57146110Y31117430D01*
X53926110Y31117430D02*
X54101110Y31117430D01*
X57146110Y31117430D02*
X56971110Y31117430D01*
D10*
%TO.C,Q2*%
X16576110Y28186030D02*
X16576110Y26776030D01*
X18896110Y26776030D02*
X18896110Y28806030D01*
X18896110Y26776030D02*
X18236110Y26776030D01*
X17236110Y26776030D02*
X16576110Y26776030D01*
%TO.C,C48*%
X18816110Y17706030D02*
X18816110Y19706030D01*
X15856110Y19706030D02*
X15856110Y17706030D01*
%TO.C,C24*%
X46466110Y14372430D02*
X46466110Y13872430D01*
X47406110Y13872430D02*
X47406110Y14372430D01*
%TO.C,R12*%
X16786110Y12935990D02*
X16286110Y12935990D01*
X16286110Y11875990D02*
X16786110Y11875990D01*
%TO.C,R52*%
X57734100Y15855887D02*
X58087653Y16209440D01*
X57338120Y16958973D02*
X56984567Y16605420D01*
%TO.C,C65*%
X21236110Y24586030D02*
X19236110Y24586030D01*
X19236110Y21626030D02*
X21236110Y21626030D01*
%TO.C,C51*%
X29006110Y22956030D02*
X29006110Y23456030D01*
X28066110Y23456030D02*
X28066110Y22956030D01*
%TO.C,R17*%
X169706110Y19456030D02*
X169706110Y18956030D01*
X170766110Y18956030D02*
X170766110Y19456030D01*
%TO.C,R28*%
X176581110Y13937430D02*
X177081110Y13937430D01*
X177081110Y14997430D02*
X176581110Y14997430D01*
%TO.C,C44*%
X170906110Y21407430D02*
X170906110Y21907430D01*
X169966110Y21907430D02*
X169966110Y21407430D01*
%TO.C,C70*%
X52386110Y29537430D02*
X52886110Y29537430D01*
X52886110Y30477430D02*
X52386110Y30477430D01*
%TO.C,L2*%
X169816110Y21906030D02*
X169816110Y20906030D01*
X168456110Y20906030D02*
X168456110Y21906030D01*
%TO.C,U9*%
X27036110Y26316030D02*
X25236110Y26316030D01*
X25236110Y23096030D02*
X27686110Y23096030D01*
%TO.C,C39*%
X166206110Y20757430D02*
X166206110Y21257430D01*
X165266110Y21257430D02*
X165266110Y20757430D01*
%TO.C,R10*%
X79266110Y19156030D02*
X79266110Y19656030D01*
X78206110Y19656030D02*
X78206110Y19156030D01*
%TO.C,R30*%
X176581110Y20277430D02*
X177081110Y20277430D01*
X177081110Y21337430D02*
X176581110Y21337430D01*
%TO.C,R35*%
X161986110Y21077430D02*
X162486110Y21077430D01*
X162486110Y22137430D02*
X161986110Y22137430D01*
%TO.C,C30*%
X47486110Y15572430D02*
X47486110Y16272430D01*
X48686110Y16272430D02*
X48686110Y15572430D01*
%TO.C,C46*%
X169936110Y12207430D02*
X169936110Y11507430D01*
X168736110Y11507430D02*
X168736110Y12207430D01*
%TO.C,C61*%
X44067430Y10787430D02*
X44067430Y11287430D01*
X43127430Y11287430D02*
X43127430Y10787430D01*
%TO.C,R24*%
X19106110Y29156030D02*
X19106110Y28656030D01*
X20166110Y28656030D02*
X20166110Y29156030D01*
%TO.C,C63*%
X20686110Y18006030D02*
X19986110Y18006030D01*
X19986110Y19206030D02*
X20686110Y19206030D01*
%TO.C,C29*%
X25986110Y12175990D02*
X25486110Y12175990D01*
X25486110Y11235990D02*
X25986110Y11235990D01*
%TO.C,R4*%
X56438120Y17858973D02*
X56084567Y17505420D01*
X56834100Y16755887D02*
X57187653Y17109440D01*
%TO.C,R20*%
X22706110Y27156030D02*
X22706110Y26656030D01*
X23766110Y26656030D02*
X23766110Y27156030D01*
%TO.C,Q3*%
X17016110Y32067430D02*
X15606110Y32067430D01*
X15606110Y29747430D02*
X17636110Y29747430D01*
X15606110Y29747430D02*
X15606110Y30407430D01*
X15606110Y31407430D02*
X15606110Y32067430D01*
%TO.C,R40*%
X166156110Y12357430D02*
X166156110Y11857430D01*
X167216110Y11857430D02*
X167216110Y12357430D01*
%TO.C,R9*%
X42477430Y11988830D02*
X42477430Y12488830D01*
X41417430Y12488830D02*
X41417430Y11988830D01*
%TO.C,C50*%
X77806110Y15056030D02*
X77806110Y15556030D01*
X76866110Y15556030D02*
X76866110Y15056030D01*
%TO.C,R47*%
X167206110Y21057430D02*
X167206110Y20557430D01*
X168266110Y20557430D02*
X168266110Y21057430D01*
%TO.C,U6*%
X27331110Y12381030D02*
X27331110Y12506030D01*
X27331110Y12381030D02*
X22681110Y12381030D01*
X27331110Y12506030D02*
X28681110Y12506030D01*
X27331110Y17631030D02*
X22681110Y17631030D01*
%TO.C,C36*%
X62380547Y15616547D02*
X62026993Y15262993D01*
X62691673Y14598313D02*
X63045227Y14951867D01*
%TO.C,C55*%
X175081110Y21277430D02*
X174581110Y21277430D01*
X174581110Y20337430D02*
X175081110Y20337430D01*
%TO.C,R36*%
X161986110Y12177430D02*
X162486110Y12177430D01*
X162486110Y13237430D02*
X161986110Y13237430D01*
%TO.C,R1*%
X162486110Y15837430D02*
X161986110Y15837430D01*
X161986110Y14777430D02*
X162486110Y14777430D01*
%TO.C,L9*%
X34647430Y11063830D02*
X33647430Y11063830D01*
X33647430Y12423830D02*
X34647430Y12423830D01*
%TO.C,R2*%
X57897430Y28457430D02*
X58397430Y28457430D01*
X58397430Y29517430D02*
X57897430Y29517430D01*
%TO.C,C41*%
X164066110Y21457430D02*
X164066110Y20957430D01*
X165006110Y20957430D02*
X165006110Y21457430D01*
%TO.C,U4*%
X85036110Y22607430D02*
X80736110Y22607430D01*
X83936110Y27007430D02*
X80736110Y27007430D01*
%TO.C,C62*%
X51666110Y28757430D02*
X51666110Y28257430D01*
X52606110Y28257430D02*
X52606110Y28757430D01*
%TO.C,C16*%
X43546110Y14437430D02*
X44246110Y14437430D01*
X44246110Y13237430D02*
X43546110Y13237430D01*
D12*
%TO.C,U10*%
X50296110Y25496030D02*
X50146110Y25496030D01*
X47576110Y26146030D02*
X47576110Y25496030D01*
X50296110Y26146030D02*
X50296110Y25496030D01*
X47576110Y28066030D02*
X47576110Y28716030D01*
X50296110Y28066030D02*
X50296110Y28716030D01*
X47576110Y28716030D02*
X47726110Y28716030D01*
X50296110Y28716030D02*
X50146110Y28716030D01*
D10*
%TO.C,C64*%
X22836110Y24256030D02*
X22836110Y24956030D01*
X24036110Y24956030D02*
X24036110Y24256030D01*
%TO.C,C9*%
X35572430Y10837430D02*
X35572430Y11537430D01*
X36772430Y11537430D02*
X36772430Y10837430D01*
%TO.C,C11*%
X48886110Y15572430D02*
X48886110Y16272430D01*
X50086110Y16272430D02*
X50086110Y15572430D01*
D11*
%TO.C,U14*%
X169086110Y19257430D02*
X169086110Y18732430D01*
X164786110Y19257430D02*
X165311110Y19257430D01*
X164786110Y19257430D02*
X164786110Y18732430D01*
X169086110Y14957430D02*
X169086110Y15482430D01*
X169086110Y14957430D02*
X168561110Y14957430D01*
X164786110Y14957430D02*
X164786110Y15482430D01*
X164786110Y14957430D02*
X165311110Y14957430D01*
D10*
%TO.C,R34*%
X161986110Y18477430D02*
X162486110Y18477430D01*
X162486110Y19537430D02*
X161986110Y19537430D01*
%TO.C,C88*%
X77936110Y23647430D02*
X78436110Y23647430D01*
X78436110Y24587430D02*
X77936110Y24587430D01*
%TO.C,R25*%
X15186110Y25777430D02*
X15686110Y25777430D01*
X15686110Y26837430D02*
X15186110Y26837430D01*
%TO.C,R41*%
X18106110Y30957430D02*
X18106110Y30457430D01*
X19166110Y30457430D02*
X19166110Y30957430D01*
%TO.C,U16*%
X178061110Y10707430D02*
X178061110Y13107430D01*
X174761110Y13107430D02*
X174761110Y10157430D01*
D12*
%TO.C,U7*%
X76661110Y20756030D02*
X76401110Y20756030D01*
X76401110Y20756030D02*
X76401110Y22406030D01*
X71211110Y20756030D02*
X71471110Y20756030D01*
X76661110Y18006030D02*
X76661110Y20756030D01*
X76661110Y18006030D02*
X76661110Y15256030D01*
X71211110Y18006030D02*
X71211110Y20756030D01*
X71211110Y18006030D02*
X71211110Y15256030D01*
X76661110Y15256030D02*
X76401110Y15256030D01*
X71211110Y15256030D02*
X71471110Y15256030D01*
D10*
%TO.C,C25*%
X38147430Y8557430D02*
X40147430Y8557430D01*
X40147430Y11517430D02*
X38147430Y11517430D01*
%TO.C,XO2*%
X65586110Y18507430D02*
X69686110Y18507430D01*
X65586110Y17157430D02*
X65586110Y18507430D01*
X65586110Y15107430D02*
X65586110Y16157430D01*
X65586110Y15107430D02*
X66636110Y15107430D01*
X67636110Y15107430D02*
X69686110Y15107430D01*
X69686110Y15107430D02*
X69686110Y18507430D01*
%TO.C,U1*%
X47626110Y13322430D02*
X47626110Y11522430D01*
X50846110Y11522430D02*
X50846110Y13972430D01*
D13*
%TO.C,K1*%
X44461110Y14816030D02*
X40961110Y14816030D01*
X44461110Y14816030D02*
X44461110Y15036030D01*
X44461110Y15036030D02*
X44986110Y15036030D01*
X44986110Y15036030D02*
X44986110Y25996030D01*
X44461110Y25996030D02*
X44461110Y26216030D01*
X44986110Y25996030D02*
X44461110Y25996030D01*
X44461110Y26216030D02*
X40961110Y26216030D01*
D10*
%TO.C,L8*%
X26167430Y21037430D02*
X26167430Y22037430D01*
X27527430Y22037430D02*
X27527430Y21037430D01*
%TO.C,C80*%
X54786110Y26177430D02*
X54286110Y26177430D01*
X54286110Y25237430D02*
X54786110Y25237430D01*
%TO.C,C54*%
X174981110Y14977430D02*
X174481110Y14977430D01*
X174481110Y14037430D02*
X174981110Y14037430D01*
%TO.C,C7*%
X86536110Y26157430D02*
X86536110Y25457430D01*
X85336110Y25457430D02*
X85336110Y26157430D01*
%TO.C,R29*%
X176576110Y8797430D02*
X177076110Y8797430D01*
X177076110Y9857430D02*
X176576110Y9857430D01*
%TO.C,R14*%
X16786110Y15335990D02*
X16286110Y15335990D01*
X16286110Y14275990D02*
X16786110Y14275990D01*
%TO.C,R32*%
X161986110Y17177430D02*
X162486110Y17177430D01*
X162486110Y18237430D02*
X161986110Y18237430D01*
%TO.C,R39*%
X165966110Y11857430D02*
X165966110Y12357430D01*
X164906110Y12357430D02*
X164906110Y11857430D01*
%TO.C,D2*%
X50427010Y17122430D02*
X50427010Y15122430D01*
X50427010Y17122430D02*
X54427010Y17122430D01*
X50427010Y15122430D02*
X54427010Y15122430D01*
D12*
%TO.C,K2*%
X12396110Y30242430D02*
X12396110Y29292430D01*
X11946110Y30242430D02*
X12396110Y30242430D01*
X8426110Y30242430D02*
X7976110Y30242430D01*
X7976110Y30242430D02*
X7976110Y13272430D01*
X12396110Y29292430D02*
X13886110Y29292430D01*
X12396110Y13272430D02*
X12396110Y14222430D01*
X11946110Y13272430D02*
X12396110Y13272430D01*
X7976110Y13272430D02*
X8426110Y13272430D01*
D10*
%TO.C,C73*%
X63445227Y30062993D02*
X63091673Y30416547D01*
X62426993Y29751867D02*
X62780547Y29398313D01*
%TD*%
M02*
